<?xml version="1.0" encoding="utf-8"?>
<!-- Generator: Adobe Illustrator 16.0.0, SVG Export Plug-In . SVG Version: 6.00 Build 0)  -->
<!DOCTYPE svg PUBLIC "-//W3C//DTD SVG 1.1//EN" "http://www.w3.org/Graphics/SVG/1.1/DTD/svg11.dtd">
<svg version="1.1" xmlns="http://www.w3.org/2000/svg" xmlns:xlink="http://www.w3.org/1999/xlink" x="0px" y="0px"
	 width="128.305px" height="53.278px" viewBox="0 0 128.305 53.278" enable-background="new 0 0 128.305 53.278"
	 xml:space="preserve">
<g id="Layer_1">
	<rect x="54.358" y="22.15" fill="#010101" stroke="#010101" stroke-miterlimit="10" width="6.924" height="14.391"/>
	<path fill="#010101" stroke="#010101" stroke-miterlimit="10" d="M57.667,33.665c0,0-4.027,3.47-4.677,4.082
		c-3.147,2.963-2.041,11.66-7.286,11.983C32.448,50.548,0,27.854,0,27.854S33.528,6.406,46.812,7.903
		c5.325,0.601,3.925,10.163,6.755,13.177c0.534,0.569,4.301,4.994,4.301,4.994l-0.432,3.451c0,0-4.355-4.938-5.768-6.182
		c-3.758-3.316-0.464-9.462-4.66-9.973C35.296,11.944,3.903,28.223,3.903,28.223s30.562,17.583,42.269,16.712
		c4.154-0.309,0.958-5.898,4.949-9.076c1.604-1.278,6.287-5.269,6.287-5.269L57.667,33.665z"/>
	<path fill="#010101" d="M128.305,29.346c0,3.067-2.314,5.553-5.17,5.553H63.99c-2.855,0-5.17-2.486-5.17-5.553l0,0
		c0-3.067,2.314-5.553,5.17-5.553h59.145C125.99,23.792,128.305,26.279,128.305,29.346L128.305,29.346z"/>
</g>
<g id="Layer_2" display="none">
	<path display="inline" fill="#010101" d="M45.627,90.535c3.097-0.92,5.587-1.004,7.681-0.674
		c7.268,1.143,14.678,19.116,22.023,19.509c3.149,0.167,6.731-6.884,7.782-9.86c0.417-1.183,0.604-4.07,0.604-4.07
		s-4.63,5.445-6.773,5.289c-6.287-0.463-13.753-14.441-19.988-15.368c-2.67-0.399-6.472,0.213-10.905,1.787
		c-5.114,1.813-13.165,6.344-18.487,9.739c-2.762,1.762-5.659-0.309-5.659-0.309l-2.332,3.703c0,0,6.702,0.508,9.195-0.936
		C34.036,96.295,42.701,91.406,45.627,90.535z"/>
	
		<rect x="15.14" y="87.508" display="inline" fill="#010101" stroke="#010101" stroke-miterlimit="10" width="6.924" height="14.391"/>
	<path display="inline" fill="#010101" d="M44.647,101.694c2.945,1.325,5.402,1.74,7.522,1.694
		c7.354-0.16,17.1-16.986,24.431-16.393c3.146,0.254,5.753,7.721,6.398,10.812c0.255,1.225,0.055,4.114,0.055,4.114
		s-3.863-6.017-6.008-6.147c-6.291-0.383-15.559,12.473-21.863,12.561c-2.698,0.037-6.385-1.076-10.567-3.229
		c-4.826-2.48-12.201-8.044-17.021-12.121c-2.5-2.114-5.811,0.215-5.811,0.215l-1.817-3.98c0,0,6.872-0.273,9.149,1.491
		C33.928,94.438,41.863,100.439,44.647,101.694z"/>
	<path display="inline" fill="#010101" stroke="#010101" stroke-miterlimit="10" d="M18.753,99.584c0,0-4.184,3.604-4.858,4.239
		c-3.269,3.078-2.12,12.109-7.567,12.445C-7.439,117.118-41.14,93.55-41.14,93.55S-6.317,71.274,7.479,72.829
		c5.53,0.624,4.075,10.555,7.015,13.686c0.555,0.59,4.466,5.186,4.466,5.186l-0.448,3.585c0,0-4.524-5.128-5.99-6.421
		c-3.903-3.444-0.482-9.827-4.84-10.357c-12.165-1.482-44.769,15.425-44.769,15.425s31.741,18.261,43.9,17.357
		c4.314-0.321,0.994-6.126,5.139-9.427c1.667-1.327,6.53-5.472,6.53-5.472L18.753,99.584z"/>
</g>
</svg>
