<?xml version="1.0" encoding="utf-8"?>
<!-- Generator: Adobe Illustrator 16.0.0, SVG Export Plug-In . SVG Version: 6.00 Build 0)  -->
<!DOCTYPE svg PUBLIC "-//W3C//DTD SVG 1.1//EN" "http://www.w3.org/Graphics/SVG/1.1/DTD/svg11.dtd">
<svg version="1.1" xmlns="http://www.w3.org/2000/svg" xmlns:xlink="http://www.w3.org/1999/xlink" x="0px" y="0px"
	 width="2275.484px" height="1224px" viewBox="0 0 2275.484 1224" enable-background="new 0 0 2275.484 1224" xml:space="preserve">
<g id="Layer_2" display="none">
	<rect y="1.001" display="inline" fill="#00AEEF" width="1800" height="1222.999"/>
</g>
<g id="Layer_1">
	<path opacity="0.2" fill="#020202" stroke="#020202" stroke-miterlimit="10" d="M1841.018,1.001
		c34.627,55.79,172.781,284.563,191.125,411.962h68.459C2083.154,294.944,1947.49,96.677,1877.69,1.001H1841.018z"/>
	<path opacity="0.2" fill="#020202" stroke="#020202" stroke-miterlimit="10" d="M1796.295,1.001
		c-68.172,95.784-200.756,294.356-217.546,411.962h60.104c17.372-127.057,152.714-356.128,186.623-411.962H1796.295z"/>
	<path opacity="0.2" fill="#020202" stroke="#020202" stroke-miterlimit="10" d="M170.668,1.001
		C130.754,56.122,54.389,165.925,0,270.841v142.123h2.987C33.82,263.618,194.039,7.283,194.039,7.283
		s163.516,256.015,195.577,405.681h68.259C428.182,284.688,285.388,82.729,224.721,1.001H170.668z"/>
	<path opacity="0.2" fill="#020202" stroke="#020202" stroke-miterlimit="10" d="M752.202,412.963
		c47.304-138.415,161.789-321.58,161.789-321.58s116.889,183.01,165.519,321.58h61.436
		c-61.021-152.96-223.876-360.897-223.876-360.897S758.053,260.254,698.573,412.963H752.202L752.202,412.963z"/>
	<path opacity="0.2" fill="#020202" stroke="#020202" stroke-miterlimit="10" d="M1388.846,415.241
		c42.925-149.292,146.812-346.852,146.812-346.852s106.068,197.393,150.196,346.852h55.749
		c-55.371-164.981-203.151-389.258-203.151-389.258s-144.299,224.547-198.272,389.258H1388.846L1388.846,415.241z"/>
	<path opacity="0.2" fill="#020202" stroke="#020202" stroke-miterlimit="10" d="M1005.398,412.963
		c43.52-101.13,148.844-234.957,148.844-234.957s107.538,133.713,152.274,234.957h56.521
		c-56.138-111.757-205.963-263.682-205.963-263.682S1010.781,301.39,956.062,412.963H1005.398L1005.398,412.963z"/>
	<path opacity="0.2" fill="#020202" stroke="#020202" stroke-miterlimit="10" d="M591.639,1.001
		c61.84,105.386,162.174,289.139,187.608,411.962h82.749C835.391,293.61,726.104,120.116,643.389,1.001H591.639z"/>
	<path opacity="0.2" fill="#020202" stroke="#020202" stroke-miterlimit="10" d="M450.497,1.001
		c-80.792,119.238-187.574,292.918-213.38,411.962h72.587c24.443-122.585,122.645-306.5,183.185-411.962H450.497z"/>
	<path opacity="0.2" fill="#020202" stroke="#020202" stroke-miterlimit="10" d="M2269.17,1.001h-50.711
		c15.14,25.794,32.601,56.312,50.711,89.491V1.001z"/>
	<path opacity="0.2" fill="#020202" stroke="#020202" stroke-miterlimit="10" d="M2088.076,1.001
		c-61.079,119.247-141.907,293.135-161.429,412.288h54.858c18.492-122.71,92.84-306.878,138.581-412.288H2088.076z"/>
	<g>
		<path opacity="0.4" fill="#010101" d="M2026.901,970.164c7.327-1.196,13.861-1.129,19.748-0.45
			c20.467,2.354,58.045,19.525,77.959,20.711c8.554,0.516,13.613-4.181,13.457-8.745c-0.073-1.812-2.441-6.916-2.441-6.916
			s-9.465,2.691-15.332,2.282c-17.159-1.211-50.919-12.146-68.422-14.086c-7.487-0.834-16.991-0.172-27.211,1.945
			c-11.801,2.428-28.686,8.887-39.457,13.774c-5.604,2.537-15.354-0.923-15.354-0.923l-2.527,5.603c0,0,18.347,1.32,23.522-0.746
			C2001.81,978.255,2020.003,971.303,2026.901,970.164z"/>
		<path opacity="0.4" fill="#010101" d="M2170.06,973.104c7.328-1.196,13.861-1.128,19.748-0.449
			c20.467,2.354,58.045,19.525,77.959,20.711c8.555,0.515,13.613-4.182,13.457-8.746c-0.072-1.811-2.441-6.916-2.441-6.916
			s-9.465,2.691-15.331,2.283c-17.159-1.211-50.92-12.146-68.423-14.087c-7.486-0.835-16.991-0.172-27.212,1.945
			c-11.8,2.428-28.683,8.887-39.456,13.774c-5.604,2.537-15.354-0.923-15.354-0.923l-2.527,5.603c0,0,18.347,1.322,23.522-0.744
			C2144.968,981.196,2163.161,974.244,2170.06,973.104z"/>
		<path opacity="0.4" fill="#010101" d="M1838.913,971.419c7.328-1.197,13.861-1.13,19.748-0.45
			c20.468,2.354,58.045,19.524,77.959,20.71c8.555,0.515,13.613-4.182,13.457-8.746c-0.072-1.81-2.441-6.915-2.441-6.915
			s-9.464,2.691-15.332,2.282c-17.158-1.211-50.918-12.145-68.421-14.087c-7.487-0.834-16.991-0.171-27.212,1.945
			c-11.801,2.428-28.684,8.888-39.456,13.775c-5.604,2.536-15.354-0.923-15.354-0.923l-2.527,5.603c0,0,18.346,1.321,23.521-0.745
			C1813.821,979.509,1832.015,972.557,1838.913,971.419z"/>
		<path opacity="0.4" fill="#010101" d="M1846.556,976.018c0,0-9.464,2.691-15.331,2.282c-17.159-1.211-50.919-12.145-68.422-14.087
			c-7.487-0.834-16.991-0.171-27.212,1.945c-11.17,2.298-26.889,8.207-37.674,12.979v5.539c1.585-0.18,2.934-0.438,3.858-0.808
			c10.966-4.359,29.159-11.312,36.058-12.449c7.328-1.197,13.862-1.13,19.749-0.45c20.468,2.354,58.045,19.524,77.958,20.71
			c8.555,0.515,13.613-4.182,13.457-8.746C1848.924,981.123,1846.556,976.018,1846.556,976.018z"/>
		<path opacity="0.3" fill="#010101" d="M2083.332,1069.685c7.713-1.671,14.589-1.577,20.784-0.629
			c21.541,3.289,61.089,27.274,82.047,28.93c9.003,0.72,14.328-5.84,14.162-12.216c-0.076-2.53-2.569-9.661-2.569-9.661
			s-9.96,3.76-16.134,3.189c-18.061-1.692-53.591-16.966-72.011-19.677c-7.88-1.166-17.884-0.24-28.64,2.717
			c-12.418,3.391-30.188,12.413-41.525,19.24c-5.897,3.544-16.16-1.288-16.16-1.288l-2.659,7.825c0,0,19.309,1.847,24.756-1.04
			C2056.925,1080.985,2076.073,1071.274,2083.332,1069.685z"/>
		<path opacity="0.3" fill="#010101" d="M1876.931,1069.685c7.711-1.672,14.588-1.578,20.783-0.629
			c21.541,3.288,61.088,27.273,82.047,28.929c9.002,0.72,14.328-5.84,14.162-12.216c-0.076-2.528-2.57-9.66-2.57-9.66
			s-9.959,3.76-16.135,3.188c-18.058-1.691-53.589-16.965-72.01-19.677c-7.879-1.165-17.882-0.239-28.639,2.717
			c-12.419,3.391-30.188,12.414-41.525,19.241c-5.896,3.543-16.16-1.288-16.16-1.288l-2.658,7.825c0,0,19.307,1.846,24.756-1.041
			C1850.521,1080.985,1869.67,1071.274,1876.931,1069.685z"/>
		<path opacity="0.3" fill="#010101" d="M1822.966,1076.108c0,0-9.959,3.76-16.135,3.188c-18.059-1.691-53.59-16.965-72.01-19.677
			c-7.881-1.165-17.883-0.239-28.639,2.717c-11.757,3.21-28.299,11.464-39.649,18.128v7.738c1.668-0.251,3.087-0.613,4.061-1.129
			c11.54-6.089,30.688-15.8,37.948-17.39c7.713-1.672,14.59-1.578,20.785-0.629c21.54,3.288,61.088,27.273,82.046,28.929
			c9.003,0.72,14.327-5.84,14.163-12.216C1825.459,1083.24,1822.966,1076.108,1822.966,1076.108z"/>
		<path opacity="0.35" fill="#010101" d="M1796.009,1019.21c7.959-1.725,15.055-1.628,21.449-0.649
			c22.23,3.396,63.047,28.149,84.678,29.857c9.291,0.743,14.787-6.027,14.617-12.607c-0.08-2.61-2.652-9.971-2.652-9.971
			s-10.279,3.88-16.652,3.292c-18.639-1.747-55.307-17.51-74.318-20.309c-8.133-1.202-18.457-0.247-29.559,2.805
			c-12.816,3.499-31.154,12.811-42.855,19.857c-6.086,3.657-16.68-1.33-16.68-1.33l-2.744,8.076c0,0,19.928,1.905,25.551-1.073
			C1768.753,1030.873,1788.515,1020.851,1796.009,1019.21z"/>
		<path opacity="0.35" fill="#010101" d="M1917.94,1017.386c7.961-1.725,15.057-1.628,21.451-0.649
			c22.23,3.395,63.047,28.149,84.678,29.857c9.291,0.743,14.787-6.027,14.615-12.607c-0.078-2.61-2.652-9.971-2.652-9.971
			s-10.277,3.88-16.65,3.292c-18.639-1.747-55.309-17.511-74.318-20.309c-8.135-1.203-18.457-0.247-29.559,2.805
			c-12.818,3.499-31.156,12.811-42.857,19.857c-6.086,3.657-16.678-1.33-16.678-1.33l-2.744,8.076c0,0,19.928,1.905,25.549-1.073
			C1890.687,1029.049,1910.448,1019.026,1917.94,1017.386z"/>
		<path opacity="0.35" fill="#010101" d="M2128.457,1017.386c7.96-1.725,15.057-1.628,21.449-0.649
			c22.232,3.395,63.049,28.149,84.678,29.857c9.291,0.743,14.788-6.027,14.617-12.607c-0.079-2.61-2.652-9.971-2.652-9.971
			s-10.279,3.88-16.651,3.292c-18.638-1.747-55.308-17.511-74.319-20.309c-8.133-1.203-18.457-0.247-29.558,2.805
			c-12.816,3.499-31.155,12.811-42.856,19.857c-6.086,3.657-16.679-1.33-16.679-1.33l-2.745,8.076c0,0,19.928,1.905,25.55-1.073
			C2101.201,1029.049,2120.964,1019.026,2128.457,1017.386z"/>
		<path opacity="0.25" fill="#010101" d="M2142.849,1125.204c7.96-1.725,15.056-1.628,21.45-0.649
			c22.23,3.396,63.047,28.149,84.678,29.857c9.291,0.743,14.786-6.027,14.616-12.607c-0.079-2.61-2.652-9.971-2.652-9.971
			s-10.279,3.88-16.652,3.292c-18.638-1.747-55.307-17.51-74.318-20.309c-8.133-1.202-18.456-0.247-29.558,2.805
			c-12.816,3.499-31.155,12.811-42.856,19.857c-6.086,3.657-16.679-1.33-16.679-1.33l-2.745,8.076c0,0,19.928,1.905,25.551-1.073
			C2115.594,1136.867,2135.355,1126.845,2142.849,1125.204z"/>
		<path opacity="0.25" fill="#010101" d="M1878.94,1125.204c7.961-1.725,15.057-1.628,21.451-0.649
			c22.23,3.395,63.047,28.149,84.678,29.857c9.291,0.743,14.787-6.027,14.615-12.607c-0.078-2.61-2.652-9.971-2.652-9.971
			s-10.277,3.88-16.65,3.292c-18.639-1.747-55.309-17.511-74.318-20.309c-8.135-1.203-18.457-0.247-29.559,2.805
			c-12.818,3.499-31.156,12.811-42.857,19.857c-6.086,3.657-16.678-1.33-16.678-1.33l-2.744,8.076c0,0,19.928,1.905,25.549-1.073
			C1851.687,1136.867,1871.448,1126.845,1878.94,1125.204z"/>
		<path opacity="0.25" fill="#010101" d="M2016.446,1125.204c7.959-1.725,15.057-1.628,21.449-0.649
			c22.232,3.395,63.049,28.149,84.678,29.857c9.291,0.743,14.787-6.027,14.617-12.607c-0.08-2.61-2.652-9.971-2.652-9.971
			s-10.279,3.88-16.652,3.292c-18.637-1.747-55.307-17.511-74.318-20.309c-8.133-1.203-18.457-0.247-29.559,2.805
			c-12.816,3.499-31.154,12.811-42.855,19.857c-6.086,3.657-16.68-1.33-16.68-1.33l-2.744,8.076c0,0,19.928,1.905,25.549-1.073
			C1989.19,1136.867,2008.952,1126.845,2016.446,1125.204z"/>
		<path opacity="0.2" fill="#010101" d="M1825.21,1178.936c7.961-1.725,15.057-1.628,21.451-0.649
			c22.23,3.396,63.047,28.149,84.678,29.857c9.291,0.743,14.785-6.027,14.615-12.607c-0.078-2.61-2.652-9.971-2.652-9.971
			s-10.279,3.88-16.652,3.292c-18.637-1.747-55.307-17.51-74.318-20.309c-8.133-1.202-18.455-0.247-29.557,2.805
			c-12.816,3.499-31.156,12.811-42.857,19.857c-6.086,3.657-16.678-1.33-16.678-1.33l-2.746,8.076c0,0,19.928,1.905,25.551-1.073
			C1797.956,1190.599,1817.718,1180.576,1825.21,1178.936z"/>
		<path opacity="0.2" fill="#010101" d="M1947.144,1177.111c7.959-1.725,15.057-1.628,21.449-0.649
			c22.232,3.395,63.049,28.149,84.678,29.857c9.293,0.743,14.787-6.027,14.615-12.607c-0.076-2.61-2.65-9.971-2.65-9.971
			s-10.279,3.88-16.652,3.292c-18.639-1.747-55.309-17.511-74.318-20.309c-8.133-1.203-18.457-0.247-29.559,2.805
			c-12.816,3.499-31.156,12.811-42.855,19.857c-6.088,3.657-16.68-1.33-16.68-1.33l-2.744,8.076c0,0,19.928,1.905,25.549-1.073
			C1919.888,1188.774,1939.649,1178.752,1947.144,1177.111z"/>
	</g>
	<linearGradient id="SVGID_1_" gradientUnits="userSpaceOnUse" x1="1135.6992" y1="597.9199" x2="1135.6992" y2="411.9151">
		<stop  offset="0" style="stop-color:#FFFFFF"/>
		<stop  offset="0.1051" style="stop-color:#E3E4E5"/>
		<stop  offset="0.5523" style="stop-color:#838587"/>
		<stop  offset="0.8593" style="stop-color:#454546"/>
		<stop  offset="1" style="stop-color:#000000"/>
	</linearGradient>
	<path opacity="0.2" fill="url(#SVGID_1_)" d="M3.786,434.968h2267.614v-1.645c-1.324-0.914-2.229-2.348-2.229-4.312v-15.77H4.079
		c-1.728,0-3.085-0.517-4.079-1.326v24.155C0.962,435.391,2.222,434.968,3.786,434.968z"/>
	<g opacity="0.1">
		<path fill="#FFFFFF" stroke="#020202" stroke-width="4" stroke-miterlimit="10" d="M219.535,896.005
			c-0.114,1.923-2.974,3.317-6.386,3.114L24.476,887.907c-3.413-0.203-6.086-1.927-5.972-3.85l0.261-4.399
			c0.115-1.924,2.974-3.317,6.387-3.114l188.673,11.212c3.413,0.203,6.087,1.926,5.973,3.849L219.535,896.005z"/>
		<path fill="#FFFFFF" stroke="#020202" stroke-width="4" stroke-miterlimit="10" d="M219.531,884.733
			c-0.115,1.922-2.974,3.317-6.386,3.114L24.471,876.636c-3.412-0.203-6.086-1.928-5.972-3.85l0.261-4.399
			c0.115-1.925,2.974-3.317,6.387-3.115l188.673,11.212c3.413,0.203,6.087,1.926,5.973,3.85L219.531,884.733z"/>
		<path fill="#FFFFFF" stroke="#020202" stroke-width="4" stroke-miterlimit="10" d="M219.526,871.965
			c-0.114,1.923-2.973,3.317-6.386,3.115L24.467,863.868c-3.413-0.203-6.087-1.927-5.973-3.85l0.261-4.4
			c0.114-1.923,2.974-3.317,6.387-3.114l188.673,11.211c3.413,0.205,6.086,1.927,5.972,3.851L219.526,871.965z"/>
		<path fill="#FFFFFF" stroke="#020202" stroke-width="4" stroke-miterlimit="10" d="M219.521,858.978
			c-0.114,1.923-2.974,3.317-6.387,3.115L24.462,850.88c-3.413-0.203-6.087-1.926-5.973-3.85l0.261-4.399
			c0.114-1.923,2.974-3.318,6.387-3.115l188.673,11.213c3.413,0.203,6.086,1.926,5.973,3.849L219.521,858.978z"/>
		<path fill="#FFFFFF" stroke="#020202" stroke-width="4" stroke-miterlimit="10" d="M219.513,836.434
			c-0.114,1.923-2.974,3.317-6.386,3.115L24.453,828.336c-3.413-0.203-6.086-1.927-5.973-3.849l0.261-4.399
			c0.114-1.924,2.974-3.318,6.386-3.115l188.674,11.212c3.413,0.203,6.086,1.926,5.973,3.85L219.513,836.434z"/>
		<path fill="#FFFFFF" stroke="#020202" stroke-width="4" stroke-miterlimit="10" d="M219.517,846.185
			c-0.114,1.923-2.974,3.317-6.386,3.115L24.457,838.088c-3.413-0.204-6.086-1.928-5.972-3.851l0.261-4.399
			c0.114-1.924,2.974-3.317,6.387-3.115l188.673,11.212c3.413,0.203,6.086,1.927,5.972,3.851L219.517,846.185z"/>
		<path fill="#FFFFFF" stroke="#020202" stroke-width="4" stroke-miterlimit="10" d="M219.524,825.125
			c-0.114,1.923-2.974,3.318-6.386,3.115L24.464,817.028c-3.413-0.204-6.086-1.927-5.972-3.851l0.262-4.398
			c0.114-1.924,2.974-3.318,6.386-3.115l188.673,11.212c3.414,0.204,6.087,1.926,5.973,3.85L219.524,825.125z"/>
		<path fill="#FFFFFF" stroke="#020202" stroke-width="4" stroke-miterlimit="10" d="M219.52,813.853
			c-0.114,1.923-2.974,3.317-6.386,3.116L24.46,805.756c-3.413-0.203-6.087-1.926-5.972-3.85l0.261-4.398
			c0.114-1.924,2.974-3.319,6.386-3.115l188.674,11.212c3.413,0.202,6.086,1.926,5.972,3.85L219.52,813.853z"/>
		<path fill="#FFFFFF" stroke="#020202" stroke-width="4" stroke-miterlimit="10" d="M219.515,801.085
			c-0.114,1.923-2.973,3.317-6.386,3.115L24.456,792.988c-3.413-0.203-6.087-1.927-5.973-3.85l0.261-4.398
			c0.115-1.925,2.974-3.319,6.387-3.115l188.673,11.212c3.413,0.203,6.087,1.926,5.973,3.85L219.515,801.085z"/>
		<path fill="#FFFFFF" stroke="#020202" stroke-width="4" stroke-miterlimit="10" d="M219.511,788.099
			c-0.115,1.923-2.974,3.317-6.387,3.115L24.451,780.001c-3.413-0.204-6.086-1.928-5.973-3.85l0.262-4.399
			c0.114-1.925,2.974-3.318,6.387-3.115l188.673,11.212c3.413,0.203,6.086,1.927,5.973,3.85L219.511,788.099z"/>
		<path fill="#FFFFFF" stroke="#020202" stroke-width="4" stroke-miterlimit="10" d="M459.796,880.051
			c0.113,1.87-3.256,2.882-7.521,3.14L216.43,898.138c-4.266,0.258-7.815-1.049-7.929-2.921l-0.259-4.28
			c-0.112-1.871,3.255-3.595,7.521-3.853l235.848-13.521c4.267-0.257,7.813,0.337,7.927,2.207L459.796,880.051z"/>
		<path fill="#FFFFFF" stroke="#020202" stroke-width="4" stroke-miterlimit="10" d="M460.51,867.699
			c-0.001-0.026-3.159,3.589-7.546,3.854l-236.628,14.284c-4.279,0.258-7.841-1.049-7.954-2.92l-0.259-4.28
			c-0.112-1.874,3.265-3.598,7.545-3.854l236.629-13.571c4.281-0.257,7.84,0.336,7.951,2.207L460.51,867.699z"/>
		<path fill="#FFFFFF" stroke="#020202" stroke-width="4" stroke-miterlimit="10" d="M460.358,855.328
			c0.113,1.871-3.252,2.884-7.518,3.141L217.119,873.41c-4.264,0.257-7.812-1.05-7.925-2.921l-0.258-4.28
			c-0.113-1.873,3.251-3.598,7.518-3.141l235.726-14.229c4.26-0.97,7.812,0.338,7.922,2.207L460.358,855.328z"/>
		<path fill="#FFFFFF" stroke="#020202" stroke-width="4" stroke-miterlimit="10" d="M460.185,842.88
			c0.125,2.091-3.23,3.279-7.494,3.538l-235.724,14.94c-4.265,0.257-7.822-1.229-7.948-3.318l-0.29-4.781
			c-0.127-2.092,3.228-3.993,7.493-4.25l235.727-13.513c4.264-0.259,7.82,0.514,7.947,2.603L460.185,842.88z"/>
		<path fill="#FFFFFF" stroke="#020202" stroke-width="4" stroke-miterlimit="10" d="M459.817,820.618
			c0.113,1.87-3.254,2.881-7.521,3.14l-235.826,14.947c-4.266,0.257-7.816-1.052-7.928-2.921l-0.259-4.281
			c-0.111-1.871,3.254-3.595,7.521-3.854l235.83-13.521c4.266-0.256,7.812,0.338,7.926,2.209L459.817,820.618z"/>
		<path fill="#FFFFFF" stroke="#020202" stroke-width="4" stroke-miterlimit="10" d="M459.931,830.1
			c0.113,1.869-3.25,2.881-7.512,3.138l-235.577,14.935c-4.261,0.254-7.807-1.054-7.919-2.924l-0.259-4.28
			c-0.112-1.872,3.251-3.596,7.512-2.854l235.58-13.506c4.26-1.256,7.805-0.662,7.918,1.211L459.931,830.1z"/>
		<path fill="#FFFFFF" stroke="#020202" stroke-width="4" stroke-miterlimit="10" d="M460.31,809.619
			c0.112,1.872-3.252,2.884-7.514,3.141l-235.631,14.937c-4.262,0.258-7.81-1.052-7.921-2.922l-0.259-4.279
			c-0.113-1.873,3.25-3.598,7.513-3.854l235.632-13.509c4.262-0.257,7.808,0.336,7.922,2.208L460.31,809.619z"/>
		<path fill="#FFFFFF" stroke="#020202" stroke-width="4" stroke-miterlimit="10" d="M458.737,797.999
			c0.113,1.87-3.236,2.88-7.477,3.137l-234.521,14.87c-4.241,0.254-7.771-1.055-7.885-2.926l-0.258-4.278
			c-0.113-1.872,3.234-3.598,7.477-3.851l234.521-13.442c4.243-0.257,7.771,0.339,7.886,2.21L458.737,797.999z"/>
		<path fill="#FFFFFF" stroke="#020202" stroke-width="4" stroke-miterlimit="10" d="M459.583,786.195
			c0.113,1.87-3.256,2.882-7.527,3.142l-236.07,14.962c-4.269,0.256-7.822-1.051-7.936-2.92l-0.257-4.28
			c-0.114-1.872,3.257-3.599,7.527-3.855l236.071-13.535c4.269-0.257,7.823,0.335,7.935,2.207L459.583,786.195z"/>
		<path fill="#FFFFFF" stroke="#020202" stroke-width="4" stroke-miterlimit="10" d="M458.515,774.381
			c0.113,1.872-3.229,2.882-7.463,3.138l-234.107,14.843c-4.235,0.255-7.759-1.055-7.873-2.926l-0.257-4.28
			c-0.114-1.871,3.228-3.595,7.462-3.85l234.107-13.417c4.236-0.255,7.76,0.342,7.872,2.212L458.515,774.381z"/>
		<polygon fill="#FFFFFF" stroke="#020202" stroke-width="4" stroke-miterlimit="10" points="111.965,722.89 160.612,750.45 
			209.259,778.009 109.372,772.821 9.485,767.633 60.725,745.262 		"/>
		<path fill="#FFFFFF" stroke="#020202" stroke-width="4" stroke-miterlimit="10" d="M211.213,778.965l253.385-13.664
			c0.437-0.023,0.861-0.075,1.275-0.14c-15.964-20.254-32.05-34.211-50.305-52.985l-302.424,9.885"/>
		<path fill="#FFFFFF" stroke="#020202" stroke-width="3" stroke-miterlimit="10" d="M459.585,772.757
			c0,2.9-2.352,5.252-5.252,5.252l0,0c-2.9,0-5.252-2.352-5.252-5.252l0,0c0-2.9,2.352-5.252,5.252-5.252l0,0
			C457.233,767.505,459.585,769.856,459.585,772.757L459.585,772.757z"/>
		<path fill="#FFFFFF" stroke="#020202" stroke-width="3" stroke-miterlimit="10" d="M459.585,784.217
			c0,2.9-2.352,5.252-5.252,5.252l0,0c-2.9,0-5.252-2.352-5.252-5.252l0,0c0-2.901,2.352-5.252,5.252-5.252l0,0
			C457.233,778.965,459.585,781.315,459.585,784.217L459.585,784.217z"/>
		<path fill="#FFFFFF" stroke="#020202" stroke-width="3" stroke-miterlimit="10" d="M459.872,796.087
			c0,2.9-2.352,5.252-5.252,5.252l0,0c-2.9,0-5.252-2.352-5.252-5.252l0,0c0-2.901,2.352-5.252,5.252-5.252l0,0
			C457.521,790.835,459.872,793.186,459.872,796.087L459.872,796.087z"/>
		<path fill="#FFFFFF" stroke="#020202" stroke-width="3" stroke-miterlimit="10" d="M460.585,807.327
			c0,2.899-2.352,5.251-5.252,5.251l0,0c-2.9,0-5.252-2.352-5.252-5.251l0,0c0-2.901,2.352-5.253,5.252-5.253l0,0
			C458.233,802.074,460.585,804.426,460.585,807.327L460.585,807.327z"/>
		<path fill="#FFFFFF" stroke="#020202" stroke-width="3" stroke-miterlimit="10" d="M460.585,818.325
			c0,2.9-2.352,5.252-5.252,5.252l0,0c-2.9,0-5.252-2.352-5.252-5.252l0,0c0-2.901,2.352-5.252,5.252-5.252l0,0
			C458.233,813.073,460.585,815.424,460.585,818.325L460.585,818.325z"/>
		<path fill="#FFFFFF" stroke="#020202" stroke-width="3" stroke-miterlimit="10" d="M460.585,828.729
			c0,2.899-2.352,5.251-5.252,5.251l0,0c-2.9,0-5.252-2.352-5.252-5.251l0,0c0-2.901,2.352-5.254,5.252-5.254l0,0
			C458.233,823.476,460.585,825.828,460.585,828.729L460.585,828.729z"/>
		<path fill="#FFFFFF" stroke="#020202" stroke-width="3" stroke-miterlimit="10" d="M461.3,840.995
			c0,2.901-2.352,5.253-5.252,5.253l0,0c-2.9,0-5.252-2.352-5.252-5.253l0,0c0-2.899,2.352-5.252,5.252-5.252l0,0
			C458.948,835.743,461.3,838.096,461.3,840.995L461.3,840.995z"/>
		<path fill="#FFFFFF" stroke="#020202" stroke-width="3" stroke-miterlimit="10" d="M461.3,853.764c0,2.9-2.352,5.252-5.252,5.252
			l0,0c-2.9,0-5.252-2.352-5.252-5.252l0,0c0-2.9,2.352-5.253,5.252-5.253l0,0C458.948,848.511,461.3,850.863,461.3,853.764
			L461.3,853.764z"/>
		<path fill="#FFFFFF" stroke="#020202" stroke-width="3" stroke-miterlimit="10" d="M460.3,878.274
			c0,2.899-2.352,5.251-5.252,5.251l0,0c-2.9,0-5.252-2.352-5.252-5.251l0,0c0-2.901,2.352-5.253,5.252-5.253l0,0
			C457.948,873.021,460.3,875.373,460.3,878.274L460.3,878.274z"/>
		<path fill="#FFFFFF" stroke="#020202" stroke-width="3" stroke-miterlimit="10" d="M461.3,866.253
			c0,2.899-2.352,5.251-5.252,5.251l0,0c-2.9,0-5.252-2.352-5.252-5.251l0,0c0-2.901,2.352-5.253,5.252-5.253l0,0
			C458.948,861,461.3,863.352,461.3,866.253L461.3,866.253z"/>
		<polygon fill="#FFFFFF" stroke="#020202" stroke-width="4" stroke-miterlimit="10" points="351.583,821.05 314.259,822.938 
			315.891,890.506 353.214,888.618 		"/>
		<path fill="#FFFFFF" stroke="#020202" stroke-width="3" stroke-miterlimit="10" d="M213.585,786.757
			c0,2.9-2.352,5.252-5.252,5.252l0,0c-2.9,0-5.252-2.352-5.252-5.252l0,0c0-2.9,2.352-5.252,5.252-5.252l0,0
			C211.234,781.505,213.585,783.856,213.585,786.757L213.585,786.757z"/>
		<path fill="#FFFFFF" stroke="#020202" stroke-width="3" stroke-miterlimit="10" d="M213.585,798.217
			c0,2.9-2.352,5.252-5.252,5.252l0,0c-2.9,0-5.252-2.352-5.252-5.252l0,0c0-2.901,2.352-5.252,5.252-5.252l0,0
			C211.234,792.965,213.585,795.315,213.585,798.217L213.585,798.217z"/>
		<path fill="#FFFFFF" stroke="#020202" stroke-width="3" stroke-miterlimit="10" d="M213.872,810.087
			c0,2.9-2.352,5.252-5.252,5.252l0,0c-2.9,0-5.252-2.352-5.252-5.252l0,0c0-2.901,2.352-5.252,5.252-5.252l0,0
			C211.52,804.835,213.872,807.186,213.872,810.087L213.872,810.087z"/>
		<path fill="#FFFFFF" stroke="#020202" stroke-width="3" stroke-miterlimit="10" d="M214.585,821.327
			c0,2.899-2.352,5.251-5.252,5.251l0,0c-2.9,0-5.252-2.352-5.252-5.251l0,0c0-2.901,2.352-5.253,5.252-5.253l0,0
			C212.234,816.074,214.585,818.426,214.585,821.327L214.585,821.327z"/>
		<path fill="#FFFFFF" stroke="#020202" stroke-width="3" stroke-miterlimit="10" d="M214.585,832.325
			c0,2.9-2.352,5.252-5.252,5.252l0,0c-2.9,0-5.252-2.352-5.252-5.252l0,0c0-2.901,2.352-5.252,5.252-5.252l0,0
			C212.234,827.073,214.585,829.424,214.585,832.325L214.585,832.325z"/>
		<path fill="#FFFFFF" stroke="#020202" stroke-width="3" stroke-miterlimit="10" d="M214.585,842.729
			c0,2.899-2.352,5.251-5.252,5.251l0,0c-2.9,0-5.252-2.352-5.252-5.251l0,0c0-2.901,2.352-5.254,5.252-5.254l0,0
			C212.234,837.476,214.585,839.828,214.585,842.729L214.585,842.729z"/>
		<path fill="#FFFFFF" stroke="#020202" stroke-width="3" stroke-miterlimit="10" d="M214.299,854.995
			c0,2.901-2.352,5.253-5.252,5.253l0,0c-2.9,0-5.252-2.352-5.252-5.253l0,0c0-2.899,2.352-5.252,5.252-5.252l0,0
			C211.948,849.743,214.299,852.096,214.299,854.995L214.299,854.995z"/>
		<path fill="#FFFFFF" stroke="#020202" stroke-width="3" stroke-miterlimit="10" d="M214.299,867.764
			c0,2.9-2.352,5.252-5.252,5.252l0,0c-2.9,0-5.252-2.352-5.252-5.252l0,0c0-2.9,2.352-5.253,5.252-5.253l0,0
			C211.948,862.511,214.299,864.863,214.299,867.764L214.299,867.764z"/>
		<path fill="#FFFFFF" stroke="#020202" stroke-width="3" stroke-miterlimit="10" d="M214.299,892.274
			c0,2.899-2.352,5.251-5.252,5.251l0,0c-2.9,0-5.252-2.352-5.252-5.251l0,0c0-2.901,2.352-5.253,5.252-5.253l0,0
			C211.948,887.021,214.299,889.373,214.299,892.274L214.299,892.274z"/>
		<path fill="#FFFFFF" stroke="#020202" stroke-width="3" stroke-miterlimit="10" d="M214.299,880.253
			c0,2.899-2.352,5.251-5.252,5.251l0,0c-2.9,0-5.252-2.352-5.252-5.251l0,0c0-2.901,2.352-5.253,5.252-5.253l0,0
			C211.948,875,214.299,877.352,214.299,880.253L214.299,880.253z"/>
		<polygon fill="#FFFFFF" stroke="#020202" stroke-width="4" stroke-miterlimit="10" points="116.083,856.203 79.416,853.203 
			79.416,810.087 116.083,812.087 		"/>
		<line fill="none" stroke="#020202" stroke-width="4" stroke-miterlimit="10" x1="97.75" y1="811.087" x2="97.75" y2="854.703"/>
		
			<line fill="none" stroke="#020202" stroke-width="4" stroke-miterlimit="10" x1="79.416" y1="831.948" x2="116.083" y2="834.127"/>
		<polygon fill="#FFFFFF" stroke="#020202" stroke-width="4" stroke-miterlimit="10" points="279.75,870.259 251.083,871.845 
			251.083,835.146 279.75,833.755 		"/>
		
			<line fill="none" stroke="#020202" stroke-width="4" stroke-miterlimit="10" x1="265.416" y1="833.95" x2="265.416" y2="869.052"/>
		<line fill="none" stroke="#020202" stroke-width="4" stroke-miterlimit="10" x1="251.083" y1="853.13" x2="279.75" y2="851.883"/>
		<polygon fill="#FFFFFF" stroke="#020202" stroke-width="4" stroke-miterlimit="10" points="412.75,863.259 384.083,864.845 
			384.083,828.146 412.75,826.755 		"/>
		
			<line fill="none" stroke="#020202" stroke-width="4" stroke-miterlimit="10" x1="398.416" y1="827.95" x2="398.416" y2="863.052"/>
		<line fill="none" stroke="#020202" stroke-width="4" stroke-miterlimit="10" x1="384.083" y1="846.13" x2="412.75" y2="844.883"/>
		<polygon fill="#FFFFFF" stroke="#020202" stroke-width="3" stroke-miterlimit="10" points="170.75,680.592 141.127,681.592 
			141.127,720.264 170.75,719.264 		"/>
		<path fill="#FFFFFF" stroke="#020202" stroke-width="2" stroke-miterlimit="10" d="M151.631,687.096
			c0,2.9-2.352,5.252-5.252,5.252l0,0c-2.9,0-5.252-2.352-5.252-5.252l0,0c0-2.9,2.352-5.252,5.252-5.252l0,0
			C149.28,681.844,151.631,684.195,151.631,687.096L151.631,687.096z"/>
		<path fill="#FFFFFF" stroke="#020202" stroke-width="2" stroke-miterlimit="10" d="M159.779,687.096
			c0,2.235-1.812,4.048-4.048,4.048l0,0c-2.235,0-4.048-1.812-4.048-4.048l0,0c0-2.235,1.812-4.048,4.048-4.048l0,0
			C157.966,683.048,159.779,684.86,159.779,687.096L159.779,687.096z"/>
		<path fill="#FFFFFF" stroke="#020202" stroke-width="2" stroke-miterlimit="10" d="M169.443,696.702c0,2.7-1.911,4.89-4.268,4.89
			l0,0c-2.357,0-4.268-2.189-4.268-4.89l0,0c0-2.701,1.911-4.89,4.268-4.89l0,0C167.532,691.812,169.443,694.001,169.443,696.702
			L169.443,696.702z"/>
		<path fill="#FFFFFF" stroke="#020202" stroke-width="2" stroke-miterlimit="10" d="M159.881,719.264L159.881,719.264
			c0-2.9,2.352-5.252,5.252-5.252l0,0c2.9,0,5.252,2.352,5.252,5.252l0,0"/>
		<path fill="#FFFFFF" stroke="#020202" stroke-width="2" stroke-miterlimit="10" d="M140.183,719.857L140.183,719.857
			c0-2.9,2.352-5.252,5.252-5.252l0,0c2.9,0,5.252,2.352,5.252,5.252l0,0"/>
		<path fill="#FFFFFF" stroke="#020202" stroke-width="2" stroke-miterlimit="10" d="M151.667,697.647
			c0,2.735-2.102,4.954-4.694,4.954l0,0c-2.593,0-4.694-2.219-4.694-4.954l0,0c0-2.735,2.102-4.954,4.694-4.954l0,0
			C149.565,692.693,151.667,694.912,151.667,697.647L151.667,697.647z"/>
		<path fill="#FFFFFF" stroke="#020202" stroke-width="2" stroke-miterlimit="10" d="M161.187,695.42
			c0,2.447-2.21,4.432-4.937,4.432l0,0c-2.727,0-4.937-1.984-4.937-4.432l0,0c0-2.447,2.21-4.432,4.937-4.432l0,0
			C158.977,690.988,161.187,692.973,161.187,695.42L161.187,695.42z"/>
		<path fill="#FFFFFF" stroke="#020202" stroke-width="2" stroke-miterlimit="10" d="M170.385,687.096
			c0,2.9-2.352,5.252-5.252,5.252l0,0c-2.9,0-5.252-2.352-5.252-5.252l0,0c0-2.9,2.352-5.252,5.252-5.252l0,0
			C168.034,681.844,170.385,684.195,170.385,687.096L170.385,687.096z"/>
		<path fill="#FFFFFF" stroke="#020202" stroke-width="2" stroke-miterlimit="10" d="M161.135,704.666
			c0,2.589-2.099,4.688-4.688,4.688l0,0c-2.589,0-4.688-2.099-4.688-4.688l0,0c0-2.59,2.099-4.688,4.688-4.688l0,0
			C159.036,699.978,161.135,702.076,161.135,704.666L161.135,704.666z"/>
		<path fill="#FFFFFF" stroke="#020202" stroke-width="2" stroke-miterlimit="10" d="M151.237,708.224
			c0,2.42-2.028,4.382-4.529,4.382l0,0c-2.501,0-4.529-1.962-4.529-4.382l0,0c0-2.42,2.028-4.382,4.529-4.382l0,0
			C149.209,703.842,151.237,705.804,151.237,708.224L151.237,708.224z"/>
		<path fill="#FFFFFF" stroke="#020202" stroke-width="2" stroke-miterlimit="10" d="M161.191,714.605
			c0,2.9-2.352,5.252-5.252,5.252l0,0c-2.9,0-5.252-2.352-5.252-5.252l0,0c0-2.9,2.352-5.252,5.252-5.252l0,0
			C158.839,709.354,161.191,711.705,161.191,714.605L161.191,714.605z"/>
		<path fill="#FFFFFF" stroke="#020202" stroke-width="2" stroke-miterlimit="10" d="M170.385,708.354
			c0,2.9-2.059,5.252-4.597,5.252l0,0c-2.539,0-4.597-2.352-4.597-5.252l0,0c0-2.9,2.059-5.252,4.597-5.252l0,0
			C168.327,703.102,170.385,705.453,170.385,708.354L170.385,708.354z"/>
		<path fill="#020202" d="M146.58,642.904c-0.795-1.961-1.01-3.579-0.931-4.969c0.28-4.819,11.54-10.803,11.326-15.625
			c-0.094-2.064-4.924-3.951-6.936-4.445c-0.796-0.198-2.694-0.134-2.694-0.134s3.851,2.673,3.884,4.082
			c0.102,4.132-8.546,9.901-8.751,14.029c-0.088,1.769,0.552,4.21,1.863,7.002c1.512,3.224,4.982,8.189,7.539,11.447
			c1.329,1.688,2.16,12.712,2.16,12.712l0.568,1.287c0,0-0.097-13.408-1.2-14.943C151.083,650.103,147.337,644.758,146.58,642.904z"
			/>
		<path fill="#020202" d="M158.022,657.596c0.109-2.113,0.599-3.67,1.259-4.895c2.293-4.248,15.026-4.906,16.874-9.365
			c0.788-1.91-2.79-5.663-4.403-6.963c-0.638-0.516-2.385-1.261-2.385-1.261s2.358,4.052,1.792,5.343
			c-1.656,3.787-11.933,5.355-13.865,9.008c-0.829,1.566-1.281,4.049-1.275,7.133c0.006,3.562,1.05,9.529,1.988,13.562
			c0.49,2.092-0.426,3.432-0.426,3.432l0.783,2.252c0,0,1.777-4.035,1.427-5.893C159.056,666.023,157.923,659.596,158.022,657.596z"
			/>
		<path fill="#020202" d="M160.017,638.459c-0.918,1.652-0.502,6.043-0.502,6.043l0.402-1.576c0,0,0.604-1.875,1.728-3.705
			c2.162-3.533,5.033-8.867,6.161-12.244c0.979-2.926,1.332-8.424,1.039-10.172c-0.683-4.076-9.94-8.803-10.319-12.919
			c-0.13-1.403,3.385-4.505,3.385-4.505s-1.893,0.156-2.661,0.445c-1.941,0.725-6.519,3.158-6.373,5.22
			c0.347,4.814,12.224,9.453,13.062,14.207c0.24,1.371,0.214,6.002-0.349,8.043C165.052,629.223,161.952,634.967,160.017,638.459z"
			/>
		<path fill="#020202" d="M150.131,677.258c-0.062,1.891,2.311,5.606,2.311,5.606l1.417-2.496c0,0-2.094-1.033-1.934-3.179
			c0.312-4.128,0.43-10.187-0.11-13.702c-0.465-3.05-1.291-5.436-2.347-6.856c-2.469-3.313-12.864-3.293-15.081-6.782
			c-0.754-1.19,0.956-5.555,0.956-5.555s-1.614,1.004-2.167,1.612c-1.395,1.53-4.357,5.788-3.284,7.556
			c2.505,4.122,15.191,2.827,18.104,6.673c0.842,1.109,1.567,2.573,1.996,4.647C150.394,666.743,150.255,673.266,150.131,677.258z"
			/>
	</g>
	<g>
	</g>
	<g>
	</g>
	<g>
	</g>
	<g>
	</g>
	<g>
	</g>
	<g>
	</g>
</g>
</svg>
