<?xml version="1.0" encoding="utf-8"?>
<!-- Generator: Adobe Illustrator 16.0.0, SVG Export Plug-In . SVG Version: 6.00 Build 0)  -->
<!DOCTYPE svg PUBLIC "-//W3C//DTD SVG 1.1//EN" "http://www.w3.org/Graphics/SVG/1.1/DTD/svg11.dtd">
<svg version="1.1" id="Layer_1" xmlns="http://www.w3.org/2000/svg" xmlns:xlink="http://www.w3.org/1999/xlink" x="0px" y="0px"
	 width="700px" height="700px" viewBox="0 0 700 700" enable-background="new 0 0 700 700" xml:space="preserve">
<g opacity="0.3">
	<g>
		<g>
			<path fill="#010101" stroke="#010101" stroke-miterlimit="10" d="M358.896,174.903c0,0,16.758-9.907,19.219-11.633
				c14.436-10.139,63.948-46.444,63.132-67.095c-1.208-30.721-91.923-81.709-91.923-81.709s-87.444,51.61-88.522,81.709
				c-0.732,20.68,48.787,57.765,62.222,67.429c2.098,1.522,17.36,11.299,17.36,11.299l11.057,0.854c0,0-16.024-10.687-19.209-13.666
				c-13.647-12.729-49.502-47.98-48.451-65.912c1.402-23.89,66.387-68.944,66.387-68.944s68.713,44.562,68.937,68.944
				c0.185,20.137-38.086,54.827-51.788,66.599c-2.981,2.561-20.118,12.979-20.118,12.979L358.896,174.903z"/>
			<path fill="#010101" d="M414.573,221.324c7.038,4.818,11.354,9.793,14.158,14.64c9.748,16.822-14.825,61.944-3.416,77.672
				c4.901,6.748,25.337,2.367,33.2-0.428c3.119-1.106,9.357-5.535,9.357-5.535s-18.882-0.435-22.132-5.105
				c-9.509-13.676,6.767-52.258-1.7-66.604c-3.63-6.145-11.205-12.931-21.817-19.413c-12.227-7.482-34.927-16.479-50.746-21.753
				c-8.217-2.739-8.783-12.134-8.783-12.134l-11.483,1.375c0,0,10.11,14.602,17.221,17.324
				C383.463,207.11,407.916,216.765,414.573,221.324z"/>
			<path fill="#010101" d="M288.097,221.641c-7.048,4.818-11.354,9.793-14.167,14.647c-9.748,16.815,14.834,61.935,3.416,77.662
				c-4.892,6.75-25.337,2.367-33.201-0.417c-3.109-1.114-9.357-5.534-9.357-5.534s18.892-0.446,22.132-5.105
				c9.508-13.676-6.758-52.261,1.7-66.605c3.629-6.146,11.215-12.932,21.817-19.413c12.235-7.482,34.927-16.479,50.755-21.75
				c8.208-2.739,7.501-13.417,7.501-13.417l11.484,1.373c0,0-8.838,15.887-15.949,18.596
				C319.208,207.415,294.754,217.08,288.097,221.641z"/>
			<path fill="#010101" stroke="#010101" stroke-miterlimit="10" d="M363.361,179.154c0,0,11.422,9.842,13.426,11.429
				c9.729,7.67,38.313,31.232,39.793,44.322c3.729,33.098-65.984,115.755-65.984,115.755s-71.317-82.435-67.659-115.755
				c1.464-13.349,31.201-37.387,40.587-44.666c1.773-1.373,15.588-11.085,15.588-11.085l11.049,0.855
				c0,0-15.394,11.214-19.247,14.827c-10.267,9.626-29.264,28.688-30.543,39.214c-3.565,29.394,51.07,106.824,51.07,106.824
				S405,263.279,401.231,234.05c-1.335-10.37-19.82-28.898-30.313-38.666c-4.213-3.927-17.351-15.375-17.351-15.375L363.361,179.154
				z"/>
			<path fill="#010101" d="M357.848,182.99c0,0,32.299,22.978,31.443,51.702c-0.861,28.726-31.443,51.713-31.443,51.713
				s-2.386-18.707,3.483-47.657C367.197,209.801,357.848,182.99,357.848,182.99z"/>
			<path fill="#010101" d="M343.114,182.99c0,0-32.308,22.978-31.444,51.702c0.854,28.726,31.444,51.713,31.444,51.713
				s2.386-18.707-3.481-47.657C333.754,209.801,343.114,182.99,343.114,182.99z"/>
			<path fill="#010101" d="M237.333,163.093c-1.373-5.18,1.477-10.564,6.359-12.012c6.099-1.81,12.432,1.979,14.141,8.458
				c2.125,8.097-2.324,16.508-9.952,18.771c-9.528,2.832-19.425-3.082-22.089-13.209c-3.332-12.656,4.717-22.942,16.628-26.479
				c9.312-2.766,17.566-0.519,23.46,3.991c3.538,2.713,6.222,5.025,7.782,10.956c5.209,19.775-5.665,40.294-24.278,45.828
				c-23.275,6.906-47.424-7.53-53.921-32.253c-8.143-30.898,14.297-62.952,43.393-71.594c36.357-10.797,91.477,34.327,101.64,72.948
				l10.735-0.816c-12.766-47.241-71.015-96.638-116.665-83.426c-36.523,10.569-57.849,49.771-47.638,87.566
				c8.171,30.239,38.475,47.897,67.691,39.44c23.378-6.76,37.024-31.854,30.488-56.039c-5.226-19.357-24.619-30.651-43.319-25.238
				c-14.964,4.321-23.702,20.382-19.516,35.867c3.344,12.384,15.757,19.617,27.723,16.156c9.581-2.778,15.171-13.054,12.497-22.961
				c-2.144-7.929-10.091-12.562-17.751-10.341c-6.126,1.771-9.703,8.344-7.984,14.686"/>
			<path fill="#010101" d="M463.677,163.093c1.363-5.18-1.485-10.564-6.368-12.012c-6.1-1.81-12.433,1.979-14.142,8.458
				c-2.126,8.097,2.321,16.508,9.953,18.771c9.524,2.832,19.414-3.082,22.089-13.209c3.332-12.656-4.727-22.942-16.64-26.479
				c-9.3-2.766-17.556-0.519-23.45,3.991c-3.536,2.713-6.229,5.025-7.79,10.956c-5.209,19.775,5.675,40.294,24.288,45.828
				c23.265,6.906,47.414-7.53,53.921-32.253c8.133-30.898-14.307-62.952-43.393-71.594c-36.366-10.797-91.477,34.327-101.65,72.948
				l-10.734-0.816c12.766-47.241,71.015-96.638,116.672-83.426c36.525,10.569,57.851,49.771,47.637,87.566
				c-8.168,30.239-38.481,47.897-67.699,39.44c-23.367-6.76-37.025-31.854-30.486-56.039c5.226-19.357,24.619-30.651,43.328-25.238
				c14.955,4.321,23.692,20.382,19.506,35.867c-3.343,12.384-15.756,19.617-27.723,16.156c-9.58-2.778-15.161-13.054-12.487-22.961
				c2.134-7.929,10.082-12.562,17.742-10.341c6.126,1.771,9.702,8.344,7.993,14.686"/>
			<rect x="332.012" y="168.516" fill="#010101" stroke="#010101" stroke-miterlimit="10" width="38.035" height="18.299"/>
		</g>
		<g>
			<path fill="#010101" stroke="#010101" stroke-miterlimit="10" d="M342.732,526.46c0,0-16.719,9.981-19.17,11.727
				c-14.391,10.195-63.735,46.729-62.825,67.375c1.347,30.711,92.283,81.301,92.283,81.301s87.214-52.009,88.152-82.107
				c0.65-20.685-49.039-57.544-62.521-67.161c-2.107-1.504-17.408-11.215-17.408-11.215l-11.057-0.799
				c0,0,16.062,10.612,19.267,13.572c13.702,12.664,49.713,47.766,48.748,65.703c-1.298,23.89-66.082,69.241-66.082,69.241
				s-68.915-44.258-69.241-68.637c-0.279-20.138,37.841-55,51.48-66.837c2.981-2.57,20.073-13.062,20.073-13.062L342.732,526.46z"/>
			<path fill="#010101" d="M286.854,480.293c-7.067-4.791-11.402-9.749-14.235-14.586c-9.823-16.776,14.559-61.999,3.075-77.678
				c-4.94-6.734-25.356-2.257-33.201,0.573c-3.111,1.123-9.331,5.571-9.331,5.571s18.885,0.362,22.154,5.005
				c9.571,13.637-6.529,52.297,2.004,66.604c3.647,6.126,11.251,12.876,21.89,19.319c12.276,7.427,35.003,16.312,50.852,21.52
				c8.224,2.703,8.839,12.099,8.839,12.099l11.483-1.432c0,0-10.178-14.556-17.308-17.239
				C318.019,494.367,293.527,484.822,286.854,480.293z"/>
			<path fill="#010101" d="M413.319,479.409c7.02-4.854,11.316-9.849,14.104-14.715c9.674-16.858-15.116-61.867-3.771-77.65
				c4.876-6.77,25.33-2.479,33.201,0.279c3.12,1.094,9.396,5.484,9.396,5.484s-18.894,0.54-22.115,5.209
				c-9.448,13.712,6.992,52.231-1.402,66.613c-3.601,6.154-11.157,12.979-21.733,19.516c-12.199,7.538-34.84,16.628-50.652,21.974
				c-8.198,2.778-7.437,13.445-7.437,13.445l-11.494-1.318c0,0,8.765-15.922,15.865-18.671
				C382.274,493.771,406.681,483.997,413.319,479.409z"/>
			<path fill="#010101" stroke="#010101" stroke-miterlimit="10" d="M338.248,522.229c0,0-11.464-9.787-13.479-11.363
				c-9.767-7.631-38.455-31.055-39.986-44.147c-3.881-33.087,65.463-116.057,65.463-116.057s71.69,82.125,68.18,115.455
				c-1.411,13.368-31.035,37.527-40.395,44.851c-1.765,1.385-15.531,11.159-15.531,11.159l-11.059-0.807
				c0,0,15.348-11.288,19.182-14.92c10.23-9.664,29.135-28.815,30.368-39.354c3.435-29.402-51.545-106.58-51.545-106.58
				s-53.216,77.828-49.318,107.035c1.383,10.369,19.953,28.817,30.491,38.539c4.222,3.908,17.415,15.3,17.415,15.3L338.248,522.229z
				"/>
			<path fill="#010101" d="M343.745,518.377c0,0-32.401-22.842-31.676-51.575c0.734-28.724,31.213-51.843,31.213-51.843
				s2.47,18.69-3.267,47.667C334.275,491.602,343.745,518.377,343.745,518.377z"/>
			<path fill="#010101" d="M358.479,518.312c0,0,32.198-23.128,31.214-51.853s-31.677-51.572-31.677-51.572
				s-2.302,18.724,3.694,47.636C367.716,491.452,358.479,518.312,358.479,518.312z"/>
			<path fill="#010101" d="M464.354,537.734c1.392,5.17-1.438,10.563-6.313,12.03c-6.09,1.838-12.439-1.913-14.178-8.393
				c-2.162-8.086,2.247-16.507,9.871-18.811c9.516-2.876,19.43,2.99,22.142,13.11c3.39,12.646-4.613,22.961-16.508,26.552
				c-9.302,2.812-17.555,0.604-23.479-3.889c-3.546-2.693-6.239-4.997-7.825-10.918c-5.301-19.759,5.486-40.323,24.071-45.931
				c23.248-7.018,47.451,7.308,54.073,32.004c8.271,30.859-14.021,63.02-43.079,71.793c-36.31,10.964-91.636-33.915-101.967-72.499
				l-10.732,0.863c12.979,47.19,71.45,96.322,117.044,82.907c36.468-10.732,57.615-50.033,47.235-87.782
				c-8.3-30.201-38.686-47.729-67.865-39.141c-23.349,6.871-36.886,32.021-30.238,56.186c5.319,19.332,24.761,30.547,43.441,25.05
				c14.936-4.4,23.599-20.5,19.348-35.967c-3.399-12.367-15.848-19.542-27.798-16.024c-9.573,2.812-15.104,13.12-12.384,23.015
				c2.172,7.919,10.137,12.508,17.787,10.261c6.119-1.802,9.665-8.394,7.92-14.725"/>
			<path fill="#010101" d="M238.009,538.744c-1.347,5.18,1.531,10.557,6.423,11.976c6.102,1.783,12.425-2.023,14.096-8.512
				c2.098-8.114-2.396-16.499-10.039-18.727c-9.535-2.784-19.4,3.167-22.022,13.305c-3.274,12.672,4.82,22.921,16.75,26.404
				c9.321,2.729,17.566,0.443,23.433-4.096c3.529-2.729,6.21-5.051,7.742-10.992c5.115-19.803-5.85-40.265-24.492-45.714
				c-23.301-6.806-47.376,7.742-53.77,32.483c-8.004,30.943,14.585,62.899,43.707,71.403c36.413,10.64,91.329-34.731,101.326-73.407
				l10.732,0.771c-12.552,47.3-70.578,96.962-116.302,83.955c-36.56-10.408-58.062-49.521-48.017-87.354
				c8.032-30.274,38.261-48.072,67.522-39.745c23.397,6.657,37.154,31.687,30.73,55.91c-5.142,19.376-24.482,30.767-43.208,25.438
				c-14.974-4.261-23.784-20.287-19.672-35.789c3.287-12.396,15.673-19.693,27.656-16.275c9.583,2.73,15.219,12.979,12.591,22.903
				c-2.107,7.938-10.037,12.598-17.696,10.416c-6.146-1.745-9.749-8.309-8.059-14.65"/>
			<polygon fill="#010101" stroke="#010101" stroke-miterlimit="10" points="369.648,532.729 331.61,532.896 331.527,514.604 
				369.564,514.429 			"/>
		</g>
	</g>
	<g>
		<g>
			<path fill="#010101" stroke="#010101" stroke-miterlimit="10" d="M281.885,188.802c0,0,10.806-16.19,12.276-18.81
				c8.607-15.401,37.479-69.584,27.786-87.835C307.536,54.99,203.688,48.389,203.688,48.389s-56.416,84.424-44.333,112.013
				c8.306,18.957,69.009,30.897,85.306,33.785c2.554,0.454,20.546,2.645,20.546,2.645l10.333-4.021c0,0-19.074-2.681-23.239-3.99
				c-17.816-5.545-65.41-21.762-72.245-38.381c-9.093-22.13,29.929-90.91,29.929-90.91s81.234,10.362,92.015,32.226
				c8.896,18.066-10.543,65.927-17.785,82.471c-1.572,3.601-12.499,20.423-12.499,20.423L281.885,188.802z"/>
			<path fill="#010101" d="M352.186,206.489c8.435,1.289,14.479,3.898,19.107,7.055c16.078,10.926,13.502,62.249,30.603,71.469
				c7.344,3.954,23.856-8.858,29.733-14.782c2.33-2.348,6.029-9.05,6.029-9.05s-17.204,7.797-22.156,5.002
				c-14.496-8.197-16.568-50.03-30.416-59.276c-5.937-3.966-15.704-6.799-28.078-8.032c-14.261-1.438-38.616,0.298-55.156,2.405
				c-8.593,1.095-13.179-7.129-13.179-7.129l-9.753,6.22c0,0,15.447,8.773,23.032,8.142
				C317.988,207.175,344.216,205.271,352.186,206.489z"/>
			<path fill="#010101" d="M238.357,261.625c-4.261,7.391-5.984,13.75-6.417,19.338c-1.488,19.377,40.229,49.373,36.761,68.498
				c-1.479,8.209-21.801,13.121-30.092,14.021c-3.289,0.353-10.836-0.929-10.836-0.929s16.833-8.59,17.728-14.197
				c2.638-16.44-28.752-44.164-27.349-60.753c0.603-7.112,4.497-16.518,11.237-26.952c7.78-12.05,24.324-29.997,36.305-41.612
				c6.208-6.025,0.943-15.337,0.943-15.337l10.941-3.75c0,0-1.078,18.15-6.309,23.674
				C260.223,235.313,242.378,254.625,238.357,261.625z"/>
			<path fill="#010101" stroke="#010101" stroke-miterlimit="10" d="M287.754,190.706c0,0,14.557,3.908,17.056,4.475
				c12.091,2.69,48.066,11.52,55.071,22.68c17.72,28.205-9.251,132.911-9.251,132.911s-100.018-43.348-111.171-74.959
				c-4.467-12.662,11.906-47.22,17.207-57.849c1.003-2.006,9.236-16.748,9.236-16.748l10.325-4.021c0,0-9.005,16.787-10.911,21.705
				c-5.077,13.128-13.925,38.54-10.519,48.585c9.537,28.028,92.346,74.105,92.346,74.105s14.615-93.147-1.464-117.844
				c-5.699-8.764-30.39-17.444-44.08-21.696c-5.5-1.719-22.3-6.332-22.3-6.332L287.754,190.706z"/>
			<path fill="#010101" d="M284.449,196.543c0,0,39.067,6.705,50.755,32.958c11.681,26.256-5.91,60.226-5.91,60.226
				s-10.264-15.82-17.528-44.443C304.498,216.652,284.449,196.543,284.449,196.543z"/>
			<path fill="#010101" d="M271.171,202.931c0,0-19.148,34.723-5.912,60.226c13.224,25.521,50.76,32.968,50.76,32.968
				s-5.963-17.901-23.806-41.435C274.367,231.156,271.171,202.931,271.171,202.931z"/>
			<path fill="#010101" d="M167.224,230.887c-3.483-4.076-3.25-10.168,0.524-13.594c4.712-4.27,12.055-3.6,16.404,1.496
				c5.433,6.368,5.07,15.877-0.821,21.232c-7.362,6.686-18.843,5.646-25.632-2.331c-8.493-9.952-5.701-22.708,3.5-31.062
				c7.189-6.536,15.601-8.087,22.872-6.584c4.361,0.909,7.782,1.829,11.763,6.5c13.265,15.56,12.364,38.76-2.007,51.823
				c-17.979,16.321-45.998,13.776-62.575-5.682c-20.735-24.307-14.417-62.918,8.056-83.335c28.076-25.493,97.31-8.734,123.221,21.66
				l9.318-5.384c-31.993-37.044-105.898-56.289-141.303-24.583c-28.328,25.364-30.546,69.936-4.95,99.562
				c20.476,23.702,55.436,26.477,78.099,6.184c18.131-16.229,19.547-44.759,3.169-63.718c-13.104-15.179-35.479-16.943-49.98-3.954
				c-11.612,10.38-12.514,28.64-2.029,40.784c8.382,9.71,22.703,10.843,31.983,2.535c7.433-6.657,8.013-18.347,1.304-26.107
				c-5.37-6.22-14.539-6.945-20.478-1.625c-4.755,4.253-5.123,11.726-0.824,16.693"/>
			<path fill="#010101" d="M371.18,132.727c-1.015-5.262-5.917-8.876-10.951-8.065c-6.279,1.018-10.343,7.173-9.071,13.755
				c1.6,8.216,9.247,13.863,17.111,12.6c9.808-1.579,16.154-11.198,14.172-21.484c-2.482-12.85-14.208-18.623-26.473-16.647
				c-9.587,1.542-16.046,7.149-19.405,13.769c-2.009,3.983-3.433,7.233-2.264,13.248c3.881,20.083,22.583,33.849,41.755,30.767
				c23.957-3.869,39.457-27.351,34.602-52.445c-6.074-31.369-40.191-50.522-70.152-45.7c-37.447,6.044-67.535,70.6-59.954,109.817
				l-10.029,3.917c-8.982-48.111,22.084-117.871,68.953-125.77c37.492-6.313,73.711,19.765,80.898,58.247
				c5.751,30.795-13.904,59.846-43.896,64.897c-23.989,4.046-47.178-12.646-51.778-37.277c-3.687-19.701,8.894-38.297,28.093-41.528
				c15.355-2.59,30.19,8.097,33.133,23.861c2.359,12.607-5.684,24.511-17.973,26.58c-9.837,1.651-19.321-5.19-21.203-15.272
				c-1.52-8.068,3.634-15.689,11.498-17.019c6.29-1.056,12.36,3.315,13.572,9.772"/>
			<polygon fill="#010101" stroke="#010101" stroke-miterlimit="10" points="254.895,194.708 289.163,178.218 297.1,194.708 
				262.825,211.193 			"/>
		</g>
		<g>
			<path fill="#010101" stroke="#010101" stroke-miterlimit="10" d="M419.777,512.592c0,0-10.742,16.245-12.189,18.884
				c-8.546,15.421-37.169,69.74-27.399,87.948c14.535,27.089,118.415,33.237,118.415,33.237s56.035-84.682,43.825-112.208
				c-8.384-18.921-69.138-30.592-85.459-33.404c-2.549-0.445-20.548-2.562-20.548-2.562l-10.307,4.075c0,0,19.073,2.598,23.24,3.879
				c17.841,5.469,65.514,21.485,72.42,38.059c9.191,22.093-29.519,91.056-29.519,91.056s-81.29-9.997-92.153-31.825
				c-8.988-18.021,10.245-65.963,17.403-82.545c1.569-3.61,12.417-20.481,12.417-20.481L419.777,512.592z"/>
			<path fill="#010101" d="M349.405,495.222c-8.445-1.253-14.504-3.836-19.156-6.975c-16.126-10.852-13.766-62.174-30.913-71.319
				c-7.369-3.927-23.825,8.961-29.669,14.912c-2.31,2.357-5.987,9.068-5.987,9.068s17.17-7.861,22.127-5.096
				c14.539,8.133,16.801,49.948,30.69,59.14c5.946,3.946,15.725,6.731,28.107,7.919c14.277,1.374,38.611-0.482,55.148-2.664
				c8.587-1.134,13.21,7.074,13.21,7.074l9.729-6.268c0,0-15.48-8.707-23.068-8.039
				C383.588,494.396,357.385,496.409,349.405,495.222z"/>
			<path fill="#010101" d="M462.977,439.581c4.22-7.418,5.929-13.776,6.327-19.374c1.407-19.387-40.453-49.188-37.072-68.332
				c1.459-8.217,21.747-13.219,30.039-14.148c3.286-0.363,10.843,0.874,10.843,0.874s-16.789,8.679-17.667,14.278
				c-2.571,16.46,28.947,44.033,27.624,60.633c-0.578,7.113-4.429,16.534-11.121,27.008c-7.725,12.089-24.186,30.09-36.115,41.769
				c-6.184,6.054-0.869,15.338-0.869,15.338l-10.927,3.795c0,0,0.989-18.149,6.198-23.699
				C441.228,465.996,458.984,446.591,462.977,439.581z"/>
			<path fill="#010101" stroke="#010101" stroke-miterlimit="10" d="M413.901,510.726c0,0-14.576-3.853-17.075-4.399
				c-12.109-2.639-48.117-11.299-55.175-22.433c-17.85-28.139,8.657-132.964,8.657-132.964s100.214,42.911,111.505,74.467
				c4.523,12.653-11.697,47.266-16.951,57.923c-0.989,2.015-9.153,16.794-9.153,16.794l-10.314,4.066c0,0,8.93-16.821,10.812-21.763
				c5.026-13.145,13.755-38.602,10.301-48.628c-9.657-27.982-92.666-73.688-92.666-73.688s-14.203,93.213,1.979,117.841
				c5.742,8.738,30.472,17.308,44.184,21.504c5.501,1.689,22.328,6.229,22.328,6.229L413.901,510.726z"/>
			<path fill="#010101" d="M417.183,504.867c0,0-39.102-6.528-50.909-32.736c-11.796-26.198,5.644-60.244,5.644-60.244
				s10.329,15.767,17.725,44.36C397.035,484.851,417.183,504.867,417.183,504.867z"/>
			<path fill="#010101" d="M430.431,498.414c0,0,18.98-34.795,5.641-60.252c-13.347-25.457-50.909-32.737-50.909-32.737
				s6.05,17.874,23.986,41.323C427.108,470.211,430.431,498.414,430.431,498.414z"/>
			<path fill="#010101" d="M534.253,470.007c3.497,4.057,3.282,10.146-0.468,13.582c-4.693,4.297-12.041,3.667-16.414-1.422
				c-5.459-6.342-5.132-15.848,0.734-21.222c7.323-6.724,18.81-5.739,25.637,2.208c8.536,9.927,5.797,22.692-3.356,31.083
				c-7.167,6.573-15.56,8.163-22.848,6.676c-4.363-0.882-7.788-1.792-11.786-6.443c-13.347-15.503-12.543-38.714,1.776-51.823
				c17.9-16.404,45.927-13.991,62.601,5.385c20.836,24.223,14.694,62.87-7.686,83.38c-27.962,25.623-97.278,9.172-123.318-21.112
				l-9.3,5.431c32.167,36.895,106.156,55.809,141.422,23.955c28.205-25.496,30.219-70.078,4.498-99.592
				c-20.575-23.608-55.556-26.227-78.13-5.84c-18.057,16.322-19.348,44.853-2.879,63.744c13.174,15.116,35.559,16.787,50.004,3.732
				c11.554-10.443,12.375-28.707,1.839-40.793c-8.425-9.674-22.757-10.742-31.992-2.386c-7.408,6.685-7.925,18.372-1.183,26.104
				c5.393,6.194,14.561,6.873,20.479,1.534c4.729-4.28,5.068-11.756,0.747-16.702"/>
			<path fill="#010101" d="M330.739,569.076c1.034,5.255,5.96,8.846,10.982,8.001c6.272-1.039,10.314-7.204,9.009-13.776
				c-1.632-8.227-9.314-13.834-17.164-12.523c-9.801,1.622-16.114,11.271-14.076,21.537c2.544,12.84,14.282,18.57,26.544,16.527
				c9.581-1.579,16.019-7.214,19.338-13.853c1.998-3.982,3.406-7.24,2.208-13.258c-3.977-20.062-22.731-33.746-41.893-30.573
				c-23.949,3.975-39.333,27.52-34.365,52.588c6.205,31.35,40.419,50.354,70.347,45.387c37.427-6.2,67.233-70.901,59.47-110.09
				l10.006-3.955c9.203,48.064-21.55,117.974-68.388,126.076c-37.457,6.481-73.792-19.438-81.147-57.885
				c-5.896-30.757,13.625-59.911,43.606-65.091c23.967-4.147,47.22,12.442,51.937,37.055c3.765,19.681-8.723,38.332-27.907,41.656
				c-15.339,2.655-30.229-7.967-33.247-23.721c-2.411-12.588,5.583-24.537,17.862-26.655c9.823-1.698,19.343,5.089,21.28,15.171
				c1.541,8.068-3.579,15.709-11.431,17.062c-6.294,1.098-12.384-3.256-13.613-9.699"/>
			<polygon fill="#010101" stroke="#010101" stroke-miterlimit="10" points="446.747,506.565 412.545,523.214 404.537,506.77 
				438.736,490.115 			"/>
		</g>
	</g>
	<g>
		<g>
			<path fill="#010101" stroke="#010101" stroke-miterlimit="10" d="M218.57,234.675c0,0,2.718-19.276,2.902-22.273
				c1.078-17.612,3.593-78.961-13.054-91.197c-24.761-18.224-121.202,20.851-121.202,20.851S72.992,242.601,95.84,262.22
				c15.704,13.479,75.583-2.091,91.524-6.556c2.497-0.696,19.658-6.527,19.658-6.527l7.571-8.104c0,0-18.354,5.857-22.672,6.488
				c-18.459,2.722-68.375,8.757-81.741-3.257c-17.792-15.997-12.458-94.893-12.458-94.893s77.693-25.893,96.887-10.862
				c15.853,12.413,19.089,63.968,19.742,82.024c0.139,3.927-2.413,23.814-2.413,23.814L218.57,234.675z"/>
			<path fill="#010101" d="M289.585,220.126c8.155-2.497,14.739-2.768,20.275-1.93c19.228,2.878,39.161,50.234,58.568,51.127
				c8.332,0.379,17.656-18.328,20.378-26.22c1.087-3.119,1.515-10.759,1.515-10.759s-12.12,14.481-17.798,14.112
				c-16.617-1.106-36.625-37.899-53.114-40.229c-7.064-0.994-17.091,0.696-28.784,4.94c-13.472,4.893-34.668,17.017-48.655,26.088
				c-7.269,4.717-14.965-0.706-14.965-0.706l-6.089,9.832c0,0,17.722,1.205,24.285-2.648
				C259.064,235.575,281.876,222.483,289.585,220.126z"/>
			<path fill="#010101" d="M210.927,319.169c-0.633,8.512,0.569,14.983,2.607,20.209c7.057,18.104,57.659,27.045,62.825,45.782
				c2.223,8.029-13.954,21.277-21.033,25.678c-2.813,1.745-10.17,3.862-10.17,3.862s11.443-15.039,9.822-20.481
				c-4.757-15.958-45.063-27.321-50.993-42.882c-2.54-6.666-3.111-16.832-1.56-29.15c1.783-14.235,8.91-37.582,14.667-53.245
				c2.979-8.114-5.804-14.233-5.804-14.233l8.236-8.124c0,0,6.901,16.823,4.587,24.072
				C219.216,285.978,211.515,311.118,210.927,319.169z"/>
			<path fill="#010101" stroke="#010101" stroke-miterlimit="10" d="M224.68,233.84c0,0,14.813-2.787,17.31-3.363
				c12.06-2.82,48.312-10.461,59.459-3.445c28.196,17.735,49.303,123.775,49.303,123.775s-108.921,4.319-132.681-19.329
				c-9.513-9.479-9.746-47.711-9.577-59.593c0.028-2.238,1.058-19.099,1.058-19.099l7.557-8.094c0,0-0.835,19.021-0.417,24.285
				c1.119,14.028,4.17,40.767,11.597,48.343c20.74,21.122,115.344,26.729,115.344,26.729s-27.23-90.27-52.428-105.551
				c-8.935-5.433-34.948-2.545-49.125-0.437c-5.701,0.835-22.838,3.965-22.838,3.965L224.68,233.84z"/>
			<path fill="#010101" d="M224.24,240.542c0,0,38.104-10.908,60.021,7.676c21.914,18.607,20.795,56.838,20.795,56.838
				s-16.11-9.803-35.066-32.447C251.024,249.966,224.24,240.542,224.24,240.542z"/>
			<path fill="#010101" d="M215.042,252.055c0,0-2.194,39.586,20.793,56.835c22.977,17.25,60.03,7.689,60.03,7.689
				s-13.132-13.546-39.415-27.018C230.162,276.1,215.042,252.055,215.042,252.055z"/>
			<path fill="#010101" d="M133.498,322.315c-4.902-2.155-7.336-7.744-5.417-12.468c2.391-5.895,9.296-8.478,15.43-5.766
				c7.655,3.38,11.453,12.105,8.467,19.487c-3.735,9.208-14.535,13.248-24.105,9.014c-11.974-5.291-14.989-17.992-10.325-29.513
				c3.649-9.005,10.555-14.048,17.761-15.848c4.325-1.068,7.801-1.726,13.414,0.761c18.705,8.265,27.956,29.562,20.668,47.562
				c-9.126,22.495-35.474,32.366-58.847,22.022c-29.226-12.915-40.278-50.451-28.882-78.588
				c14.242-35.15,83.894-50.069,120.429-33.917l6.052-8.903c-44.889-19.496-119.829-4.789-137.983,39.132
				c-14.526,35.141,2.808,76.26,38.719,91.856c28.729,12.479,61.431-0.185,73.057-28.287c9.296-22.488-1.798-48.806-24.775-58.788
				c-18.393-8.003-39.322,0.11-46.754,18.105c-5.955,14.39,1.146,31.23,15.857,37.627c11.768,5.115,25.165-0.075,29.917-11.587
				c3.812-9.218-0.734-19.996-10.142-24.092c-7.54-3.267-16.114,0.048-19.158,7.428c-2.441,5.886,0.473,12.785,6.499,15.394"/>
			<path fill="#010101" d="M274.712,145.416c-3.197-4.297-9.179-5.42-13.365-2.516c-5.216,3.639-6.206,10.956-2.204,16.33
				c4.998,6.714,14.338,8.477,20.879,3.937c8.152-5.682,9.703-17.101,3.454-25.502c-7.813-10.504-20.881-10.622-31.074-3.519
				c-7.97,5.542-11.358,13.397-11.512,20.814c-0.089,4.458,0.038,8.003,3.699,12.924c12.208,16.415,35.035,20.704,50.969,9.609
				c19.909-13.87,23.692-41.751,8.436-62.259c-19.074-25.634-58.123-28.103-83.027-10.762c-31.125,21.689-30.241,92.906-6.4,124.955
				l-7.341,7.882c-28.956-39.456-31.216-115.791,7.59-143.23c31.045-21.95,74.986-14.163,98.155,17.403
				c18.537,25.252,13.423,59.956-11.41,77.513c-19.864,14.047-47.995,9.062-62.823-11.131c-11.863-16.165-8.596-38.372,7.302-49.616
				c12.716-8.987,30.717-5.792,40.21,7.141c7.59,10.333,5.5,24.545-4.674,31.742c-8.142,5.756-19.655,3.704-25.728-4.567
				c-4.868-6.612-3.526-15.719,2.981-20.313c5.209-3.687,12.582-2.376,16.47,2.914"/>
			<polygon fill="#010101" stroke="#010101" stroke-miterlimit="10" points="196.808,251.702 220.534,221.974 234.836,233.393 
				211.103,263.121 			"/>
		</g>
		<g>
			<path fill="#010101" stroke="#010101" stroke-miterlimit="10" d="M483.236,466.637c0,0-2.637,19.29-2.794,22.301
				c-1.014,17.6-3.251,78.961,13.451,91.131c24.846,18.104,121.111-21.4,121.111-21.4s13.766-100.602-9.173-120.117
				c-15.756-13.416-75.563,2.425-91.49,6.954c-2.488,0.716-19.621,6.611-19.621,6.611l-7.523,8.14c0,0,18.315-5.922,22.624-6.582
				c18.448-2.813,68.348-9.059,81.76,2.888c17.862,15.923,12.891,94.847,12.891,94.847s-77.58,26.244-96.837,11.29
				c-15.914-12.349-19.377-63.883-20.119-81.933c-0.148-3.927,2.312-23.832,2.312-23.832L483.236,466.637z"/>
			<path fill="#010101" d="M412.288,481.5c-8.151,2.532-14.729,2.83-20.277,2.023c-19.242-2.786-39.37-50.052-58.789-50.858
				c-8.344-0.343-17.581,18.411-20.265,26.303c-1.061,3.127-1.467,10.768-1.467,10.768s12.06-14.529,17.733-14.193
				c16.628,1.029,36.799,37.73,53.3,39.987c7.066,0.974,17.086-0.754,28.757-5.051c13.462-4.96,34.589-17.186,48.543-26.322
				c7.244-4.735,14.969,0.651,14.969,0.651l6.05-9.871c0,0-17.724-1.133-24.278,2.768C442.73,465.931,419.993,479.114,412.288,481.5
				z"/>
			<path fill="#010101" d="M490.5,382.114c0.586-8.515-0.634-14.984-2.706-20.203c-7.138-18.075-57.778-26.784-63.033-45.491
				c-2.252-8.042,13.865-21.345,20.932-25.781c2.805-1.757,10.145-3.92,10.145-3.92s-11.361,15.106-9.722,20.536
				c4.815,15.942,45.179,27.121,51.187,42.652c2.558,6.656,3.18,16.821,1.688,29.16c-1.717,14.242-8.745,37.601-14.427,53.3
				c-2.947,8.133,5.869,14.197,5.869,14.197l-8.204,8.158c0,0-6.977-16.784-4.693-24.045
				C482.354,415.341,489.938,390.162,490.5,382.114z"/>
			<path fill="#010101" stroke="#010101" stroke-miterlimit="10" d="M477.127,467.499c0,0-14.799,2.851-17.291,3.443
				c-12.055,2.879-48.259,10.678-59.44,3.714c-28.289-17.612-49.867-123.561-49.867-123.561s108.912-4.799,132.773,18.734
				c9.561,9.451,9.956,47.664,9.838,59.549c-0.012,2.246-0.964,19.105-0.964,19.105l-7.527,8.133c0,0,0.75-19.031,0.306-24.295
				c-1.171-14.019-4.345-40.748-11.81-48.286c-20.834-21.03-115.453-26.211-115.453-26.211s27.625,90.15,52.888,105.318
				c8.958,5.385,34.96,2.386,49.138,0.214c5.684-0.861,22.818-4.066,22.818-4.066L477.127,467.499z"/>
			<path fill="#010101" d="M477.544,460.806c0,0-38.059,11.075-60.066-7.427c-21.99-18.486-21.037-56.735-21.037-56.735
				s16.145,9.729,35.205,32.289C450.71,451.494,477.544,460.806,477.544,460.806z"/>
			<path fill="#010101" d="M486.686,449.248c0,0,2.015-39.589-21.043-56.745c-23.07-17.148-60.071-7.42-60.071-7.42
				s13.2,13.481,39.531,26.833C471.464,425.267,486.686,449.248,486.686,449.248z"/>
			<path fill="#010101" d="M567.92,378.623c4.906,2.135,7.357,7.716,5.463,12.431c-2.361,5.914-9.256,8.533-15.401,5.85
				c-7.671-3.352-11.503-12.061-8.546-19.441c3.69-9.237,14.466-13.332,24.06-9.134c11.996,5.245,15.068,17.936,10.459,29.466
				c-3.612,9.025-10.487,14.093-17.695,15.922c-4.315,1.098-7.8,1.765-13.412-0.696c-18.75-8.179-28.093-29.439-20.874-47.46
				c9.014-22.549,35.311-32.53,58.744-22.3c29.277,12.792,40.508,50.273,29.23,78.459c-14.084,35.215-83.671,50.458-120.272,34.464
				l-6.021,8.92c44.979,19.303,119.851,4.254,137.81-39.744c14.362-35.196-3.155-76.239-39.132-91.688
				c-28.776-12.357-61.433,0.463-72.931,28.623c-9.196,22.541,2.017,48.807,25.049,58.685c18.423,7.909,39.321-0.298,46.675-18.318
				c5.883-14.427-1.293-31.231-16.033-37.562c-11.786-5.06-25.158,0.194-29.866,11.724c-3.773,9.239,0.826,19.988,10.265,24.039
				c7.542,3.247,16.093-0.123,19.109-7.494c2.408-5.913-0.53-12.793-6.567-15.383"/>
			<path fill="#010101" d="M427.499,556.144c3.208,4.279,9.206,5.384,13.364,2.449c5.204-3.657,6.169-10.972,2.146-16.329
				c-5.041-6.695-14.391-8.412-20.898-3.835c-8.123,5.719-9.633,17.138-3.342,25.513c7.857,10.464,20.926,10.539,31.081,3.38
				c7.951-5.581,11.31-13.452,11.42-20.872c0.074-4.455-0.065-7.993-3.76-12.905c-12.282-16.35-35.116-20.544-51.007-9.376
				c-19.853,13.965-23.505,41.852-8.162,62.288c19.192,25.557,58.26,27.842,83.081,10.39c31.027-21.818,29.828-93.045,5.842-124.983
				l7.298-7.91c29.139,39.317,31.743,115.651-6.947,143.271c-30.939,22.078-74.928,14.473-98.223-16.97
				c-18.651-25.17-13.701-59.893,11.062-77.57c19.8-14.131,47.949-9.264,62.868,10.863c11.931,16.106,8.765,38.332-7.083,49.642
				c-12.663,9.042-30.69,5.932-40.241-6.954c-7.632-10.305-5.612-24.538,4.534-31.771c8.113-5.782,19.636-3.798,25.754,4.448
				c4.888,6.601,3.59,15.709-2.896,20.332c-5.2,3.714-12.569,2.431-16.479-2.843"/>
			<polygon fill="#010101" stroke="#010101" stroke-miterlimit="10" points="504.922,449.507 481.322,479.345 466.98,468 
				490.572,438.162 			"/>
		</g>
	</g>
	<g>
		<g>
			<path fill="#010101" stroke="#010101" stroke-miterlimit="10" d="M181.32,303.477c0,0-5.915-18.539-7.048-21.333
				c-6.667-16.33-31.004-72.706-51.312-76.51C92.748,199.952,22.793,276.98,22.793,276.98s30.783,96.768,59.882,104.538
				c19.993,5.339,67.199-34.656,79.625-45.592c1.945-1.709,14.881-14.41,14.881-14.41l3.312-10.584c0,0-14.001,13.239-17.624,15.67
				c-15.447,10.463-57.81,37.545-75.06,32.524c-22.97-6.705-52.381-80.113-52.381-80.113s58.778-57.023,82.59-51.804
				c19.674,4.316,44.947,49.373,53.362,65.351c1.832,3.48,8.155,22.514,8.155,22.514L181.32,303.477z"/>
			<path fill="#010101" d="M239,259.572c6.263-5.783,12.079-8.884,17.43-10.536c18.575-5.747,57.068,28.288,74.947,20.666
				c7.671-3.26,7.96-24.158,6.99-32.457c-0.372-3.286-3.301-10.354-3.301-10.354s-4.638,18.309-9.917,20.436
				c-15.451,6.21-49.435-18.26-65.306-13.21c-6.798,2.163-15.102,8.039-23.796,16.933c-10.018,10.24-23.856,30.368-32.526,44.61
				c-4.504,7.398-13.791,5.848-13.791,5.848l-1.222,11.503c0,0,16.494-6.601,20.738-12.921
				C218.196,286.719,233.074,265.034,239,259.572z"/>
			<path fill="#010101" d="M211.066,382.921c3.128,7.947,7.017,13.257,11.121,17.093c14.208,13.249,63.678-0.641,76.462,14
				c5.487,6.275-3.351,25.225-7.816,32.262c-1.784,2.785-7.489,7.891-7.489,7.891s3.788-18.513-0.031-22.709
				c-11.206-12.318-52.455-5.086-64.546-16.534c-5.176-4.901-10.101-13.814-14.048-25.596c-4.568-13.592-8.267-37.721-9.875-54.33
				c-0.836-8.606-11.4-10.305-11.4-10.305l3.896-10.891c0,0,13.517,12.163,14.571,19.691
				C204.148,349.424,208.114,375.419,211.066,382.921z"/>
			<path fill="#010101" stroke="#010101" stroke-miterlimit="10" d="M186.462,300.081c0,0,12.139-8.942,14.138-10.538
				c9.643-7.771,38.994-30.378,52.086-28.892c33.098,3.751,98.1,90.149,98.1,90.149s-96.271,51.125-127.938,40.125
				c-12.684-4.42-29.473-38.771-34.473-49.548c-0.948-2.034-7.329-17.668-7.329-17.668l3.298-10.566c0,0,7.499,17.501,10.159,22.06
				c7.086,12.161,21.431,34.926,31.408,38.527c27.85,10.046,115.53-25.93,115.53-25.93s-63.685-69.527-93.019-72.378
				c-10.406-1.011-32.593,12.869-44.457,20.908c-4.772,3.231-18.858,13.481-18.858,13.481L186.462,300.081z"/>
			<path fill="#010101" d="M188.967,306.309c0,0,29.608-26.357,57.415-19.115c27.815,7.259,43.389,42.196,43.389,42.196
				s-18.769-1.849-45.669-14.029C217.192,303.182,188.967,306.309,188.967,306.309z"/>
			<path fill="#010101" d="M185.674,320.662c0,0,15.192,36.626,43.384,42.197c28.186,5.588,57.421-19.107,57.421-19.107
				s-17.706-6.499-47.227-7.242C209.728,335.778,185.674,320.662,185.674,320.662z"/>
			<path fill="#010101" d="M142.67,419.343c-5.358,0.178-9.972-3.798-10.296-8.894c-0.401-6.343,4.705-11.671,11.405-11.885
				c8.366-0.27,15.569,5.943,16.085,13.889c0.619,9.926-7.355,18.244-17.816,18.577c-13.083,0.427-21.306-9.71-22.101-22.113
				c-0.617-9.692,3.42-17.232,9.128-21.985c3.438-2.84,6.287-4.938,12.42-5.135c20.438-0.657,38.009,14.521,39.248,33.896
				c1.532,24.23-17.926,44.556-43.477,45.362c-31.933,1.039-58.168-27.982-60.105-58.286c-2.408-37.851,53.883-81.495,93.805-82.785
				l1.596-10.648C123.661,311.24,62.511,356.99,65.2,404.434c2.148,37.961,35.599,67.504,74.722,65.981
				c31.297-1.208,55.277-26.804,53.559-57.172c-1.374-24.296-22.783-43.199-47.817-42.224c-20.039,0.76-35.383,17.148-34.276,36.58
				c0.876,15.56,14.581,27.655,30.608,27.034c12.819-0.492,22.641-10.976,21.936-23.414c-0.566-9.962-9.335-17.706-19.591-17.306
				c-8.211,0.324-14.496,7.026-14.042,14.993c0.357,6.369,5.97,11.316,12.532,11.057"/>
			<path fill="#010101" d="M193.198,198.707c-4.749-2.487-10.62-0.907-13.131,3.528c-3.125,5.543-0.845,12.552,5.091,15.672
				c7.417,3.879,16.595,1.419,20.521-5.516c4.883-8.651,1.328-19.606-7.945-24.482c-11.597-6.07-23.424-0.508-29.531,10.308
				c-4.774,8.457-4.421,16.997-1.344,23.757c1.853,4.047,3.504,7.194,8.939,10.037c18.118,9.497,40.548,3.462,50.092-13.445
				c11.931-21.128,3.25-47.896-19.4-59.759c-28.301-14.827-64.556-0.113-79.475,26.31c-18.642,33.042,13.035,96.832,48.417,115.374
				l-3.195,10.285c-43.204-22.996-78.344-90.807-55.275-132.352c18.455-33.246,61.43-45.277,95.995-26.887
				c27.648,14.715,38.093,48.204,23.333,74.794c-11.81,21.268-39.319,28.974-61.433,17.211
				c-17.701-9.415-24.389-30.842-14.938-47.868c7.557-13.621,25.164-18.551,39.327-11.011c11.321,6.025,15.608,19.736,9.554,30.628
				c-4.839,8.728-16.103,11.865-25.162,7.047c-7.254-3.855-9.993-12.636-6.125-19.6c3.101-5.579,10.31-7.595,16.107-4.52"/>
			<polygon fill="#010101" stroke="#010101" stroke-miterlimit="10" points="169.092,328.257 177.578,291.187 195.416,295.27 
				186.922,332.342 			"/>
		</g>
		<g>
			<path fill="#010101" stroke="#010101" stroke-miterlimit="10" d="M520.391,397.719c0,0,5.992,18.522,7.157,21.307
				c6.723,16.304,31.312,72.558,51.64,76.28c30.235,5.542,99.849-71.803,99.849-71.803s-31.222-96.622-60.356-104.259
				c-20.011-5.248-67.035,34.953-79.42,45.944c-1.938,1.72-14.812,14.466-14.812,14.466l-3.25,10.603
				c0,0,13.932-13.286,17.528-15.747c15.402-10.526,57.658-37.805,74.922-32.855c23.002,6.601,52.754,79.88,52.754,79.88
				s-58.529,57.292-82.366,52.167c-19.694-4.234-45.166-49.169-53.653-65.11c-1.845-3.471-8.261-22.476-8.261-22.476
				L520.391,397.719z"/>
			<path fill="#010101" d="M462.909,441.883c-6.244,5.813-12.046,8.932-17.395,10.612c-18.541,5.831-57.179-28.027-75.033-20.332
				c-7.66,3.306-7.854,24.214-6.846,32.486c0.398,3.286,3.346,10.341,3.346,10.341s4.567-18.325,9.822-20.481
				c15.431-6.284,49.521,18.04,65.37,12.915c6.789-2.182,15.065-8.085,23.719-17.026c9.981-10.296,23.716-30.47,32.326-44.759
				c4.476-7.408,13.77-5.912,13.77-5.912l1.174-11.514c0,0-16.46,6.667-20.68,13.016
				C483.589,414.645,468.819,436.389,462.909,441.883z"/>
			<path fill="#010101" d="M490.289,318.408c-3.17-7.931-7.077-13.231-11.204-17.029c-14.271-13.193-63.68,0.919-76.528-13.666
				c-5.509-6.258,3.24-25.234,7.684-32.298c1.765-2.794,7.446-7.929,7.446-7.929s-3.689,18.539,0.139,22.718
				c11.256,12.274,52.473,4.846,64.621,16.237c5.19,4.885,10.16,13.778,14.168,25.541c4.627,13.574,8.431,37.675,10.115,54.284
				c0.867,8.605,11.442,10.25,11.442,10.25l-3.854,10.908c0,0-13.562-12.096-14.652-19.636
				C497.355,351.885,493.271,325.907,490.289,318.408z"/>
			<path fill="#010101" stroke="#010101" stroke-miterlimit="10" d="M515.266,401.146c0,0-12.097,8.985-14.088,10.602
				c-9.614,7.817-38.854,30.553-51.954,29.124c-33.124-3.612-98.517-89.722-98.517-89.722s96.062-51.543,127.767-40.69
				c12.708,4.371,29.639,38.63,34.688,49.39c0.963,2.033,7.415,17.631,7.415,17.631l-3.255,10.604c0,0-7.575-17.483-10.265-22.031
				c-7.133-12.125-21.584-34.834-31.575-38.391c-27.897-9.905-115.399,26.45-115.399,26.45s63.986,69.251,93.327,71.971
				c10.409,0.965,32.535-13.016,44.368-21.121c4.75-3.241,18.796-13.556,18.796-13.556L515.266,401.146z"/>
			<path fill="#010101" d="M512.735,394.925c0,0-29.489,26.486-57.343,19.367c-27.833-7.13-43.561-42.001-43.561-42.001
				s18.767,1.765,45.724,13.824C484.518,398.185,512.735,394.925,512.735,394.925z"/>
			<path fill="#010101" d="M515.956,380.554c0,0-15.35-36.552-43.565-42.001c-28.223-5.458-57.347,19.367-57.347,19.367
				s17.744,6.414,47.256,7.028C491.847,365.541,515.956,380.554,515.956,380.554z"/>
			<path fill="#010101" d="M558.528,281.688c5.354-0.204,9.981,3.762,10.32,8.83c0.432,6.352-4.643,11.707-11.344,11.949
				c-8.371,0.305-15.594-5.876-16.132-13.814c-0.68-9.917,7.252-18.282,17.723-18.662c13.077-0.473,21.354,9.628,22.199,22.022
				c0.658,9.693-3.334,17.25-9.04,22.021c-3.416,2.859-6.266,4.967-12.384,5.181c-20.445,0.771-38.089-14.345-39.396-33.71
				c-1.659-24.232,17.713-44.62,43.264-45.567c31.926-1.169,58.302,27.732,60.364,58.026c2.58,37.834-53.514,81.745-93.434,83.203
				l-1.551,10.658c48.897-2.125,109.838-48.147,106.94-95.577c-2.319-37.944-35.91-67.338-75.023-65.648
				c-31.287,1.344-55.155,27.053-53.306,57.412c1.494,24.295,22.985,43.105,48.024,42.02c20.025-0.864,35.302-17.324,34.113-36.747
				c-0.961-15.55-14.715-27.583-30.738-26.897c-12.813,0.557-22.583,11.086-21.828,23.518c0.608,9.961,9.416,17.658,19.673,17.211
				c8.202-0.35,14.45-7.091,13.969-15.048c-0.39-6.368-6.026-11.289-12.589-11.001"/>
			<path fill="#010101" d="M508.985,502.545c4.748,2.461,10.63,0.854,13.104-3.591c3.106-5.553,0.797-12.562-5.148-15.645
				c-7.444-3.843-16.614-1.337-20.493,5.608c-4.844,8.67-1.246,19.616,8.051,24.434c11.62,6.026,23.425,0.418,29.474-10.425
				c4.746-8.477,4.354-17.027,1.24-23.767c-1.867-4.048-3.528-7.178-8.982-9.999c-18.159-9.404-40.553-3.288-50.033,13.674
				c-11.832,21.196-3.024,47.906,19.666,59.661c28.37,14.715,64.564-0.169,79.363-26.664c18.494-33.107-13.477-96.777-48.936-115.15
				l3.146-10.286c43.307,22.782,78.752,90.435,55.866,132.103c-18.304,33.311-61.236,45.539-95.865,27.305
				c-27.718-14.595-38.32-48.027-23.666-74.69c11.712-21.315,39.183-29.144,61.358-17.473c17.731,9.34,24.518,30.73,15.142,47.793
				c-7.486,13.648-25.074,18.661-39.276,11.189c-11.345-5.971-15.698-19.675-9.688-30.592c4.8-8.736,16.044-11.94,25.133-7.159
				c7.268,3.824,10.043,12.591,6.21,19.571c-3.077,5.608-10.277,7.65-16.085,4.585"/>
			<polygon fill="#010101" stroke="#010101" stroke-miterlimit="10" points="532.505,372.877 524.179,409.993 506.333,406.001 
				514.653,368.885 			"/>
		</g>
	</g>
	<g>
		<g>
			<path fill="#010101" stroke="#010101" stroke-miterlimit="10" d="M177.667,381.687c0,0-13.371-14.139-15.599-16.163
				c-13.09-11.829-59.469-52.065-79.419-46.698c-29.687,7.984-59.313,107.73-59.313,107.73s69.695,73.846,99.293,68.229
				c20.325-3.863,45.523-60.365,51.975-75.61c1.011-2.386,7.16-19.439,7.16-19.439l-1.605-10.975c0,0-6.875,18.001-9.083,21.763
				c-9.381,16.136-35.811,58.907-53.533,61.859c-23.604,3.918-81.94-49.476-81.94-49.476s28.232-76.873,51.953-82.487
				c19.598-4.643,61.911,24.991,76.421,35.743c3.161,2.338,17.11,16.738,17.11,16.738L177.667,381.687z"/>
			<path fill="#010101" d="M210.606,317.116c3.127-7.938,7.028-13.248,11.136-17.055c14.242-13.238,63.689,0.734,76.496-13.879
				c5.497-6.268-3.308-25.224-7.78-32.281c-1.76-2.804-7.464-7.891-7.464-7.891s3.759,18.503-0.071,22.708
				c-11.227,12.303-52.467,4.986-64.573,16.415c-5.19,4.902-10.125,13.795-14.105,25.577c-4.58,13.575-8.325,37.711-9.961,54.303
				c-0.848,8.615-9.886,11.252-9.886,11.252l3.879,10.891c0,0,12.005-13.091,13.087-20.63
				C203.63,350.593,207.629,324.599,210.606,317.116z"/>
			<path fill="#010101" d="M238.922,440.37c6.267,5.802,12.074,8.904,17.432,10.574c18.553,5.785,57.104-28.187,74.971-20.536
				c7.669,3.277,7.922,24.176,6.949,32.457c-0.398,3.286-3.324,10.362-3.324,10.362s-4.619-18.326-9.881-20.453
				c-15.439-6.239-49.466,18.168-65.333,13.089c-6.786-2.17-15.087-8.056-23.752-16.971c-10.013-10.268-23.808-30.395-32.457-44.663
				c-4.489-7.4-14.744-4.354-14.744-4.354l-1.217-11.504c0,0,17.461,5.106,21.676,11.437
				C218.162,413.188,233.007,434.893,238.922,440.37z"/>
			<path fill="#010101" stroke="#010101" stroke-miterlimit="10" d="M180.825,376.394c0,0,7.062-13.323,8.171-15.635
				c5.319-11.176,21.962-44.274,34.409-48.609c31.443-10.975,127.486,38.686,127.486,38.686s-64.575,87.819-97.887,91.633
				c-13.339,1.521-43.364-22.142-52.543-29.689c-1.733-1.421-14.269-12.748-14.269-12.748l-1.611-10.954
				c0,0,14.348,12.523,18.722,15.477c11.661,7.88,34.456,22.18,45.008,21.103c29.454-3.037,92.859-73.464,92.859-73.464
				s-87.54-35.04-115.205-24.883c-9.818,3.593-23.791,25.728-30.99,38.122c-2.902,4.977-11.151,20.322-11.151,20.322
				L180.825,376.394z"/>
			<path fill="#010101" d="M185.785,380.916c0,0,15.248-36.578,43.443-42.114c28.215-5.523,57.4,19.201,57.4,19.201
				s-17.716,6.479-47.232,7.166C209.861,365.867,185.785,380.916,185.785,380.916z"/>
			<path fill="#010101" d="M189.045,395.288c0,0,29.573,26.412,57.387,19.208c27.819-7.194,43.458-42.121,43.458-42.121
				s-18.771,1.819-45.7,13.954C217.276,398.473,189.045,395.288,189.045,395.288z"/>
			<path fill="#010101" d="M193.087,502.853c-4.748,2.479-10.629,0.9-13.138-3.546c-3.109-5.542-0.816-12.561,5.125-15.663
				c7.422-3.862,16.608-1.392,20.519,5.543c4.863,8.671,1.284,19.626-7.999,24.473c-11.601,6.055-23.409,0.483-29.502-10.353
				c-4.763-8.468-4.396-17.008-1.308-23.766c1.86-4.049,3.521-7.177,8.964-10.01c18.13-9.46,40.548-3.396,50.063,13.52
				c11.89,21.177,3.166,47.923-19.506,59.733c-28.32,14.779-64.551,0.01-79.434-26.46c-18.587-33.062,13.212-96.804,48.624-115.28
				l-3.178-10.276c-43.242,22.912-78.5,90.658-55.503,132.242c18.399,33.281,61.351,45.388,95.944,27.052
				c27.674-14.659,38.184-48.129,23.464-74.745c-11.771-21.289-39.257-29.041-61.398-17.308
				c-17.723,9.379-24.439,30.797-15.018,47.822c7.535,13.639,25.128,18.597,39.305,11.086c11.334-5.997,15.639-19.708,9.609-30.609
				c-4.827-8.725-16.09-11.901-25.159-7.103c-7.257,3.854-10.015,12.627-6.147,19.61c3.082,5.578,10.281,7.602,16.09,4.52"/>
			<path fill="#010101" d="M142.934,282.125c-5.355-0.178-9.961,3.788-10.3,8.874c-0.413,6.352,4.683,11.681,11.383,11.912
				c8.368,0.278,15.569-5.912,16.103-13.861c0.648-9.914-7.312-18.253-17.778-18.612c-13.082-0.447-21.325,9.69-22.139,22.086
				c-0.637,9.69,3.389,17.24,9.09,21.993c3.426,2.84,6.274,4.957,12.41,5.161c20.44,0.706,38.038-14.453,39.306-33.829
				c1.588-24.213-17.846-44.564-43.398-45.437c-31.929-1.087-58.216,27.889-60.202,58.173c-2.472,37.86,53.734,81.597,93.656,82.962
				l1.582,10.649c-48.899-1.985-109.968-47.849-107.207-95.292c2.218-37.961,35.724-67.438,74.849-65.852
				c31.285,1.272,55.22,26.914,53.451,57.273c-1.416,24.297-22.862,43.163-47.889,42.149c-20.032-0.807-35.35-17.211-34.221-36.653
				c0.907-15.55,14.635-27.619,30.664-26.969c12.818,0.518,22.626,11.021,21.892,23.45c-0.576,9.962-9.367,17.677-19.617,17.259
				c-8.208-0.324-14.484-7.045-14.019-15.002c0.375-6.369,5.997-11.309,12.55-11.057"/>
			<polygon fill="#010101" stroke="#010101" stroke-miterlimit="10" points="177.397,409.315 168.967,372.227 186.81,368.179 
				195.235,405.269 			"/>
		</g>
		<g>
			<path fill="#010101" stroke="#010101" stroke-miterlimit="10" d="M524.063,319.567c0,0,13.432,14.093,15.688,16.09
				c13.129,11.772,59.679,51.805,79.61,46.344c29.654-8.123,58.835-107.999,58.835-107.999s-70.037-73.531-99.596-67.775
				c-20.309,3.946-45.246,60.571-51.639,75.843c-1.001,2.386-7.08,19.458-7.08,19.458l1.674,10.956c0,0,6.794-18.001,8.969-21.781
				c9.312-16.173,35.556-59.074,53.262-62.101c23.586-4.018,82.172,49.104,82.172,49.104s-27.893,77.001-51.596,82.72
				c-19.58,4.736-62.019-24.713-76.579-35.4c-3.171-2.331-17.189-16.664-17.189-16.664L524.063,319.567z"/>
			<path fill="#010101" d="M491.419,384.286c-3.099,7.948-6.98,13.277-11.066,17.11c-14.182,13.294-63.679-0.465-76.431,14.214
				c-5.463,6.303,3.421,25.226,7.919,32.242c1.781,2.787,7.497,7.864,7.497,7.864s-3.824-18.493-0.026-22.708
				c11.177-12.357,52.445-5.226,64.506-16.713c5.17-4.908,10.062-13.823,13.989-25.632c4.523-13.61,8.152-37.74,9.718-54.349
				c0.816-8.615,9.839-11.299,9.839-11.299l-3.932-10.881c0,0-11.942,13.147-12.994,20.694
				C498.243,350.78,494.362,376.775,491.419,384.286z"/>
			<path fill="#010101" d="M462.547,261.152c-6.292-5.766-12.115-8.848-17.479-10.483c-18.582-5.699-56.979,28.438-74.885,20.872
				c-7.682-3.25-8.026-24.149-7.084-32.44c0.377-3.286,3.268-10.37,3.268-10.37s4.714,18.309,9.977,20.406
				c15.468,6.184,49.387-18.39,65.272-13.397c6.799,2.166,15.133,8.013,23.847,16.88c10.054,10.221,23.933,30.293,32.651,44.525
				c4.518,7.379,14.753,4.271,14.753,4.271l1.263,11.503c0,0-17.471-5.024-21.722-11.337
				C483.435,288.253,468.487,266.611,462.547,261.152z"/>
			<path fill="#010101" stroke="#010101" stroke-miterlimit="10" d="M520.934,324.877c0,0-7,13.342-8.095,15.663
				c-5.273,11.215-21.763,44.377-34.188,48.769c-31.414,11.113-127.68-38.12-127.68-38.12s64.207-88.106,97.482-92.07
				c13.352-1.577,43.459,21.957,52.678,29.458c1.745,1.411,14.323,12.672,14.323,12.672l1.669,10.956
				c0,0-14.404-12.458-18.805-15.395c-11.688-7.835-34.556-22.019-45.098-20.898c-29.435,3.167-92.514,73.884-92.514,73.884
				s87.687,34.648,115.307,24.37c9.793-3.64,23.67-25.836,30.818-38.269c2.871-4.976,11.058-20.37,11.058-20.37L520.934,324.877z"/>
			<path fill="#010101" d="M515.956,320.366c0,0-15.086,36.663-43.272,42.316c-28.172,5.646-57.467-18.959-57.467-18.959
				s17.677-6.544,47.199-7.363C491.94,335.535,515.956,320.366,515.956,320.366z"/>
			<path fill="#010101" d="M512.625,306.012c0,0-29.682-26.273-57.47-18.949c-27.795,7.326-43.275,42.318-43.275,42.318
				s18.771-1.904,45.63-14.158C484.394,302.949,512.625,306.012,512.625,306.012z"/>
			<path fill="#010101" d="M508.112,198.466c4.736-2.497,10.622-0.938,13.127,3.49c3.144,5.533,0.892,12.552-5.041,15.679
				c-7.407,3.911-16.596,1.47-20.522-5.449c-4.916-8.642-1.397-19.617,7.873-24.499c11.578-6.099,23.419-0.585,29.552,10.212
				c4.799,8.45,4.479,16.99,1.406,23.757c-1.839,4.066-3.491,7.197-8.912,10.047c-18.085,9.563-40.539,3.593-50.122-13.294
				c-11.997-21.112-3.387-47.889,19.228-59.817c28.264-14.902,64.563-0.297,79.557,26.105
				c18.736,32.978-12.771,96.871-48.105,115.494l3.223,10.278c43.142-23.119,78.09-91.013,54.915-132.503
				c-18.551-33.179-61.562-45.1-96.072-26.616c-27.612,14.78-37.968,48.295-23.136,74.847
				c11.885,21.251,39.406,28.875,61.497,17.038c17.668-9.462,24.295-30.918,14.805-47.899c-7.61-13.601-25.227-18.483-39.366-10.908
				c-11.304,6.054-15.54,19.775-9.47,30.657c4.871,8.709,16.142,11.817,25.194,6.973c7.236-3.872,9.941-12.656,6.059-19.619
				c-3.111-5.562-10.324-7.557-16.115-4.456"/>
			<path fill="#010101" d="M559.244,418.961c5.354,0.168,9.953-3.834,10.255-8.913c0.389-6.35-4.731-11.668-11.423-11.863
				c-8.381-0.242-15.553,5.997-16.04,13.944c-0.599,9.907,7.39,18.215,17.858,18.522c13.08,0.389,21.287-9.787,22.034-22.181
				c0.596-9.692-3.462-17.23-9.188-21.947c-3.438-2.842-6.292-4.94-12.433-5.115c-20.439-0.603-37.964,14.621-39.151,34.017
				c-1.472,24.23,18.049,44.481,43.59,45.231c31.945,0.956,58.104-28.159,59.953-58.443c2.306-37.851-54.115-81.357-94.035-82.545
				l-1.625-10.629c48.907,1.755,110.184,47.339,107.629,94.809c-2.047,37.953-35.433,67.588-74.54,66.176
				c-31.307-1.123-55.362-26.654-53.718-57.04c1.309-24.287,22.672-43.254,47.714-42.354c20.026,0.723,35.423,17.062,34.37,36.504
				c-0.831,15.541-14.507,27.685-30.54,27.118c-12.813-0.474-22.676-10.927-21.992-23.366c0.537-9.954,9.272-17.725,19.537-17.353
				c8.212,0.297,14.517,6.99,14.088,14.947c-0.347,6.378-5.945,11.345-12.506,11.103"/>
			<polygon fill="#010101" stroke="#010101" stroke-miterlimit="10" points="524.212,291.928 532.799,328.982 514.992,333.123 
				506.386,296.069 			"/>
		</g>
	</g>
	<g>
		<g>
			<path fill="#010101" stroke="#010101" stroke-miterlimit="10" d="M208.263,453.684c0,0-18.187-6.944-21.067-7.807
				c-16.926-4.979-76.167-21.121-91.815-7.634c-23.29,20.073-6.727,122.801-6.727,122.801s94.828,36.31,119.058,18.419
				c16.638-12.29,14.837-74.141,14.043-90.676c-0.125-2.583-1.978-20.619-1.978-20.619l-6.205-9.191c0,0,1.613,19.199,1.252,23.554
				c-1.459,18.596-6.721,68.601-21.409,78.95c-19.571,13.77-95.291-9.041-95.291-9.041s-7.897-81.516,11.037-96.871
				c15.651-12.683,66.628-4.326,84.367-0.928c3.86,0.742,22.674,7.668,22.674,7.668L208.263,453.684z"/>
			<path fill="#010101" d="M209.938,381.213c-0.624-8.504,0.588-14.983,2.636-20.192c7.093-18.104,57.709-26.961,62.911-45.678
				c2.235-8.039-13.925-21.297-21.009-25.716c-2.799-1.764-10.146-3.881-10.146-3.881s11.409,15.051,9.786,20.5
				c-4.786,15.949-45.117,27.248-51.072,42.798c-2.554,6.659-3.14,16.815-1.616,29.164c1.759,14.213,8.845,37.581,14.575,53.242
				c2.97,8.133-4.03,14.429-4.03,14.429l8.217,8.133c0,0,5.14-17.01,2.844-24.259C218.167,414.412,210.505,389.253,209.938,381.213z
				"/>
			<path fill="#010101" d="M288.904,480.005c8.164,2.506,14.742,2.784,20.294,1.968c19.228-2.842,39.233-50.172,58.648-51.026
				c8.332-0.37,17.619,18.356,20.341,26.237c1.062,3.13,1.494,10.78,1.494,10.78s-12.111-14.521-17.769-14.15
				c-16.626,1.077-36.701,37.823-53.199,40.136c-7.055,0.983-17.087-0.725-28.762-4.996c-13.477-4.911-34.639-17.072-48.614-26.18
				c-7.257-4.716-15.176,2.479-15.176,2.479l-6.081-9.84c0,0,17.946-2.972,24.487,0.909
				C258.408,464.51,281.201,477.628,288.904,480.005z"/>
			<path fill="#010101" stroke="#010101" stroke-miterlimit="10" d="M208.81,447.539c0,0,0.584-15.059,0.584-17.622
				c-0.055-12.384,0.585-49.429,9.926-58.73c23.572-23.526,131.651-20.425,131.651-20.425s-20.104,107.137-48.466,125.018
				c-11.358,7.158-48.676-1.149-60.223-3.972c-2.183-0.521-18.383-5.294-18.383-5.294l-6.205-9.172c0,0,18.363,5.069,23.579,5.831
				c13.928,2.043,40.669,5.041,49.709-0.511c25.224-15.506,51.814-106.469,51.814-106.469s-94.077,6.396-114.599,27.545
				c-7.287,7.502-10.281,33.497-11.395,47.784c-0.452,5.746-1.236,23.154-1.236,23.154L208.81,447.539z"/>
			<path fill="#010101" d="M215.243,449.468c0,0-2.127-39.576,20.879-56.79c23.03-17.211,60.05-7.585,60.05-7.585
				s-13.157,13.52-39.454,26.942C230.41,425.462,215.243,449.468,215.243,449.468z"/>
			<path fill="#010101" d="M224.406,461c0,0,38.107,10.973,60.045-7.575c21.947-18.551,20.894-56.8,20.894-56.8
				s-16.127,9.774-35.131,32.392C251.231,451.634,224.406,461,224.406,461z"/>
			<path fill="#010101" d="M274.698,556.179c-3.202,4.29-9.191,5.413-13.375,2.499c-5.207-3.648-6.182-10.965-2.175-16.341
				c5.013-6.693,14.362-8.448,20.894-3.897c8.142,5.708,9.669,17.127,3.401,25.512c-7.826,10.49-20.879,10.593-31.064,3.471
				c-7.965-5.559-11.344-13.423-11.488-20.84c-0.08-4.459,0.064-8.004,3.737-12.915c12.235-16.388,35.061-20.648,50.974-9.524
				c19.891,13.925,23.632,41.804,8.323,62.275c-19.105,25.604-58.161,28.001-83.044,10.612
				c-31.089-21.725-30.078-92.961-6.179-124.964l-7.326-7.883c-29.022,39.403-31.417,115.735,7.34,143.236
				c31.007,22.001,74.966,14.286,98.181-17.231c18.582-25.218,13.541-59.931-11.266-77.533c-19.844-14.084-47.97-9.144-62.834,11.03
				c-11.901,16.137-8.666,38.353,7.208,49.604c12.706,9.026,30.707,5.869,40.225-7.055c7.612-10.325,5.54-24.538-4.619-31.742
				c-8.135-5.775-19.66-3.751-25.752,4.504c-4.863,6.617-3.545,15.726,2.967,20.341c5.194,3.685,12.562,2.388,16.457-2.907"/>
			<path fill="#010101" d="M133.786,379.031c-4.901,2.163-7.331,7.734-5.432,12.468c2.381,5.896,9.288,8.486,15.42,5.793
				c7.665-3.378,11.467-12.077,8.5-19.478c-3.713-9.208-14.503-13.268-24.088-9.062c-11.986,5.273-15.01,17.984-10.375,29.506
				c3.632,9.015,10.534,14.065,17.728,15.875c4.323,1.078,7.808,1.745,13.425-0.723c18.722-8.236,28.006-29.533,20.745-47.536
				c-9.072-22.504-35.404-32.418-58.809-22.123c-29.24,12.866-40.361,50.376-29.017,78.533
				c14.189,35.177,83.8,50.218,120.367,34.137l6.045,8.904c-44.92,19.422-119.839,4.577-137.924-39.373
				c-14.465-35.169,2.948-76.26,38.885-91.792c28.746-12.422,61.433,0.306,73.001,28.427c9.261,22.504-1.885,48.806-24.871,58.751
				c-18.4,7.955-39.317-0.188-46.73-18.188c-5.929-14.41,1.205-31.242,15.93-37.61c11.771-5.087,25.164,0.122,29.9,11.642
				c3.797,9.23-0.775,19.999-10.195,24.065c-7.54,3.267-16.107-0.074-19.138-7.446c-2.425-5.896,0.501-12.792,6.517-15.401"/>
			<polygon fill="#010101" stroke="#010101" stroke-miterlimit="10" points="220.001,478.696 196.318,448.931 210.639,437.538 
				234.317,467.313 			"/>
		</g>
		<g>
			<path fill="#010101" stroke="#010101" stroke-miterlimit="10" d="M493.447,247.486c0,0,18.215,6.88,21.122,7.696
				c16.931,4.921,76.236,20.805,91.83,7.242c23.2-20.183,6.178-122.837,6.178-122.837s-94.995-35.884-119.134-17.874
				c-16.59,12.358-14.507,74.189-13.638,90.733c0.125,2.583,2.058,20.593,2.058,20.593l6.255,9.153c0,0-1.68-19.17-1.363-23.515
				c1.378-18.605,6.423-68.646,21.067-79.054c19.503-13.851,95.336,8.605,95.336,8.605s8.253,81.486-10.622,96.917
				c-15.591,12.755-66.599,4.623-84.354,1.317c-3.865-0.732-22.718-7.566-22.718-7.566L493.447,247.486z"/>
			<path fill="#010101" d="M492.104,319.956c0.652,8.515-0.536,14.996-2.555,20.221c-7.009,18.131-57.58,27.203-62.704,45.958
				c-2.188,8.049,14.019,21.241,21.121,25.622c2.809,1.729,10.161,3.827,10.161,3.827s-11.465-15.004-9.873-20.445
				c4.717-15.986,44.995-27.452,50.881-43.03c2.529-6.666,3.069-16.823,1.49-29.17c-1.829-14.223-9.026-37.546-14.818-53.18
				c-2.998-8.123,3.974-14.456,3.974-14.456l-8.264-8.095c0,0-5.066,17.017-2.731,24.278
				C483.719,286.813,491.494,311.917,492.104,319.956z"/>
			<path fill="#010101" d="M412.687,221.527c-8.172-2.47-14.754-2.72-20.294-1.855c-19.213,2.914-39.012,50.328-58.427,51.273
				c-8.33,0.401-17.704-18.279-20.448-26.153c-1.085-3.128-1.556-10.769-1.556-10.769s12.185,14.456,17.841,14.065
				c16.613-1.143,36.523-37.99,53.001-40.376c7.067-1.003,17.111,0.66,28.811,4.866c13.494,4.854,34.701,16.923,48.729,25.965
				c7.271,4.691,15.147-2.551,15.147-2.551l6.124,9.812c0,0-17.92,3.054-24.487-0.79
				C443.259,236.883,420.411,223.877,412.687,221.527z"/>
			<path fill="#010101" stroke="#010101" stroke-miterlimit="10" d="M492.934,253.632c0,0-0.521,15.058-0.501,17.631
				c0.11,12.384-0.367,49.418-9.662,58.759c-23.481,23.646-131.572,21.028-131.572,21.028s19.646-107.241,47.906-125.242
				c11.345-7.213,48.687,0.938,60.242,3.704c2.185,0.512,18.401,5.209,18.401,5.209l6.258,9.144c0,0-18.382-4.974-23.617-5.708
				c-13.938-1.998-40.692-4.866-49.704,0.725c-25.15,15.615-51.327,106.69-51.327,106.69s94.046-6.805,114.474-28.047
				c7.246-7.53,10.125-33.544,11.176-47.851c0.428-5.727,1.129-23.145,1.129-23.145L492.934,253.632z"/>
			<path fill="#010101" d="M486.495,251.728c0,0,2.3,39.569-20.644,56.894c-22.936,17.305-60.007,7.844-60.007,7.844
				s13.09-13.565,39.339-27.108C471.426,275.812,486.495,251.728,486.495,251.728z"/>
			<path fill="#010101" d="M477.266,240.234c0,0-38.139-10.796-60.002,7.845c-21.87,18.661-20.644,56.903-20.644,56.903
				s16.09-9.859,34.978-32.541C450.496,249.724,477.266,240.234,477.266,240.234z"/>
			<path fill="#010101" d="M426.561,145.286c3.186-4.306,9.166-5.449,13.342-2.552c5.231,3.63,6.249,10.927,2.262,16.321
				c-4.981,6.731-14.316,8.522-20.857,3.992c-8.174-5.663-9.768-17.074-3.531-25.493c7.782-10.52,20.851-10.688,31.053-3.613
				c7.993,5.533,11.406,13.371,11.574,20.797c0.105,4.455-0.023,7.994-3.672,12.913c-12.154,16.462-34.976,20.824-50.934,9.757
				c-19.965-13.814-23.812-41.676-8.61-62.239c19-25.68,58.046-28.261,83.006-10.975c31.182,21.584,30.496,92.824,6.738,124.927
				l7.357,7.864c28.851-39.543,30.903-115.875-7.979-143.207c-31.101-21.856-75.029-13.944-98.109,17.677
				c-18.472,25.289-13.267,59.983,11.615,77.485c19.92,13.99,48.029,8.919,62.802-11.318c11.815-16.191,8.485-38.398-7.437-49.586
				c-12.752-8.949-30.74-5.708-40.198,7.243c-7.56,10.351-5.428,24.557,4.762,31.731c8.164,5.74,19.673,3.649,25.724-4.64
				c4.845-6.63,3.474-15.719-3.049-20.305c-5.218-3.669-12.577-2.338-16.452,2.971"/>
			<path fill="#010101" d="M568.256,321.794c4.896-2.172,7.305-7.77,5.374-12.477c-2.399-5.886-9.325-8.467-15.439-5.737
				c-7.654,3.416-11.408,12.153-8.406,19.515c3.759,9.192,14.557,13.21,24.125,8.949c11.956-5.319,14.943-18.049,10.239-29.542
				c-3.673-8.988-10.592-14.019-17.801-15.79c-4.328-1.068-7.81-1.719-13.416,0.787c-18.682,8.321-27.87,29.637-20.531,47.628
				c9.182,22.468,35.554,32.253,58.893,21.854c29.197-12.996,40.143-50.57,28.683-78.663c-14.345-35.112-84.044-49.846-120.534-33.6
				l-6.07-8.875c44.83-19.626,119.809-5.125,138.093,38.761c14.614,35.085-2.618,76.267-38.467,91.959
				c-28.697,12.552-61.447-0.02-73.14-28.111c-9.354-22.449,1.67-48.807,24.624-58.853c18.36-8.032,39.324,0.019,46.802,17.991
				c5.994,14.365-1.064,31.233-15.759,37.675c-11.751,5.135-25.169-0.009-29.95-11.522c-3.829-9.2,0.672-19.988,10.082-24.1
				c7.524-3.296,16.111,0,19.176,7.353c2.451,5.905-0.44,12.804-6.451,15.43"/>
			<polygon fill="#010101" stroke="#010101" stroke-miterlimit="10" points="481.597,222.521 505.406,252.184 491.155,263.631 
				467.333,233.979 			"/>
		</g>
	</g>
	<g>
		<g>
			<path fill="#010101" stroke="#010101" stroke-miterlimit="10" d="M267.043,505.388c0,0-19.393,1.624-22.365,2.098
				c-17.408,2.859-77.79,13.999-86.04,32.939c-12.283,28.187,47.191,113.573,47.191,113.573s101.191-8.405,115.265-35.04
				c9.659-18.289-18.781-73.241-26.665-87.79c-1.233-2.272-10.725-17.723-10.725-17.723l-9.578-5.587c0,0,9.779,16.589,11.34,20.674
				c6.755,17.389,23.697,64.729,14.947,80.418c-11.664,20.898-89.784,33.183-89.784,33.183s-42.462-70.021-32.059-92.071
				c8.601-18.213,58.161-32.792,75.612-37.423c3.798-1.013,23.76-2.926,23.76-2.926L267.043,505.388z"/>
			<path fill="#010101" d="M237.13,439.357c-4.253-7.398-5.969-13.757-6.388-19.348c-1.457-19.384,40.316-49.306,36.886-68.433
				c-1.477-8.214-21.784-13.154-30.085-14.064c-3.284-0.372-10.826,0.91-10.826,0.91s16.808,8.606,17.71,14.223
				c2.602,16.45-28.842,44.118-27.464,60.708c0.585,7.112,4.468,16.518,11.188,26.981c7.751,12.05,24.274,30.031,36.226,41.655
				c6.206,6.044,2.628,14.753,2.628,14.753l10.932,3.759c0,0-2.744-17.555-7.962-23.087
				C258.937,465.697,241.123,446.35,237.13,439.357z"/>
			<path fill="#010101" d="M351.119,494.126c8.45-1.281,14.497-3.88,19.145-7.028c16.1-10.891,13.596-62.212,30.716-71.404
				c7.348-3.956,23.841,8.895,29.713,14.818c2.312,2.357,6.018,9.062,6.018,9.062s-17.209-7.828-22.149-5.034
				c-14.511,8.171-16.664,49.994-30.528,59.225c-5.935,3.943-15.709,6.756-28.085,7.974c-14.269,1.422-38.612-0.362-55.156-2.506
				c-8.583-1.107-12.598,8.82-12.598,8.82l-9.751-6.23c0,0,14.883-10.464,22.459-9.803
				C316.927,493.392,343.155,495.332,351.119,494.126z"/>
			<path fill="#010101" stroke="#010101" stroke-miterlimit="10" d="M264.875,499.612c0,0-6.006-13.825-7.115-16.137
				c-5.422-11.141-20.908-44.785-16.527-57.225c11.04-31.417,109.776-75.49,109.776-75.49s28.345,105.253,10.538,133.663
				c-7.132,11.384-44.36,20.082-55.983,22.54c-2.197,0.477-18.861,3.205-18.861,3.205l-9.573-5.581c0,0,18.745-3.396,23.776-4.976
				c13.434-4.187,38.835-13.091,44.567-22.003c16.006-24.92,0.521-118.408,0.521-118.408s-81.997,46.55-91.316,74.513
				c-3.315,9.917,5.262,34.639,10.452,47.998c2.088,5.377,8.932,21.4,8.932,21.4L264.875,499.612z"/>
			<path fill="#010101" d="M271.51,498.562c0,0-19.079-34.739-5.814-60.225c13.287-25.503,50.817-32.885,50.817-32.885
				s-5.994,17.892-23.865,41.389C274.763,470.35,271.51,498.562,271.51,498.562z"/>
			<path fill="#010101" d="M284.766,504.979c0,0,39.096-6.641,50.823-32.867c11.729-26.235-5.809-60.242-5.809-60.242
				s-10.292,15.8-17.605,44.423C304.876,484.897,284.766,504.979,284.766,504.979z"/>
			<path fill="#010101" d="M371.354,568.928c-1.021,5.265-5.929,8.865-10.965,8.049c-6.274-1.023-10.324-7.194-9.047-13.77
				c1.615-8.215,9.273-13.85,17.137-12.578c9.809,1.616,16.141,11.241,14.131,21.511c-2.505,12.85-14.223,18.606-26.488,16.599
				c-9.588-1.551-16.04-7.177-19.394-13.795c-2-3.983-3.406-7.242-2.227-13.259c3.917-20.072,22.639-33.812,41.802-30.683
				c23.956,3.918,39.42,27.417,34.504,52.501c-6.114,31.362-40.266,50.457-70.23,45.575c-37.438-6.099-67.415-70.718-59.757-109.924
				l-10.02-3.928c-9.066,48.093,21.883,117.918,68.726,125.883c37.489,6.388,73.752-19.636,80.997-58.099
				c5.813-30.786-13.781-59.872-43.77-64.979c-23.991-4.085-47.189,12.57-51.831,37.191c-3.733,19.7,8.819,38.307,28.004,41.572
				c15.36,2.62,30.217-8.038,33.186-23.802c2.382-12.607-5.647-24.521-17.931-26.609c-9.833-1.67-19.341,5.154-21.247,15.236
				c-1.512,8.067,3.62,15.698,11.494,17.035c6.279,1.069,12.356-3.296,13.566-9.747"/>
			<path fill="#010101" d="M167.565,470.415c-3.48,4.076-3.25,10.146,0.509,13.591c4.705,4.279,12.05,3.62,16.409-1.467
				c5.442-6.367,5.094-15.857-0.787-21.231c-7.341-6.695-18.825-5.675-25.635,2.272c-8.515,9.953-5.728,22.719,3.445,31.093
				c7.182,6.535,15.589,8.095,22.857,6.609c4.364-0.9,7.794-1.811,11.782-6.479c13.298-15.533,12.432-38.753-1.916-51.824
				c-17.934-16.339-45.961-13.859-62.589,5.572c-20.764,24.275-14.521,62.897,7.91,83.341
				c28.044,25.548,97.293,8.914,123.269-21.429l9.307,5.396c-32.056,36.977-106,56.094-141.354,24.331
				c-28.287-25.408-30.419-69.99-4.767-99.571c20.51-23.663,55.486-26.366,78.102-6.042c18.104,16.266,19.47,44.795,3.065,63.726
				c-13.124,15.151-35.503,16.887-49.99,3.881c-11.592-10.418-12.458-28.678-1.954-40.805c8.401-9.682,22.728-10.798,31.993-2.469
				c7.417,6.667,7.97,18.345,1.243,26.099c-5.377,6.21-14.544,6.926-20.471,1.596c-4.746-4.271-5.099-11.745-0.809-16.712"/>
			<polygon fill="#010101" stroke="#010101" stroke-miterlimit="10" points="288.472,522.831 254.222,506.287 262.187,489.808 
				296.437,506.371 			"/>
		</g>
		<g>
			<path fill="#010101" stroke="#010101" stroke-miterlimit="10" d="M434.603,195.912c0,0,19.394-1.706,22.367-2.227
				c17.385-2.905,77.719-14.316,85.884-33.302c12.152-28.241-47.702-113.357-47.702-113.357s-101.155,8.865-115.097,35.556
				c-9.592,18.333,19.105,73.142,27.058,87.67c1.233,2.276,10.788,17.667,10.788,17.667l9.604,5.533c0,0-9.827-16.544-11.429-20.601
				c-6.824-17.36-23.979-64.644-15.295-80.362c11.562-20.944,89.638-33.59,89.638-33.59s42.771,69.844,32.456,91.931
				c-8.519,18.263-58.007,33.052-75.443,37.769c-3.798,1.021-23.753,3.034-23.753,3.034L434.603,195.912z"/>
			<path fill="#010101" d="M464.814,261.803c4.287,7.379,6.023,13.74,6.468,19.318c1.546,19.377-40.089,49.486-36.569,68.601
				c1.521,8.207,21.845,13.071,30.141,13.934c3.281,0.344,10.821-0.955,10.821-0.955s-16.842-8.55-17.771-14.148
				c-2.677-16.443,28.642-44.25,27.194-60.84c-0.614-7.103-4.537-16.489-11.311-26.924c-7.816-12.021-24.411-29.921-36.415-41.499
				c-6.22-6.016-2.688-14.744-2.688-14.744l-10.956-3.713c0,0,2.813,17.538,8.07,23.062
				C442.889,235.565,460.777,254.81,464.814,261.803z"/>
			<path fill="#010101" d="M350.572,207.544c-8.436,1.321-14.475,3.947-19.098,7.122c-16.042,10.963-13.323,62.278-30.404,71.544
				c-7.336,3.973-23.879-8.793-29.765-14.698c-2.333-2.348-6.072-9.033-6.072-9.033s17.25,7.744,22.174,4.94
				c14.475-8.227,16.434-50.069,30.248-59.364c5.932-3.972,15.707-6.832,28.071-8.113c14.261-1.476,38.606,0.204,55.17,2.264
				c8.584,1.078,12.545-8.865,12.545-8.865l9.77,6.184c0,0-14.82,10.529-22.406,9.907
				C384.779,208.121,358.546,206.311,350.572,207.544z"/>
			<path fill="#010101" stroke="#010101" stroke-miterlimit="10" d="M436.802,201.668c0,0,6.062,13.798,7.191,16.107
				c5.479,11.114,21.105,44.694,16.779,57.136c-10.907,31.491-109.439,76.008-109.439,76.008s-28.799-105.152-11.146-133.627
				c7.098-11.419,44.274-20.267,55.895-22.792c2.187-0.482,18.837-3.286,18.837-3.286l9.604,5.533c0,0-18.722,3.483-23.763,5.089
				c-13.419,4.251-38.77,13.268-44.471,22.207c-15.889,24.984,0.02,118.4,0.02,118.4s81.793-46.921,90.986-74.914
				c3.265-9.926-5.42-34.619-10.675-47.961c-2.101-5.348-9.019-21.345-9.019-21.345L436.802,201.668z"/>
			<path fill="#010101" d="M430.171,202.746c0,0,19.237,34.658,6.073,60.216c-13.164,25.541-50.669,33.098-50.669,33.098
				s5.91-17.901,23.695-41.49C427.044,230.988,430.171,202.746,430.171,202.746z"/>
			<path fill="#010101" d="M416.878,196.396c0,0-39.054,6.803-50.667,33.088c-11.615,26.3,6.075,60.226,6.075,60.226
				s10.222-15.858,17.404-44.49C396.867,216.551,416.878,196.396,416.878,196.396z"/>
			<path fill="#010101" d="M330.012,132.828c0.999-5.264,5.89-8.884,10.915-8.087c6.285,1.003,10.37,7.141,9.117,13.733
				c-1.57,8.224-9.21,13.88-17.065,12.634c-9.822-1.551-16.205-11.14-14.241-21.436c2.455-12.859,14.158-18.671,26.421-16.719
				c9.6,1.512,16.071,7.091,19.447,13.721c2.028,3.969,3.442,7.214,2.287,13.229c-3.81,20.099-22.48,33.924-41.658,30.88
				c-23.985-3.798-39.536-27.231-34.749-52.354c5.979-31.379,40.042-50.633,70.029-45.88c37.462,5.927,67.736,70.411,60.255,109.644
				l10.035,3.898c8.849-48.147-22.403-117.815-69.297-125.586c-37.5-6.209-73.65,19.975-80.734,58.474
				c-5.677,30.802,14.057,59.807,44.068,64.783c24.012,3.974,47.147-12.785,51.679-37.433c3.625-19.712-9.002-38.28-28.205-41.454
				c-15.37-2.535-30.174,8.183-33.078,23.952c-2.321,12.617,5.756,24.492,18.052,26.535c9.847,1.625,19.307-5.245,21.162-15.346
				c1.496-8.061-3.685-15.663-11.549-16.964c-6.294-1.04-12.346,3.344-13.536,9.816"/>
			<path fill="#010101" d="M534.233,230.431c3.466-4.085,3.212-10.167-0.565-13.573c-4.723-4.273-12.08-3.584-16.403,1.522
				c-5.415,6.397-5.013,15.894,0.889,21.231c7.376,6.647,18.846,5.589,25.617-2.395c8.469-9.989,5.637-22.745-3.582-31.065
				c-7.21-6.507-15.626-8.039-22.89-6.507c-4.359,0.909-7.78,1.838-11.748,6.527c-13.227,15.598-12.262,38.789,2.153,51.814
				c18.021,16.266,46.024,13.646,62.547-5.84c20.674-24.37,14.241-62.974-8.268-83.323c-28.155-25.421-97.349-8.469-123.18,21.993
				l-9.323-5.357c31.888-37.126,105.735-56.577,141.242-24.965c28.385,25.281,30.712,69.853,5.214,99.544
				c-20.411,23.757-55.373,26.636-78.092,6.388c-18.166-16.174-19.659-44.704-3.334-63.708
				c13.063-15.208,35.443-17.046,49.975-4.083c11.629,10.341,12.591,28.604,2.138,40.774c-8.361,9.729-22.68,10.908-31.984,2.619
				c-7.437-6.64-8.059-18.309-1.363-26.098c5.352-6.229,14.518-6.983,20.472-1.69c4.762,4.261,5.151,11.736,0.872,16.703"/>
			<polygon fill="#010101" stroke="#010101" stroke-miterlimit="10" points="413.095,178.552 447.414,194.957 439.535,211.455 
				405.207,195.067 			"/>
		</g>
	</g>
	<path fill="#010101" d="M484.086,351.134c0,74.188-60.142,134.329-134.325,134.329c-74.184,0-134.325-60.141-134.325-134.329
		c0-74.18,60.141-134.323,134.325-134.323C423.944,216.811,484.086,276.954,484.086,351.134z"/>
</g>
<g>
	<path fill="#FFFFFF" d="M299.19,333.732l-0.854,2.089c-3.324,1.692-6.873,2.538-10.646,2.538c-5.406,0-9.797-1.535-13.173-4.604
		c-3.377-3.069-5.065-7.083-5.065-12.039c0-3.414,0.842-6.397,2.527-8.951c1.685-2.553,3.908-4.462,6.671-5.728
		c2.763-1.265,5.866-1.898,9.31-1.898c1.991,0,3.96,0.21,5.907,0.629c1.946,0.419,3.571,0.921,4.874,1.505l0.157,0.225
		c-0.345,0.839-0.667,2.913-0.966,6.222l-0.157,0.18h-1.056l-0.18-0.18l-0.225-3.818c-1.093-0.868-2.415-1.546-3.964-2.033
		c-1.55-0.486-3.164-0.73-4.84-0.73c-2.531,0-4.799,0.543-6.806,1.628c-2.007,1.086-3.564,2.658-4.672,4.717
		c-1.108,2.059-1.662,4.579-1.662,7.558c0,2.995,0.651,5.623,1.954,7.884c1.303,2.261,3.081,3.998,5.334,5.211
		c2.253,1.213,4.885,1.819,7.895,1.819c1.333,0,2.613-0.127,3.841-0.382c1.228-0.254,2.25-0.569,3.066-0.943
		c0.816-0.374,1.598-0.831,2.347-1.37L299.19,333.732z"/>
	<path fill="#FFFFFF" d="M301.998,327.241c0-1.782,0.367-3.5,1.101-5.155c0.733-1.654,2.01-3.084,3.83-4.29
		c1.819-1.205,3.979-1.808,6.48-1.808c3.145,0,5.705,0.992,7.682,2.976c1.977,1.984,2.965,4.534,2.965,7.648
		c0,3.429-1.134,6.252-3.403,8.468c-2.269,2.216-5.005,3.324-8.209,3.324c-2.097,0-3.968-0.565-5.615-1.696
		c-1.647-1.13-2.864-2.512-3.65-4.144C302.391,330.932,301.998,329.158,301.998,327.241z M306.243,325.691
		c0,2.097,0.27,3.972,0.809,5.626c0.539,1.655,1.393,2.984,2.561,3.987c1.168,1.003,2.5,1.505,3.998,1.505
		c1.767,0,3.227-0.7,4.38-2.1c1.153-1.4,1.729-3.507,1.729-6.323c0-3.189-0.625-5.802-1.875-7.839
		c-1.25-2.036-3.051-3.055-5.402-3.055c-1.947,0-3.467,0.704-4.56,2.111C306.79,321.012,306.243,323.041,306.243,325.691z"/>
	<path fill="#FFFFFF" d="M333.848,316.123l0.427,0.292c-0.09,0.988-0.15,2.171-0.18,3.549l2.134-1.954
		c0.599-0.554,0.996-0.91,1.19-1.067c0.194-0.157,0.651-0.34,1.37-0.55c0.719-0.209,1.475-0.314,2.269-0.314
		c1.497,0,2.808,0.371,3.931,1.112s1.954,1.763,2.493,3.066c2.021-1.917,3.201-2.979,3.538-3.189
		c0.336-0.209,0.871-0.423,1.605-0.64c0.733-0.217,1.467-0.326,2.201-0.326c1.183,0,2.269,0.255,3.257,0.764
		c0.988,0.509,1.774,1.176,2.358,1.999c0.584,0.824,0.924,1.715,1.021,2.673c0.098,0.958,0.146,2.276,0.146,3.953v2.358
		c0,0.255,0.045,2.119,0.135,5.593c0.029,1.423,0.188,2.269,0.472,2.538s1.205,0.404,2.763,0.404l0.18,0.18v0.966l-0.18,0.18
		c-1.902-0.12-3.189-0.18-3.863-0.18c-0.375,0-1.46,0.06-3.257,0.18l-0.292-0.247c0.194-1.946,0.292-4.484,0.292-7.614v-2.695
		c0-2.381-0.112-4.046-0.337-4.998c-0.225-0.951-0.749-1.729-1.572-2.336c-0.824-0.606-1.805-0.91-2.942-0.91
		c-0.809,0-1.565,0.161-2.269,0.483c-0.704,0.322-1.336,0.801-1.898,1.438c-0.562,0.637-0.873,1.228-0.932,1.774
		c-0.06,0.547-0.09,1.554-0.09,3.021v2.808c0,0.659,0.03,1.895,0.09,3.706c0.06,1.812,0.124,2.868,0.191,3.167
		c0.067,0.3,0.172,0.513,0.314,0.64c0.142,0.127,0.307,0.21,0.494,0.247c0.187,0.038,0.992,0.101,2.415,0.191l0.202,0.18v0.943
		l-0.18,0.202c-1.872-0.12-3.676-0.18-5.413-0.18c-1.603,0-3.399,0.06-5.391,0.18l-0.202-0.202v-0.943l0.202-0.18
		c1.452-0.09,2.272-0.157,2.459-0.202c0.187-0.045,0.352-0.138,0.494-0.281c0.142-0.142,0.239-0.359,0.292-0.651
		c0.052-0.292,0.112-1.258,0.18-2.897s0.101-2.878,0.101-3.717v-2.561c0-1.692-0.116-2.995-0.348-3.908
		c-0.232-0.913-0.73-1.685-1.494-2.313s-1.722-0.943-2.875-0.943c-0.898,0-1.718,0.176-2.459,0.528
		c-0.741,0.352-1.348,0.786-1.819,1.303s-0.764,1-0.876,1.449s-0.168,1.423-0.168,2.92v3.324c0,0.659,0.03,1.895,0.09,3.706
		c0.06,1.812,0.124,2.868,0.191,3.167c0.067,0.3,0.172,0.513,0.314,0.64c0.142,0.127,0.307,0.21,0.494,0.247
		c0.187,0.038,0.992,0.101,2.415,0.191l0.202,0.18v0.943l-0.18,0.202c-1.872-0.12-3.676-0.18-5.413-0.18
		c-1.722,0-3.519,0.06-5.391,0.18l-0.202-0.202v-0.943l0.202-0.18c1.452-0.09,2.272-0.157,2.459-0.202
		c0.187-0.045,0.352-0.138,0.494-0.281c0.142-0.142,0.239-0.359,0.292-0.651c0.052-0.292,0.112-1.258,0.18-2.897
		s0.101-2.878,0.101-3.717v-4.425c0-0.599-0.03-1.415-0.09-2.448c-0.06-1.033-0.109-1.669-0.146-1.909
		c-0.038-0.239-0.154-0.416-0.348-0.528c-0.195-0.112-0.584-0.168-1.168-0.168l-1.887-0.022l-0.202-0.18v-0.966l0.18-0.18
		C329.475,317.463,331.886,316.901,333.848,316.123z"/>
	<path fill="#FFFFFF" d="M374.569,316.123l0.427,0.292c-0.165,1.962-0.247,4.455-0.247,7.479v5.076c0,0.33,0.03,1.389,0.09,3.178
		c0.06,1.79,0.124,2.834,0.19,3.133c0.068,0.3,0.169,0.517,0.304,0.651s0.3,0.221,0.494,0.258c0.194,0.038,1.003,0.101,2.426,0.191
		l0.202,0.18v0.943l-0.18,0.202c-1.872-0.12-3.676-0.18-5.413-0.18c-1.722,0-3.519,0.06-5.391,0.18l-0.202-0.202v-0.943l0.202-0.18
		c1.452-0.09,2.272-0.157,2.46-0.202c0.187-0.045,0.352-0.138,0.494-0.281c0.142-0.142,0.238-0.359,0.291-0.651
		s0.113-1.258,0.18-2.897c0.068-1.64,0.102-2.878,0.102-3.717v-4.425c0-0.599-0.03-1.415-0.09-2.448
		c-0.061-1.033-0.109-1.669-0.146-1.909c-0.037-0.239-0.153-0.416-0.348-0.528c-0.195-0.112-0.584-0.168-1.168-0.168l-1.887-0.022
		l-0.202-0.18v-0.966l0.18-0.18C370.197,317.463,372.607,316.901,374.569,316.123z M372.66,306.083c0.703,0,1.303,0.247,1.797,0.741
		s0.741,1.093,0.741,1.797c0,0.689-0.247,1.28-0.741,1.774s-1.094,0.741-1.797,0.741c-0.689,0-1.284-0.243-1.785-0.73
		c-0.502-0.486-0.753-1.082-0.753-1.786c0-0.704,0.251-1.303,0.753-1.797C371.376,306.33,371.971,306.083,372.66,306.083z"/>
	<path fill="#FFFFFF" d="M387.26,316.123l0.427,0.292c-0.09,1.003-0.149,2.321-0.18,3.953c1.198-0.988,2.336-1.991,3.414-3.01
		c0.314-0.284,0.61-0.494,0.888-0.629c0.276-0.135,0.736-0.277,1.381-0.427c0.644-0.149,1.303-0.225,1.977-0.225
		c1.138,0,2.242,0.232,3.312,0.696c1.07,0.464,1.879,1.015,2.426,1.651c0.547,0.637,0.925,1.389,1.135,2.257
		c0.209,0.869,0.314,1.939,0.314,3.212v3.953c0,0.255,0.037,2.119,0.112,5.593c0.03,1.423,0.187,2.269,0.472,2.538
		c0.284,0.27,1.213,0.404,2.785,0.404l0.18,0.18v0.966l-0.18,0.18c-1.902-0.12-3.189-0.18-3.863-0.18c-0.39,0-1.482,0.06-3.279,0.18
		l-0.27-0.247c0.194-1.946,0.292-4.484,0.292-7.614v-2.942c0-1.767-0.042-3.04-0.124-3.818c-0.082-0.778-0.333-1.486-0.752-2.123
		c-0.42-0.636-0.98-1.13-1.685-1.482c-0.704-0.352-1.542-0.528-2.516-0.528c-0.778,0-1.445,0.079-1.999,0.236
		c-0.555,0.157-1.176,0.479-1.864,0.966c-0.688,0.487-1.198,0.943-1.527,1.37s-0.528,0.824-0.595,1.19
		c-0.068,0.367-0.102,1.149-0.102,2.347v3.908c0,0.33,0.029,1.389,0.09,3.178c0.06,1.79,0.123,2.834,0.191,3.133
		c0.066,0.3,0.168,0.517,0.303,0.651s0.299,0.221,0.494,0.258c0.194,0.038,1.003,0.101,2.426,0.191l0.202,0.18v0.943l-0.18,0.202
		c-1.872-0.12-3.677-0.18-5.413-0.18c-1.723,0-3.52,0.06-5.391,0.18l-0.202-0.202v-0.943l0.202-0.18
		c1.452-0.09,2.271-0.157,2.459-0.202s0.352-0.138,0.494-0.281c0.143-0.142,0.24-0.359,0.293-0.651
		c0.052-0.292,0.111-1.258,0.18-2.897c0.066-1.64,0.101-2.878,0.101-3.717v-4.425c0-0.599-0.03-1.415-0.09-2.448
		s-0.108-1.669-0.146-1.909c-0.038-0.239-0.154-0.416-0.349-0.528s-0.584-0.168-1.168-0.168l-1.887-0.022l-0.202-0.18v-0.966
		l0.18-0.18C382.887,317.463,385.298,316.901,387.26,316.123z"/>
	<path fill="#FFFFFF" d="M431.126,317.672l0.18,0.404c-0.614,0.943-0.996,1.558-1.146,1.842h-4.178
		c0.419,0.824,0.629,1.685,0.629,2.583c0,1.063-0.244,2.097-0.73,3.1c-0.486,1.003-1.164,1.857-2.032,2.561
		c-0.868,0.704-1.853,1.266-2.954,1.685c-1.1,0.419-2.354,0.629-3.762,0.629H416.1c-0.884,0.704-1.453,1.228-1.707,1.572
		c-0.255,0.345-0.382,0.696-0.382,1.056c0,0.659,0.304,1.123,0.909,1.393c0.607,0.27,1.861,0.404,3.763,0.404l5.031-0.067
		c1.587,0,2.804,0.188,3.649,0.562c0.846,0.375,1.531,1.044,2.056,2.01s0.786,1.988,0.786,3.066c0,1.647-0.535,3.291-1.605,4.93
		c-1.071,1.64-2.617,2.886-4.639,3.74s-4.178,1.28-6.469,1.28c-1.303,0-2.527-0.143-3.672-0.427
		c-1.146-0.285-2.149-0.715-3.01-1.292c-0.861-0.577-1.555-1.329-2.078-2.257c-0.524-0.929-0.786-1.895-0.786-2.897
		c0-0.554,0.082-1.134,0.247-1.741c0.164-0.606,0.479-1.262,0.943-1.965l4.065-2.269c-1.303-0.404-2.122-0.805-2.46-1.202
		c-0.336-0.396-0.505-0.872-0.505-1.426c0-0.569,0.187-1.243,0.562-2.021l3.616-2.605c-2.126-0.554-3.56-1.385-4.302-2.493
		c-0.74-1.108-1.111-2.321-1.111-3.639c0-1.213,0.262-2.37,0.786-3.47s1.313-1.98,2.37-2.639c1.055-0.659,2.238-1.179,3.549-1.561
		c1.31-0.382,2.504-0.573,3.582-0.573c1.871,0,3.653,0.606,5.346,1.819C427.345,317.762,429.509,317.732,431.126,317.672z
		 M419.446,337.955c-2.411,0-3.8,0.03-4.167,0.09c-0.367,0.06-0.887,0.314-1.561,0.764s-1.225,1.059-1.65,1.831
		c-0.428,0.771-0.641,1.636-0.641,2.594c0,1.692,0.629,3.069,1.887,4.133c1.258,1.063,2.935,1.595,5.031,1.595
		c1.572,0,3.024-0.33,4.357-0.988c1.332-0.659,2.316-1.542,2.953-2.65c0.637-1.108,0.955-2.171,0.955-3.189
		c0-1.019-0.266-1.891-0.797-2.617c-0.532-0.727-1.221-1.168-2.066-1.325C422.901,338.033,421.468,337.955,419.446,337.955z
		 M412.865,322.883c0,0.914,0.18,1.895,0.539,2.942c0.359,1.048,0.939,1.842,1.74,2.381s1.703,0.809,2.707,0.809
		c1.332,0,2.482-0.434,3.447-1.303c0.967-0.868,1.449-2.224,1.449-4.065c0-1.557-0.441-2.957-1.325-4.2
		c-0.884-1.243-2.134-1.864-3.751-1.864c-1.363,0-2.504,0.446-3.426,1.336C413.326,319.81,412.865,321.131,412.865,322.883z"/>
	<path fill="#FFFFFF" d="M294.709,385.002l0.18-0.18h1.101l0.18,0.18c0.075,1.916,0.176,3.088,0.303,3.516
		c0.127,0.426,0.531,0.875,1.213,1.348c0.681,0.471,1.587,0.855,2.718,1.156c1.13,0.299,2.272,0.449,3.425,0.449
		c1.587,0,3.013-0.293,4.279-0.877c1.265-0.584,2.25-1.441,2.954-2.57c0.704-1.131,1.056-2.4,1.056-3.809
		c0-0.988-0.168-1.849-0.505-2.582c-0.337-0.734-0.809-1.322-1.415-1.764s-1.299-0.771-2.078-0.988
		c-0.779-0.217-1.939-0.453-3.481-0.707c-1.498-0.24-2.669-0.457-3.515-0.652c-0.846-0.193-1.688-0.494-2.527-0.898
		c-0.839-0.404-1.539-0.916-2.1-1.538c-0.562-0.621-1.011-1.385-1.348-2.291c-0.337-0.905-0.505-1.876-0.505-2.909
		c0-2.799,0.973-5.094,2.92-6.884c1.946-1.789,4.56-2.685,7.839-2.685c1.303,0,2.721,0.162,4.256,0.483
		c1.535,0.322,2.931,0.798,4.189,1.427l0.157,0.27c-0.33,1.377-0.532,3.339-0.606,5.885l-0.202,0.18h-1.168l-0.18-0.158
		c-0.03-1.797-0.075-2.927-0.135-3.391c-0.06-0.465-0.741-1.041-2.044-1.73c-1.303-0.688-2.718-1.033-4.245-1.033
		c-1.273,0-2.463,0.256-3.571,0.764c-1.108,0.51-1.947,1.311-2.516,2.404c-0.569,1.093-0.854,2.209-0.854,3.346
		c0,0.885,0.172,1.666,0.517,2.348c0.344,0.682,0.79,1.221,1.336,1.617c0.546,0.396,1.183,0.693,1.909,0.887
		c0.726,0.195,2.055,0.436,3.987,0.719c2.65,0.375,4.578,0.828,5.784,1.359c1.205,0.531,2.171,1.374,2.897,2.527
		c0.726,1.152,1.089,2.545,1.089,4.178c0,3.189-1.299,5.848-3.897,7.973c-2.598,2.127-5.747,3.189-9.445,3.189
		c-3.1,0-5.817-0.553-8.153-1.662l-0.135-0.291C294.522,390.662,294.634,388.461,294.709,385.002z"/>
	<path fill="#FFFFFF" d="M318.608,382.441c0-1.782,0.367-3.5,1.101-5.155c0.733-1.654,2.01-3.085,3.83-4.29s3.979-1.809,6.48-1.809
		c3.145,0,5.705,0.992,7.682,2.977s2.965,4.533,2.965,7.648c0,3.428-1.134,6.252-3.403,8.467c-2.269,2.217-5.005,3.324-8.209,3.324
		c-2.097,0-3.968-0.564-5.615-1.695c-1.647-1.131-2.864-2.512-3.65-4.145C319.001,386.133,318.608,384.357,318.608,382.441z
		 M322.853,380.891c0,2.098,0.27,3.973,0.809,5.627s1.393,2.984,2.561,3.986c1.168,1.004,2.5,1.506,3.998,1.506
		c1.767,0,3.227-0.701,4.38-2.1c1.153-1.4,1.729-3.508,1.729-6.324c0-3.189-0.625-5.802-1.875-7.838
		c-1.25-2.037-3.051-3.055-5.402-3.055c-1.947,0-3.467,0.703-4.56,2.111C323.399,376.212,322.853,378.24,322.853,380.891z"/>
	<path fill="#FFFFFF" d="M343.719,382.441c0-1.782,0.367-3.5,1.101-5.155c0.733-1.654,2.01-3.085,3.83-4.29s3.979-1.809,6.479-1.809
		c3.145,0,5.705,0.992,7.682,2.977s2.965,4.533,2.965,7.648c0,3.428-1.134,6.252-3.402,8.467c-2.269,2.217-5.006,3.324-8.209,3.324
		c-2.098,0-3.969-0.564-5.616-1.695c-1.647-1.131-2.864-2.512-3.65-4.145C344.112,386.133,343.719,384.357,343.719,382.441z
		 M347.964,380.891c0,2.098,0.27,3.973,0.809,5.627s1.393,2.984,2.561,3.986c1.168,1.004,2.5,1.506,3.998,1.506
		c1.766,0,3.227-0.701,4.379-2.1c1.153-1.4,1.73-3.508,1.73-6.324c0-3.189-0.626-5.802-1.876-7.838
		c-1.251-2.037-3.052-3.055-5.401-3.055c-1.947,0-3.467,0.703-4.56,2.111C348.511,376.212,347.964,378.24,347.964,380.891z"/>
	<path fill="#FFFFFF" d="M374.984,371.322l0.428,0.293c-0.09,1.003-0.15,2.32-0.18,3.953c1.197-0.988,2.336-1.992,3.414-3.01
		c0.314-0.285,0.609-0.494,0.887-0.629s0.737-0.277,1.381-0.428c0.645-0.148,1.303-0.225,1.977-0.225
		c1.139,0,2.242,0.232,3.313,0.697c1.07,0.464,1.879,1.014,2.426,1.65c0.546,0.637,0.925,1.389,1.134,2.258
		c0.21,0.868,0.314,1.939,0.314,3.211v3.953c0,0.256,0.037,2.119,0.113,5.594c0.029,1.422,0.187,2.268,0.471,2.537
		c0.285,0.27,1.213,0.404,2.785,0.404l0.18,0.18v0.967l-0.18,0.18c-1.901-0.121-3.189-0.18-3.863-0.18
		c-0.389,0-1.482,0.059-3.279,0.18l-0.27-0.248c0.195-1.945,0.293-4.484,0.293-7.613v-2.943c0-1.766-0.042-3.039-0.124-3.818
		c-0.083-0.777-0.333-1.485-0.753-2.122c-0.419-0.636-0.98-1.13-1.684-1.482c-0.705-0.352-1.543-0.528-2.516-0.528
		c-0.779,0-1.445,0.079-2,0.236c-0.554,0.157-1.176,0.479-1.863,0.966c-0.689,0.487-1.199,0.943-1.527,1.37
		c-0.33,0.427-0.528,0.824-0.596,1.19c-0.067,0.367-0.102,1.149-0.102,2.347v3.908c0,0.33,0.03,1.389,0.09,3.18
		c0.061,1.789,0.124,2.832,0.191,3.133c0.067,0.299,0.168,0.516,0.303,0.65s0.3,0.221,0.494,0.26c0.195,0.037,1.004,0.1,2.426,0.189
		l0.203,0.18v0.943l-0.18,0.203c-1.873-0.121-3.677-0.18-5.414-0.18c-1.722,0-3.519,0.059-5.391,0.18l-0.201-0.203v-0.943
		l0.201-0.18c1.453-0.09,2.272-0.156,2.46-0.201c0.187-0.045,0.352-0.139,0.494-0.281c0.142-0.143,0.239-0.359,0.292-0.65
		c0.053-0.293,0.112-1.258,0.18-2.898c0.067-1.639,0.102-2.879,0.102-3.717v-4.426c0-0.598-0.031-1.414-0.09-2.447
		c-0.061-1.033-0.109-1.67-0.146-1.91c-0.037-0.238-0.154-0.415-0.348-0.527c-0.195-0.112-0.584-0.168-1.168-0.168l-1.887-0.023
		l-0.203-0.18v-0.965l0.18-0.18C370.612,372.663,373.023,372.102,374.984,371.322z"/>
	<path fill="#FFFFFF" d="M399.939,387.764c0.719,0,1.344,0.256,1.875,0.764c0.531,0.51,0.797,1.154,0.797,1.932
		c0,0.734-0.262,1.363-0.785,1.887c-0.525,0.525-1.154,0.787-1.887,0.787c-0.75,0-1.386-0.262-1.91-0.787
		c-0.523-0.523-0.785-1.152-0.785-1.887c0-0.748,0.262-1.385,0.785-1.908C398.554,388.025,399.189,387.764,399.939,387.764z
		 M402.59,360.654v2.381c0,0.09-0.166,1.842-0.494,5.256c-0.494,5.031-0.914,9.897-1.258,14.6l-1.236,1.123l-0.426-0.225
		c-0.121-3.01-0.473-7.449-1.057-13.32l-0.449-5.076c-0.06-0.928-0.09-1.908-0.09-2.941c1.213-0.569,2.381-1.168,3.504-1.797H402.59
		z"/>
</g>
<g>
</g>
<g>
</g>
<g>
</g>
<g>
</g>
<g>
</g>
<g>
</g>
</svg>
