<?xml version="1.0" encoding="utf-8"?>
<!-- Generator: Adobe Illustrator 16.0.0, SVG Export Plug-In . SVG Version: 6.00 Build 0)  -->
<!DOCTYPE svg PUBLIC "-//W3C//DTD SVG 1.1//EN" "http://www.w3.org/Graphics/SVG/1.1/DTD/svg11.dtd">
<svg version="1.1" xmlns="http://www.w3.org/2000/svg" xmlns:xlink="http://www.w3.org/1999/xlink" x="0px" y="0px"
	 width="140.575px" height="143.002px" viewBox="0 0 140.575 143.002" enable-background="new 0 0 140.575 143.002"
	 xml:space="preserve">
<g id="Layer_2">
	<g>
		<g>
			<g>
				<path fill="#010101" stroke="#010101" stroke-miterlimit="10" d="M72.402,34.526c0,0,3.524-2.084,4.042-2.447
					c3.037-2.133,13.453-9.771,13.281-14.116C89.471,11.5,70.388,0.773,70.388,0.773S51.992,11.631,51.765,17.963
					c-0.154,4.351,10.264,12.153,13.09,14.186c0.441,0.32,3.652,2.377,3.652,2.377l2.326,0.18c0,0-3.371-2.248-4.041-2.875
					c-2.871-2.678-10.414-10.094-10.193-13.867C56.894,12.938,70.566,3.46,70.566,3.46s14.454,9.375,14.501,14.504
					c0.039,4.236-8.012,11.535-10.894,14.011c-0.627,0.539-4.232,2.73-4.232,2.73L72.402,34.526z"/>
				<path fill="#010101" d="M84.114,44.291c1.48,1.014,2.389,2.061,2.979,3.08c2.051,3.539-3.119,13.031-0.719,16.34
					c1.031,1.42,5.33,0.498,6.984-0.09c0.656-0.232,1.969-1.164,1.969-1.164s-3.973-0.092-4.656-1.074
					c-2-2.877,1.424-10.994-0.357-14.012c-0.764-1.293-2.357-2.721-4.59-4.084c-2.572-1.574-7.348-3.467-10.676-4.576
					c-1.728-0.576-1.847-2.552-1.847-2.552l-2.416,0.289c0,0,2.127,3.072,3.622,3.644C77.569,41.301,82.713,43.332,84.114,44.291z"
					/>
				<path fill="#010101" d="M57.507,44.357c-1.482,1.014-2.389,2.061-2.98,3.082c-2.051,3.537,3.121,13.029,0.719,16.338
					c-1.029,1.42-5.33,0.498-6.984-0.088c-0.654-0.234-1.969-1.164-1.969-1.164s3.975-0.094,4.656-1.074
					c2-2.877-1.422-10.994,0.357-14.012c0.764-1.293,2.359-2.721,4.59-4.084c2.574-1.574,7.348-3.467,10.678-4.576
					c1.727-0.576,1.578-2.822,1.578-2.822l2.416,0.289c0,0-1.859,3.341-3.355,3.912C64.052,41.365,58.908,43.398,57.507,44.357z"/>
				<path fill="#010101" stroke="#010101" stroke-miterlimit="10" d="M73.341,35.42c0,0,2.401,2.07,2.823,2.404
					c2.047,1.613,8.061,6.57,8.371,9.324c0.785,6.963-13.88,24.352-13.88,24.352S55.652,54.158,56.421,47.148
					c0.309-2.809,6.564-7.865,8.539-9.396c0.373-0.289,3.279-2.332,3.279-2.332l2.324,0.18c0,0-3.238,2.359-4.049,3.119
					c-2.16,2.025-6.156,6.035-6.426,8.25c-0.75,6.184,10.744,22.473,10.744,22.473S82.1,53.117,81.307,46.969
					c-0.281-2.182-4.17-6.08-6.377-8.135c-0.886-0.826-3.649-3.234-3.649-3.234L73.341,35.42z"/>
				<path fill="#010101" d="M72.181,36.227c0,0,6.794,4.833,6.614,10.876c-0.182,6.043-6.614,10.879-6.614,10.879
					s-0.502-3.936,0.732-10.025S72.181,36.227,72.181,36.227z"/>
				<path fill="#010101" d="M69.082,36.227c0,0-6.797,4.833-6.615,10.876c0.18,6.043,6.615,10.879,6.615,10.879
					s0.502-3.936-0.732-10.025C67.113,41.867,69.082,36.227,69.082,36.227z"/>
				<path fill="#010101" d="M46.828,32.042c-0.289-1.09,0.311-2.223,1.338-2.527c1.283-0.381,2.615,0.416,2.975,1.779
					c0.447,1.703-0.488,3.473-2.094,3.949c-2.004,0.596-4.086-0.648-4.646-2.779c-0.701-2.662,0.992-4.826,3.498-5.57
					c1.959-0.582,3.695-0.109,4.936,0.84c0.744,0.57,1.309,1.057,1.637,2.305c1.096,4.16-1.191,8.476-5.107,9.64
					c-4.896,1.453-9.977-1.583-11.344-6.785c-1.713-6.5,3.008-13.244,9.129-15.062c7.648-2.271,19.244,7.222,21.383,15.347
					l2.258-0.172c-2.686-9.939-14.939-20.331-24.543-17.551c-7.684,2.224-12.17,10.471-10.021,18.422
					c1.719,6.361,8.094,10.076,14.24,8.296c4.918-1.422,7.789-6.701,6.414-11.789c-1.1-4.072-5.18-6.449-9.113-5.31
					c-3.148,0.91-4.986,4.289-4.105,7.546c0.703,2.605,3.314,4.127,5.832,3.398c2.016-0.584,3.191-2.746,2.629-4.83
					c-0.451-1.668-2.123-2.643-3.734-2.176c-1.289,0.373-2.041,1.756-1.68,3.09"/>
				<path fill="#010101" d="M94.444,32.042c0.287-1.09-0.312-2.223-1.34-2.527c-1.283-0.381-2.615,0.416-2.975,1.779
					c-0.447,1.703,0.488,3.473,2.094,3.949c2.004,0.596,4.084-0.648,4.646-2.779c0.701-2.662-0.994-4.826-3.5-5.57
					c-1.957-0.582-3.693-0.109-4.934,0.84c-0.744,0.57-1.311,1.057-1.639,2.305c-1.096,4.16,1.193,8.476,5.109,9.64
					c4.895,1.453,9.975-1.583,11.344-6.785c1.711-6.5-3.01-13.244-9.129-15.062c-7.65-2.271-19.244,7.222-21.384,15.347
					l-2.258-0.172c2.686-9.939,14.938-20.331,24.544-17.551c7.684,2.224,12.17,10.471,10.021,18.422
					c-1.719,6.361-8.096,10.076-14.242,8.296c-4.916-1.422-7.789-6.701-6.414-11.789c1.1-4.072,5.18-6.449,9.115-5.31
					c3.146,0.91,4.984,4.289,4.104,7.546c-0.703,2.605-3.314,4.127-5.832,3.398c-2.016-0.584-3.189-2.746-2.627-4.83
					c0.449-1.668,2.121-2.643,3.732-2.176c1.289,0.373,2.041,1.756,1.682,3.09"/>
				<rect x="66.746" y="33.182" fill="#010101" stroke="#010101" stroke-miterlimit="10" width="8.001" height="3.85"/>
			</g>
			<g>
				<path fill="#010101" stroke="#010101" stroke-miterlimit="10" d="M69.001,108.484c0,0-3.518,2.1-4.033,2.467
					c-3.027,2.145-13.408,9.83-13.217,14.174c0.283,6.461,19.414,17.104,19.414,17.104s18.347-10.941,18.544-17.273
					c0.137-4.352-10.316-12.105-13.152-14.129c-0.443-0.316-3.661-2.359-3.661-2.359l-2.326-0.168c0,0,3.379,2.232,4.052,2.855
					c2.883,2.664,10.459,10.049,10.256,13.822c-0.273,5.025-13.901,14.566-13.901,14.566s-14.498-9.311-14.566-14.439
					c-0.059-4.236,7.961-11.57,10.83-14.061c0.627-0.541,4.223-2.748,4.223-2.748L69.001,108.484z"/>
				<path fill="#010101" d="M57.246,98.771c-1.486-1.008-2.398-2.051-2.994-3.068c-2.066-3.529,3.062-13.043,0.646-16.342
					c-1.039-1.416-5.334-0.475-6.984,0.121c-0.654,0.236-1.963,1.172-1.963,1.172s3.973,0.076,4.66,1.053
					c2.014,2.869-1.373,11.002,0.422,14.012c0.768,1.289,2.367,2.709,4.605,4.064c2.582,1.562,7.363,3.432,10.697,4.527
					c1.73,0.568,1.859,2.545,1.859,2.545l2.416-0.301c0,0-2.141-3.062-3.641-3.627C63.802,101.732,58.65,99.725,57.246,98.771z"/>
				<path fill="#010101" d="M83.85,98.586c1.477-1.021,2.381-2.072,2.967-3.096c2.035-3.547-3.18-13.016-0.793-16.336
					c1.025-1.424,5.328-0.521,6.984,0.059c0.656,0.23,1.977,1.154,1.977,1.154s-3.975,0.113-4.652,1.096
					c-1.988,2.885,1.471,10.988-0.295,14.014c-0.758,1.295-2.348,2.73-4.572,4.105c-2.566,1.586-7.33,3.498-10.656,4.623
					c-1.724,0.584-1.563,2.828-1.563,2.828l-2.418-0.277c0,0,1.844-3.35,3.338-3.928C77.319,101.607,82.454,99.551,83.85,98.586z"/>
				<path fill="#010101" stroke="#010101" stroke-miterlimit="10" d="M68.058,107.594c0,0-2.412-2.059-2.836-2.391
					c-2.055-1.605-8.09-6.533-8.412-9.287C55.994,88.955,70.582,71.5,70.582,71.5s15.081,17.277,14.343,24.289
					c-0.297,2.812-6.529,7.895-8.498,9.436c-0.371,0.291-3.267,2.348-3.267,2.348l-2.326-0.17c0,0,3.229-2.375,4.034-3.139
					c2.152-2.033,6.129-6.062,6.389-8.279c0.723-6.186-10.843-22.422-10.843-22.422S59.218,89.936,60.039,96.08
					c0.291,2.182,4.197,6.062,6.414,8.107c0.889,0.822,3.664,3.219,3.664,3.219L68.058,107.594z"/>
				<path fill="#010101" d="M69.214,106.783c0,0-6.816-4.805-6.664-10.85c0.154-6.043,6.566-10.906,6.566-10.906
					s0.52,3.932-0.688,10.027S69.214,106.783,69.214,106.783z"/>
				<path fill="#010101" d="M72.314,106.77c0,0,6.772-4.865,6.565-10.908s-6.663-10.85-6.663-10.85s-0.484,3.939,0.777,10.021
					C74.257,101.119,72.314,106.77,72.314,106.77z"/>
				<path fill="#010101" d="M94.586,110.855c0.293,1.088-0.303,2.223-1.328,2.531c-1.281,0.387-2.617-0.402-2.982-1.766
					c-0.455-1.701,0.473-3.473,2.076-3.957c2.002-0.605,4.088,0.629,4.658,2.758c0.713,2.66-0.971,4.83-3.473,5.586
					c-1.957,0.592-3.693,0.127-4.939-0.818c-0.746-0.566-1.312-1.051-1.646-2.297c-1.115-4.156,1.154-8.482,5.064-9.662
					c4.891-1.477,9.982,1.537,11.375,6.732c1.74,6.492-2.949,13.258-9.062,15.104c-7.639,2.307-19.277-7.135-21.45-15.252
					l-2.258,0.182c2.73,9.928,15.03,20.264,24.622,17.441c7.672-2.258,12.121-10.525,9.938-18.467
					c-1.746-6.354-8.139-10.041-14.277-8.234c-4.912,1.445-7.76,6.736-6.361,11.82c1.119,4.066,5.209,6.426,9.139,5.27
					c3.143-0.926,4.965-4.312,4.07-7.566c-0.715-2.602-3.334-4.111-5.848-3.371c-2.014,0.592-3.178,2.76-2.605,4.842
					c0.457,1.666,2.133,2.631,3.742,2.158c1.287-0.379,2.033-1.766,1.666-3.098"/>
				<path fill="#010101" d="M46.97,111.068c-0.283,1.09,0.322,2.221,1.352,2.52c1.283,0.375,2.613-0.426,2.965-1.791
					c0.441-1.707-0.504-3.471-2.111-3.939c-2.006-0.586-4.082,0.666-4.633,2.799c-0.689,2.666,1.014,4.822,3.523,5.555
					c1.961,0.574,3.695,0.094,4.93-0.861c0.742-0.574,1.307-1.062,1.629-2.312c1.076-4.166-1.23-8.471-5.152-9.617
					c-4.902-1.432-9.967,1.629-11.312,6.834c-1.684,6.51,3.068,13.232,9.195,15.021c7.66,2.238,19.213-7.307,21.316-15.443
					l2.258,0.162c-2.641,9.951-14.848,20.398-24.467,17.662c-7.691-2.189-12.215-10.418-10.102-18.377
					c1.689-6.369,8.049-10.113,14.205-8.361c4.922,1.4,7.816,6.666,6.465,11.762c-1.082,4.076-5.15,6.473-9.09,5.352
					c-3.15-0.896-5.004-4.268-4.139-7.529c0.691-2.607,3.297-4.143,5.818-3.424c2.016,0.574,3.201,2.73,2.648,4.818
					c-0.443,1.67-2.111,2.65-3.723,2.191c-1.293-0.367-2.051-1.748-1.695-3.082"/>
				
					<rect x="66.653" y="105.973" transform="matrix(1 -0.0044 0.0044 1 -0.4734 0.3115)" fill="#010101" stroke="#010101" stroke-miterlimit="10" width="8.001" height="3.848"/>
			</g>
		</g>
		<g>
			<g>
				<path fill="#010101" stroke="#010101" stroke-miterlimit="10" d="M56.201,37.45c0,0,2.273-3.406,2.582-3.958
					c1.812-3.239,7.885-14.639,5.846-18.479C61.597,9.299,39.75,7.91,39.75,7.91s-11.868,17.761-9.326,23.565
					c1.747,3.987,14.518,6.5,17.946,7.107c0.537,0.096,4.322,0.557,4.322,0.557l2.174-0.846c0,0-4.013-0.563-4.889-0.839
					c-3.748-1.167-13.761-4.579-15.198-8.074c-1.913-4.656,6.296-19.126,6.296-19.126s17.09,2.18,19.357,6.78
					c1.872,3.801-2.218,13.868-3.741,17.35c-0.331,0.758-2.63,4.296-2.63,4.296L56.201,37.45z"/>
				<path fill="#010101" d="M70.99,41.17c1.773,0.271,3.045,0.82,4.019,1.484c3.383,2.299,2.842,13.096,6.439,15.035
					c1.545,0.832,5.018-1.863,6.254-3.109c0.49-0.494,1.27-1.904,1.27-1.904s-3.619,1.641-4.662,1.053
					c-3.049-1.725-3.484-10.525-6.398-12.471c-1.248-0.834-3.303-1.43-5.906-1.689c-3-0.303-8.124,0.062-11.604,0.506
					c-1.808,0.23-2.772-1.5-2.772-1.5l-2.052,1.309c0,0,3.25,1.846,4.846,1.713C63.795,41.314,69.313,40.914,70.99,41.17z"/>
				<path fill="#010101" d="M47.043,52.77c-0.896,1.555-1.259,2.893-1.35,4.068c-0.313,4.076,8.463,10.387,7.733,14.41
					c-0.312,1.727-4.587,2.76-6.331,2.949c-0.691,0.074-2.279-0.195-2.279-0.195s3.541-1.807,3.729-2.986
					c0.555-3.459-6.049-9.291-5.754-12.781c0.127-1.496,0.946-3.475,2.364-5.67c1.637-2.535,5.117-6.311,7.638-8.754
					c1.306-1.268,0.198-3.227,0.198-3.227l2.302-0.789c0,0-0.227,3.818-1.327,4.98C51.643,47.234,47.889,51.297,47.043,52.77z"/>
				<path fill="#010101" stroke="#010101" stroke-miterlimit="10" d="M57.435,37.849c0,0,3.062,0.823,3.588,0.942
					c2.544,0.566,10.112,2.424,11.586,4.771c3.728,5.934-1.946,27.961-1.946,27.961s-21.041-9.119-23.388-15.77
					c-0.939-2.664,2.505-9.934,3.62-12.17c0.211-0.422,1.943-3.523,1.943-3.523l2.172-0.846c0,0-1.895,3.531-2.295,4.566
					c-1.068,2.762-2.93,8.107-2.213,10.221c2.006,5.896,19.427,15.59,19.427,15.59s3.074-19.596-0.308-24.791
					c-1.199-1.844-6.394-3.67-9.273-4.564c-1.157-0.361-4.691-1.332-4.691-1.332L57.435,37.849z"/>
				<path fill="#010101" d="M56.74,39.078c0,0,8.219,1.41,10.678,6.934c2.457,5.523-1.243,12.67-1.243,12.67
					s-2.159-3.328-3.688-9.35C60.958,43.309,56.74,39.078,56.74,39.078z"/>
				<path fill="#010101" d="M53.947,40.422c0,0-4.028,7.305-1.244,12.67c2.782,5.369,10.679,6.936,10.679,6.936
					s-1.254-3.766-5.008-8.717C54.619,46.359,53.947,40.422,53.947,40.422z"/>
				<path fill="#010101" d="M32.079,46.303c-0.732-0.857-0.684-2.139,0.11-2.859c0.991-0.898,2.536-0.758,3.451,0.314
					c1.143,1.34,1.066,3.34-0.173,4.467c-1.549,1.406-3.964,1.188-5.393-0.49c-1.786-2.094-1.199-4.777,0.736-6.535
					c1.513-1.375,3.282-1.701,4.812-1.385c0.918,0.191,1.638,0.385,2.475,1.367c2.791,3.273,2.602,8.154-0.422,10.902
					c-3.782,3.434-9.677,2.898-13.164-1.195c-4.362-5.113-3.033-13.237,1.694-17.531c5.906-5.363,20.472-1.838,25.923,4.557
					l1.96-1.134c-6.73-7.792-22.278-11.841-29.727-5.172c-5.959,5.336-6.426,14.713-1.041,20.946
					c4.308,4.986,11.662,5.57,16.43,1.301c3.814-3.414,4.112-9.416,0.667-13.404c-2.757-3.193-7.464-3.565-10.515-0.832
					c-2.442,2.184-2.633,6.025-0.427,8.58c1.764,2.043,4.776,2.281,6.729,0.533c1.563-1.4,1.686-3.859,0.274-5.492
					c-1.13-1.309-3.059-1.461-4.309-0.342c-1,0.895-1.077,2.467-0.173,3.512"/>
				<path fill="#010101" d="M74.985,25.652c-0.213-1.106-1.245-1.867-2.303-1.696c-1.321,0.213-2.176,1.509-1.908,2.894
					c0.336,1.729,1.944,2.916,3.601,2.65c2.062-0.333,3.397-2.355,2.979-4.52c-0.521-2.703-2.987-3.918-5.568-3.502
					c-2.017,0.324-3.376,1.503-4.082,2.896c-0.423,0.837-0.723,1.521-0.477,2.787c0.816,4.225,4.751,7.121,8.783,6.472
					c5.041-0.813,8.301-5.753,7.279-11.033c-1.277-6.599-8.455-10.629-14.757-9.614C60.655,14.259,54.325,27.84,55.919,36.09
					l-2.109,0.824c-1.89-10.121,4.646-24.798,14.506-26.459c7.888-1.329,15.507,4.157,17.019,12.254
					c1.209,6.478-2.926,12.59-9.234,13.652c-5.047,0.851-9.925-2.66-10.893-7.842c-0.775-4.146,1.871-8.057,5.91-8.737
					c3.231-0.545,6.352,1.703,6.971,5.021c0.496,2.652-1.197,5.156-3.78,5.591c-2.07,0.349-4.065-1.091-4.462-3.213
					c-0.319-1.697,0.765-3.301,2.419-3.579c1.322-0.223,2.601,0.697,2.854,2.055"/>
				
					<rect x="50.961" y="36.767" transform="matrix(-0.9011 0.4336 -0.4336 -0.9011 121.2639 49.7259)" fill="#010101" stroke="#010101" stroke-miterlimit="10" width="8.001" height="3.85"/>
			</g>
			<g>
				<path fill="#010101" stroke="#010101" stroke-miterlimit="10" d="M85.209,105.566c0,0-2.26,3.418-2.564,3.973
					c-1.799,3.244-7.82,14.672-5.764,18.502c3.057,5.699,24.91,6.992,24.91,6.992s11.789-17.814,9.221-23.605
					c-1.764-3.98-14.545-6.436-17.979-7.027c-0.537-0.094-4.322-0.539-4.322-0.539l-2.17,0.857c0,0,4.014,0.547,4.891,0.816
					c3.752,1.15,13.781,4.52,15.234,8.006c1.934,4.648-6.209,19.156-6.209,19.156s-17.102-2.104-19.387-6.695
					c-1.891-3.791,2.154-13.877,3.66-17.365c0.33-0.76,2.613-4.309,2.613-4.309L85.209,105.566z"/>
				<path fill="#010101" d="M70.405,101.912c-1.776-0.264-3.051-0.807-4.029-1.467c-3.393-2.283-2.896-13.08-6.504-15.004
					c-1.55-0.826-5.012,1.885-6.241,3.137c-0.486,0.496-1.26,1.908-1.26,1.908s3.612-1.654,4.655-1.072
					c3.059,1.711,3.534,10.508,6.456,12.441c1.251,0.83,3.309,1.416,5.913,1.666c3.004,0.289,8.123-0.102,11.602-0.561
					c1.807-0.238,2.779,1.488,2.779,1.488l2.047-1.318c0,0-3.258-1.832-4.854-1.691C77.596,101.738,72.083,102.162,70.405,101.912z"
					/>
				<path fill="#010101" d="M94.297,90.207c0.887-1.561,1.246-2.898,1.33-4.076c0.297-4.078-8.51-10.348-7.799-14.375
					c0.307-1.729,4.576-2.781,6.32-2.977c0.691-0.076,2.281,0.184,2.281,0.184s-3.533,1.826-3.717,3.004
					c-0.541,3.463,6.09,9.264,5.811,12.756c-0.121,1.496-0.932,3.479-2.34,5.682c-1.625,2.543-5.088,6.33-7.598,8.787
					c-1.301,1.273-0.182,3.227-0.182,3.227l-2.299,0.799c0,0,0.207-3.818,1.303-4.986C89.721,95.764,93.458,91.682,94.297,90.207z"
					/>
				<path fill="#010101" stroke="#010101" stroke-miterlimit="10" d="M83.973,105.174c0,0-3.066-0.811-3.592-0.926
					c-2.549-0.555-10.123-2.377-11.607-4.719c-3.755-5.92,1.821-27.973,1.821-27.973s21.081,9.027,23.458,15.666
					c0.951,2.662-2.461,9.943-3.566,12.186c-0.209,0.424-1.926,3.533-1.926,3.533l-2.17,0.855c0,0,1.879-3.539,2.273-4.578
					c1.059-2.766,2.895-8.121,2.168-10.23c-2.031-5.887-19.494-15.502-19.494-15.502s-2.988,19.609,0.416,24.791
					c1.208,1.838,6.41,3.641,9.295,4.523c1.156,0.355,4.697,1.311,4.697,1.311L83.973,105.174z"/>
				<path fill="#010101" d="M84.663,103.941c0,0-8.225-1.373-10.71-6.887c-2.48-5.512,1.188-12.674,1.188-12.674
					s2.172,3.316,3.729,9.332C80.424,99.73,84.663,103.941,84.663,103.941z"/>
				<path fill="#010101" d="M87.45,102.584c0,0,3.994-7.32,1.188-12.676c-2.809-5.355-10.711-6.887-10.711-6.887
					s1.273,3.76,5.047,8.693C86.75,96.65,87.45,102.584,87.45,102.584z"/>
				<path fill="#010101" d="M109.292,96.607c0.736,0.854,0.691,2.135-0.098,2.857c-0.988,0.904-2.533,0.771-3.453-0.299
					c-1.148-1.334-1.08-3.334,0.154-4.465c1.541-1.414,3.957-1.207,5.393,0.465c1.797,2.088,1.221,4.773-0.705,6.539
					c-1.508,1.383-3.273,1.717-4.807,1.404c-0.918-0.186-1.639-0.377-2.48-1.355c-2.807-3.262-2.639-8.145,0.375-10.902
					c3.766-3.451,9.66-2.943,13.168,1.133c4.385,5.096,3.092,13.227-1.615,17.541c-5.883,5.391-20.465,1.93-25.943-4.441
					l-1.957,1.143c6.768,7.762,22.332,11.74,29.752,5.039c5.934-5.363,6.357-14.742,0.945-20.951
					c-4.328-4.967-11.688-5.518-16.436-1.229c-3.799,3.434-4.07,9.436-0.605,13.41c2.771,3.18,7.48,3.531,10.52,0.785
					c2.43-2.197,2.604-6.039,0.387-8.582c-1.773-2.035-4.787-2.26-6.73-0.502c-1.559,1.406-1.668,3.865-0.248,5.492
					c1.133,1.303,3.062,1.445,4.307,0.322c0.996-0.9,1.066-2.473,0.158-3.514"/>
				<path fill="#010101" d="M66.478,117.449c0.218,1.105,1.254,1.861,2.311,1.684c1.319-0.219,2.17-1.516,1.896-2.898
					c-0.344-1.73-1.96-2.91-3.611-2.635c-2.062,0.342-3.39,2.371-2.961,4.531c0.535,2.701,3.005,3.906,5.584,3.477
					c2.016-0.332,3.37-1.518,4.067-2.914c0.42-0.838,0.718-1.523,0.467-2.789c-0.838-4.221-4.783-7.1-8.814-6.432
					c-5.038,0.836-8.274,5.789-7.229,11.062c1.306,6.596,8.503,10.594,14.8,9.549c7.872-1.305,14.144-14.916,12.511-23.16
					l2.104-0.832c1.938,10.111-4.533,24.818-14.386,26.523c-7.88,1.363-15.524-4.09-17.071-12.178
					c-1.24-6.471,2.866-12.604,9.174-13.693c5.042-0.873,9.934,2.617,10.926,7.795c0.791,4.141-1.836,8.064-5.871,8.764
					c-3.227,0.559-6.359-1.676-6.994-4.99c-0.507-2.648,1.175-5.162,3.758-5.607c2.066-0.357,4.069,1.07,4.477,3.191
					c0.324,1.697-0.753,3.305-2.404,3.59c-1.324,0.23-2.605-0.686-2.864-2.041"/>
				
					<rect x="82.442" y="102.396" transform="matrix(0.8992 -0.4376 0.4376 0.8992 -36.9358 48.3488)" fill="#010101" stroke="#010101" stroke-miterlimit="10" width="8.002" height="3.848"/>
			</g>
		</g>
		<g>
			<g>
				<path fill="#010101" stroke="#010101" stroke-miterlimit="10" d="M42.881,47.1c0,0,0.571-4.055,0.61-4.686
					c0.227-3.705,0.756-16.611-2.746-19.186c-5.209-3.834-25.498,4.388-25.498,4.388s-2.992,21.152,1.814,25.279
					c3.304,2.836,15.9-0.439,19.254-1.379c0.525-0.146,4.136-1.373,4.136-1.373l1.593-1.705c0,0-3.861,1.232-4.77,1.365
					c-3.884,0.572-14.385,1.842-17.196-0.686c-3.743-3.365-2.621-19.963-2.621-19.963s16.345-5.447,20.383-2.285
					c3.335,2.612,4.016,13.458,4.153,17.256c0.029,0.826-0.508,5.01-0.508,5.01L42.881,47.1z"/>
				<path fill="#010101" d="M57.82,44.039c1.716-0.525,3.101-0.582,4.266-0.406c4.045,0.605,8.238,10.568,12.321,10.756
					c1.754,0.08,3.715-3.855,4.287-5.516c0.229-0.656,0.318-2.264,0.318-2.264s-2.549,3.047-3.744,2.969
					c-3.496-0.232-7.705-7.973-11.173-8.463c-1.486-0.209-3.596,0.146-6.056,1.039c-2.834,1.029-7.293,3.58-10.235,5.488
					c-1.529,0.992-3.148-0.148-3.148-0.148l-1.281,2.068c0,0,3.729,0.254,5.109-0.557C51.399,47.289,56.198,44.535,57.82,44.039z"/>
				<path fill="#010101" d="M41.272,64.875c-0.133,1.791,0.12,3.152,0.549,4.252c1.484,3.809,12.13,5.689,13.217,9.631
					c0.468,1.689-2.936,4.477-4.425,5.402c-0.592,0.367-2.14,0.812-2.14,0.812s2.407-3.164,2.066-4.309
					c-1.001-3.357-9.48-5.748-10.728-9.021c-0.534-1.402-0.654-3.541-0.328-6.133c0.375-2.994,1.874-7.906,3.085-11.201
					c0.627-1.707-1.221-2.994-1.221-2.994l1.732-1.709c0,0,1.452,3.539,0.965,5.064C43.017,57.893,41.396,63.182,41.272,64.875z"/>
				<path fill="#010101" stroke="#010101" stroke-miterlimit="10" d="M44.166,46.924c0,0,3.116-0.586,3.642-0.707
					c2.537-0.594,10.163-2.201,12.509-0.725c5.932,3.73,10.372,26.039,10.372,26.039s-22.914,0.908-27.913-4.066
					c-2.001-1.994-2.05-10.037-2.015-12.537c0.006-0.471,0.223-4.018,0.223-4.018l1.59-1.703c0,0-0.176,4.002-0.088,5.109
					c0.235,2.951,0.877,8.576,2.439,10.17c4.363,4.443,24.266,5.623,24.266,5.623s-5.729-18.99-11.029-22.205
					c-1.88-1.143-7.353-0.535-10.335-0.092c-1.199,0.176-4.805,0.834-4.805,0.834L44.166,46.924z"/>
				<path fill="#010101" d="M44.073,48.334c0,0,8.017-2.295,12.627,1.615c4.61,3.914,4.375,11.957,4.375,11.957
					s-3.389-2.062-7.377-6.826C49.708,50.316,44.073,48.334,44.073,48.334z"/>
				<path fill="#010101" d="M42.139,50.756c0,0-0.462,8.328,4.374,11.957c4.834,3.629,12.629,1.617,12.629,1.617
					s-2.763-2.85-8.292-5.684C45.319,55.814,42.139,50.756,42.139,50.756z"/>
				<path fill="#010101" d="M24.983,65.537c-1.031-0.453-1.543-1.629-1.14-2.623c0.503-1.24,1.956-1.783,3.246-1.213
					c1.61,0.711,2.409,2.547,1.781,4.1c-0.786,1.938-3.058,2.787-5.071,1.896c-2.519-1.113-3.153-3.785-2.172-6.209
					c0.768-1.895,2.221-2.955,3.736-3.334c0.91-0.225,1.642-0.363,2.822,0.16c3.935,1.738,5.881,6.219,4.348,10.006
					c-1.92,4.732-7.463,6.809-12.38,4.633c-6.148-2.717-8.474-10.613-6.076-16.533c2.996-7.395,17.649-10.533,25.335-7.135
					l1.273-1.873c-9.443-4.102-25.209-1.008-29.028,8.232c-3.056,7.393,0.591,16.043,8.146,19.324
					c6.044,2.625,12.924-0.039,15.369-5.951c1.956-4.73-0.378-10.268-5.212-12.367c-3.869-1.684-8.272,0.023-9.836,3.809
					c-1.253,3.027,0.241,6.57,3.336,7.916c2.476,1.076,5.294-0.016,6.294-2.438c0.802-1.939-0.154-4.207-2.134-5.068
					c-1.586-0.688-3.39,0.01-4.03,1.562c-0.514,1.238,0.1,2.689,1.367,3.238"/>
				<path fill="#010101" d="M54.691,28.323c-0.673-0.904-1.931-1.142-2.812-0.529c-1.098,0.766-1.306,2.304-0.464,3.436
					c1.052,1.412,3.017,1.783,4.393,0.827c1.715-1.194,2.041-3.597,0.727-5.365c-1.644-2.209-4.393-2.234-6.537-0.74
					c-1.677,1.167-2.39,2.818-2.422,4.38c-0.019,0.938,0.008,1.684,0.778,2.719c2.568,3.452,7.37,4.355,10.723,2.021
					c4.188-2.918,4.984-8.783,1.774-13.099c-4.013-5.392-12.228-5.911-17.467-2.263c-6.548,4.562-6.362,19.544-1.347,26.287
					l-1.544,1.658c-6.092-8.301-6.567-24.359,1.597-30.132c6.531-4.619,15.775-2.979,20.649,3.661
					c3.899,5.312,2.824,12.613-2.4,16.306c-4.179,2.956-10.097,1.907-13.216-2.342c-2.496-3.399-1.809-8.071,1.536-10.437
					c2.675-1.892,6.462-1.22,8.459,1.501c1.597,2.175,1.157,5.165-0.983,6.678c-1.713,1.212-4.135,0.779-5.412-0.96
					c-1.024-1.392-0.742-3.307,0.627-4.274c1.096-0.774,2.646-0.499,3.465,0.613"/>
				
					<rect x="38.302" y="46.831" transform="matrix(-0.6238 0.7816 -0.7816 -0.6238 106.7979 46.1055)" fill="#010101" stroke="#010101" stroke-miterlimit="10" width="8.001" height="3.85"/>
			</g>
			<g>
				<path fill="#010101" stroke="#010101" stroke-miterlimit="10" d="M98.559,95.898c0,0-0.555,4.059-0.588,4.691
					c-0.213,3.703-0.684,16.611,2.83,19.172c5.227,3.809,25.479-4.502,25.479-4.502s2.896-21.164-1.93-25.27
					c-3.314-2.822-15.896,0.51-19.246,1.463c-0.523,0.15-4.129,1.391-4.129,1.391l-1.582,1.713c0,0,3.854-1.246,4.76-1.385
					c3.881-0.592,14.379-1.906,17.199,0.607c3.758,3.35,2.713,19.953,2.713,19.953s-16.322,5.521-20.373,2.375
					c-3.348-2.598-4.076-13.439-4.232-17.236c-0.031-0.826,0.486-5.014,0.486-5.014L98.559,95.898z"/>
				<path fill="#010101" d="M83.633,99.025c-1.715,0.533-3.098,0.596-4.266,0.426C75.321,98.865,71.086,88.922,67,88.752
					c-1.755-0.072-3.698,3.873-4.263,5.533c-0.224,0.658-0.309,2.266-0.309,2.266s2.537-3.057,3.73-2.986
					c3.498,0.217,7.741,7.938,11.212,8.412c1.486,0.205,3.596-0.158,6.051-1.062c2.832-1.043,7.275-3.615,10.211-5.537
					c1.525-0.996,3.15,0.137,3.15,0.137l1.271-2.076c0,0-3.729-0.238-5.107,0.582C90.038,95.75,85.254,98.523,83.633,99.025z"/>
				<path fill="#010101" d="M100.088,78.117c0.123-1.791-0.135-3.152-0.57-4.25c-1.502-3.803-12.154-5.635-13.26-9.57
					c-0.475-1.691,2.916-4.49,4.402-5.424c0.59-0.369,2.135-0.824,2.135-0.824s-2.391,3.178-2.045,4.32
					c1.014,3.354,9.504,5.705,10.768,8.973c0.539,1.4,0.67,3.539,0.355,6.135c-0.361,2.996-1.84,7.91-3.035,11.213
					c-0.619,1.711,1.234,2.986,1.234,2.986l-1.725,1.717c0,0-1.469-3.531-0.988-5.059C98.374,85.107,99.969,79.811,100.088,78.117z"
					/>
				<path fill="#010101" stroke="#010101" stroke-miterlimit="10" d="M97.274,96.08c0,0-3.113,0.6-3.637,0.725
					c-2.537,0.605-10.152,2.246-12.506,0.781c-5.951-3.705-10.49-25.994-10.49-25.994s22.912-1.01,27.931,3.941
					c2.012,1.988,2.096,10.027,2.07,12.527c-0.002,0.473-0.203,4.02-0.203,4.02l-1.584,1.711c0,0,0.158-4.004,0.064-5.111
					c-0.246-2.949-0.914-8.572-2.484-10.158c-4.383-4.424-24.288-5.514-24.288-5.514s5.811,18.965,11.125,22.156
					c1.885,1.133,7.355,0.502,10.338,0.045c1.195-0.182,4.801-0.855,4.801-0.855L97.274,96.08z"/>
				<path fill="#010101" d="M97.362,94.672c0,0-8.006,2.33-12.637-1.562c-4.625-3.889-4.426-11.936-4.426-11.936
					s3.396,2.047,7.406,6.793C91.717,92.713,97.362,94.672,97.362,94.672z"/>
				<path fill="#010101" d="M99.286,92.24c0,0,0.424-8.328-4.428-11.938c-4.854-3.607-12.637-1.561-12.637-1.561
					s2.777,2.836,8.316,5.645C96.083,87.195,99.286,92.24,99.286,92.24z"/>
				<path fill="#010101" d="M116.375,77.383c1.031,0.449,1.547,1.623,1.148,2.615c-0.496,1.244-1.947,1.795-3.24,1.23
					c-1.613-0.705-2.42-2.537-1.797-4.09c0.775-1.943,3.043-2.805,5.061-1.922c2.523,1.104,3.17,3.773,2.201,6.199
					c-0.76,1.898-2.207,2.965-3.723,3.35c-0.908,0.23-1.641,0.371-2.822-0.146c-3.943-1.721-5.91-6.193-4.391-9.984
					c1.896-4.744,7.428-6.844,12.357-4.691c6.16,2.691,8.521,10.576,6.15,16.506c-2.963,7.408-17.604,10.615-25.303,7.25
					l-1.268,1.877c9.463,4.061,25.215,0.895,28.992-8.361c3.021-7.404-0.664-16.039-8.232-19.289
					c-6.053-2.6-12.924,0.098-15.342,6.021c-1.936,4.742,0.424,10.268,5.27,12.346c3.875,1.664,8.271-0.062,9.818-3.854
					c1.238-3.035-0.271-6.57-3.373-7.902c-2.479-1.064-5.293,0.041-6.283,2.467c-0.793,1.943,0.174,4.205,2.16,5.057
					c1.586,0.684,3.385-0.025,4.02-1.576c0.508-1.244-0.111-2.691-1.381-3.236"/>
				<path fill="#010101" d="M86.834,114.729c0.674,0.9,1.936,1.133,2.811,0.516c1.096-0.77,1.299-2.309,0.451-3.436
					c-1.061-1.408-3.027-1.77-4.396-0.807c-1.709,1.203-2.025,3.605-0.703,5.367c1.654,2.201,4.402,2.217,6.539,0.711
					c1.674-1.174,2.379-2.83,2.402-4.391c0.016-0.938-0.014-1.682-0.791-2.715c-2.584-3.439-7.387-4.322-10.73-1.973
					c-4.176,2.938-4.945,8.805-1.717,13.104c4.037,5.377,12.256,5.857,17.479,2.186c6.527-4.59,6.275-19.574,1.229-26.293
					l1.535-1.664c6.131,8.271,6.678,24.33-1.461,30.141c-6.51,4.645-15.764,3.045-20.664-3.57c-3.924-5.295-2.883-12.6,2.328-16.318
					c4.164-2.973,10.086-1.949,13.225,2.285c2.51,3.389,1.844,8.064-1.49,10.443c-2.664,1.902-6.455,1.248-8.465-1.463
					c-1.605-2.168-1.182-5.162,0.953-6.684c1.707-1.217,4.131-0.799,5.418,0.936c1.029,1.389,0.756,3.305-0.609,4.277
					c-1.094,0.781-2.645,0.512-3.467-0.598"/>
				
					<rect x="95.129" y="92.317" transform="matrix(0.6203 -0.7843 0.7843 0.6203 -36.2799 113.5304)" fill="#010101" stroke="#010101" stroke-miterlimit="10" width="8.003" height="3.847"/>
			</g>
		</g>
		<g>
			<g>
				<path fill="#010101" stroke="#010101" stroke-miterlimit="10" d="M35.044,61.574c0,0-1.244-3.9-1.482-4.488
					c-1.402-3.436-6.522-15.295-10.795-16.096C16.411,39.795,1.694,56,1.694,56S8.17,76.357,14.292,77.992
					c4.206,1.123,14.137-7.291,16.751-9.592c0.409-0.359,3.131-3.031,3.131-3.031l0.696-2.227c0,0-2.945,2.785-3.707,3.297
					c-3.25,2.201-12.162,7.898-15.791,6.842c-4.832-1.41-11.02-16.854-11.02-16.854s12.365-11.996,17.375-10.898
					c4.139,0.908,9.455,10.387,11.226,13.748c0.386,0.732,1.716,4.736,1.716,4.736L35.044,61.574z"/>
				<path fill="#010101" d="M47.179,52.338c1.317-1.217,2.541-1.869,3.667-2.217c3.907-1.209,12.006,5.951,15.767,4.348
					c1.614-0.686,1.675-5.082,1.471-6.828c-0.078-0.691-0.694-2.178-0.694-2.178s-0.976,3.852-2.086,4.299
					c-3.251,1.307-10.4-3.842-13.739-2.779c-1.43,0.455-3.177,1.691-5.006,3.562c-2.107,2.154-5.019,6.389-6.843,9.385
					c-0.947,1.557-2.901,1.23-2.901,1.23l-0.257,2.42c0,0,3.47-1.389,4.362-2.719C42.802,58.049,45.932,53.486,47.179,52.338z"/>
				<path fill="#010101" d="M41.302,78.287c0.658,1.672,1.477,2.789,2.34,3.596c2.989,2.787,13.396-0.135,16.086,2.945
					c1.154,1.32-0.705,5.307-1.645,6.787c-0.375,0.586-1.575,1.66-1.575,1.66s0.797-3.895-0.007-4.777
					c-2.357-2.592-11.035-1.07-13.579-3.479c-1.089-1.031-2.125-2.906-2.955-5.385c-0.961-2.859-1.739-7.936-2.077-11.43
					c-0.176-1.811-2.398-2.168-2.398-2.168l0.819-2.291c0,0,2.844,2.559,3.065,4.143C39.847,71.24,40.681,76.709,41.302,78.287z"/>
				<path fill="#010101" stroke="#010101" stroke-miterlimit="10" d="M36.126,60.859c0,0,2.554-1.881,2.975-2.217
					c2.028-1.635,8.203-6.391,10.957-6.078c6.963,0.789,20.638,18.965,20.638,18.965S50.442,82.285,43.78,79.971
					c-2.668-0.93-6.2-8.156-7.252-10.424c-0.199-0.428-1.542-3.717-1.542-3.717l0.694-2.223c0,0,1.577,3.682,2.137,4.641
					c1.491,2.559,4.509,7.348,6.607,8.105c5.859,2.113,24.305-5.455,24.305-5.455S55.332,56.271,49.161,55.672
					c-2.189-0.213-6.857,2.707-9.353,4.398c-1.004,0.68-3.968,2.836-3.968,2.836L36.126,60.859z"/>
				<path fill="#010101" d="M36.653,62.17c0,0,6.229-5.545,12.078-4.021c5.852,1.527,9.128,8.877,9.128,8.877
					s-3.948-0.389-9.607-2.951C42.591,61.512,36.653,62.17,36.653,62.17z"/>
				<path fill="#010101" d="M35.96,65.189c0,0,3.196,7.705,9.127,8.877c5.93,1.176,12.08-4.02,12.08-4.02s-3.725-1.367-9.936-1.523
					C41.021,68.369,35.96,65.189,35.96,65.189z"/>
				<path fill="#010101" d="M26.913,85.949c-1.127,0.037-2.098-0.799-2.166-1.871c-0.084-1.334,0.99-2.455,2.399-2.5
					c1.76-0.057,3.275,1.25,3.384,2.922c0.131,2.088-1.547,3.838-3.748,3.908c-2.752,0.09-4.482-2.043-4.649-4.652
					c-0.13-2.039,0.72-3.625,1.921-4.625c0.723-0.598,1.322-1.039,2.612-1.08c4.3-0.139,7.996,3.055,8.257,7.131
					c0.322,5.098-3.771,9.373-9.146,9.543c-6.718,0.219-12.237-5.887-12.645-12.262C12.625,74.5,24.468,65.318,32.866,65.047
					l0.336-2.24c-10.288,0.4-23.152,10.025-22.587,20.006c0.452,7.986,7.489,14.201,15.72,13.881
					c6.584-0.254,11.629-5.639,11.268-12.027c-0.289-5.111-4.793-9.088-10.06-8.883c-4.216,0.16-7.443,3.607-7.211,7.695
					c0.185,3.273,3.067,5.818,6.439,5.688c2.696-0.104,4.763-2.309,4.614-4.926c-0.119-2.096-1.964-3.725-4.121-3.641
					c-1.728,0.068-3.05,1.479-2.954,3.154c0.075,1.34,1.256,2.381,2.637,2.326"/>
				<path fill="#010101" d="M37.543,39.533c-0.999-0.523-2.234-0.191-2.763,0.742c-0.657,1.166-0.178,2.641,1.071,3.297
					c1.561,0.816,3.491,0.299,4.317-1.16c1.027-1.82,0.279-4.125-1.672-5.15c-2.439-1.277-4.928-0.107-6.212,2.167
					c-1.005,1.779-0.931,3.576-0.283,4.998c0.39,0.852,0.737,1.514,1.881,2.111c3.812,1.998,8.53,0.729,10.538-2.828
					c2.51-4.445,0.684-10.076-4.081-12.572c-5.954-3.119-13.581-0.023-16.72,5.535c-3.922,6.951,2.742,20.371,10.186,24.271
					l-0.672,2.164c-9.089-4.838-16.481-19.104-11.629-27.844c3.883-6.994,12.924-9.525,20.195-5.655
					c5.816,3.095,8.014,10.14,4.908,15.734c-2.484,4.475-8.271,6.096-12.924,3.621c-3.724-1.98-5.131-6.488-3.143-10.07
					c1.59-2.865,5.294-3.902,8.273-2.316c2.382,1.268,3.283,4.152,2.01,6.443c-1.018,1.836-3.388,2.496-5.293,1.482
					c-1.526-0.811-2.103-2.658-1.289-4.123c0.652-1.174,2.169-1.598,3.389-0.951"/>
				
					<rect x="31.24" y="61.392" transform="matrix(-0.2231 0.9748 -0.9748 -0.2231 104.8251 43.0931)" fill="#010101" stroke="#010101" stroke-miterlimit="10" width="8.001" height="3.85"/>
			</g>
			<g>
				<path fill="#010101" stroke="#010101" stroke-miterlimit="10" d="M106.375,81.4c0,0,1.262,3.896,1.506,4.482
					c1.414,3.43,6.588,15.264,10.863,16.047c6.361,1.166,21.006-15.105,21.006-15.105s-6.568-20.326-12.697-21.934
					c-4.209-1.104-14.102,7.354-16.707,9.666c-0.408,0.361-3.117,3.043-3.117,3.043l-0.684,2.23c0,0,2.932-2.795,3.688-3.312
					c3.24-2.215,12.131-7.953,15.762-6.912c4.84,1.389,11.098,16.805,11.098,16.805s-12.312,12.053-17.326,10.975
					c-4.145-0.891-9.502-10.344-11.289-13.697c-0.387-0.73-1.736-4.729-1.736-4.729L106.375,81.4z"/>
				<path fill="#010101" d="M94.284,90.691c-1.314,1.223-2.535,1.879-3.66,2.232c-3.9,1.227-12.029-5.896-15.785-4.277
					c-1.61,0.695-1.651,5.094-1.44,6.834c0.084,0.691,0.705,2.176,0.705,2.176s0.96-3.855,2.065-4.309
					c3.246-1.322,10.418,3.795,13.752,2.717c1.43-0.459,3.17-1.701,4.99-3.582c2.1-2.166,4.99-6.41,6.801-9.416
					c0.941-1.559,2.896-1.244,2.896-1.244l0.248-2.422c0,0-3.463,1.402-4.352,2.738C98.633,84.961,95.526,89.535,94.284,90.691z"/>
				<path fill="#010101" d="M100.043,64.715c-0.666-1.668-1.488-2.783-2.357-3.582c-3.002-2.775-13.396,0.193-16.1-2.875
					c-1.158-1.316,0.682-5.309,1.617-6.795c0.371-0.588,1.566-1.668,1.566-1.668s-0.777,3.9,0.029,4.779
					c2.367,2.582,11.039,1.02,13.594,3.416c1.092,1.027,2.139,2.898,2.98,5.373c0.975,2.855,1.773,7.926,2.129,11.42
					c0.182,1.811,2.406,2.156,2.406,2.156l-0.811,2.295c0,0-2.854-2.545-3.082-4.131C101.53,71.758,100.67,66.293,100.043,64.715z"
					/>
				<path fill="#010101" stroke="#010101" stroke-miterlimit="10" d="M105.297,82.121c0,0-2.545,1.891-2.963,2.23
					c-2.023,1.645-8.174,6.428-10.93,6.127c-6.969-0.76-20.726-18.875-20.726-18.875s20.208-10.844,26.878-8.561
					c2.674,0.92,6.236,8.127,7.299,10.391c0.201,0.428,1.559,3.709,1.559,3.709l-0.684,2.23c0,0-1.594-3.678-2.16-4.635
					c-1.5-2.551-4.541-7.328-6.643-8.076c-5.869-2.084-24.277,5.564-24.277,5.564s13.46,14.568,19.634,15.141
					c2.189,0.203,6.844-2.738,9.334-4.443c0.998-0.682,3.953-2.852,3.953-2.852L105.297,82.121z"/>
				<path fill="#010101" d="M104.766,80.812c0,0-6.205,5.572-12.064,4.074c-5.855-1.5-9.164-8.836-9.164-8.836
					s3.949,0.371,9.619,2.908C98.829,81.498,104.766,80.812,104.766,80.812z"/>
				<path fill="#010101" d="M105.444,77.789c0,0-3.23-7.689-9.166-8.836c-5.938-1.148-12.064,4.074-12.064,4.074
					s3.732,1.35,9.941,1.479C100.372,74.631,105.444,77.789,105.444,77.789z"/>
				<path fill="#010101" d="M114.399,56.99c1.127-0.043,2.1,0.791,2.172,1.857c0.09,1.336-0.977,2.463-2.387,2.514
					c-1.762,0.064-3.281-1.236-3.395-2.906c-0.143-2.086,1.525-3.846,3.729-3.926c2.752-0.1,4.492,2.025,4.67,4.633
					c0.139,2.039-0.701,3.629-1.9,4.633c-0.719,0.602-1.318,1.045-2.605,1.09c-4.301,0.162-8.014-3.018-8.289-7.092
					c-0.348-5.098,3.727-9.387,9.102-9.586c6.717-0.246,12.266,5.834,12.699,12.207c0.543,7.959-11.258,17.197-19.656,17.504
					l-0.326,2.242c10.287-0.447,23.107-10.129,22.498-20.107c-0.488-7.982-7.555-14.166-15.783-13.811
					c-6.582,0.283-11.604,5.691-11.213,12.078c0.312,5.111,4.834,9.068,10.102,8.84c4.213-0.182,7.428-3.645,7.178-7.73
					c-0.203-3.271-3.096-5.803-6.467-5.658c-2.695,0.117-4.752,2.332-4.592,4.947c0.127,2.096,1.98,3.715,4.139,3.621
					c1.725-0.074,3.039-1.492,2.938-3.166c-0.082-1.34-1.268-2.375-2.648-2.314"/>
				<path fill="#010101" d="M103.977,103.453c0.998,0.518,2.236,0.18,2.756-0.756c0.654-1.168,0.168-2.643-1.082-3.291
					c-1.566-0.809-3.496-0.281-4.312,1.18c-1.018,1.824-0.262,4.127,1.695,5.141c2.443,1.268,4.928,0.088,6.199-2.193
					c0.998-1.783,0.916-3.582,0.262-5c-0.393-0.852-0.742-1.51-1.891-2.104c-3.82-1.979-8.531-0.691-10.525,2.877
					c-2.488,4.459-0.637,10.078,4.137,12.551c5.969,3.096,13.584-0.035,16.697-5.609c3.891-6.965-2.836-20.359-10.295-24.225
					l0.662-2.164c9.109,4.793,16.566,19.025,11.752,27.791c-3.85,7.008-12.883,9.58-20.168,5.744
					c-5.83-3.07-8.061-10.104-4.979-15.713c2.465-4.484,8.244-6.131,12.908-3.676c3.73,1.965,5.158,6.465,3.186,10.055
					c-1.574,2.871-5.275,3.926-8.262,2.354c-2.387-1.256-3.303-4.139-2.039-6.436c1.01-1.838,3.375-2.512,5.287-1.506
					c1.529,0.805,2.113,2.648,1.307,4.117c-0.646,1.18-2.162,1.609-3.383,0.965"/>
				
					<rect x="102.17" y="77.735" transform="matrix(0.2189 -0.9757 0.9757 0.2189 5.2025 165.8154)" fill="#010101" stroke="#010101" stroke-miterlimit="10" width="8.003" height="3.847"/>
			</g>
		</g>
		<g>
			<g>
				<path fill="#010101" stroke="#010101" stroke-miterlimit="10" d="M34.275,78.027c0,0-2.812-2.975-3.281-3.4
					c-2.754-2.488-12.511-10.953-16.708-9.824C8.041,66.482,1.809,87.467,1.809,87.467s14.662,15.535,20.889,14.354
					c4.275-0.812,9.576-12.699,10.934-15.906c0.213-0.502,1.507-4.09,1.507-4.09L34.8,79.516c0,0-1.446,3.787-1.911,4.578
					c-1.974,3.395-7.533,12.393-11.262,13.014C16.661,97.932,4.389,86.699,4.389,86.699s5.939-16.172,10.93-17.354
					c4.123-0.977,13.024,5.258,16.077,7.52c0.665,0.492,3.6,3.521,3.6,3.521L34.275,78.027z"/>
				<path fill="#010101" d="M41.205,64.443c0.658-1.67,1.479-2.787,2.343-3.588c2.996-2.785,13.398,0.154,16.093-2.92
					c1.156-1.318-0.696-5.307-1.637-6.791c-0.37-0.59-1.57-1.66-1.57-1.66s0.791,3.893-0.015,4.777
					c-2.362,2.588-11.038,1.049-13.585,3.453c-1.092,1.031-2.13,2.902-2.967,5.381c-0.964,2.855-1.752,7.934-2.096,11.424
					c-0.179,1.812-2.08,2.367-2.08,2.367l0.816,2.291c0,0,2.525-2.754,2.753-4.34C39.737,71.486,40.579,66.018,41.205,64.443z"/>
				<path fill="#010101" d="M47.162,90.373c1.318,1.221,2.54,1.873,3.667,2.225c3.903,1.217,12.014-5.93,15.772-4.32
					c1.613,0.689,1.666,5.086,1.462,6.828c-0.084,0.691-0.699,2.18-0.699,2.18s-0.972-3.855-2.079-4.303
					c-3.248-1.312-10.406,3.822-13.744,2.754c-1.428-0.457-3.174-1.695-4.997-3.57c-2.106-2.16-5.009-6.395-6.828-9.396
					c-0.944-1.557-3.102-0.916-3.102-0.916l-0.256-2.42c0,0,3.673,1.074,4.56,2.406C42.795,84.654,45.918,89.221,47.162,90.373z"/>
				<path fill="#010101" stroke="#010101" stroke-miterlimit="10" d="M34.94,76.914c0,0,1.485-2.803,1.719-3.289
					c1.119-2.352,4.62-9.314,7.238-10.227c6.615-2.309,26.82,8.139,26.82,8.139S57.133,90.012,50.125,90.814
					c-2.807,0.32-9.123-4.658-11.054-6.246c-0.365-0.299-3.002-2.682-3.002-2.682l-0.339-2.305c0,0,3.019,2.635,3.938,3.256
					c2.453,1.658,7.249,4.666,9.469,4.439c6.196-0.639,19.535-15.455,19.535-15.455s-18.416-7.371-24.236-5.234
					c-2.065,0.756-5.005,5.412-6.52,8.02c-0.61,1.047-2.346,4.275-2.346,4.275L34.94,76.914z"/>
				<path fill="#010101" d="M35.983,77.865c0,0,3.208-7.695,9.14-8.859c5.936-1.162,12.075,4.039,12.075,4.039
					s-3.727,1.363-9.937,1.508C41.049,74.699,35.983,77.865,35.983,77.865z"/>
				<path fill="#010101" d="M36.669,80.889c0,0,6.222,5.557,12.073,4.041c5.853-1.514,9.143-8.861,9.143-8.861
					s-3.949,0.383-9.614,2.936C42.608,81.559,36.669,80.889,36.669,80.889z"/>
				<path fill="#010101" d="M37.52,103.518c-0.999,0.521-2.236,0.189-2.764-0.746c-0.654-1.166-0.172-2.643,1.078-3.295
					c1.562-0.812,3.494-0.293,4.316,1.166c1.023,1.824,0.271,4.129-1.683,5.148c-2.44,1.273-4.925,0.102-6.206-2.178
					c-1.002-1.781-0.925-3.578-0.275-5c0.392-0.852,0.741-1.51,1.886-2.105c3.814-1.99,8.53-0.715,10.532,2.844
					c2.501,4.455,0.666,10.082-4.104,12.566c-5.958,3.109-13.58,0.002-16.711-5.566c-3.91-6.955,2.779-20.365,10.229-24.252
					l-0.669-2.162c-9.097,4.82-16.515,19.072-11.677,27.82c3.871,7.002,12.907,9.549,20.185,5.691
					c5.822-3.084,8.033-10.125,4.937-15.725c-2.477-4.479-8.259-6.109-12.917-3.641c-3.729,1.973-5.142,6.479-3.159,10.061
					c1.585,2.869,5.286,3.912,8.269,2.332c2.385-1.262,3.29-4.146,2.021-6.439c-1.016-1.836-3.385-2.504-5.293-1.494
					c-1.526,0.811-2.106,2.656-1.293,4.125c0.648,1.174,2.163,1.6,3.385,0.951"/>
				<path fill="#010101" d="M26.969,57.082c-1.127-0.037-2.096,0.797-2.167,1.867c-0.087,1.336,0.985,2.457,2.395,2.506
					c1.761,0.059,3.275-1.244,3.388-2.916c0.137-2.086-1.538-3.84-3.74-3.916c-2.752-0.094-4.486,2.039-4.657,4.646
					c-0.134,2.039,0.713,3.627,1.912,4.627c0.721,0.598,1.32,1.043,2.611,1.086c4.3,0.148,8.002-3.041,8.269-7.117
					c0.334-5.094-3.754-9.375-9.13-9.559c-6.717-0.229-12.247,5.867-12.665,12.238c-0.52,7.965,11.305,17.166,19.703,17.453
					l0.333,2.24C22.933,79.82,10.085,70.172,10.666,60.191c0.467-7.986,7.516-14.188,15.746-13.854
					C32.994,46.605,38.029,52,37.657,58.387c-0.298,5.111-4.81,9.08-10.075,8.867c-4.214-0.17-7.437-3.621-7.199-7.711
					c0.191-3.271,3.079-5.811,6.451-5.674c2.696,0.109,4.76,2.318,4.605,4.934c-0.121,2.096-1.971,3.719-4.127,3.631
					c-1.727-0.068-3.047-1.482-2.949-3.156c0.079-1.34,1.262-2.379,2.641-2.326"/>
				
					<rect x="31.208" y="77.588" transform="matrix(0.2216 0.9751 -0.9751 0.2216 104.9408 27.5568)" fill="#010101" stroke="#010101" stroke-miterlimit="10" width="8.002" height="3.849"/>
			</g>
			<g>
				<path fill="#010101" stroke="#010101" stroke-miterlimit="10" d="M107.149,64.959c0,0,2.826,2.965,3.301,3.385
					c2.762,2.477,12.555,10.898,16.748,9.75c6.238-1.709,12.377-22.721,12.377-22.721s-14.734-15.469-20.953-14.258
					c-4.271,0.83-9.518,12.742-10.863,15.955c-0.211,0.502-1.488,4.094-1.488,4.094l0.352,2.305c0,0,1.43-3.787,1.887-4.582
					c1.959-3.402,7.48-12.428,11.205-13.064C124.674,44.977,137,56.152,137,56.152s-5.869,16.199-10.855,17.402
					c-4.119,0.996-13.047-5.199-16.109-7.447c-0.668-0.49-3.617-3.506-3.617-3.506L107.149,64.959z"/>
				<path fill="#010101" d="M100.282,78.574c-0.652,1.672-1.469,2.793-2.328,3.6c-2.984,2.797-13.396-0.098-16.08,2.99
					c-1.148,1.326,0.721,5.307,1.666,6.783c0.375,0.586,1.578,1.654,1.578,1.654s-0.805-3.891-0.006-4.777
					c2.352-2.6,11.033-1.1,13.57-3.516c1.088-1.033,2.117-2.908,2.943-5.393c0.951-2.863,1.715-7.939,2.043-11.434
					c0.172-1.812,2.07-2.377,2.07-2.377l-0.826-2.289c0,0-2.514,2.766-2.734,4.354C101.717,71.525,100.901,76.994,100.282,78.574z"
					/>
				<path fill="#010101" d="M94.208,52.67c-1.324-1.213-2.549-1.861-3.678-2.205c-3.908-1.199-11.986,5.982-15.754,4.391
					c-1.616-0.684-1.688-5.08-1.489-6.824c0.078-0.691,0.688-2.182,0.688-2.182s0.991,3.852,2.099,4.293
					c3.254,1.301,10.389-3.869,13.73-2.818c1.432,0.455,3.184,1.686,5.018,3.551c2.115,2.15,5.035,6.373,6.869,9.367
					c0.949,1.553,3.104,0.898,3.104,0.898l0.266,2.42c0,0-3.676-1.057-4.57-2.385C98.602,58.371,95.458,53.818,94.208,52.67z"/>
				<path fill="#010101" stroke="#010101" stroke-miterlimit="10" d="M106.491,66.076c0,0-1.473,2.807-1.703,3.295
					c-1.109,2.359-4.578,9.336-7.193,10.26c-6.607,2.338-26.86-8.02-26.86-8.02s13.508-18.535,20.508-19.369
					c2.809-0.332,9.143,4.619,11.082,6.197c0.367,0.297,3.014,2.666,3.014,2.666l0.35,2.305c0,0-3.029-2.621-3.955-3.238
					c-2.459-1.648-7.27-4.633-9.488-4.396c-6.191,0.666-19.462,15.543-19.462,15.543s18.446,7.289,24.257,5.127
					c2.061-0.766,4.98-5.436,6.484-8.051c0.604-1.047,2.326-4.285,2.326-4.285L106.491,66.076z"/>
				<path fill="#010101" d="M105.444,65.127c0,0-3.174,7.713-9.104,8.902c-5.928,1.188-12.09-3.988-12.09-3.988
					s3.719-1.377,9.93-1.549C100.391,68.318,105.444,65.127,105.444,65.127z"/>
				<path fill="#010101" d="M104.743,62.107c0,0-6.244-5.527-12.09-3.986c-5.848,1.541-9.105,8.902-9.105,8.902s3.949-0.4,9.6-2.979
					C98.803,61.463,104.743,62.107,104.743,62.107z"/>
				<path fill="#010101" d="M103.793,39.482c0.996-0.525,2.234-0.197,2.762,0.734c0.66,1.164,0.188,2.641-1.061,3.299
					c-1.559,0.822-3.492,0.309-4.318-1.146c-1.033-1.818-0.293-4.126,1.656-5.154c2.436-1.284,4.928-0.123,6.217,2.148
					c1.01,1.777,0.943,3.574,0.297,4.998c-0.387,0.855-0.734,1.514-1.875,2.113c-3.805,2.012-8.529,0.756-10.545-2.797
					c-2.523-4.441-0.713-10.074,4.045-12.583c5.945-3.135,13.582-0.062,16.736,5.492c3.941,6.937-2.686,20.378-10.119,24.296
					l0.678,2.162c9.076-4.863,16.428-19.146,11.553-27.875c-3.902-6.98-12.951-9.488-20.211-5.6
					c-5.809,3.109-7.988,10.161-4.867,15.747c2.5,4.471,8.289,6.074,12.938,3.584c3.717-1.99,5.111-6.504,3.113-10.076
					c-1.6-2.861-5.307-3.888-8.281-2.295c-2.377,1.273-3.27,4.161-1.992,6.45c1.025,1.832,3.396,2.486,5.301,1.467
					c1.521-0.814,2.092-2.662,1.273-4.127c-0.654-1.17-2.172-1.59-3.389-0.938"/>
				<path fill="#010101" d="M114.549,85.869c1.127,0.035,2.094-0.807,2.158-1.875c0.082-1.336-0.996-2.455-2.404-2.496
					c-1.762-0.051-3.271,1.262-3.373,2.934c-0.127,2.084,1.555,3.832,3.756,3.896c2.752,0.082,4.479-2.059,4.637-4.666
					c0.125-2.039-0.729-3.625-1.934-4.617c-0.723-0.598-1.324-1.039-2.615-1.076c-4.301-0.127-7.986,3.076-8.236,7.156
					c-0.311,5.098,3.797,9.357,9.17,9.516c6.721,0.201,12.223-5.924,12.613-12.295c0.484-7.963-11.385-17.115-19.783-17.365
					l-0.342-2.236c10.289,0.369,23.18,9.959,22.643,19.945c-0.432,7.984-7.455,14.219-15.682,13.922
					c-6.586-0.236-11.646-5.607-11.301-12c0.275-5.109,4.77-9.1,10.037-8.91c4.213,0.152,7.453,3.59,7.23,7.68
					c-0.174,3.27-3.051,5.824-6.424,5.705c-2.695-0.1-4.771-2.299-4.627-4.916c0.113-2.094,1.951-3.729,4.109-3.65
					c1.729,0.062,3.055,1.471,2.965,3.145c-0.074,1.342-1.252,2.387-2.631,2.336"/>
				
					<rect x="102.21" y="61.555" transform="matrix(-0.2258 -0.9742 0.9742 -0.2258 68.353 181.2777)" fill="#010101" stroke="#010101" stroke-miterlimit="10" width="8.002" height="3.846"/>
			</g>
		</g>
		<g>
			<g>
				<path fill="#010101" stroke="#010101" stroke-miterlimit="10" d="M40.712,93.174c0,0-3.825-1.461-4.432-1.643
					c-3.561-1.047-16.023-4.443-19.315-1.605c-4.899,4.223-1.415,25.834-1.415,25.834s19.949,7.639,25.047,3.875
					c3.5-2.586,3.121-15.598,2.954-19.076c-0.026-0.543-0.416-4.338-0.416-4.338l-1.306-1.934c0,0,0.34,4.039,0.264,4.955
					c-0.307,3.912-1.414,14.432-4.504,16.609c-4.117,2.896-20.047-1.902-20.047-1.902s-1.661-17.148,2.322-20.379
					c3.292-2.668,14.017-0.91,17.748-0.195c0.812,0.156,4.771,1.613,4.771,1.613L40.712,93.174z"/>
				<path fill="#010101" d="M41.064,77.928c-0.131-1.789,0.124-3.152,0.555-4.248c1.492-3.809,12.141-5.672,13.235-9.609
					c0.47-1.691-2.93-4.48-4.42-5.41c-0.589-0.371-2.135-0.816-2.135-0.816s2.4,3.166,2.059,4.312
					c-1.007,3.355-9.491,5.732-10.744,9.004c-0.537,1.4-0.66,3.537-0.34,6.135c0.37,2.99,1.861,7.906,3.066,11.201
					c0.625,1.711-0.848,3.035-0.848,3.035l1.729,1.711c0,0,1.081-3.578,0.599-5.104C42.796,84.912,41.184,79.619,41.064,77.928z"/>
				<path fill="#010101" d="M57.677,98.711c1.718,0.527,3.102,0.586,4.27,0.414c4.045-0.598,8.254-10.555,12.338-10.734
					c1.753-0.078,3.706,3.861,4.278,5.52c0.225,0.658,0.314,2.268,0.314,2.268s-2.547-3.055-3.738-2.977
					c-3.497,0.227-7.72,7.957-11.191,8.443c-1.484,0.207-3.595-0.152-6.051-1.051c-2.835-1.033-7.287-3.592-10.228-5.508
					c-1.526-0.992-3.192,0.521-3.192,0.521l-1.279-2.07c0,0,3.775-0.625,5.151,0.191C51.262,95.451,56.057,98.211,57.677,98.711z"/>
				<path fill="#010101" stroke="#010101" stroke-miterlimit="10" d="M40.827,91.881c0,0,0.123-3.168,0.123-3.707
					c-0.012-2.605,0.123-10.398,2.088-12.355c4.959-4.949,27.696-4.297,27.696-4.297s-4.229,22.539-10.196,26.301
					c-2.39,1.506-10.24-0.242-12.669-0.836c-0.459-0.109-3.867-1.113-3.867-1.113l-1.306-1.93c0,0,3.863,1.066,4.961,1.227
					c2.93,0.43,8.556,1.061,10.457-0.107c5.307-3.262,10.9-22.398,10.9-22.398s-19.791,1.346-24.108,5.795
					c-1.533,1.578-2.163,7.047-2.397,10.053c-0.095,1.209-0.26,4.871-0.26,4.871L40.827,91.881z"/>
				<path fill="#010101" d="M42.181,92.287c0,0-0.447-8.326,4.393-11.947c4.845-3.621,12.633-1.596,12.633-1.596
					s-2.768,2.844-8.3,5.668C45.371,87.236,42.181,92.287,42.181,92.287z"/>
				<path fill="#010101" d="M44.108,94.713c0,0,8.017,2.309,12.632-1.594c4.617-3.902,4.396-11.949,4.396-11.949
					s-3.393,2.057-7.391,6.814C49.752,92.742,44.108,94.713,44.108,94.713z"/>
				<path fill="#010101" d="M54.688,114.736c-0.674,0.902-1.934,1.139-2.813,0.525c-1.096-0.768-1.301-2.307-0.458-3.438
					c1.055-1.408,3.021-1.777,4.396-0.82c1.713,1.201,2.034,3.604,0.716,5.367c-1.646,2.207-4.393,2.229-6.535,0.73
					c-1.676-1.17-2.387-2.824-2.417-4.385c-0.017-0.938,0.014-1.684,0.786-2.717c2.574-3.447,7.376-4.344,10.724-2.004
					c4.185,2.93,4.972,8.795,1.751,13.102c-4.02,5.387-12.235,5.891-17.471,2.232c-6.54-4.57-6.327-19.557-1.3-26.289l-1.541-1.658
					c-6.105,8.289-6.609,24.348,1.544,30.133c6.523,4.629,15.771,3.006,20.655-3.625c3.909-5.305,2.849-12.607-2.37-16.311
					c-4.175-2.963-10.092-1.924-13.219,2.32c-2.504,3.395-1.823,8.068,1.517,10.436c2.673,1.898,6.46,1.234,8.462-1.484
					c1.602-2.172,1.166-5.162-0.972-6.678c-1.711-1.215-4.136-0.789-5.417,0.947c-1.023,1.393-0.746,3.309,0.624,4.279
					c1.093,0.775,2.643,0.502,3.462-0.611"/>
				<path fill="#010101" d="M25.044,77.469c-1.031,0.455-1.542,1.627-1.143,2.623c0.501,1.24,1.954,1.785,3.244,1.219
					c1.612-0.711,2.412-2.541,1.788-4.098c-0.781-1.938-3.051-2.791-5.067-1.906c-2.521,1.109-3.158,3.783-2.183,6.207
					c0.764,1.896,2.216,2.959,3.729,3.34c0.909,0.227,1.643,0.367,2.824-0.152c3.938-1.732,5.892-6.213,4.364-10
					c-1.908-4.734-7.448-6.82-12.372-4.654c-6.151,2.707-8.491,10.598-6.104,16.521c2.985,7.4,17.63,10.564,25.322,7.182
					l1.271,1.873c-9.45,4.086-25.211,0.963-29.016-8.283c-3.043-7.398,0.62-16.043,8.181-19.311
					c6.047-2.613,12.924,0.064,15.357,5.98c1.948,4.734-0.396,10.268-5.232,12.359c-3.871,1.674-8.271-0.039-9.831-3.826
					c-1.247-3.031,0.254-6.572,3.352-7.912c2.477-1.07,5.294,0.025,6.29,2.449c0.799,1.941-0.163,4.207-2.145,5.062
					c-1.586,0.688-3.389-0.016-4.026-1.566c-0.51-1.24,0.105-2.691,1.371-3.24"/>
				
					<rect x="38.196" y="92.182" transform="matrix(0.6226 0.7825 -0.7825 0.6226 89.5626 2.4927)" fill="#010101" stroke="#010101" stroke-miterlimit="10" width="8.002" height="3.85"/>
			</g>
			<g>
				<path fill="#010101" stroke="#010101" stroke-miterlimit="10" d="M100.708,49.795c0,0,3.832,1.447,4.443,1.619
					c3.562,1.035,16.039,4.377,19.318,1.523c4.881-4.246,1.301-25.841,1.301-25.841s-19.984-7.549-25.062-3.761
					c-3.49,2.601-3.053,15.608-2.869,19.088c0.025,0.543,0.432,4.332,0.432,4.332l1.316,1.926c0,0-0.354-4.033-0.287-4.947
					c0.291-3.914,1.352-14.442,4.432-16.63c4.104-2.915,20.057,1.811,20.057,1.811s1.736,17.142-2.234,20.388
					c-3.279,2.684-14.01,0.973-17.746,0.277c-0.812-0.154-4.779-1.592-4.779-1.592L100.708,49.795z"/>
				<path fill="#010101" d="M100.424,65.041c0.139,1.791-0.111,3.154-0.537,4.254c-1.475,3.814-12.113,5.723-13.191,9.668
					c-0.459,1.693,2.949,4.469,4.443,5.391c0.592,0.363,2.139,0.805,2.139,0.805s-2.412-3.156-2.078-4.301
					c0.992-3.363,9.467-5.775,10.705-9.053c0.531-1.402,0.645-3.539,0.312-6.137c-0.385-2.992-1.898-7.898-3.117-11.188
					c-0.631-1.709,0.836-3.041,0.836-3.041l-1.738-1.703c0,0-1.066,3.58-0.574,5.107C98.661,58.068,100.297,63.35,100.424,65.041z"
					/>
				<path fill="#010101" d="M83.717,44.334c-1.719-0.52-3.104-0.572-4.27-0.391c-4.041,0.613-8.207,10.588-12.291,10.787
					c-1.753,0.084-3.725-3.846-4.302-5.502c-0.229-0.658-0.327-2.266-0.327-2.266s2.563,3.041,3.753,2.959
					c3.495-0.24,7.683-7.992,11.151-8.494c1.486-0.211,3.6,0.139,6.061,1.023c2.838,1.021,7.301,3.561,10.252,5.463
					c1.529,0.986,3.186-0.537,3.186-0.537l1.289,2.064c0,0-3.77,0.643-5.152-0.166C90.149,47.564,85.342,44.828,83.717,44.334z"/>
				<path fill="#010101" stroke="#010101" stroke-miterlimit="10" d="M100.6,51.088c0,0-0.109,3.168-0.105,3.709
					c0.023,2.605-0.078,10.396-2.033,12.361c-4.939,4.975-27.679,4.424-27.679,4.424s4.132-22.561,10.078-26.348
					c2.387-1.518,10.242,0.197,12.674,0.779c0.459,0.107,3.871,1.096,3.871,1.096l1.316,1.924c0,0-3.867-1.047-4.969-1.201
					c-2.932-0.42-8.561-1.023-10.455,0.152C78.006,51.27,72.499,70.43,72.499,70.43s19.785-1.432,24.082-5.9
					c1.525-1.584,2.131-7.057,2.352-10.066c0.09-1.205,0.238-4.869,0.238-4.869L100.6,51.088z"/>
				<path fill="#010101" d="M99.245,50.688c0,0,0.484,8.324-4.342,11.969c-4.826,3.641-12.625,1.65-12.625,1.65
					s2.754-2.854,8.277-5.703C96.075,55.754,99.245,50.688,99.245,50.688z"/>
				<path fill="#010101" d="M97.303,48.27c0,0-8.023-2.271-12.623,1.65c-4.6,3.926-4.342,11.971-4.342,11.971
					s3.385-2.074,7.357-6.846C91.672,50.266,97.303,48.27,97.303,48.27z"/>
				<path fill="#010101" d="M86.637,28.295c0.67-0.906,1.928-1.146,2.807-0.537c1.1,0.763,1.314,2.299,0.475,3.434
					c-1.047,1.416-3.012,1.792-4.387,0.839c-1.721-1.19-2.055-3.591-0.744-5.362c1.639-2.214,4.387-2.248,6.533-0.76
					c1.682,1.163,2.4,2.812,2.436,4.375c0.021,0.938-0.006,1.682-0.773,2.717c-2.557,3.462-7.357,4.38-10.715,2.053
					c-4.199-2.907-5.01-8.769-1.811-13.094c3.996-5.403,12.211-5.946,17.461-2.309c6.561,4.541,6.416,19.527,1.418,26.281
					l1.549,1.654c6.068-8.318,6.5-24.376-1.68-30.127c-6.543-4.598-15.783-2.933-20.639,3.719c-3.887,5.321-2.791,12.62,2.443,16.3
					c4.189,2.944,10.104,1.877,13.211-2.381c2.486-3.406,1.785-8.077-1.564-10.432c-2.682-1.883-6.467-1.201-8.457,1.523
					c-1.59,2.179-1.141,5.167,1.002,6.677c1.719,1.206,4.139,0.768,5.412-0.978c1.02-1.394,0.73-3.306-0.641-4.271
					c-1.098-0.771-2.646-0.492-3.461,0.625"/>
				<path fill="#010101" d="M116.446,65.428c1.029-0.457,1.537-1.635,1.131-2.625c-0.506-1.238-1.963-1.781-3.248-1.207
					c-1.611,0.719-2.4,2.557-1.77,4.105c0.791,1.934,3.062,2.779,5.076,1.883c2.516-1.119,3.143-3.797,2.154-6.215
					c-0.773-1.891-2.229-2.949-3.746-3.322c-0.91-0.225-1.643-0.361-2.822,0.166c-3.93,1.75-5.863,6.234-4.318,10.02
					c1.932,4.727,7.479,6.785,12.389,4.598c6.143-2.734,8.445-10.639,6.035-16.549c-3.018-7.387-17.682-10.486-25.357-7.068
					l-1.277-1.867c9.432-4.129,25.205-1.078,29.051,8.154c3.074,7.381-0.551,16.045-8.092,19.346
					c-6.037,2.641-12.928-0.004-15.387-5.914c-1.969-4.723,0.352-10.268,5.18-12.381c3.863-1.689,8.273,0.004,9.846,3.785
					c1.262,3.021-0.223,6.57-3.314,7.926c-2.473,1.08-5.295-0.002-6.301-2.424c-0.807-1.936,0.141-4.205,2.121-5.07
					c1.582-0.693,3.389,0,4.033,1.547c0.516,1.242-0.092,2.693-1.357,3.246"/>
				
					<rect x="95.22" y="46.944" transform="matrix(-0.6259 -0.7799 0.7799 -0.6259 123.2084 156.8358)" fill="#010101" stroke="#010101" stroke-miterlimit="10" width="8.001" height="3.845"/>
			</g>
		</g>
		<g>
			<g>
				<path fill="#010101" stroke="#010101" stroke-miterlimit="10" d="M53.078,104.051c0,0-4.08,0.342-4.705,0.441
					c-3.662,0.602-16.365,2.945-18.101,6.93c-2.584,5.93,9.928,23.893,9.928,23.893s21.288-1.768,24.249-7.371
					c2.032-3.848-3.951-15.408-5.609-18.469c-0.26-0.479-2.257-3.729-2.257-3.729l-2.015-1.176c0,0,2.058,3.49,2.386,4.35
					c1.421,3.658,4.985,13.617,3.145,16.918c-2.454,4.396-18.889,6.98-18.889,6.98s-8.933-14.73-6.744-19.369
					c1.81-3.832,12.235-6.898,15.907-7.873c0.799-0.213,4.998-0.615,4.998-0.615L53.078,104.051z"/>
				<path fill="#010101" d="M46.785,90.16c-0.895-1.557-1.256-2.895-1.344-4.07c-0.307-4.078,8.481-10.373,7.76-14.396
					c-0.311-1.729-4.583-2.768-6.329-2.959c-0.69-0.078-2.277,0.191-2.277,0.191s3.536,1.811,3.726,2.992
					c0.548,3.461-6.067,9.281-5.777,12.771c0.123,1.496,0.939,3.475,2.354,5.676c1.631,2.535,5.106,6.318,7.621,8.764
					c1.306,1.271,0.553,3.104,0.553,3.104l2.3,0.791c0,0-0.577-3.693-1.675-4.857C51.373,95.701,47.625,91.631,46.785,90.16z"/>
				<path fill="#010101" d="M70.766,101.682c1.777-0.27,3.05-0.816,4.028-1.479c3.387-2.291,2.859-13.088,6.461-15.021
					c1.547-0.832,5.016,1.871,6.252,3.117c0.486,0.496,1.266,1.906,1.266,1.906s-3.621-1.646-4.66-1.059
					c-3.053,1.719-3.506,10.518-6.422,12.459c-1.248,0.83-3.305,1.422-5.909,1.678c-3.002,0.299-8.123-0.076-11.604-0.527
					c-1.806-0.232-2.65,1.855-2.65,1.855l-2.051-1.311c0,0,3.131-2.201,4.725-2.062C63.572,101.527,69.09,101.936,70.766,101.682z"
					/>
				<path fill="#010101" stroke="#010101" stroke-miterlimit="10" d="M52.622,102.836c0,0-1.264-2.908-1.497-3.395
					c-1.141-2.344-4.398-9.422-3.477-12.039c2.322-6.609,23.094-15.881,23.094-15.881s5.963,22.143,2.216,28.119
					c-1.5,2.395-9.332,4.225-11.777,4.742c-0.462,0.1-3.968,0.674-3.968,0.674l-2.014-1.174c0,0,3.943-0.715,5.002-1.047
					c2.826-0.881,8.17-2.754,9.376-4.629c3.367-5.242,0.109-24.91,0.109-24.91s-17.25,9.793-19.211,15.676
					c-0.697,2.086,1.107,7.287,2.199,10.098c0.439,1.131,1.879,4.502,1.879,4.502L52.622,102.836z"/>
				<path fill="#010101" d="M54.018,102.615c0,0-4.014-7.309-1.223-12.67c2.795-5.365,10.69-6.918,10.69-6.918
					s-1.261,3.764-5.021,8.707C54.702,96.68,54.018,102.615,54.018,102.615z"/>
				<path fill="#010101" d="M56.807,103.965c0,0,8.225-1.396,10.691-6.914c2.468-5.52-1.222-12.674-1.222-12.674
					s-2.165,3.324-3.704,9.346C61.037,99.74,56.807,103.965,56.807,103.965z"/>
				<path fill="#010101" d="M75.022,117.418c-0.215,1.107-1.247,1.865-2.306,1.693c-1.321-0.215-2.172-1.514-1.904-2.896
					c0.34-1.729,1.951-2.914,3.606-2.646c2.062,0.34,3.395,2.365,2.973,4.525c-0.527,2.703-2.992,3.914-5.573,3.492
					c-2.018-0.326-3.375-1.51-4.08-2.902c-0.421-0.838-0.717-1.523-0.469-2.789c0.824-4.223,4.763-7.113,8.793-6.455
					c5.041,0.824,8.293,5.768,7.26,11.045c-1.287,6.598-8.471,10.615-14.775,9.588c-7.876-1.283-14.183-14.877-12.571-23.125
					l-2.108-0.826c-1.907,10.117,4.604,24.807,14.458,26.482c7.887,1.344,15.516-4.131,17.04-12.223
					c1.223-6.477-2.898-12.596-9.207-13.67c-5.047-0.859-9.928,2.645-10.905,7.824c-0.785,4.145,1.855,8.059,5.892,8.746
					c3.231,0.551,6.357-1.691,6.982-5.008c0.5-2.652-1.189-5.158-3.772-5.598c-2.069-0.352-4.069,1.084-4.47,3.205
					c-0.318,1.697,0.762,3.303,2.418,3.584c1.322,0.225,2.6-0.693,2.854-2.051"/>
				<path fill="#010101" d="M32.15,96.693c-0.732,0.857-0.684,2.135,0.107,2.859c0.989,0.9,2.535,0.762,3.452-0.309
					c1.145-1.34,1.071-3.336-0.166-4.467c-1.544-1.408-3.96-1.193-5.393,0.479c-1.791,2.094-1.205,4.779,0.725,6.541
					c1.511,1.375,3.279,1.703,4.809,1.391c0.918-0.189,1.64-0.381,2.479-1.363c2.798-3.268,2.615-8.152-0.403-10.902
					c-3.772-3.438-9.669-2.916-13.167,1.172c-4.368,5.107-3.055,13.232,1.664,17.533c5.899,5.375,20.468,1.875,25.933-4.508
					l1.958,1.135c-6.744,7.779-22.3,11.801-29.737,5.119c-5.951-5.346-6.399-14.725-1.003-20.947
					c4.314-4.979,11.673-5.547,16.431-1.271c3.809,3.422,4.096,9.424,0.645,13.406c-2.761,3.188-7.469,3.553-10.517,0.816
					c-2.438-2.191-2.621-6.033-0.411-8.584c1.768-2.037,4.781-2.271,6.73-0.52c1.561,1.402,1.677,3.859,0.262,5.49
					c-1.131,1.307-3.06,1.457-4.307,0.336c-0.998-0.898-1.072-2.471-0.17-3.516"/>
				
					<rect x="50.82" y="102.322" transform="matrix(0.9004 0.435 -0.435 0.9004 50.8018 -13.4673)" fill="#010101" stroke="#010101" stroke-miterlimit="10" width="8.002" height="3.851"/>
			</g>
			<g>
				<path fill="#010101" stroke="#010101" stroke-miterlimit="10" d="M88.329,38.945c0,0,4.08-0.359,4.705-0.469
					c3.658-0.612,16.35-3.011,18.068-7.005c2.557-5.941-10.035-23.848-10.035-23.848s-21.281,1.864-24.215,7.479
					c-2.018,3.857,4.02,15.388,5.693,18.444c0.26,0.479,2.27,3.717,2.27,3.717l2.02,1.164c0,0-2.066-3.48-2.404-4.333
					c-1.436-3.652-5.045-13.6-3.217-16.907c2.432-4.407,18.857-7.066,18.857-7.066s8.998,14.694,6.828,19.339
					c-1.793,3.843-12.203,6.954-15.871,7.946c-0.799,0.215-4.998,0.639-4.998,0.639L88.329,38.945z"/>
				<path fill="#010101" d="M94.684,52.807c0.902,1.553,1.268,2.891,1.361,4.064c0.324,4.076-8.434,10.41-7.693,14.432
					c0.32,1.727,4.596,2.75,6.34,2.932c0.691,0.072,2.277-0.201,2.277-0.201s-3.543-1.799-3.738-2.977
					c-0.564-3.459,6.025-9.309,5.721-12.799c-0.129-1.494-0.955-3.469-2.379-5.664c-1.645-2.529-5.137-6.295-7.662-8.73
					c-1.309-1.266-0.564-3.102-0.564-3.102l-2.305-0.781c0,0,0.592,3.689,1.697,4.852C90.071,47.287,93.834,51.336,94.684,52.807z"
					/>
				<path fill="#010101" d="M70.65,41.393c-1.774,0.277-3.045,0.83-4.018,1.498c-3.375,2.307-2.803,13.102-6.396,15.051
					c-1.543,0.836-5.023-1.85-6.262-3.092c-0.491-0.494-1.277-1.9-1.277-1.9s3.629,1.629,4.665,1.039
					c3.045-1.73,3.457-10.533,6.363-12.488c1.248-0.836,3.304-1.438,5.905-1.707c3-0.311,8.122,0.043,11.606,0.477
					c1.807,0.227,2.639-1.865,2.639-1.865l2.057,1.301c0,0-3.119,2.215-4.715,2.084C77.846,41.514,72.328,41.133,70.65,41.393z"/>
				<path fill="#010101" stroke="#010101" stroke-miterlimit="10" d="M88.792,40.156c0,0,1.275,2.902,1.512,3.389
					c1.152,2.338,4.441,9.402,3.531,12.02c-2.295,6.625-23.024,15.99-23.024,15.99s-6.059-22.121-2.345-28.111
					c1.493-2.402,9.314-4.264,11.759-4.795c0.459-0.102,3.963-0.692,3.963-0.692l2.02,1.165c0,0-3.938,0.732-4.998,1.07
					c-2.824,0.895-8.157,2.791-9.356,4.672c-3.343,5.256,0.004,24.908,0.004,24.908s17.208-9.871,19.141-15.76
					c0.688-2.088-1.141-7.283-2.246-10.09c-0.441-1.125-1.896-4.49-1.896-4.49L88.792,40.156z"/>
				<path fill="#010101" d="M87.397,40.383c0,0,4.047,7.291,1.277,12.668c-2.77,5.373-10.66,6.963-10.66,6.963
					s1.244-3.766,4.984-8.729C86.739,46.324,87.397,40.383,87.397,40.383z"/>
				<path fill="#010101" d="M84.6,39.047c0,0-8.217,1.432-10.659,6.961c-2.444,5.533,1.278,12.67,1.278,12.67s2.15-3.336,3.66-9.359
					C80.389,43.287,84.6,39.047,84.6,39.047z"/>
				<path fill="#010101" d="M66.325,25.674c0.21-1.107,1.239-1.869,2.296-1.701c1.322,0.21,2.182,1.501,1.918,2.888
					c-0.33,1.73-1.938,2.921-3.59,2.659c-2.066-0.327-3.409-2.345-2.996-4.51c0.517-2.706,2.979-3.929,5.559-3.518
					c2.02,0.319,3.38,1.493,4.091,2.887c0.426,0.835,0.725,1.517,0.48,2.783c-0.801,4.229-4.729,7.138-8.763,6.496
					c-5.046-0.798-8.317-5.729-7.311-11.013c1.258-6.602,8.424-10.653,14.732-9.652c7.882,1.247,14.251,14.812,12.677,23.066
					l2.111,0.819c1.861-10.128-4.713-24.785-14.579-26.419c-7.888-1.307-15.494,4.202-16.984,12.301
					c-1.194,6.479,2.957,12.582,9.271,13.629c5.052,0.835,9.919-2.689,10.873-7.875c0.762-4.147-1.894-8.053-5.934-8.722
					c-3.233-0.533-6.348,1.722-6.959,5.04c-0.488,2.653,1.211,5.151,3.798,5.582c2.071,0.342,4.062-1.104,4.452-3.229
					c0.314-1.696-0.775-3.295-2.43-3.569c-1.324-0.219-2.598,0.704-2.848,2.064"/>
				<path fill="#010101" d="M109.288,46.207c0.73-0.859,0.676-2.139-0.119-2.855c-0.992-0.898-2.541-0.754-3.449,0.32
					c-1.141,1.346-1.055,3.344,0.186,4.467c1.553,1.398,3.965,1.176,5.391-0.504c1.781-2.102,1.186-4.785-0.754-6.535
					c-1.518-1.369-3.287-1.691-4.816-1.369c-0.916,0.191-1.637,0.387-2.471,1.373c-2.783,3.281-2.58,8.16,0.453,10.9
					c3.791,3.422,9.682,2.871,13.158-1.229c4.35-5.127,2.996-13.249-1.74-17.529c-5.922-5.348-20.479-1.781-25.914,4.627
					l-1.961-1.128c6.709-7.811,22.244-11.902,29.715-5.252c5.971,5.318,6.461,14.696,1.096,20.942
					c-4.293,4.998-11.648,5.604-16.428,1.344c-3.822-3.402-4.137-9.404-0.701-13.402c2.748-3.199,7.455-3.585,10.514-0.859
					c2.445,2.176,2.648,6.018,0.449,8.578c-1.76,2.047-4.771,2.295-6.729,0.551c-1.564-1.396-1.695-3.852-0.287-5.49
					c1.125-1.311,3.055-1.469,4.307-0.355c1.002,0.896,1.084,2.469,0.184,3.514"/>
				
					<rect x="82.583" y="36.831" transform="matrix(-0.9023 -0.4312 0.4312 -0.9023 147.9966 111.0543)" fill="#010101" stroke="#010101" stroke-miterlimit="10" width="8.003" height="3.846"/>
			</g>
		</g>
		<circle fill="#010101" cx="70.48" cy="71.6" r="28.259"/>
	</g>
</g>
<g id="Layer_1" display="none">
	<g display="inline" opacity="0.3">
		<g>
			<g>
				<path fill="#010101" stroke="#010101" stroke-miterlimit="10" d="M73.681,32.466c0,0,3.639-2.15,4.174-2.525
					c3.133-2.2,13.881-10.082,13.704-14.565C91.295,8.707,71.604-2.361,71.604-2.361S52.623,8.842,52.39,15.375
					c-0.16,4.489,10.589,12.539,13.505,14.639c0.457,0.329,3.77,2.452,3.77,2.452l2.4,0.185c0,0-3.478-2.319-4.17-2.966
					c-2.962-2.763-10.746-10.416-10.518-14.309C57.68,10.19,71.788,0.411,71.788,0.411s14.917,9.674,14.964,14.965
					c0.04,4.372-8.269,11.902-11.241,14.458c-0.648,0.557-4.368,2.817-4.368,2.817L73.681,32.466z"/>
				<path fill="#010101" d="M85.768,42.542c1.528,1.047,2.464,2.127,3.074,3.179c2.115,3.651-3.219,13.445-0.741,16.86
					c1.063,1.465,5.499,0.514,7.205-0.094c0.678-0.24,2.033-1.2,2.033-1.2s-4.101-0.097-4.805-1.109
					c-2.064-2.968,1.469-11.344-0.369-14.458c-0.787-1.333-2.433-2.807-4.736-4.214c-2.654-1.625-7.581-3.577-11.016-4.722
					c-1.783-0.595-1.906-2.634-1.906-2.634l-2.493,0.299c0,0,2.194,3.17,3.737,3.76C79.015,39.457,84.323,41.553,85.768,42.542z"/>
				<path fill="#010101" d="M58.314,42.611c-1.529,1.047-2.465,2.127-3.075,3.179c-2.116,3.651,3.219,13.445,0.741,16.86
					c-1.063,1.465-5.499,0.514-7.206-0.092c-0.676-0.241-2.032-1.201-2.032-1.201s4.101-0.098,4.804-1.109
					c2.065-2.968-1.468-11.344,0.37-14.458c0.787-1.333,2.433-2.807,4.735-4.214c2.655-1.625,7.581-3.577,11.017-4.722
					c1.782-0.594,1.628-2.911,1.628-2.911l2.493,0.297c0,0-1.917,3.448-3.461,4.037C65.067,39.524,59.759,41.622,58.314,42.611z"/>
				<path fill="#010101" stroke="#010101" stroke-miterlimit="10" d="M74.652,33.389c0,0,2.479,2.136,2.914,2.48
					c2.113,1.666,8.316,6.779,8.638,9.622c0.812,7.185-14.322,25.127-14.322,25.127S56.399,52.724,57.193,45.491
					c0.318-2.899,6.774-8.115,8.812-9.696c0.384-0.298,3.382-2.406,3.382-2.406l2.4,0.186c0,0-3.342,2.435-4.179,3.219
					c-2.229,2.089-6.353,6.227-6.63,8.512c-0.773,6.379,11.086,23.188,11.086,23.188s11.626-16.845,10.808-23.188
					c-0.291-2.251-4.304-6.274-6.58-8.395c-0.914-0.853-3.766-3.337-3.766-3.337L74.652,33.389z"/>
				<path fill="#010101" d="M73.455,34.221c0,0,7.012,4.988,6.826,11.224c-0.188,6.236-6.826,11.225-6.826,11.225
					s-0.518-4.061,0.756-10.344C75.484,40.042,73.455,34.221,73.455,34.221z"/>
				<path fill="#010101" d="M70.255,34.221c0,0-7.011,4.988-6.825,11.224c0.186,6.236,6.825,11.225,6.825,11.225
					s0.519-4.061-0.755-10.344C68.226,40.042,70.255,34.221,70.255,34.221z"/>
				<path fill="#010101" d="M47.293,29.903c-0.297-1.125,0.322-2.293,1.381-2.607c1.325-0.394,2.699,0.428,3.069,1.835
					c0.462,1.758-0.503,3.583-2.159,4.074c-2.069,0.615-4.216-0.669-4.794-2.867c-0.723-2.748,1.023-4.98,3.61-5.748
					c2.021-0.601,3.812-0.113,5.091,0.867c0.768,0.588,1.352,1.09,1.69,2.377c1.13,4.293-1.229,8.747-5.271,9.947
					c-5.052,1.5-10.293-1.633-11.705-7c-1.767-6.708,3.104-13.667,9.419-15.542c7.894-2.345,19.858,7.452,22.065,15.837l2.33-0.178
					C69.247,20.643,56.603,9.92,46.692,12.788c-7.928,2.294-12.557,10.806-10.34,19.01c1.773,6.564,8.353,10.397,14.695,8.561
					c5.074-1.468,8.037-6.915,6.618-12.166c-1.135-4.201-5.345-6.654-9.405-5.48c-3.247,0.94-5.143,4.426-4.235,7.787
					c0.726,2.688,3.421,4.259,6.019,3.506c2.08-0.601,3.292-2.833,2.711-4.983c-0.465-1.721-2.189-2.725-3.852-2.245
					c-1.33,0.385-2.106,1.812-1.734,3.189"/>
				<path fill="#010101" d="M96.427,29.903c0.296-1.125-0.323-2.293-1.383-2.607c-1.324-0.394-2.697,0.428-3.068,1.835
					c-0.463,1.758,0.504,3.583,2.16,4.074c2.068,0.615,4.215-0.669,4.793-2.867c0.725-2.748-1.023-4.98-3.609-5.748
					c-2.021-0.601-3.812-0.113-5.092,0.867c-0.768,0.588-1.352,1.09-1.689,2.377c-1.131,4.293,1.229,8.747,5.271,9.947
					c5.052,1.5,10.292-1.633,11.705-7c1.767-6.708-3.104-13.667-9.419-15.542c-7.895-2.345-19.857,7.452-22.066,15.837L71.7,30.899
					C74.47,20.643,87.116,9.92,97.027,12.788c7.927,2.294,12.557,10.806,10.339,19.01c-1.772,6.564-8.353,10.397-14.694,8.561
					c-5.074-1.468-8.037-6.915-6.617-12.166c1.134-4.201,5.344-6.654,9.403-5.48c3.247,0.94,5.144,4.426,4.235,7.787
					c-0.727,2.688-3.422,4.259-6.02,3.506c-2.078-0.601-3.291-2.833-2.71-4.983c0.464-1.721,2.19-2.725,3.852-2.245
					c1.331,0.385,2.106,1.812,1.735,3.189"/>
				<rect x="67.847" y="31.08" fill="#010101" stroke="#010101" stroke-miterlimit="10" width="8.255" height="3.972"/>
			</g>
			<g>
				<path fill="#010101" stroke="#010101" stroke-miterlimit="10" d="M69.876,116.764c0,0-3.639,2.149-4.173,2.525
					C62.57,121.488,51.822,129.37,52,133.854c0.263,6.669,19.954,17.736,19.954,17.736s18.981-11.203,19.216-17.736
					c0.16-4.488-10.59-12.539-13.506-14.639c-0.457-0.329-3.77-2.451-3.77-2.451l-2.4-0.186c0,0,3.479,2.318,4.171,2.966
					c2.962,2.763,10.745,10.416,10.518,14.31c-0.304,5.186-14.412,14.965-14.412,14.965s-14.916-9.674-14.964-14.965
					c-0.041-4.372,8.268-11.902,11.242-14.459c0.648-0.557,4.368-2.816,4.368-2.816L69.876,116.764z"/>
				<path fill="#010101" d="M57.791,106.687c-1.528-1.047-2.465-2.127-3.074-3.179c-2.115-3.651,3.219-13.445,0.741-16.861
					c-1.063-1.464-5.499-0.514-7.205,0.094c-0.677,0.24-2.033,1.201-2.033,1.201s4.1,0.096,4.804,1.108
					c2.064,2.968-1.468,11.344,0.37,14.458c0.787,1.334,2.433,2.807,4.735,4.214c2.655,1.624,7.582,3.577,11.017,4.722
					c1.783,0.595,1.906,2.635,1.906,2.635l2.493-0.299c0,0-2.194-3.17-3.738-3.76C64.544,109.772,59.236,107.676,57.791,106.687z"/>
				<path fill="#010101" d="M85.245,106.617c1.528-1.047,2.464-2.127,3.075-3.179c2.115-3.651-3.22-13.444-0.742-16.86
					c1.063-1.465,5.5-0.514,7.207,0.092c0.676,0.242,2.031,1.201,2.031,1.201s-4.1,0.098-4.804,1.109
					c-2.064,2.969,1.468,11.344-0.37,14.458c-0.787,1.333-2.433,2.807-4.735,4.214c-2.655,1.625-7.581,3.576-11.017,4.722
					c-1.781,0.595-1.629,2.911-1.629,2.911l-2.492-0.297c0,0,1.917-3.448,3.461-4.037C78.491,109.705,83.799,107.607,85.245,106.617
					z"/>
				<path fill="#010101" stroke="#010101" stroke-miterlimit="10" d="M68.906,115.84c0,0-2.479-2.137-2.915-2.48
					c-2.112-1.666-8.316-6.779-8.637-9.621c-0.811-7.186,14.323-25.127,14.323-25.127s15.482,17.894,14.688,25.127
					c-0.318,2.898-6.773,8.115-8.812,9.695c-0.384,0.298-3.382,2.406-3.382,2.406l-2.4-0.186c0,0,3.342-2.436,4.18-3.219
					c2.229-2.09,6.352-6.227,6.629-8.513c0.773-6.38-11.086-23.188-11.086-23.188S59.868,97.58,60.686,103.923
					c0.291,2.251,4.304,6.274,6.58,8.395c0.915,0.853,3.766,3.337,3.766,3.337L68.906,115.84z"/>
				<path fill="#010101" d="M70.104,115.008c0,0-7.012-4.988-6.826-11.225c0.187-6.235,6.826-11.225,6.826-11.225
					s0.518,4.061-0.756,10.345C68.074,109.188,70.104,115.008,70.104,115.008z"/>
				<path fill="#010101" d="M73.302,115.008c0,0,7.012-4.988,6.826-11.225c-0.187-6.235-6.826-11.225-6.826-11.225
					s-0.518,4.061,0.756,10.345C75.333,109.188,73.302,115.008,73.302,115.008z"/>
				<path fill="#010101" d="M96.265,119.326c0.297,1.125-0.322,2.293-1.381,2.607c-1.325,0.394-2.699-0.428-3.069-1.836
					c-0.462-1.758,0.503-3.582,2.159-4.074c2.069-0.614,4.216,0.67,4.795,2.867c0.723,2.748-1.023,4.98-3.61,5.748
					c-2.021,0.602-3.812,0.113-5.091-0.867c-0.768-0.588-1.352-1.09-1.689-2.377c-1.131-4.293,1.229-8.746,5.271-9.947
					c5.051-1.5,10.292,1.633,11.703,7c1.768,6.707-3.104,13.666-9.418,15.542c-7.895,2.345-19.858-7.452-22.065-15.837l-2.33,0.178
					c2.772,10.256,15.416,20.979,25.326,18.111c7.929-2.295,12.558-10.806,10.341-19.01c-1.773-6.564-8.354-10.397-14.695-8.562
					c-5.074,1.468-8.037,6.915-6.618,12.165c1.135,4.201,5.345,6.654,9.405,5.48c3.246-0.94,5.143-4.426,4.234-7.787
					c-0.726-2.688-3.42-4.259-6.018-3.506c-2.08,0.601-3.292,2.832-2.711,4.982c0.465,1.721,2.188,2.726,3.852,2.245
					c1.329-0.385,2.106-1.812,1.734-3.189"/>
				<path fill="#010101" d="M47.131,119.326c-0.296,1.125,0.323,2.293,1.383,2.607c1.324,0.394,2.698-0.428,3.068-1.836
					c0.463-1.758-0.503-3.582-2.16-4.074c-2.068-0.614-4.215,0.67-4.794,2.867c-0.724,2.748,1.024,4.98,3.61,5.748
					c2.021,0.602,3.812,0.113,5.091-0.867c0.768-0.588,1.352-1.09,1.69-2.377c1.131-4.293-1.229-8.746-5.271-9.947
					c-5.052-1.5-10.292,1.633-11.705,7c-1.767,6.707,3.104,13.666,9.418,15.542c7.894,2.345,19.858-7.452,22.066-15.837l2.33,0.178
					c-2.771,10.256-15.416,20.979-25.326,18.111c-7.928-2.295-12.557-10.806-10.34-19.01c1.773-6.564,8.354-10.397,14.695-8.562
					c5.074,1.468,8.037,6.915,6.618,12.165c-1.135,4.201-5.345,6.654-9.404,5.48c-3.247-0.94-5.143-4.426-4.235-7.787
					c0.726-2.688,3.421-4.259,6.019-3.506c2.078,0.601,3.291,2.832,2.71,4.982c-0.464,1.721-2.189,2.726-3.852,2.245
					c-1.331-0.385-2.106-1.812-1.735-3.189"/>
				<rect x="67.456" y="114.178" fill="#010101" stroke="#010101" stroke-miterlimit="10" width="8.255" height="3.972"/>
			</g>
		</g>
		<g>
			<g>
				<path fill="#010101" stroke="#010101" stroke-miterlimit="10" d="M36.229,51.892c0,0-0.042-4.227-0.101-4.877
					c-0.338-3.813-1.791-17.062-5.762-19.15c-5.907-3.106-25.337,8.413-25.337,8.413s0.211,22.041,5.753,25.51
					c3.807,2.383,16.153-2.901,19.43-4.377c0.513-0.231,4.008-2.039,4.008-2.039l1.36-1.986c0,0-3.747,1.853-4.654,2.129
					c-3.874,1.184-14.394,4.098-17.651,1.954c-4.338-2.856-5.754-19.964-5.754-19.964s15.836-8.08,20.443-5.477
					c3.806,2.151,6.173,13.112,6.9,16.965c0.158,0.84,0.256,5.191,0.256,5.191L36.229,51.892z"/>
				<path fill="#010101" d="M50.998,46.463c1.67-0.8,3.074-1.071,4.291-1.072c4.219-0.007,10.034,9.51,14.23,9.072
					c1.8-0.189,3.194-4.505,3.523-6.287c0.129-0.707-0.025-2.36-0.025-2.36s-2.133,3.502-3.361,3.606
					c-3.603,0.303-9.09-6.944-12.707-6.909c-1.548,0.015-3.646,0.703-6.017,1.994c-2.734,1.487-6.889,4.778-9.598,7.18
					c-1.406,1.247-3.234,0.334-3.234,0.334l-0.988,2.308c0,0,3.842-0.315,5.125-1.357C44.949,50.769,49.418,47.221,50.998,46.463z"
					/>
				<path fill="#010101" d="M37.331,70.273c0.142,1.848,0.609,3.198,1.215,4.253c2.104,3.657,13.254,3.935,14.972,7.788
					c0.738,1.653-2.304,5.02-3.683,6.195c-0.547,0.465-2.056,1.158-2.056,1.158s1.966-3.6,1.442-4.715
					c-1.538-3.271-10.558-4.4-12.336-7.549c-0.762-1.349-1.215-3.511-1.282-6.208c-0.08-3.112,0.693-8.354,1.419-11.902
					c0.376-1.84-1.707-2.865-1.707-2.865l1.504-2.01c0,0,2.027,3.384,1.766,5.015C38.034,62.881,37.196,68.527,37.331,70.273z"/>
				<path fill="#010101" stroke="#010101" stroke-miterlimit="10" d="M37.513,51.514c0,0,3.089-1.078,3.605-1.284
					c2.499-0.997,10.029-3.812,12.651-2.669c6.628,2.89,14.6,24.967,14.6,24.967s-23.238,4.461-29.104,0.157
					c-2.352-1.726-3.641-9.925-3.991-12.479c-0.066-0.482-0.393-4.133-0.393-4.133l1.36-1.985c0,0,0.438,4.112,0.699,5.229
					c0.695,2.975,2.216,8.615,4.057,9.998c5.138,3.859,25.625,1.993,25.625,1.993s-8.774-18.491-14.677-20.954
					c-2.095-0.874-7.585,0.59-10.561,1.501c-1.196,0.366-4.772,1.593-4.772,1.593L37.513,51.514z"/>
				<path fill="#010101" d="M37.635,52.966c0,0,7.826-3.578,13.134-0.299c5.307,3.28,6.307,11.524,6.307,11.524
					s-3.775-1.582-8.58-5.828C43.69,54.119,37.635,52.966,37.635,52.966z"/>
				<path fill="#010101" d="M36.035,55.737c0,0,0.814,8.566,6.308,11.523c5.493,2.957,13.133-0.299,13.133-0.299
					s-3.257-2.479-9.336-4.518C40.061,60.405,36.035,55.737,36.035,55.737z"/>
				<path fill="#010101" d="M20.814,73.464c-1.123-0.306-1.825-1.425-1.567-2.5c0.321-1.345,1.72-2.123,3.124-1.739
					c1.753,0.478,2.851,2.227,2.449,3.906c-0.502,2.1-2.688,3.316-4.88,2.719c-2.742-0.748-3.801-3.377-3.173-6
					c0.49-2.051,1.808-3.357,3.296-3.975c0.893-0.371,1.62-0.627,2.904-0.275c4.283,1.168,6.96,5.438,5.979,9.539
					c-1.227,5.124-6.561,8.096-11.915,6.636c-6.691-1.823-10.283-9.521-8.75-15.929c1.916-8.008,16.381-13.471,24.747-11.19
					l1.011-2.106C23.772,49.822,8.164,55.41,5.692,65.426c-1.978,8.014,3.079,16.278,11.293,18.461
					c6.571,1.746,13.181-2.035,14.761-8.446c1.266-5.128-1.97-10.417-7.227-11.813c-4.206-1.117-8.435,1.301-9.448,5.404
					c-0.809,3.283,1.262,6.668,4.626,7.562c2.691,0.716,5.399-0.833,6.046-3.458c0.519-2.102-0.808-4.268-2.96-4.84
					c-1.722-0.459-3.455,0.533-3.87,2.213c-0.332,1.344,0.517,2.73,1.896,3.097"/>
				<path fill="#010101" d="M45.381,30.913c-0.827-0.819-2.147-0.867-2.95-0.106c-1.002,0.95-0.978,2.55,0.056,3.575
					c1.291,1.279,3.355,1.355,4.608,0.167c1.566-1.484,1.528-3.985-0.086-5.585c-2.018-2.001-4.825-1.604-6.783,0.252
					c-1.53,1.45-2.004,3.245-1.794,4.843c0.125,0.958,0.268,1.715,1.214,2.652c3.153,3.125,8.189,3.308,11.25,0.409
					c3.825-3.625,3.731-9.73-0.209-13.636c-4.926-4.884-13.388-4.145-18.17,0.386c-5.978,5.664-3.476,20.923,2.682,27.027
					l-1.318,1.929c-7.496-7.527-10.46-23.84-3.021-30.989c5.951-5.718,15.636-5.471,21.633,0.551
					c4.798,4.817,4.827,12.433,0.066,17.007c-3.808,3.66-10.007,3.503-13.844-0.352c-3.071-3.083-3.091-7.957-0.043-10.884
					c2.438-2.342,6.404-2.241,8.861,0.226c1.965,1.973,1.978,5.092,0.027,6.966c-1.56,1.499-4.099,1.434-5.67-0.145
					c-1.258-1.263-1.266-3.259-0.019-4.458c0.999-0.96,2.623-0.918,3.629,0.092"/>
				
					<rect x="31.767" y="51.685" transform="matrix(-0.5 0.866 -0.866 -0.5 100.3223 49.4222)" fill="#010101" stroke="#010101" stroke-miterlimit="10" width="8.256" height="3.972"/>
			</g>
			<g>
				<path fill="#010101" stroke="#010101" stroke-miterlimit="10" d="M107.33,97.336c0,0,0.043,4.227,0.101,4.877
					c0.338,3.814,1.79,17.062,5.761,19.15c5.908,3.106,25.338-8.412,25.338-8.412s-0.211-22.041-5.752-25.51
					c-3.809-2.383-16.154,2.9-19.431,4.377c-0.513,0.23-4.007,2.039-4.007,2.039l-1.361,1.986c0,0,3.747-1.854,4.653-2.13
					c3.874-1.184,14.394-4.098,17.651-1.954c4.339,2.856,5.754,19.965,5.754,19.965s-15.836,8.08-20.442,5.477
					c-3.806-2.15-6.174-13.111-6.9-16.965c-0.157-0.84-0.255-5.191-0.255-5.191L107.33,97.336z"/>
				<path fill="#010101" d="M92.56,102.765c-1.671,0.8-3.074,1.071-4.291,1.073c-4.219,0.006-10.034-9.511-14.23-9.072
					c-1.8,0.189-3.194,4.506-3.522,6.287c-0.13,0.707,0.023,2.359,0.023,2.359s2.134-3.502,3.362-3.605
					c3.604-0.303,9.091,6.943,12.706,6.908c1.549-0.014,3.647-0.702,6.018-1.993c2.734-1.487,6.889-4.777,9.598-7.181
					c1.405-1.246,3.234-0.334,3.234-0.334l0.987-2.307c0,0-3.842,0.314-5.125,1.357C98.609,98.459,94.139,102.008,92.56,102.765z"/>
				<path fill="#010101" d="M106.227,78.955c-0.143-1.848-0.609-3.199-1.216-4.254c-2.104-3.656-13.254-3.934-14.972-7.787
					c-0.737-1.653,2.305-5.02,3.683-6.195c0.547-0.465,2.057-1.159,2.057-1.159s-1.967,3.601-1.441,4.716
					c1.537,3.271,10.558,4.4,12.335,7.549c0.762,1.348,1.215,3.511,1.282,6.207c0.08,3.112-0.693,8.354-1.42,11.902
					c-0.375,1.84,1.707,2.865,1.707,2.865l-1.504,2.011c0,0-2.027-3.384-1.766-5.016C105.524,86.347,106.362,80.701,106.227,78.955z
					"/>
				<path fill="#010101" stroke="#010101" stroke-miterlimit="10" d="M106.044,97.715c0,0-3.09,1.078-3.605,1.283
					c-2.498,0.997-10.029,3.812-12.65,2.67c-6.628-2.891-14.6-24.967-14.6-24.967s23.238-4.461,29.105-0.157
					c2.351,1.726,3.641,9.925,3.99,12.479c0.065,0.481,0.393,4.132,0.393,4.132l-1.361,1.985c0,0-0.438-4.111-0.697-5.229
					c-0.695-2.975-2.217-8.614-4.058-9.998c-5.138-3.859-25.624-1.992-25.624-1.992s8.774,18.49,14.677,20.954
					c2.095,0.874,7.585-0.591,10.561-1.501c1.195-0.367,4.772-1.594,4.772-1.594L106.044,97.715z"/>
				<path fill="#010101" d="M105.923,96.262c0,0-7.826,3.578-13.134,0.3c-5.308-3.279-6.308-11.524-6.308-11.524
					s3.775,1.582,8.58,5.828C99.867,95.109,105.923,96.262,105.923,96.262z"/>
				<path fill="#010101" d="M107.523,93.492c0,0-0.814-8.567-6.309-11.523c-5.492-2.957-13.133,0.299-13.133,0.299
					s3.258,2.479,9.336,4.518C103.497,88.823,107.523,93.492,107.523,93.492z"/>
				<path fill="#010101" d="M122.744,75.764c1.123,0.307,1.824,1.426,1.566,2.501c-0.321,1.344-1.719,2.124-3.123,1.739
					c-1.754-0.479-2.851-2.227-2.449-3.906c0.502-2.1,2.688-3.316,4.881-2.719c2.74,0.748,3.801,3.377,3.173,6
					c-0.49,2.051-1.808,3.357-3.297,3.975c-0.893,0.372-1.619,0.627-2.903,0.275c-4.283-1.168-6.96-5.438-5.979-9.538
					c1.226-5.125,6.561-8.098,11.913-6.637c6.692,1.824,10.284,9.521,8.751,15.929c-1.916,8.008-16.383,13.471-24.748,11.189
					l-1.011,2.107c10.268,2.727,25.876-2.861,28.349-12.877c1.977-8.014-3.08-16.278-11.295-18.461
					c-6.57-1.746-13.18,2.035-14.76,8.445c-1.267,5.129,1.969,10.418,7.227,11.814c4.205,1.118,8.435-1.302,9.447-5.404
					c0.81-3.283-1.262-6.668-4.626-7.562c-2.691-0.715-5.399,0.834-6.046,3.459c-0.52,2.102,0.808,4.268,2.96,4.84
					c1.724,0.459,3.454-0.533,3.87-2.213c0.332-1.344-0.517-2.73-1.895-3.096"/>
				<path fill="#010101" d="M98.177,118.315c0.825,0.819,2.146,0.867,2.948,0.106c1.003-0.949,0.979-2.551-0.055-3.574
					c-1.292-1.28-3.354-1.355-4.608-0.168c-1.566,1.484-1.528,3.986,0.086,5.586c2.018,2,4.824,1.604,6.783-0.253
					c1.53-1.449,2.004-3.244,1.794-4.842c-0.126-0.959-0.268-1.716-1.214-2.653c-3.152-3.125-8.189-3.308-11.25-0.408
					c-3.824,3.625-3.73,9.729,0.21,13.637c4.926,4.883,13.388,4.145,18.169-0.387c5.979-5.664,3.477-20.923-2.682-27.027
					l1.318-1.929c7.496,7.526,10.461,23.84,3.021,30.989c-5.951,5.718-15.637,5.471-21.633-0.551
					c-4.798-4.818-4.828-12.433-0.066-17.007c3.808-3.66,10.007-3.503,13.844,0.353c3.071,3.082,3.092,7.955,0.044,10.883
					c-2.438,2.342-6.405,2.241-8.86-0.225c-1.967-1.974-1.979-5.093-0.027-6.967c1.56-1.499,4.098-1.434,5.67,0.145
					c1.259,1.264,1.266,3.26,0.019,4.459c-0.999,0.959-2.624,0.917-3.63-0.093"/>
				
					<rect x="103.536" y="93.572" transform="matrix(0.5 -0.866 0.866 0.5 -28.9226 141.0211)" fill="#010101" stroke="#010101" stroke-miterlimit="10" width="8.254" height="3.972"/>
			</g>
		</g>
		<g>
			<g>
				<path fill="#010101" stroke="#010101" stroke-miterlimit="10" d="M34.326,94.041c0,0-3.682-2.076-4.274-2.352
					c-3.471-1.613-15.671-6.98-19.465-4.586c-5.643,3.562-5.383,26.15-5.383,26.15s19.193,10.837,24.968,7.771
					c3.968-2.105,5.565-15.439,5.925-19.015c0.057-0.56,0.238-4.491,0.238-4.491l-1.04-2.17c0,0-0.269,4.171-0.483,5.094
					c-0.912,3.947-3.648,14.515-7.133,16.264c-4.643,2.329-20.167-4.998-20.167-4.998s0.92-17.756,5.479-20.443
					c3.766-2.221,14.441,1.209,18.142,2.507c0.806,0.283,4.623,2.374,4.623,2.374L34.326,94.041z"/>
				<path fill="#010101" d="M37.009,78.535c0.143-1.846,0.61-3.197,1.216-4.252c2.104-3.657,13.253-3.935,14.972-7.788
					c0.736-1.653-2.305-5.019-3.684-6.194c-0.547-0.466-2.056-1.159-2.056-1.159s1.966,3.599,1.442,4.715
					c-1.539,3.271-10.558,4.399-12.336,7.549c-0.762,1.349-1.215,3.51-1.282,6.208c-0.079,3.11,0.693,8.354,1.419,11.901
					c0.377,1.842-1.328,2.968-1.328,2.968l1.505,2.01c0,0,1.649-3.485,1.387-5.117C37.713,85.928,36.875,80.282,37.009,78.535z"/>
				<path fill="#010101" d="M50.796,102.277c1.671,0.8,3.074,1.07,4.291,1.072c4.22,0.008,10.034-9.51,14.23-9.07
					c1.801,0.188,3.195,4.504,3.523,6.285c0.13,0.707-0.023,2.361-0.023,2.361s-2.134-3.502-3.363-3.605
					c-3.603-0.305-9.09,6.942-12.706,6.908c-1.548-0.016-3.647-0.704-6.017-1.994c-2.734-1.487-6.888-4.777-9.598-7.18
					c-1.406-1.246-3.335,0.045-3.335,0.045l-0.988-2.308c0,0,3.944-0.063,5.226,0.979C44.746,97.972,49.216,101.52,50.796,102.277z"
					/>
				<path fill="#010101" stroke="#010101" stroke-miterlimit="10" d="M34.64,92.739c0,0,0.611-3.215,0.691-3.765
					c0.386-2.662,1.712-10.592,4.014-12.291c5.815-4.295,28.921-0.159,28.921-0.159s-7.756,22.354-14.417,25.283
					c-2.669,1.174-10.415-1.81-12.803-2.784c-0.45-0.184-3.775-1.725-3.775-1.725l-1.04-2.172c0,0,3.78,1.678,4.878,2.01
					c2.923,0.886,8.568,2.388,10.686,1.485c5.912-2.521,14.539-21.194,14.539-21.194s-20.401-1.646-25.486,2.233
					c-1.804,1.376-3.281,6.864-3.979,9.896c-0.281,1.219-1.007,4.93-1.007,4.93L34.64,92.739z"/>
				<path fill="#010101" d="M35.959,93.359c0,0,0.814-8.566,6.308-11.523c5.493-2.956,13.133,0.3,13.133,0.3
					s-3.257,2.479-9.335,4.517C39.985,88.691,35.959,93.359,35.959,93.359z"/>
				<path fill="#010101" d="M37.559,96.131c0,0,7.826,3.578,13.133,0.299S57,84.906,57,84.906s-3.775,1.582-8.581,5.826
					C43.615,94.979,37.559,96.131,37.559,96.131z"/>
				<path fill="#010101" d="M45.3,118.176c-0.826,0.82-2.146,0.867-2.948,0.107c-1.003-0.951-0.979-2.551,0.055-3.576
					c1.291-1.279,3.354-1.355,4.608-0.166c1.566,1.484,1.528,3.985-0.086,5.585c-2.018,2.001-4.825,1.604-6.783-0.252
					c-1.53-1.45-2.003-3.245-1.794-4.843c0.125-0.959,0.268-1.715,1.214-2.652c3.152-3.125,8.188-3.308,11.25-0.408
					c3.825,3.625,3.731,9.73-0.21,13.637c-4.925,4.883-13.387,4.145-18.169-0.387c-5.978-5.664-3.476-20.923,2.683-27.027
					L33.8,96.265c-7.496,7.528-10.46,23.839-3.021,30.988c5.951,5.72,15.636,5.473,21.633-0.55
					c4.797-4.818,4.828-12.432,0.066-17.007c-3.808-3.66-10.007-3.503-13.844,0.352c-3.071,3.083-3.09,7.956-0.044,10.885
					c2.438,2.343,6.405,2.241,8.861-0.226c1.965-1.973,1.978-5.092,0.028-6.966c-1.561-1.5-4.1-1.435-5.672,0.144
					c-1.258,1.264-1.265,3.259-0.018,4.459c0.998,0.959,2.623,0.918,3.629-0.094"/>
				<path fill="#010101" d="M20.733,75.625c-1.123,0.306-1.824,1.426-1.566,2.5c0.322,1.344,1.72,2.123,3.124,1.74
					c1.753-0.479,2.851-2.229,2.449-3.908c-0.502-2.098-2.688-3.315-4.88-2.717c-2.742,0.746-3.801,3.376-3.173,6
					c0.49,2.05,1.808,3.357,3.296,3.975c0.893,0.371,1.619,0.626,2.904,0.275c4.283-1.168,6.959-5.438,5.979-9.538
					c-1.227-5.125-6.561-8.097-11.914-6.638c-6.692,1.824-10.284,9.522-8.751,15.929c1.917,8.009,16.382,13.472,24.748,11.191
					l1.012,2.106C23.693,99.27,8.083,93.68,5.611,83.663c-1.976-8.013,3.081-16.277,11.294-18.46
					c6.571-1.746,13.181,2.036,14.762,8.446c1.265,5.128-1.97,10.417-7.227,11.813c-4.206,1.118-8.436-1.301-9.447-5.404
					c-0.81-3.281,1.261-6.668,4.626-7.561c2.691-0.716,5.398,0.832,6.046,3.459c0.518,2.101-0.808,4.266-2.961,4.838
					c-1.723,0.459-3.455-0.533-3.87-2.213c-0.333-1.345,0.517-2.73,1.895-3.097"/>
				
					<rect x="31.571" y="93.234" transform="matrix(0.5 0.866 -0.866 0.5 100.3145 16.6955)" fill="#010101" stroke="#010101" stroke-miterlimit="10" width="8.255" height="3.971"/>
			</g>
			<g>
				<path fill="#010101" stroke="#010101" stroke-miterlimit="10" d="M109.232,55.187c0,0,3.682,2.077,4.273,2.352
					c3.473,1.614,15.672,6.981,19.467,4.586c5.643-3.563,5.383-26.15,5.383-26.15s-19.193-10.837-24.969-7.772
					c-3.967,2.106-5.564,15.44-5.924,19.016c-0.057,0.56-0.238,4.49-0.238,4.49l1.039,2.171c0,0,0.27-4.172,0.483-5.095
					c0.911-3.947,3.647-14.514,7.133-16.263c4.644-2.33,20.167,4.999,20.167,4.999s-0.92,17.755-5.479,20.442
					c-3.766,2.221-14.441-1.209-18.142-2.506c-0.806-0.283-4.624-2.375-4.624-2.375L109.232,55.187z"/>
				<path fill="#010101" d="M106.548,70.692c-0.143,1.847-0.609,3.198-1.217,4.253c-2.104,3.656-13.252,3.935-14.971,7.787
					c-0.736,1.654,2.305,5.02,3.684,6.193c0.547,0.467,2.056,1.16,2.056,1.16s-1.966-3.599-1.442-4.715
					c1.539-3.271,10.559-4.4,12.336-7.549c0.762-1.349,1.215-3.51,1.282-6.208c0.079-3.111-0.692-8.354-1.419-11.901
					c-0.377-1.841,1.328-2.968,1.328-2.968l-1.506-2.009c0,0-1.647,3.485-1.387,5.117C105.845,63.301,106.683,68.947,106.548,70.692
					z"/>
				<path fill="#010101" d="M92.761,46.952c-1.67-0.801-3.074-1.071-4.291-1.073c-4.219-0.007-10.033,9.51-14.229,9.071
					c-1.8-0.188-3.195-4.505-3.523-6.287c-0.13-0.707,0.023-2.36,0.023-2.36s2.134,3.502,3.362,3.606
					c3.604,0.304,9.09-6.943,12.706-6.908c1.55,0.015,3.647,0.703,6.017,1.994c2.735,1.487,6.889,4.777,9.599,7.18
					c1.405,1.246,3.335-0.045,3.335-0.045l0.988,2.308c0,0-3.943,0.064-5.227-0.979C98.812,51.256,94.342,47.708,92.761,46.952z"/>
				<path fill="#010101" stroke="#010101" stroke-miterlimit="10" d="M108.917,56.489c0,0-0.611,3.215-0.691,3.764
					c-0.387,2.663-1.713,10.592-4.014,12.292c-5.816,4.294-28.921,0.16-28.921,0.16S83.046,50.35,89.708,47.42
					c2.668-1.174,10.414,1.809,12.801,2.784c0.451,0.184,3.775,1.726,3.775,1.726l1.04,2.171c0,0-3.779-1.677-4.878-2.01
					c-2.924-0.887-8.568-2.388-10.686-1.485c-5.912,2.52-14.539,21.194-14.539,21.194s20.4,1.646,25.485-2.233
					c1.804-1.377,3.282-6.864,3.98-9.896c0.28-1.218,1.007-4.93,1.007-4.93L108.917,56.489z"/>
				<path fill="#010101" d="M107.599,55.869c0,0-0.814,8.567-6.309,11.524c-5.493,2.955-13.134-0.3-13.134-0.3
					s3.258-2.479,9.337-4.517C103.573,60.537,107.599,55.869,107.599,55.869z"/>
				<path fill="#010101" d="M106,53.098c0,0-7.827-3.578-13.133-0.298c-5.309,3.278-6.309,11.522-6.309,11.522
					s3.775-1.582,8.58-5.826C99.943,54.25,106,53.098,106,53.098z"/>
				<path fill="#010101" d="M98.257,31.053c0.826-0.82,2.146-0.867,2.949-0.107c1.002,0.95,0.979,2.551-0.056,3.575
					c-1.291,1.28-3.354,1.356-4.608,0.167c-1.566-1.484-1.528-3.985,0.086-5.585c2.018-2,4.825-1.604,6.783,0.252
					c1.531,1.45,2.004,3.245,1.795,4.842c-0.125,0.959-0.268,1.716-1.215,2.652c-3.152,3.125-8.188,3.308-11.25,0.409
					c-3.824-3.625-3.731-9.73,0.21-13.636c4.927-4.885,13.388-4.146,18.17,0.385c5.978,5.664,3.476,20.923-2.683,27.028l1.318,1.929
					c7.496-7.528,10.461-23.84,3.022-30.989c-5.952-5.719-15.637-5.472-21.634,0.551c-4.798,4.817-4.828,12.432-0.066,17.006
					c3.809,3.661,10.007,3.503,13.844-0.352c3.071-3.083,3.091-7.956,0.044-10.884c-2.438-2.342-6.405-2.241-8.862,0.225
					c-1.965,1.974-1.977,5.092-0.026,6.966c1.56,1.5,4.099,1.434,5.671-0.144c1.258-1.264,1.266-3.258,0.018-4.458
					c-0.998-0.959-2.623-0.918-3.628,0.093"/>
				<path fill="#010101" d="M122.825,73.604c1.122-0.305,1.823-1.426,1.565-2.5c-0.32-1.344-1.719-2.123-3.122-1.74
					c-1.754,0.479-2.851,2.227-2.449,3.908c0.502,2.099,2.687,3.315,4.88,2.718c2.741-0.747,3.801-3.377,3.172-6.001
					c-0.488-2.051-1.807-3.357-3.295-3.975c-0.894-0.371-1.621-0.627-2.904-0.275c-4.284,1.168-6.959,5.438-5.979,9.538
					c1.228,5.125,6.562,8.097,11.915,6.638c6.691-1.825,10.282-9.523,8.75-15.93c-1.916-8.008-16.382-13.471-24.748-11.19
					l-1.012-2.106c10.268-2.729,25.877,2.861,28.349,12.876c1.977,8.014-3.079,16.278-11.293,18.461
					c-6.571,1.746-13.181-2.036-14.762-8.446c-1.267-5.128,1.97-10.417,7.228-11.813c4.205-1.118,8.436,1.301,9.447,5.404
					c0.81,3.281-1.262,6.667-4.626,7.561c-2.691,0.717-5.399-0.832-6.047-3.459c-0.518-2.101,0.808-4.267,2.961-4.838
					c1.724-0.459,3.455,0.533,3.87,2.213c0.331,1.344-0.518,2.73-1.895,3.097"/>
				
					<rect x="103.732" y="52.023" transform="matrix(-0.5 -0.8661 0.8661 -0.5 115.0091 174.4225)" fill="#010101" stroke="#010101" stroke-miterlimit="10" width="8.255" height="3.972"/>
			</g>
		</g>
	</g>
</g>
</svg>
