<?xml version="1.0" encoding="utf-8"?>
<!-- Generator: Adobe Illustrator 16.0.0, SVG Export Plug-In . SVG Version: 6.00 Build 0)  -->
<!DOCTYPE svg PUBLIC "-//W3C//DTD SVG 1.1//EN" "http://www.w3.org/Graphics/SVG/1.1/DTD/svg11.dtd">
<svg version="1.1" xmlns="http://www.w3.org/2000/svg" xmlns:xlink="http://www.w3.org/1999/xlink" x="0px" y="0px"
	 width="140.575px" height="143.002px" viewBox="0 0 140.575 143.002" enable-background="new 0 0 140.575 143.002"
	 xml:space="preserve">
<g id="Layer_2" display="none">
	<rect x="-0.169" display="inline" fill="#3C6D73" width="140.575" height="43.349"/>
	<rect x="-0.169" y="99.124" display="inline" fill="#3C6D73" width="140.575" height="44.313"/>
	<rect x="84.645" y="26.083" display="inline" fill="#3C6D73" width="55.761" height="20.503"/>
	<rect x="-0.169" y="36.68" display="inline" fill="#3C6D73" width="51.242" height="11.422"/>
	<rect x="-0.169" y="43.897" display="inline" fill="#3C6D73" width="46.723" height="11.422"/>
	<rect x="94.634" y="46.089" display="inline" fill="#3C6D73" width="45.771" height="11.641"/>
	<rect x="98.316" y="55.21" display="inline" fill="#3C6D73" width="42.09" height="35.893"/>
	<rect x="28.736" y="89.175" display="inline" fill="#3C6D73" width="21.045" height="16.274"/>
	<rect x="-0.169" y="55.234" display="inline" fill="#3C6D73" width="41.252" height="44.625"/>
	<rect x="90.875" y="89.458" display="inline" fill="#3C6D73" width="49.53" height="20.503"/>
</g>
<g id="Layer_1">
	<g>
		<g>
			<path fill="#010101" stroke="#010101" stroke-miterlimit="10" d="M72.402,34.526c0,0,3.524-2.084,4.042-2.447
				c3.037-2.133,13.453-9.771,13.281-14.116C89.471,11.5,70.388,0.773,70.388,0.773s-18.396,10.858-18.623,17.19
				c-0.154,4.351,10.264,12.153,13.09,14.186c0.441,0.32,3.652,2.377,3.652,2.377l2.326,0.18c0,0-3.371-2.248-4.041-2.875
				c-2.871-2.678-10.414-10.094-10.193-13.867C56.894,12.938,70.566,3.46,70.566,3.46s14.454,9.375,14.501,14.504
				c0.039,4.236-8.012,11.535-10.895,14.011c-0.627,0.539-4.231,2.73-4.231,2.73L72.402,34.526z"/>
			<path fill="#010101" d="M74.407,40.092c3.162,1.209,8.307,3.24,9.707,4.199c1.48,1.014,2.389,2.061,2.979,3.08
				c0.301,0.517,0.433,1.17,0.471,1.903c1.107,0.791,2.178,1.649,3.174,2.569c0.184-1.81,0.188-3.441-0.422-4.472
				c-0.766-1.293-2.355-2.721-4.59-4.084c-2.572-1.574-7.35-3.467-10.678-4.576c-1.728-0.576-1.846-2.552-1.846-2.552l-2.417,0.289
				C70.785,36.448,72.913,39.52,74.407,40.092z"/>
			<path fill="#010101" d="M52.081,49.625c0.693-0.499,1.407-0.966,2.135-1.412c0.077-0.28,0.177-0.542,0.312-0.774
				c0.591-1.021,1.498-2.068,2.98-3.082c1.401-0.959,6.545-2.992,9.706-4.199c1.496-0.571,3.355-3.912,3.355-3.912l-2.416-0.289
				c0,0,0.149,2.246-1.578,2.822c-3.33,1.109-8.104,3.002-10.678,4.576c-2.231,1.363-3.826,2.791-4.59,4.084
				c-0.473,0.803-0.573,1.971-0.511,3.301C51.186,50.348,51.602,49.969,52.081,49.625z"/>
			<path fill="#010101" stroke="#010101" stroke-miterlimit="10" d="M80.708,45.418c1.256,0.535,2.551,1.177,3.836,1.917
				c-0.004-0.061,0-0.127-0.008-0.187c-0.311-2.754-6.324-7.711-8.371-9.324c-0.422-0.334-2.824-2.404-2.824-2.404l-2.059,0.18
				c0,0,2.762,2.408,3.648,3.234C76.679,40.463,79.478,43.247,80.708,45.418z"/>
			<path fill="#010101" stroke="#010101" stroke-miterlimit="10" d="M60.651,45.003c0.117-0.047,0.234-0.08,0.351-0.125
				c1.367-2.128,3.929-4.675,5.512-6.159c0.811-0.76,4.049-3.119,4.049-3.119l-2.324-0.18c0,0-2.906,2.043-3.279,2.332
				c-1.929,1.495-7.922,6.345-8.492,9.188C57.829,46.227,59.228,45.582,60.651,45.003z"/>
			<path fill="#010101" d="M77.551,44.276c0.299,0.087,0.604,0.185,0.91,0.288c-1.328-4.8-6.28-8.337-6.28-8.337
				s1.071,3.085,1.133,7.152C74.725,43.564,76.139,43.863,77.551,44.276z"/>
			<path fill="#010101" d="M67.951,43.268c0.08-4.011,1.131-7.041,1.131-7.041s-4.715,3.367-6.179,7.988
				C64.57,43.712,66.255,43.409,67.951,43.268z"/>
			<path fill="#010101" d="M46.828,32.042c-0.289-1.09,0.311-2.223,1.338-2.527c1.283-0.381,2.615,0.416,2.975,1.779
				c0.447,1.703-0.488,3.473-2.094,3.949c-2.004,0.596-4.086-0.648-4.646-2.779c-0.701-2.662,0.992-4.826,3.498-5.57
				c1.959-0.582,3.695-0.109,4.936,0.84c0.744,0.57,1.309,1.057,1.637,2.305c1.096,4.16-1.191,8.476-5.107,9.64
				c-4.896,1.453-9.977-1.583-11.344-6.785c-1.713-6.5,3.008-13.244,9.129-15.062c7.648-2.271,19.244,7.222,21.383,15.347
				l2.258-0.172c-2.688-9.939-14.939-20.331-24.543-17.551c-7.684,2.224-12.17,10.471-10.021,18.422
				c1.719,6.361,8.094,10.076,14.24,8.296c4.918-1.422,7.789-6.701,6.414-11.789c-1.1-4.072-5.18-6.449-9.113-5.31
				c-3.148,0.91-4.986,4.289-4.105,7.546c0.703,2.605,3.314,4.127,5.832,3.398c2.016-0.584,3.191-2.746,2.629-4.83
				c-0.451-1.668-2.123-2.643-3.734-2.176c-1.289,0.373-2.041,1.756-1.68,3.09"/>
			<path fill="#010101" d="M94.444,32.042c0.287-1.09-0.312-2.223-1.34-2.527c-1.283-0.381-2.615,0.416-2.975,1.779
				c-0.447,1.703,0.488,3.473,2.094,3.949c2.004,0.596,4.084-0.648,4.646-2.779c0.699-2.662-0.994-4.826-3.5-5.57
				c-1.957-0.582-3.693-0.109-4.936,0.84c-0.744,0.57-1.312,1.057-1.641,2.305c-1.096,4.16,1.193,8.476,5.109,9.64
				c4.895,1.453,9.975-1.583,11.344-6.785c1.711-6.5-3.01-13.244-9.129-15.062c-7.648-2.271-19.244,7.222-21.384,15.347
				l-2.258-0.172c2.687-9.939,14.938-20.331,24.544-17.551c7.684,2.224,12.17,10.471,10.021,18.422
				c-1.719,6.361-8.097,10.076-14.242,8.296c-4.916-1.422-7.789-6.701-6.414-11.789c1.1-4.072,5.18-6.449,9.115-5.31
				c3.146,0.91,4.982,4.289,4.104,7.546c-0.703,2.605-3.314,4.127-5.832,3.398c-2.016-0.584-3.189-2.746-2.627-4.83
				c0.449-1.668,2.121-2.643,3.732-2.176c1.289,0.373,2.041,1.756,1.682,3.09"/>
			<rect x="66.746" y="33.182" fill="#010101" stroke="#010101" stroke-miterlimit="10" width="8" height="3.85"/>
		</g>
		<g>
			<path fill="#010101" stroke="#010101" stroke-miterlimit="10" d="M69.001,108.483c0,0-3.518,2.101-4.033,2.468
				c-3.027,2.146-13.408,9.83-13.217,14.174c0.283,6.461,19.414,17.104,19.414,17.104s18.349-10.941,18.545-17.273
				c0.138-4.352-10.315-12.105-13.151-14.129c-0.442-0.316-3.661-2.359-3.661-2.359L70.57,108.3c0,0,3.38,2.232,4.052,2.855
				c2.883,2.664,10.459,10.049,10.256,13.822c-0.271,5.023-13.899,14.564-13.899,14.564s-14.498-9.312-14.566-14.438
				c-0.059-4.236,7.961-11.57,10.83-14.062c0.627-0.541,4.221-2.748,4.221-2.748L69.001,108.483z"/>
			<path fill="#010101" d="M66.969,102.927c-3.167-1.195-8.319-3.201-9.723-4.156c-1.486-1.008-2.398-2.051-2.994-3.066
				c-0.208-0.355-0.328-0.786-0.405-1.252c-0.635-0.396-1.115-0.917-1.441-1.516c-0.762-0.125-1.382-0.43-1.881-0.85
				c-0.09,1.469-0.009,2.766,0.508,3.632c0.768,1.289,2.367,2.709,4.605,4.064c2.582,1.562,7.363,3.432,10.697,4.526
				c1.73,0.567,1.859,2.545,1.859,2.545l2.416-0.302C70.61,106.554,68.469,103.492,66.969,102.927z"/>
			<path fill="#010101" d="M88.196,93.44c-0.307,0.135-0.615,0.25-0.924,0.357c-0.05,0.646-0.188,1.223-0.455,1.691
				c-0.586,1.023-1.49,2.074-2.967,3.096c-1.396,0.965-6.531,3.021-9.684,4.242c-1.494,0.578-3.338,3.928-3.338,3.928l2.418,0.277
				c0,0-0.16-2.244,1.562-2.828c3.324-1.125,8.09-3.037,10.654-4.623c2.226-1.375,3.814-2.811,4.572-4.104
				c0.469-0.803,0.564-1.965,0.498-3.289C89.833,92.638,89.067,93.06,88.196,93.44z"/>
			<path fill="#010101" stroke="#010101" stroke-miterlimit="10" d="M60.929,98.095c-0.625-0.234-1.16-0.599-1.597-1.057
				c-0.986-0.184-1.84-0.671-2.531-1.329c0.005,0.067,0.002,0.142,0.01,0.207c0.322,2.754,6.357,7.683,8.412,9.287
				c0.424,0.332,2.836,2.391,2.836,2.391l2.059-0.188c0,0-2.775-2.397-3.664-3.22C64.82,102.681,62.275,100.181,60.929,98.095z"/>
			<path fill="#010101" stroke="#010101" stroke-miterlimit="10" d="M80.702,97.491c-1.216,2.232-4.107,5.144-5.834,6.773
				c-0.805,0.764-4.033,3.139-4.033,3.139l2.326,0.17c0,0,2.896-2.057,3.266-2.348c1.971-1.541,8.201-6.625,8.498-9.438
				c0.021-0.195,0.025-0.401,0.021-0.612C83.602,96.065,82.19,96.841,80.702,97.491z"/>
			<path fill="#010101" d="M62.867,98.38c1.313,4.844,6.347,8.403,6.347,8.403s-1.056-3.002-1.162-6.99
				C66.385,99.55,64.438,98.349,62.867,98.38z"/>
			<path fill="#010101" d="M75.725,99.118c-0.766,0.17-1.545,0.195-2.309,0.122c0.021,4.251-1.104,7.53-1.104,7.53
				s4.998-3.603,6.27-8.453C77.659,98.631,76.708,98.899,75.725,99.118z"/>
			<path fill="#010101" d="M94.586,110.854c0.293,1.088-0.303,2.224-1.328,2.53c-1.281,0.388-2.617-0.401-2.982-1.766
				c-0.455-1.701,0.473-3.474,2.076-3.957c2.002-0.604,4.088,0.629,4.658,2.758c0.713,2.66-0.971,4.83-3.473,5.586
				c-1.957,0.593-3.693,0.127-4.939-0.817c-0.746-0.565-1.312-1.052-1.646-2.297c-1.115-4.156,1.154-8.481,5.064-9.662
				c4.891-1.478,9.982,1.537,11.375,6.731c1.74,6.492-2.949,13.258-9.062,15.104c-7.639,2.308-19.277-7.135-21.449-15.252
				l-2.257,0.183c2.73,9.928,15.03,20.264,24.623,17.44c7.672-2.259,12.121-10.524,9.938-18.468
				c-1.746-6.354-8.141-10.041-14.277-8.233c-4.91,1.445-7.76,6.736-6.359,11.82c1.119,4.065,5.209,6.426,9.139,5.271
				c3.143-0.927,4.965-4.312,4.07-7.566c-0.715-2.602-3.334-4.11-5.85-3.37c-2.014,0.592-3.178,2.76-2.604,4.842
				c0.457,1.666,2.133,2.631,3.742,2.158c1.287-0.38,2.033-1.767,1.666-3.099"/>
			<path fill="#010101" d="M46.97,111.067c-0.283,1.091,0.322,2.222,1.354,2.521c1.283,0.375,2.613-0.426,2.965-1.791
				c0.441-1.707-0.504-3.471-2.111-3.938c-2.006-0.586-4.082,0.666-4.633,2.8c-0.689,2.666,1.014,4.821,3.523,5.555
				c1.961,0.574,3.695,0.095,4.93-0.86c0.742-0.574,1.307-1.062,1.629-2.312c1.076-4.166-1.23-8.473-5.152-9.617
				c-4.902-1.432-9.967,1.629-11.312,6.834c-1.684,6.512,3.068,13.232,9.195,15.021c7.66,2.238,19.213-7.307,21.316-15.442
				l2.258,0.162c-2.641,9.951-14.848,20.397-24.467,17.662c-7.691-2.188-12.215-10.418-10.102-18.377
				c1.689-6.369,8.049-10.113,14.205-8.361c4.922,1.399,7.816,6.666,6.465,11.763c-1.082,4.075-5.15,6.474-9.09,5.353
				c-3.15-0.896-5.004-4.269-4.139-7.529c0.691-2.606,3.297-4.143,5.818-3.424c2.016,0.574,3.201,2.729,2.648,4.817
				c-0.443,1.671-2.111,2.649-3.723,2.19c-1.293-0.366-2.051-1.748-1.695-3.082"/>
			
				<rect x="66.653" y="105.972" transform="matrix(1 -0.0044 0.0044 1 -0.4734 0.3115)" fill="#010101" stroke="#010101" stroke-miterlimit="10" width="8.001" height="3.849"/>
		</g>
	</g>
	<g>
		<g>
			<path fill="#010101" stroke="#010101" stroke-miterlimit="10" d="M56.2,37.451c0,0,2.272-3.407,2.581-3.958
				c1.812-3.239,7.886-14.639,5.846-18.479C61.595,9.3,39.749,7.91,39.749,7.91s-11.867,17.762-9.326,23.566
				c1.748,3.987,14.518,6.5,17.946,7.106c0.536,0.097,4.321,0.558,4.321,0.558l2.174-0.846c0,0-4.012-0.564-4.888-0.839
				c-3.748-1.168-13.761-4.58-15.197-8.075c-1.914-4.657,6.295-19.126,6.295-19.126s17.09,2.18,19.356,6.781
				c1.872,3.8-2.217,13.868-3.741,17.35c-0.331,0.757-2.628,4.295-2.628,4.295L56.2,37.451z"/>
			<path fill="#010101" d="M60.42,41.597c3.373-0.282,8.89-0.683,10.567-0.426c1.773,0.271,3.047,0.821,4.021,1.484
				c0.492,0.335,0.896,0.868,1.248,1.51c1.342,0.232,2.677,0.542,3.975,0.939c-0.621-1.71-1.324-3.182-2.32-3.847
				c-1.25-0.834-3.304-1.431-5.906-1.69c-3-0.303-8.125,0.063-11.604,0.506c-1.807,0.229-2.77-1.499-2.77-1.499l-2.053,1.309
				C55.577,39.884,58.826,41.729,60.42,41.597z"/>
			<path fill="#010101" d="M44.437,59.869c0.408-0.75,0.849-1.481,1.311-2.198c-0.052-0.286-0.075-0.564-0.055-0.833
				c0.091-1.176,0.453-2.513,1.349-4.069c0.848-1.472,4.601-5.534,6.926-7.992c1.1-1.164,1.326-4.98,1.326-4.98l-2.303,0.787
				c0,0,1.108,1.959-0.197,3.228c-2.52,2.443-6.001,6.22-7.638,8.754c-1.419,2.195-2.237,4.174-2.364,5.67
				c-0.078,0.929,0.338,2.025,0.971,3.196C43.944,60.908,44.155,60.387,44.437,59.869z"/>
			<path fill="#010101" stroke="#010101" stroke-miterlimit="10" d="M68.408,43.664c1.362-0.062,2.807-0.046,4.288,0.063
				c-0.029-0.053-0.057-0.114-0.089-0.165c-1.474-2.347-9.042-4.206-11.586-4.771c-0.525-0.118-3.588-0.941-3.588-0.941
				l-1.776,1.055c0,0,3.532,0.972,4.689,1.332C62.628,40.945,66.358,42.24,68.408,43.664z"/>
			<path fill="#010101" stroke="#010101" stroke-miterlimit="10" d="M50.156,51.987c0.084-0.094,0.176-0.174,0.261-0.266
				c0.31-2.51,1.514-5.916,2.297-7.939c0.4-1.036,2.296-4.566,2.296-4.566l-2.173,0.845c0,0-1.732,3.101-1.943,3.523
				c-1.09,2.184-4.387,9.153-3.667,11.962C48.143,54.313,49.124,53.126,50.156,51.987z"/>
			<path fill="#010101" d="M65.07,44.003c0.306-0.051,0.622-0.095,0.944-0.135c-3.279-3.75-9.275-4.788-9.275-4.788
				s2.304,2.315,4.122,5.954C62.212,44.587,63.617,44.244,65.07,44.003z"/>
			<path fill="#010101" d="M55.98,47.258c-1.667-3.648-2.033-6.834-2.033-6.834s-2.789,5.078-2.104,9.876
				C53.126,49.125,54.513,48.12,55.98,47.258z"/>
			<path fill="#010101" d="M32.079,46.303c-0.732-0.855-0.684-2.138,0.11-2.857c0.99-0.899,2.536-0.759,3.452,0.313
				c1.141,1.341,1.066,3.341-0.175,4.467c-1.547,1.406-3.963,1.188-5.392-0.49c-1.785-2.095-1.198-4.778,0.736-6.536
				c1.513-1.374,3.283-1.7,4.812-1.383c0.918,0.191,1.638,0.385,2.475,1.367c2.791,3.273,2.603,8.154-0.421,10.901
				c-3.782,3.433-9.677,2.9-13.165-1.194c-4.362-5.114-3.033-13.238,1.694-17.531c5.906-5.363,20.473-1.837,25.924,4.556l1.96-1.135
				C47.358,28.99,31.811,24.94,24.362,31.61c-5.96,5.336-6.426,14.712-1.041,20.945c4.308,4.986,11.662,5.569,16.429,1.3
				c3.815-3.414,4.112-9.416,0.667-13.404c-2.757-3.192-7.464-3.564-10.514-0.833c-2.442,2.185-2.633,6.027-0.427,8.58
				c1.764,2.042,4.776,2.281,6.729,0.533c1.563-1.4,1.685-3.858,0.274-5.493c-1.13-1.307-3.06-1.46-4.308-0.341
				c-1,0.895-1.078,2.467-0.175,3.513"/>
			<path fill="#010101" d="M74.984,25.653c-0.214-1.106-1.245-1.867-2.303-1.695c-1.321,0.213-2.176,1.509-1.909,2.893
				c0.336,1.729,1.947,2.918,3.6,2.651c2.063-0.333,3.398-2.356,2.981-4.52c-0.522-2.703-2.987-3.917-5.569-3.501
				c-2.016,0.324-3.375,1.504-4.082,2.897c-0.424,0.837-0.724,1.521-0.478,2.789c0.816,4.224,4.751,7.12,8.784,6.471
				c5.039-0.813,8.302-5.752,7.279-11.033c-1.277-6.599-8.457-10.629-14.759-9.613c-7.877,1.271-14.208,14.853-12.613,23.102
				l-2.108,0.824c-1.89-10.12,4.644-24.798,14.505-26.458c7.889-1.328,15.507,4.157,17.02,12.254
				c1.209,6.477-2.926,12.59-9.235,13.651c-5.048,0.851-9.925-2.66-10.893-7.842c-0.774-4.146,1.871-8.057,5.912-8.737
				c3.229-0.544,6.35,1.704,6.969,5.02c0.496,2.652-1.196,5.156-3.78,5.591c-2.069,0.348-4.064-1.092-4.462-3.213
				c-0.318-1.698,0.766-3.301,2.42-3.579c1.322-0.223,2.602,0.697,2.855,2.055"/>
			
				<rect x="50.957" y="36.766" transform="matrix(0.9011 -0.4337 0.4337 0.9011 -11.3426 27.6627)" fill="#010101" stroke="#010101" stroke-miterlimit="10" width="8.002" height="3.851"/>
		</g>
		<g>
			<path fill="#010101" stroke="#010101" stroke-miterlimit="10" d="M85.208,105.567c0,0-2.258,3.418-2.562,3.973
				c-1.798,3.245-7.818,14.672-5.764,18.503c3.058,5.698,24.91,6.993,24.91,6.993s11.789-17.814,9.221-23.605
				c-1.764-3.98-14.545-6.436-17.979-7.027c-0.537-0.094-4.322-0.538-4.322-0.538l-2.17,0.856c0,0,4.015,0.545,4.891,0.815
				c3.753,1.149,13.781,4.521,15.234,8.007c1.935,4.646-6.209,19.152-6.209,19.152s-17.102-2.104-19.385-6.692
				c-1.892-3.792,2.154-13.878,3.659-17.368c0.33-0.759,2.612-4.307,2.612-4.307L85.208,105.567z"/>
			<path fill="#010101" d="M80.967,101.44c-3.373,0.297-8.885,0.724-10.563,0.473c-1.776-0.264-3.05-0.809-4.028-1.466
				c-0.343-0.231-0.637-0.566-0.907-0.952c-0.744-0.084-1.402-0.344-1.956-0.741c-0.74,0.22-1.432,0.213-2.063,0.052
				c0.556,1.36,1.191,2.495,2.033,3.051c1.251,0.83,3.308,1.416,5.912,1.666c3.003,0.287,8.123-0.102,11.602-0.561
				c1.807-0.238,2.778,1.487,2.778,1.487l2.048-1.318C85.821,103.131,82.564,101.3,80.967,101.44z"/>
			<path fill="#010101" d="M95.98,83.688c-0.218,0.254-0.444,0.492-0.677,0.724c0.234,0.604,0.361,1.185,0.324,1.722
				c-0.084,1.178-0.443,2.518-1.332,4.076c-0.84,1.477-4.574,5.555-6.887,8.021c-1.096,1.168-1.304,4.986-1.304,4.986l2.299-0.799
				c0,0-1.118-1.953,0.183-3.227c2.508-2.455,5.973-6.244,7.597-8.786c1.409-2.204,2.22-4.188,2.341-5.681
				c0.073-0.927-0.344-2.017-0.979-3.181C97.107,82.254,96.6,82.966,95.98,83.688z"/>
			<path fill="#010101" stroke="#010101" stroke-miterlimit="10" d="M73.428,99.707c-0.664,0.06-1.305-0.036-1.896-0.26
				c-0.968,0.262-1.949,0.192-2.857-0.101c0.034,0.061,0.062,0.127,0.099,0.182c1.484,2.343,9.061,4.166,11.607,4.722
				c0.525,0.115,3.592,0.924,3.592,0.924l1.773-1.062c0,0-3.541-0.957-4.697-1.312C78.924,102.151,75.547,101.003,73.428,99.707z"/>
			<path fill="#010101" stroke="#010101" stroke-miterlimit="10" d="M90.984,90.588c-0.126,2.54-1.471,6.417-2.319,8.634
				c-0.395,1.037-2.271,4.577-2.271,4.577l2.169-0.856c0,0,1.718-3.107,1.925-3.53c1.105-2.242,4.518-9.524,3.564-12.188
				c-0.065-0.186-0.151-0.373-0.245-0.562C92.98,88.046,92.043,89.356,90.984,90.588z"/>
			<path fill="#010101" d="M75.299,99.123c3.283,3.794,9.363,4.819,9.363,4.819s-2.254-2.248-4.078-5.795
				C78.976,98.651,76.702,98.413,75.299,99.123z"/>
			<path fill="#010101" d="M87.206,94.212c-0.615,0.485-1.307,0.848-2.026,1.111c1.86,3.82,2.272,7.264,2.272,7.264
				s2.94-5.412,1.982-10.336C88.737,92.935,87.997,93.589,87.206,94.212z"/>
			<path fill="#010101" d="M109.292,96.608c0.734,0.854,0.69,2.135-0.1,2.855c-0.986,0.904-2.533,0.771-3.453-0.298
				c-1.148-1.335-1.08-3.334,0.154-4.466c1.542-1.413,3.957-1.206,5.395,0.465c1.795,2.088,1.219,4.773-0.707,6.54
				c-1.508,1.382-3.272,1.716-4.807,1.403c-0.917-0.186-1.639-0.377-2.479-1.354c-2.809-3.262-2.639-8.144,0.373-10.903
				c3.767-3.451,9.662-2.942,13.17,1.135c4.384,5.096,3.092,13.226-1.616,17.539c-5.884,5.393-20.466,1.932-25.94-4.441
				l-1.957,1.145c6.766,7.763,22.332,11.741,29.75,5.037c5.934-5.361,6.357-14.738,0.946-20.949
				c-4.328-4.967-11.688-5.518-16.437-1.229c-3.799,3.434-4.07,9.436-0.604,13.409c2.771,3.179,7.479,3.53,10.521,0.786
				c2.431-2.197,2.604-6.038,0.387-8.583c-1.771-2.034-4.786-2.259-6.73-0.5c-1.559,1.405-1.666,3.864-0.248,5.491
				c1.135,1.304,3.062,1.445,4.309,0.322c0.994-0.9,1.066-2.475,0.156-3.516"/>
			<path fill="#010101" d="M66.476,117.449c0.219,1.104,1.255,1.862,2.312,1.685c1.319-0.218,2.169-1.517,1.896-2.898
				c-0.343-1.729-1.959-2.909-3.61-2.635c-2.062,0.342-3.39,2.371-2.961,4.531c0.535,2.701,3.006,3.906,5.583,3.479
				c2.018-0.334,3.37-1.519,4.069-2.914c0.42-0.84,0.717-1.522,0.465-2.789c-0.836-4.221-4.781-7.102-8.812-6.432
				c-5.038,0.836-8.275,5.789-7.229,11.062c1.306,6.598,8.502,10.593,14.799,9.547c7.873-1.305,14.144-14.915,12.511-23.158
				l2.104-0.834c1.937,10.112-4.533,24.819-14.388,26.525c-7.88,1.363-15.524-4.09-17.071-12.178
				c-1.241-6.472,2.867-12.604,9.174-13.694c5.042-0.873,9.933,2.616,10.927,7.796c0.793,4.141-1.834,8.064-5.87,8.764
				c-3.228,0.56-6.36-1.675-6.996-4.988c-0.507-2.649,1.176-5.164,3.759-5.608c2.065-0.356,4.067,1.071,4.476,3.192
				c0.325,1.697-0.753,3.304-2.405,3.589c-1.323,0.23-2.605-0.687-2.863-2.042"/>
			
				<rect x="82.445" y="102.404" transform="matrix(0.8991 -0.4377 0.4377 0.8991 -36.9446 48.3636)" fill="#010101" stroke="#010101" stroke-miterlimit="10" width="8.001" height="3.847"/>
		</g>
	</g>
	<g>
		<g>
			<path fill="#010101" stroke="#010101" stroke-miterlimit="10" d="M42.879,47.102c0,0,0.57-4.055,0.61-4.686
				c0.228-3.704,0.757-16.61-2.747-19.187c-5.209-3.833-25.497,4.388-25.497,4.388s-2.99,21.151,1.815,25.279
				c3.305,2.834,15.9-0.439,19.253-1.379c0.525-0.145,4.135-1.371,4.135-1.371l1.593-1.705c0,0-3.859,1.231-4.769,1.364
				c-3.883,0.572-14.385,1.841-17.195-0.686c-3.744-3.366-2.621-19.964-2.621-19.964s16.344-5.447,20.382-2.284
				c3.335,2.612,4.017,13.458,4.152,17.256c0.03,0.826-0.505,5.01-0.505,5.01L42.879,47.102z"/>
			<path fill="#010101" d="M48.481,49.007c2.917-1.717,7.714-4.47,9.337-4.966c1.717-0.525,3.101-0.581,4.267-0.407
				c0.59,0.088,1.183,0.394,1.779,0.82c1.31-0.373,2.646-0.672,3.989-0.877c-1.301-1.271-2.573-2.293-3.759-2.46
				c-1.488-0.21-3.598,0.144-6.056,1.039c-2.835,1.027-7.294,3.58-10.237,5.488c-1.528,0.991-3.146-0.149-3.146-0.149l-1.282,2.069
				C43.374,49.564,47.101,49.818,48.481,49.007z"/>
			<path fill="#010101" d="M42.002,72.403c0.043-0.854,0.122-1.703,0.228-2.55c-0.171-0.234-0.312-0.476-0.41-0.726
				c-0.428-1.099-0.682-2.46-0.55-4.252c0.126-1.693,1.746-6.981,2.775-10.205c0.485-1.526-0.966-5.062-0.966-5.062l-1.732,1.707
				c0,0,1.848,1.285,1.222,2.994c-1.211,3.294-2.711,8.207-3.086,11.2c-0.327,2.593-0.206,4.731,0.328,6.134
				c0.332,0.872,1.183,1.678,2.261,2.458C42.008,73.554,41.973,72.992,42.002,72.403z"/>
			<path fill="#010101" stroke="#010101" stroke-miterlimit="10" d="M56.575,47.406c1.2-0.647,2.51-1.259,3.892-1.802
				c-0.051-0.035-0.101-0.079-0.152-0.111c-2.346-1.476-9.971,0.132-12.509,0.726c-0.524,0.121-3.641,0.708-3.641,0.708l-1.144,1.72
				c0,0,3.604-0.655,4.803-0.833C50.188,47.463,54.11,47.012,56.575,47.406z"/>
			<path fill="#010101" stroke="#010101" stroke-miterlimit="10" d="M43.738,62.821c0.035-0.121,0.083-0.233,0.119-0.353
				c-0.81-2.396-1.201-5.987-1.373-8.15c-0.088-1.107,0.089-5.11,0.089-5.11l-1.591,1.704c0,0-0.217,3.545-0.224,4.018
				c-0.035,2.44,0.017,10.15,1.883,12.369C42.933,65.79,43.301,64.295,43.738,62.821z"/>
			<path fill="#010101" d="M53.713,49.159c0.254-0.178,0.52-0.355,0.793-0.531c-4.581-1.957-10.435-0.292-10.435-0.292
				s3.08,1.087,6.296,3.577C51.392,50.925,52.509,50.006,53.713,49.159z"/>
			<path fill="#010101" d="M46.935,56.034c-3.084-2.565-4.796-5.276-4.796-5.276s-0.312,5.785,2.387,9.812
				C45.173,58.954,45.987,57.447,46.935,56.034z"/>
			<path fill="#010101" d="M24.984,65.538c-1.031-0.454-1.543-1.63-1.141-2.622c0.503-1.24,1.957-1.784,3.246-1.215
				c1.61,0.714,2.41,2.548,1.78,4.101c-0.784,1.938-3.056,2.788-5.07,1.896c-2.517-1.113-3.152-3.786-2.171-6.209
				c0.768-1.894,2.221-2.956,3.736-3.333c0.91-0.226,1.643-0.363,2.822,0.159c3.935,1.739,5.881,6.218,4.349,10.005
				c-1.92,4.734-7.462,6.81-12.381,4.632c-6.148-2.716-8.474-10.613-6.075-16.53c2.996-7.394,17.65-10.534,25.335-7.137l1.274-1.873
				c-9.444-4.101-25.21-1.009-29.029,8.231c-3.056,7.393,0.59,16.043,8.146,19.325c6.044,2.626,12.923-0.039,15.367-5.953
				c1.958-4.731-0.378-10.268-5.212-12.367c-3.869-1.681-8.271,0.024-9.834,3.809c-1.254,3.028,0.24,6.572,3.335,7.916
				c2.476,1.075,5.293-0.016,6.294-2.438c0.802-1.94-0.154-4.208-2.135-5.068c-1.585-0.688-3.39,0.011-4.029,1.561
				c-0.513,1.24,0.099,2.69,1.366,3.241"/>
			<path fill="#010101" d="M54.69,28.325c-0.673-0.904-1.932-1.143-2.811-0.529c-1.099,0.765-1.306,2.303-0.466,3.434
				c1.053,1.412,3.021,1.785,4.393,0.828c1.716-1.194,2.041-3.597,0.728-5.365c-1.644-2.209-4.392-2.234-6.537-0.74
				c-1.676,1.166-2.39,2.818-2.422,4.38c-0.02,0.938,0.008,1.685,0.778,2.72c2.568,3.452,7.369,4.355,10.722,2.021
				c4.188-2.918,4.986-8.783,1.774-13.098c-4.013-5.393-12.229-5.911-17.467-2.263C36.835,24.274,37.021,39.259,42.036,46
				l-1.543,1.657c-6.091-8.3-6.569-24.358,1.597-30.131c6.531-4.618,15.775-2.979,20.648,3.661
				c3.899,5.312,2.824,12.613-2.401,16.306c-4.179,2.955-10.097,1.907-13.216-2.342c-2.496-3.399-1.808-8.071,1.537-10.437
				c2.674-1.891,6.462-1.218,8.458,1.501c1.597,2.175,1.157,5.165-0.982,6.678c-1.714,1.211-4.137,0.779-5.414-0.96
				c-1.022-1.392-0.742-3.307,0.628-4.275c1.096-0.774,2.646-0.5,3.465,0.614"/>
			
				<rect x="38.301" y="46.83" transform="matrix(0.6239 -0.7815 0.7815 0.6239 -22.1934 51.3952)" fill="#010101" stroke="#010101" stroke-miterlimit="10" width="8" height="3.851"/>
		</g>
		<g>
			<path fill="#010101" stroke="#010101" stroke-miterlimit="10" d="M98.558,95.899c0,0-0.554,4.061-0.589,4.691
				c-0.213,3.704-0.684,16.611,2.832,19.172c5.226,3.81,25.479-4.5,25.479-4.5s2.896-21.166-1.93-25.271
				c-3.314-2.822-15.896,0.51-19.248,1.465c-0.523,0.147-4.127,1.39-4.127,1.39l-1.584,1.713c0,0,3.854-1.25,4.76-1.386
				c3.881-0.592,14.379-1.903,17.201,0.607c3.757,3.348,2.711,19.95,2.711,19.95s-16.322,5.521-20.371,2.375
				c-3.348-2.596-4.076-13.438-4.232-17.235c-0.033-0.827,0.486-5.015,0.486-5.015L98.558,95.899z"/>
			<path fill="#010101" d="M92.948,94.021c-2.91,1.729-7.691,4.504-9.314,5.006c-1.715,0.533-3.098,0.596-4.266,0.428
				c-0.408-0.061-0.818-0.234-1.229-0.465c-0.708,0.246-1.413,0.298-2.085,0.18c-0.571,0.52-1.197,0.812-1.837,0.941
				c1.091,0.984,2.156,1.731,3.154,1.867c1.487,0.205,3.596-0.158,6.051-1.062c2.83-1.043,7.275-3.613,10.211-5.536
				c1.523-0.997,3.148,0.136,3.148,0.136l1.271-2.076C98.053,93.438,94.325,93.201,92.948,94.021z"/>
			<path fill="#010101" d="M98.776,71.514c-0.086,0.324-0.188,0.637-0.296,0.945c0.476,0.442,0.84,0.909,1.039,1.411
				c0.435,1.098,0.69,2.459,0.567,4.25c-0.116,1.693-1.715,6.988-2.728,10.215c-0.479,1.527,0.988,5.059,0.988,5.059l1.726-1.717
				c0,0-1.855-1.275-1.236-2.986c1.197-3.299,2.674-8.217,3.035-11.211c0.314-2.597,0.186-4.734-0.354-6.133
				c-0.335-0.866-1.184-1.667-2.262-2.44C99.168,69.733,99.022,70.595,98.776,71.514z"/>
			<path fill="#010101" stroke="#010101" stroke-miterlimit="10" d="M85.402,95.729c-0.571,0.34-1.19,0.531-1.821,0.588
				c-0.758,0.654-1.672,1.02-2.617,1.147c0.057,0.04,0.111,0.087,0.168,0.122c2.353,1.466,9.97-0.175,12.506-0.779
				c0.523-0.125,3.638-0.727,3.638-0.727l1.138-1.727c0,0-3.604,0.674-4.803,0.854C91.415,95.548,87.874,95.978,85.402,95.729z"/>
			<path fill="#010101" stroke="#010101" stroke-miterlimit="10" d="M97.266,79.897c0.988,2.344,1.458,6.42,1.654,8.785
				c0.095,1.105-0.062,5.109-0.062,5.109l1.583-1.712c0,0,0.199-3.546,0.203-4.017c0.024-2.502-0.062-10.543-2.071-12.528
				c-0.142-0.14-0.3-0.271-0.467-0.397C97.961,76.741,97.687,78.329,97.266,79.897z"/>
			<path fill="#010101" d="M86.834,94.392c4.604,1.994,10.526,0.281,10.526,0.281s-3.005-1.048-6.188-3.453
				C89.943,92.371,87.79,93.144,86.834,94.392z"/>
			<path fill="#010101" d="M95.433,84.802c-0.345,0.705-0.81,1.33-1.345,1.881c3.334,2.637,5.197,5.561,5.197,5.561
				s0.303-6.152-2.695-10.174C96.258,82.987,95.875,83.897,95.433,84.802z"/>
			<path fill="#010101" d="M116.374,77.384c1.033,0.45,1.549,1.624,1.149,2.617c-0.498,1.242-1.946,1.794-3.241,1.229
				c-1.613-0.705-2.418-2.535-1.797-4.09c0.775-1.942,3.042-2.804,5.062-1.921c2.522,1.104,3.168,3.772,2.197,6.2
				c-0.758,1.898-2.203,2.965-3.721,3.35c-0.906,0.229-1.641,0.369-2.822-0.146c-3.943-1.723-5.908-6.194-4.392-9.986
				c1.896-4.744,7.431-6.843,12.358-4.69c6.158,2.69,8.521,10.577,6.148,16.505c-2.962,7.409-17.604,10.614-25.301,7.248
				l-1.268,1.879c9.463,4.062,25.215,0.896,28.992-8.361c3.02-7.403-0.664-16.039-8.232-19.288
				c-6.055-2.6-12.926,0.097-15.342,6.021c-1.936,4.739,0.424,10.268,5.27,12.346c3.876,1.662,8.271-0.062,9.82-3.854
				c1.236-3.033-0.271-6.569-3.375-7.901c-2.479-1.063-5.291,0.041-6.281,2.469c-0.794,1.943,0.174,4.205,2.158,5.058
				c1.588,0.682,3.387-0.026,4.021-1.58c0.506-1.242-0.111-2.69-1.383-3.234"/>
			<path fill="#010101" d="M86.833,114.729c0.676,0.9,1.938,1.135,2.812,0.516c1.096-0.768,1.298-2.309,0.449-3.434
				c-1.059-1.41-3.025-1.772-4.395-0.81c-1.709,1.202-2.025,3.606-0.703,5.367c1.653,2.202,4.402,2.217,6.539,0.713
				c1.672-1.175,2.379-2.829,2.402-4.392c0.016-0.938-0.014-1.683-0.79-2.715c-2.584-3.439-7.388-4.324-10.729-1.974
				c-4.178,2.938-4.945,8.806-1.717,13.104c4.039,5.379,12.256,5.857,17.475,2.186c6.529-4.591,6.277-19.573,1.232-26.294
				l1.533-1.664c6.129,8.272,6.68,24.33-1.462,30.142c-6.509,4.646-15.763,3.047-20.663-3.569
				c-3.925-5.292-2.882-12.601,2.328-16.317c4.164-2.974,10.084-1.949,13.227,2.286c2.51,3.388,1.844,8.062-1.488,10.442
				c-2.666,1.901-6.459,1.248-8.469-1.463c-1.604-2.166-1.18-5.162,0.955-6.684c1.707-1.218,4.131-0.798,5.418,0.938
				c1.028,1.387,0.754,3.303-0.611,4.274c-1.092,0.783-2.645,0.513-3.467-0.598"/>
			
				<rect x="95.13" y="92.316" transform="matrix(0.6205 -0.7842 0.7842 0.6205 -36.2819 113.5099)" fill="#010101" stroke="#010101" stroke-miterlimit="10" width="8.002" height="3.847"/>
		</g>
	</g>
	<g>
		<g>
			<path fill="#010101" stroke="#010101" stroke-miterlimit="10" d="M35.042,61.576c0,0-1.244-3.901-1.482-4.486
				c-1.4-3.437-6.521-15.296-10.795-16.098C16.408,39.797,1.692,56.003,1.692,56.003S8.17,76.358,14.291,77.994
				c4.206,1.12,14.137-7.292,16.75-9.593c0.411-0.358,3.131-3.028,3.131-3.028l0.696-2.227c0,0-2.943,2.783-3.705,3.297
				c-3.251,2.199-12.164,7.896-15.792,6.839C10.537,71.873,4.352,56.43,4.352,56.43s12.363-11.996,17.374-10.896
				c4.138,0.908,9.456,10.385,11.225,13.748c0.386,0.731,1.718,4.733,1.718,4.733L35.042,61.576z"/>
			<path fill="#010101" d="M40.916,60.864c1.884-2.812,5.013-7.373,6.26-8.523c1.319-1.218,2.542-1.869,3.668-2.217
				c0.57-0.176,1.237-0.158,1.959-0.033c1.02-0.904,2.094-1.754,3.215-2.52c-1.724-0.582-3.313-0.951-4.454-0.587
				c-1.432,0.456-3.18,1.69-5.006,3.562c-2.109,2.155-5.02,6.39-6.845,9.385c-0.947,1.557-2.899,1.23-2.899,1.23l-0.258,2.421
				C36.555,63.582,40.024,62.193,40.916,60.864z"/>
			<path fill="#010101" d="M45.224,84.755c-0.331-0.787-0.629-1.587-0.9-2.396c-0.257-0.137-0.488-0.293-0.685-0.477
				c-0.863-0.805-1.682-1.921-2.34-3.593c-0.62-1.58-1.454-7.048-1.924-10.399c-0.226-1.586-3.066-4.143-3.066-4.143l-0.82,2.29
				c0,0,2.222,0.356,2.398,2.168c0.338,3.493,1.117,8.569,2.077,11.431c0.829,2.479,1.866,4.354,2.956,5.385
				c0.676,0.642,1.793,1,3.104,1.235C45.728,85.789,45.454,85.299,45.224,84.755z"/>
			<path fill="#010101" stroke="#010101" stroke-miterlimit="10" d="M47.514,55.912c0.801-1.104,1.716-2.223,2.726-3.312
				c-0.062-0.009-0.125-0.027-0.186-0.034c-2.754-0.312-8.927,4.443-10.957,6.078c-0.42,0.337-2.974,2.217-2.974,2.217l-0.284,2.045
				c0,0,2.964-2.154,3.966-2.833C41.784,58.732,45.123,56.625,47.514,55.912z"/>
			<path fill="#010101" stroke="#010101" stroke-miterlimit="10" d="M42.632,75.369c-0.021-0.125-0.026-0.246-0.046-0.37
				c-1.769-1.809-3.679-4.874-4.771-6.748c-0.559-0.959-2.136-4.643-2.136-4.643l-0.694,2.225c0,0,1.342,3.289,1.541,3.717
				c1.026,2.214,4.416,9.141,7.061,10.329C43.195,78.394,42.878,76.886,42.632,75.369z"/>
			<path fill="#010101" d="M45.696,58.732c0.152-0.271,0.314-0.546,0.484-0.823c-4.977,0.224-9.529,4.262-9.529,4.262
				s3.247-0.356,7.225,0.494C44.37,61.33,44.979,60.018,45.696,58.732z"/>
			<path fill="#010101" d="M42.57,67.866c-3.892-0.974-6.609-2.674-6.609-2.674s2.228,5.348,6.405,7.806
				C42.249,71.262,42.329,69.551,42.57,67.866z"/>
			<path fill="#010101" d="M26.912,85.949c-1.126,0.038-2.097-0.8-2.165-1.867c-0.084-1.336,0.99-2.456,2.398-2.503
				c1.761-0.055,3.276,1.251,3.383,2.923c0.133,2.086-1.545,3.837-3.746,3.908c-2.751,0.088-4.483-2.045-4.649-4.653
				c-0.13-2.04,0.719-3.627,1.921-4.624c0.723-0.598,1.323-1.04,2.612-1.081c4.3-0.14,7.995,3.053,8.257,7.131
				c0.323,5.098-3.771,9.371-9.146,9.541c-6.718,0.221-12.238-5.888-12.643-12.26c-0.507-7.962,11.336-17.146,19.733-17.417
				l0.336-2.24c-10.288,0.4-23.153,10.024-22.588,20.006c0.453,7.986,7.489,14.199,15.721,13.881
				c6.584-0.256,11.627-5.641,11.265-12.028c-0.287-5.112-4.793-9.088-10.06-8.884c-4.215,0.162-7.442,3.607-7.209,7.697
				c0.184,3.271,3.066,5.816,6.438,5.686c2.697-0.104,4.763-2.311,4.614-4.926c-0.119-2.096-1.964-3.725-4.121-3.641
				c-1.727,0.066-3.05,1.479-2.954,3.152c0.076,1.34,1.256,2.381,2.637,2.328"/>
			<path fill="#010101" d="M37.542,39.535c-0.998-0.522-2.236-0.191-2.762,0.743c-0.658,1.166-0.178,2.641,1.069,3.296
				c1.562,0.816,3.496,0.299,4.317-1.159c1.028-1.82,0.279-4.126-1.671-5.15c-2.439-1.277-4.927-0.109-6.212,2.168
				C31.279,41.21,31.351,43.009,32,44.43c0.39,0.854,0.738,1.515,1.881,2.113c3.812,1.997,8.529,0.729,10.538-2.828
				c2.509-4.446,0.685-10.076-4.081-12.572c-5.955-3.119-13.582-0.023-16.721,5.536c-3.921,6.948,2.744,20.37,10.187,24.271
				l-0.672,2.162c-9.088-4.838-16.483-19.1-11.628-27.843c3.883-6.993,12.923-9.525,20.193-5.655
				c5.817,3.095,8.015,10.14,4.907,15.734c-2.483,4.475-8.271,6.097-12.924,3.621c-3.724-1.981-5.129-6.489-3.142-10.071
				c1.59-2.863,5.295-3.9,8.273-2.315c2.381,1.267,3.282,4.152,2.01,6.443c-1.019,1.834-3.39,2.495-5.295,1.482
				c-1.525-0.811-2.103-2.658-1.287-4.125c0.651-1.173,2.167-1.597,3.388-0.949"/>
			
				<rect x="31.241" y="61.397" transform="matrix(0.2231 -0.9748 0.9748 0.2231 -34.3479 83.5486)" fill="#010101" stroke="#010101" stroke-miterlimit="10" width="8" height="3.852"/>
		</g>
		<g>
			<path fill="#010101" stroke="#010101" stroke-miterlimit="10" d="M106.375,81.401c0,0,1.262,3.898,1.504,4.482
				c1.414,3.43,6.588,15.266,10.865,16.049c6.36,1.164,21.008-15.105,21.008-15.105s-6.569-20.327-12.697-21.933
				c-4.211-1.105-14.104,7.353-16.708,9.667c-0.408,0.359-3.117,3.041-3.117,3.041l-0.685,2.229c0,0,2.931-2.797,3.688-3.312
				c3.24-2.217,12.131-7.953,15.764-6.913c4.838,1.387,11.094,16.801,11.094,16.801s-12.312,12.054-17.324,10.975
				c-4.143-0.887-9.501-10.342-11.29-13.695c-0.388-0.729-1.733-4.729-1.733-4.729L106.375,81.401z"/>
			<path fill="#010101" d="M100.504,82.144c-1.873,2.819-4.979,7.394-6.223,8.549c-1.314,1.224-2.535,1.88-3.658,2.234
				c-0.396,0.122-0.84,0.146-1.311,0.113c-0.529,0.529-1.145,0.882-1.801,1.066c-0.29,0.716-0.727,1.252-1.247,1.646
				c1.409,0.415,2.694,0.626,3.653,0.313c1.429-0.461,3.17-1.701,4.99-3.58c2.098-2.168,4.988-6.411,6.799-9.418
				c0.94-1.559,2.896-1.242,2.896-1.242l0.246-2.422C104.852,79.403,101.389,80.806,100.504,82.144z"/>
			<path fill="#010101" d="M95.997,59.333c0.062,0.33,0.106,0.656,0.144,0.98c0.618,0.193,1.149,0.455,1.548,0.821
				c0.867,0.801,1.689,1.916,2.354,3.583c0.629,1.576,1.485,7.041,1.974,10.388c0.229,1.584,3.084,4.129,3.084,4.129l0.81-2.295
				c0,0-2.224-0.345-2.408-2.154c-0.353-3.492-1.152-8.563-2.127-11.418c-0.842-2.477-1.887-4.347-2.979-5.373
				c-0.678-0.635-1.789-0.989-3.096-1.219C95.579,57.559,95.819,58.398,95.997,59.333z"/>
			<path fill="#010101" stroke="#010101" stroke-miterlimit="10" d="M94.445,86.952c-0.366,0.556-0.842,0.996-1.386,1.32
				c-0.398,0.918-1.064,1.644-1.861,2.17c0.068,0.012,0.139,0.029,0.205,0.037c2.756,0.301,8.907-4.48,10.93-6.125
				c0.42-0.34,2.963-2.232,2.963-2.232l0.277-2.049c0,0-2.957,2.17-3.957,2.854C99.786,84.183,96.78,86.104,94.445,86.952z"/>
			<path fill="#010101" stroke="#010101" stroke-miterlimit="10" d="M98.271,67.542c1.905,1.683,4.099,5.152,5.3,7.2
				c0.564,0.955,2.16,4.631,2.16,4.631l0.684-2.229c0,0-1.356-3.281-1.559-3.707c-1.062-2.265-4.627-9.474-7.301-10.391
				c-0.186-0.064-0.385-0.114-0.592-0.157C97.53,64.396,97.969,65.947,98.271,67.542z"/>
			<path fill="#010101" d="M95.157,85.126c5.014-0.199,9.607-4.311,9.607-4.311s-3.162,0.357-7.073-0.43
				C97.081,81.958,95.476,83.588,95.157,85.126z"/>
			<path fill="#010101" d="M98.747,72.757c-0.004,0.784-0.152,1.549-0.396,2.277c4.146,0.93,7.095,2.756,7.095,2.756
				s-2.396-5.675-6.841-7.999C98.704,70.763,98.752,71.75,98.747,72.757z"/>
			<path fill="#010101" d="M114.397,56.992c1.126-0.042,2.1,0.792,2.172,1.86c0.09,1.335-0.977,2.461-2.389,2.512
				c-1.76,0.063-3.279-1.235-3.393-2.907c-0.144-2.087,1.524-3.845,3.729-3.925c2.752-0.101,4.49,2.025,4.67,4.633
				c0.141,2.039-0.701,3.627-1.9,4.631c-0.719,0.601-1.316,1.044-2.606,1.092c-4.302,0.159-8.011-3.019-8.287-7.094
				c-0.349-5.097,3.728-9.387,9.103-9.586c6.717-0.246,12.266,5.836,12.697,12.206c0.545,7.961-11.258,17.198-19.654,17.503
				l-0.326,2.242c10.287-0.444,23.108-10.126,22.498-20.106c-0.488-7.982-7.553-14.165-15.783-13.81
				c-6.582,0.282-11.604,5.692-11.213,12.077c0.312,5.11,4.834,9.068,10.103,8.84c4.213-0.183,7.427-3.644,7.177-7.731
				c-0.201-3.27-3.094-5.803-6.467-5.657c-2.693,0.116-4.75,2.332-4.59,4.949c0.127,2.095,1.98,3.714,4.139,3.62
				c1.725-0.074,3.039-1.492,2.938-3.167c-0.083-1.339-1.269-2.376-2.647-2.315"/>
			<path fill="#010101" d="M103.973,103.454c1.001,0.52,2.238,0.182,2.76-0.756c0.652-1.166,0.168-2.643-1.084-3.289
				c-1.564-0.812-3.495-0.284-4.311,1.177c-1.021,1.825-0.262,4.13,1.693,5.142c2.444,1.269,4.928,0.09,6.2-2.191
				c0.998-1.784,0.917-3.581,0.263-4.999c-0.395-0.853-0.742-1.511-1.89-2.104c-3.821-1.979-8.532-0.692-10.524,2.875
				c-2.49,4.459-0.639,10.08,4.135,12.551c5.973,3.098,13.584-0.034,16.695-5.606c3.893-6.969-2.832-20.36-10.293-24.228
				l0.659-2.166c9.111,4.799,16.569,19.027,11.755,27.793c-3.851,7.011-12.882,9.582-20.168,5.744
				c-5.83-3.064-8.061-10.104-4.979-15.713c2.463-4.483,8.24-6.129,12.908-3.675c3.73,1.964,5.158,6.466,3.188,10.056
				c-1.578,2.869-5.278,3.925-8.265,2.354c-2.387-1.256-3.303-4.139-2.037-6.436c1.009-1.838,3.376-2.513,5.287-1.506
				c1.527,0.803,2.111,2.647,1.303,4.116c-0.645,1.181-2.16,1.609-3.382,0.966"/>
			
				<rect x="102.163" y="77.736" transform="matrix(0.2189 -0.9757 0.9757 0.2189 5.1931 165.8059)" fill="#010101" stroke="#010101" stroke-miterlimit="10" width="8.002" height="3.847"/>
		</g>
	</g>
	<g>
		<g>
			<path fill="#010101" stroke="#010101" stroke-miterlimit="10" d="M34.272,78.03c0,0-2.812-2.978-3.281-3.4
				c-2.752-2.488-12.509-10.955-16.708-9.824C8.037,66.485,1.805,87.47,1.805,87.47s14.665,15.533,20.89,14.354
				c4.275-0.814,9.576-12.7,10.933-15.907c0.215-0.501,1.508-4.087,1.508-4.087l-0.338-2.309c0,0-1.445,3.785-1.909,4.578
				c-1.976,3.392-7.536,12.39-11.264,13.01C16.657,97.935,4.387,86.701,4.387,86.701s5.938-16.17,10.931-17.354
				c4.121-0.976,13.023,5.257,16.076,7.521c0.664,0.492,3.601,3.521,3.601,3.521L34.272,78.03z"/>
			<path fill="#010101" d="M39.257,74.841c0.478-3.351,1.319-8.817,1.944-10.395c0.66-1.67,1.479-2.787,2.344-3.589
				c0.437-0.406,1.046-0.679,1.751-0.879c0.525-1.257,1.126-2.488,1.803-3.665c-1.805,0.223-3.396,0.58-4.268,1.402
				c-1.092,1.032-2.132,2.902-2.966,5.381c-0.966,2.857-1.752,7.935-2.098,11.424c-0.179,1.813-2.079,2.365-2.079,2.365l0.817,2.295
				C36.506,79.181,39.03,76.425,39.257,74.841z"/>
			<path fill="#010101" d="M53.499,94.5c-0.64-0.565-1.255-1.157-1.85-1.769c-0.291-0.013-0.568-0.054-0.824-0.133
				c-1.127-0.352-2.348-1.002-3.666-2.224c-1.244-1.153-4.366-5.72-6.243-8.535c-0.891-1.332-4.56-2.403-4.56-2.403l0.254,2.42
				c0,0,2.156-0.644,3.102,0.912c1.819,3.002,4.723,7.238,6.828,9.399c1.822,1.874,3.569,3.112,4.999,3.569
				c0.887,0.283,2.049,0.123,3.332-0.231C54.401,95.214,53.942,94.892,53.499,94.5z"/>
			<path fill="#010101" stroke="#010101" stroke-miterlimit="10" d="M43.055,67.518c0.243-1.342,0.582-2.747,1.021-4.167
				c-0.061,0.019-0.125,0.03-0.183,0.05c-2.617,0.913-6.116,7.875-7.237,10.229c-0.232,0.485-1.718,3.287-1.718,3.287l0.631,1.965
				c0,0,1.736-3.225,2.345-4.271C39.114,72.544,41.209,69.196,43.055,67.518z"/>
			<path fill="#010101" stroke="#010101" stroke-miterlimit="10" d="M47.094,87.167c-0.073-0.104-0.131-0.211-0.202-0.314
				c-2.377-0.86-5.428-2.797-7.226-4.011c-0.919-0.623-3.938-3.258-3.938-3.258l0.339,2.306c0,0,2.636,2.383,3.001,2.683
				c1.885,1.551,7.942,6.321,10.841,6.245C48.911,89.646,47.974,88.426,47.094,87.167z"/>
			<path fill="#010101" d="M42.64,70.847c0.02-0.31,0.047-0.628,0.079-0.952c-4.387,2.36-6.738,7.973-6.738,7.973
				s2.771-1.729,6.724-2.688C42.571,73.763,42.551,72.315,42.64,70.847z"/>
			<path fill="#010101" d="M43.784,80.433c-3.93,0.812-7.115,0.457-7.115,0.457s4.326,3.854,9.156,4.256
				C44.967,83.632,44.297,82.056,43.784,80.433z"/>
			<path fill="#010101" d="M37.517,103.517c-0.998,0.523-2.236,0.19-2.761-0.742c-0.655-1.168-0.173-2.644,1.075-3.295
				c1.563-0.813,3.495-0.295,4.316,1.166c1.023,1.821,0.271,4.127-1.682,5.146c-2.439,1.272-4.926,0.103-6.207-2.177
				c-1.001-1.781-0.925-3.58-0.274-5c0.393-0.852,0.741-1.512,1.886-2.106c3.813-1.991,8.527-0.716,10.531,2.845
				c2.502,4.453,0.667,10.08-4.104,12.564c-5.957,3.111-13.58,0.001-16.709-5.564c-3.908-6.955,2.78-20.367,10.229-24.252
				l-0.669-2.164c-9.097,4.821-16.516,19.072-11.677,27.822c3.872,7,12.906,9.547,20.185,5.689
				c5.822-3.086,8.031-10.124,4.935-15.725c-2.476-4.48-8.26-6.109-12.917-3.643c-3.728,1.977-5.142,6.479-3.158,10.062
				c1.584,2.867,5.286,3.912,8.267,2.33c2.385-1.264,3.29-4.146,2.021-6.438c-1.017-1.837-3.385-2.504-5.292-1.493
				c-1.526,0.811-2.106,2.656-1.295,4.123c0.649,1.174,2.164,1.602,3.386,0.954"/>
			<path fill="#010101" d="M26.967,57.085c-1.126-0.038-2.098,0.797-2.166,1.867c-0.088,1.336,0.985,2.457,2.393,2.506
				c1.761,0.059,3.28-1.246,3.388-2.916c0.137-2.086-1.537-3.839-3.738-3.916c-2.753-0.093-4.487,2.038-4.657,4.647
				c-0.134,2.037,0.71,3.626,1.911,4.626c0.722,0.601,1.322,1.044,2.611,1.088c4.302,0.146,8.002-3.041,8.27-7.118
				c0.332-5.094-3.753-9.376-9.129-9.559c-6.72-0.227-12.25,5.87-12.668,12.24c-0.52,7.961,11.307,17.165,19.704,17.452l0.332,2.24
				c-10.286-0.419-23.136-10.063-22.552-20.046c0.466-7.986,7.514-14.188,15.743-13.854c6.584,0.266,11.619,5.661,11.245,12.05
				c-0.297,5.109-4.808,9.08-10.075,8.867c-4.214-0.17-7.435-3.623-7.197-7.712c0.19-3.27,3.079-5.81,6.45-5.674
				c2.695,0.109,4.759,2.318,4.605,4.935c-0.122,2.095-1.973,3.719-4.128,3.632c-1.727-0.069-3.048-1.484-2.949-3.159
				c0.078-1.34,1.26-2.379,2.642-2.324"/>
			
				<rect x="31.21" y="77.589" transform="matrix(-0.2217 -0.9751 0.9751 -0.2217 -34.5223 131.4764)" fill="#010101" stroke="#010101" stroke-miterlimit="10" width="8" height="3.853"/>
		</g>
		<g>
			<path fill="#010101" stroke="#010101" stroke-miterlimit="10" d="M107.147,64.96c0,0,2.828,2.966,3.299,3.387
				c2.762,2.477,12.557,10.898,16.75,9.748c6.236-1.707,12.379-22.721,12.379-22.721s-14.734-15.467-20.953-14.257
				c-4.272,0.831-9.52,12.741-10.863,15.957c-0.211,0.501-1.489,4.092-1.489,4.092l0.353,2.307c0,0,1.428-3.791,1.887-4.584
				c1.959-3.403,7.482-12.426,11.207-13.064c4.959-0.848,17.281,10.328,17.281,10.328s-5.867,16.202-10.853,17.403
				c-4.117,0.997-13.047-5.199-16.11-7.445c-0.666-0.49-3.615-3.509-3.615-3.509L107.147,64.96z"/>
			<path fill="#010101" d="M102.178,68.173c-0.465,3.354-1.279,8.821-1.898,10.402c-0.654,1.672-1.469,2.793-2.328,3.601
				c-0.303,0.28-0.693,0.494-1.131,0.671c-0.248,0.706-0.648,1.289-1.16,1.74c0.049,0.771-0.111,1.444-0.41,2.023
				c1.449-0.237,2.699-0.604,3.429-1.301c1.088-1.035,2.118-2.91,2.942-5.392c0.951-2.862,1.717-7.94,2.043-11.435
				c0.172-1.812,2.072-2.376,2.072-2.376l-0.828-2.289C104.909,63.819,102.395,66.584,102.178,68.173z"/>
			<path fill="#010101" d="M88.223,49.575c0.199,0.271,0.383,0.545,0.555,0.821c0.643-0.094,1.234-0.089,1.752,0.068
				c1.129,0.345,2.352,0.994,3.674,2.208c1.252,1.147,4.394,5.7,6.283,8.503c0.895,1.329,4.57,2.384,4.57,2.384l-0.266-2.419
				c0,0-2.154,0.654-3.105-0.897c-1.832-2.994-4.754-7.216-6.867-9.366c-1.834-1.866-3.586-3.099-5.016-3.549
				c-0.885-0.279-2.041-0.116-3.318,0.244C87.079,48.157,87.659,48.81,88.223,49.575z"/>
			<path fill="#010101" stroke="#010101" stroke-miterlimit="10" d="M98.803,75.135c-0.09,0.659-0.326,1.263-0.676,1.79
				c0.039,1.002-0.246,1.943-0.736,2.764c0.066-0.02,0.139-0.032,0.201-0.057c2.613-0.924,6.084-7.899,7.191-10.259
				c0.229-0.487,1.702-3.296,1.702-3.296l-0.639-1.967c0,0-1.726,3.238-2.328,4.287C102.415,70.323,100.54,73.358,98.803,75.135z"/>
			<path fill="#010101" stroke="#010101" stroke-miterlimit="10" d="M93.834,55.985c2.447,0.69,5.926,2.866,7.896,4.189
				c0.927,0.615,3.955,3.236,3.955,3.236l-0.351-2.304c0,0-2.646-2.369-3.012-2.666c-1.939-1.579-8.277-6.529-11.086-6.196
				c-0.193,0.022-0.395,0.064-0.6,0.115C91.801,53.473,92.87,54.679,93.834,55.985z"/>
			<path fill="#010101" d="M98.653,73.181c4.432-2.354,6.789-8.051,6.789-8.051s-2.695,1.694-6.561,2.681
				C99.012,69.492,98.274,71.656,98.653,73.181z"/>
			<path fill="#010101" d="M96.524,60.479c0.336,0.708,0.533,1.462,0.631,2.224c4.139-0.961,7.588-0.594,7.588-0.594
				s-4.619-4.074-9.633-4.241C95.62,58.7,96.092,59.568,96.524,60.479z"/>
			<path fill="#010101" d="M103.79,39.485c0.996-0.526,2.234-0.197,2.765,0.734c0.659,1.164,0.188,2.641-1.062,3.299
				c-1.56,0.82-3.492,0.309-4.318-1.148c-1.033-1.818-0.293-4.126,1.658-5.153c2.436-1.284,4.926-0.123,6.217,2.149
				c1.01,1.777,0.941,3.573,0.295,4.998c-0.387,0.853-0.732,1.512-1.875,2.115c-3.807,2.008-8.525,0.752-10.543-2.799
				c-2.525-4.442-0.713-10.075,4.043-12.584c5.947-3.135,13.584-0.061,16.736,5.491c3.942,6.938-2.687,20.379-10.119,24.295
				l0.678,2.162c9.076-4.861,16.432-19.146,11.553-27.874c-3.902-6.98-12.949-9.488-20.211-5.599
				c-5.809,3.109-7.988,10.162-4.867,15.745c2.498,4.469,8.289,6.075,12.938,3.585c3.718-1.992,5.111-6.504,3.113-10.079
				c-1.598-2.859-5.303-3.888-8.279-2.293c-2.377,1.273-3.27,4.162-1.989,6.45c1.022,1.833,3.396,2.488,5.299,1.467
				c1.521-0.814,2.093-2.662,1.272-4.127c-0.653-1.171-2.172-1.591-3.391-0.938"/>
			<path fill="#010101" d="M114.545,85.872c1.127,0.033,2.098-0.809,2.16-1.878c0.082-1.334-0.996-2.454-2.404-2.493
				c-1.762-0.053-3.271,1.26-3.373,2.93c-0.127,2.086,1.555,3.834,3.756,3.898c2.752,0.081,4.479-2.059,4.637-4.665
				c0.125-2.04-0.727-3.624-1.932-4.618c-0.725-0.596-1.324-1.038-2.615-1.076c-4.301-0.127-7.988,3.076-8.236,7.155
				c-0.311,5.097,3.795,9.358,9.168,9.517c6.726,0.199,12.226-5.924,12.611-12.293c0.486-7.968-11.381-17.119-19.781-17.367
				l-0.344-2.238c10.291,0.372,23.182,9.959,22.645,19.946c-0.43,7.985-7.451,14.221-15.682,13.923
				c-6.584-0.234-11.645-5.609-11.301-12c0.275-5.108,4.77-9.097,10.039-8.909c4.213,0.15,7.451,3.588,7.232,7.678
				c-0.178,3.271-3.056,5.825-6.426,5.706c-2.695-0.098-4.771-2.299-4.627-4.916c0.112-2.094,1.952-3.728,4.112-3.649
				c1.726,0.061,3.051,1.471,2.957,3.146c-0.067,1.342-1.248,2.388-2.629,2.336"/>
			
				<rect x="102.203" y="61.553" transform="matrix(-0.2257 -0.9742 0.9742 -0.2257 68.3345 181.2668)" fill="#010101" stroke="#010101" stroke-miterlimit="10" width="8" height="3.848"/>
		</g>
	</g>
	<g>
		<g>
			<path fill="#010101" stroke="#010101" stroke-miterlimit="10" d="M40.709,93.177c0,0-3.825-1.463-4.431-1.642
				c-3.56-1.05-16.022-4.446-19.316-1.606c-4.899,4.223-1.415,25.834-1.415,25.834s19.95,7.637,25.047,3.873
				c3.499-2.588,3.121-15.597,2.953-19.074c-0.024-0.545-0.414-4.336-0.414-4.336l-1.305-1.934c0,0,0.338,4.036,0.265,4.952
				c-0.31,3.913-1.418,14.433-4.508,16.608c-4.117,2.897-20.045-1.902-20.045-1.902s-1.662-17.146,2.324-20.377
				c3.289-2.667,14.014-0.911,17.746-0.195c0.812,0.155,4.771,1.611,4.771,1.611L40.709,93.177z"/>
			<path fill="#010101" d="M43.818,88.142c-1.023-3.227-2.635-8.518-2.756-10.209c-0.129-1.791,0.125-3.154,0.556-4.25
				c0.217-0.557,0.647-1.065,1.196-1.553c-0.071-1.36-0.064-2.73,0.035-4.084c-1.529,0.983-2.809,1.996-3.237,3.114
				c-0.536,1.403-0.662,3.54-0.339,6.135c0.368,2.993,1.862,7.909,3.064,11.204c0.625,1.712-0.848,3.033-0.848,3.033l1.729,1.712
				C43.22,93.244,44.3,89.667,43.818,88.142z"/>
			<path fill="#010101" d="M65.176,99.679c-0.821-0.231-1.632-0.498-2.434-0.791c-0.268,0.115-0.535,0.199-0.8,0.238
				c-1.168,0.172-2.55,0.115-4.268-0.414c-1.621-0.5-6.414-3.26-9.327-4.982c-1.38-0.813-5.15-0.188-5.15-0.188l1.277,2.069
				c0,0,1.665-1.514,3.191-0.521c2.94,1.915,7.394,4.475,10.229,5.51c2.454,0.897,4.565,1.256,6.053,1.049
				c0.922-0.129,1.899-0.777,2.901-1.654C66.299,99.931,65.746,99.839,65.176,99.679z"/>
			<path fill="#010101" stroke="#010101" stroke-miterlimit="10" d="M44.064,79.896c-0.363-1.314-0.666-2.729-0.887-4.196
				c-0.047,0.043-0.101,0.081-0.144,0.123c-1.962,1.958-2.097,9.749-2.085,12.355c0,0.538-0.123,3.707-0.123,3.707l1.421,1.497
				c0,0,0.166-3.658,0.26-4.865C42.693,86.133,43.128,82.208,44.064,79.896z"/>
			<path fill="#010101" stroke="#010101" stroke-miterlimit="10" d="M56.224,95.849c-0.111-0.062-0.209-0.133-0.318-0.195
				c-2.515,0.256-6.104-0.166-8.25-0.479c-1.098-0.162-4.961-1.228-4.961-1.228L44,95.876c0,0,3.408,1.003,3.867,1.114
				c2.37,0.579,9.897,2.252,12.478,0.928C58.937,97.295,57.564,96.603,56.224,95.849z"/>
			<path fill="#010101" d="M45.134,83.075c-0.117-0.288-0.23-0.586-0.342-0.893c-2.93,4.028-2.614,10.106-2.614,10.106
				s1.747-2.761,4.893-5.339C46.336,85.731,45.691,84.437,45.134,83.075z"/>
			<path fill="#010101" d="M50.322,91.216c-3.189,2.436-6.213,3.497-6.213,3.497s5.569,1.597,10.096-0.135
				C52.775,93.587,51.488,92.456,50.322,91.216z"/>
			<path fill="#010101" d="M54.685,114.733c-0.672,0.906-1.933,1.143-2.81,0.529c-1.097-0.769-1.302-2.308-0.46-3.437
				c1.056-1.411,3.021-1.78,4.395-0.821c1.713,1.198,2.035,3.604,0.717,5.366c-1.646,2.205-4.395,2.229-6.537,0.729
				c-1.674-1.17-2.386-2.824-2.416-4.387c-0.015-0.938,0.014-1.683,0.786-2.715c2.573-3.448,7.374-4.344,10.723-2.005
				c4.186,2.928,4.973,8.794,1.752,13.103c-4.019,5.387-12.237,5.891-17.47,2.23c-6.539-4.57-6.328-19.557-1.301-26.289
				l-1.541-1.659c-6.105,8.29-6.611,24.349,1.544,30.136c6.524,4.627,15.77,3.004,20.655-3.627
				c3.908-5.306,2.847-12.605-2.372-16.309c-4.174-2.965-10.093-1.926-13.219,2.318c-2.503,3.396-1.823,8.067,1.518,10.438
				c2.671,1.896,6.46,1.232,8.46-1.484c1.601-2.172,1.166-5.162-0.971-6.68c-1.713-1.215-4.137-0.788-5.416,0.949
				c-1.024,1.393-0.747,3.309,0.621,4.277c1.094,0.775,2.644,0.504,3.464-0.608"/>
			<path fill="#010101" d="M25.043,77.472c-1.031,0.454-1.544,1.627-1.142,2.621c0.5,1.242,1.953,1.787,3.242,1.221
				c1.611-0.711,2.415-2.545,1.788-4.097c-0.781-1.938-3.05-2.793-5.067-1.907c-2.521,1.11-3.159,3.782-2.181,6.207
				c0.763,1.895,2.212,2.959,3.728,3.34c0.911,0.229,1.645,0.367,2.825-0.151c3.94-1.733,5.892-6.21,4.365-10
				c-1.91-4.734-7.448-6.821-12.372-4.654c-6.152,2.709-8.491,10.601-6.105,16.521c2.984,7.399,17.632,10.562,25.323,7.181
				l1.271,1.875c-9.45,4.083-25.211,0.966-29.014-8.283c-3.043-7.396,0.617-16.042,8.178-19.311
				c6.048-2.616,12.925,0.062,15.359,5.982c1.947,4.73-0.396,10.266-5.234,12.357c-3.871,1.674-8.27-0.04-9.83-3.828
				c-1.246-3.029,0.256-6.57,3.352-7.91c2.477-1.07,5.293,0.024,6.29,2.449c0.799,1.939-0.165,4.206-2.145,5.062
				c-1.585,0.688-3.39-0.016-4.027-1.566c-0.511-1.242,0.104-2.689,1.373-3.24"/>
			
				<rect x="38.199" y="92.179" transform="matrix(-0.6226 -0.7825 0.7825 -0.6226 -5.169 185.7181)" fill="#010101" stroke="#010101" stroke-miterlimit="10" width="7.999" height="3.853"/>
		</g>
		<g>
			<path fill="#010101" stroke="#010101" stroke-miterlimit="10" d="M100.708,49.796c0,0,3.834,1.447,4.44,1.621
				c3.562,1.035,16.041,4.375,19.319,1.521c4.88-4.244,1.303-25.841,1.303-25.841s-19.984-7.548-25.062-3.761
				c-3.49,2.602-3.053,15.609-2.869,19.089c0.027,0.544,0.433,4.334,0.433,4.334l1.317,1.926c0,0-0.358-4.035-0.289-4.949
				c0.289-3.916,1.354-14.441,4.434-16.632c4.102-2.915,20.051,1.812,20.051,1.812s1.738,17.143-2.232,20.386
				c-3.276,2.685-14.01,0.975-17.745,0.279c-0.812-0.153-4.778-1.594-4.778-1.594L100.708,49.796z"/>
			<path fill="#010101" d="M97.624,54.847c1.035,3.223,2.674,8.503,2.801,10.196c0.136,1.79-0.111,3.153-0.536,4.254
				c-0.151,0.384-0.411,0.746-0.729,1.094c0.084,0.745-0.023,1.444-0.289,2.072c0.377,0.675,0.524,1.351,0.508,2.001
				c1.203-0.842,2.17-1.715,2.523-2.658c0.531-1.405,0.646-3.541,0.314-6.134c-0.385-2.993-1.896-7.899-3.118-11.189
				c-0.632-1.707,0.837-3.04,0.837-3.04l-1.739-1.704C98.195,49.739,97.129,53.321,97.624,54.847z"/>
			<path fill="#010101" d="M76.984,44.14c0.296,0.158,0.581,0.325,0.854,0.5c0.539-0.364,1.074-0.615,1.609-0.698
				c1.166-0.179,2.549-0.124,4.268,0.396c1.625,0.491,6.431,3.231,9.35,4.938c1.383,0.809,5.152,0.166,5.152,0.166l-1.289-2.064
				c0,0-1.657,1.523-3.188,0.538c-2.949-1.903-7.414-4.441-10.25-5.462c-2.462-0.886-4.574-1.237-6.059-1.023
				c-0.918,0.132-1.891,0.781-2.885,1.659C75.336,43.359,76.143,43.694,76.984,44.14z"/>
			<path fill="#010101" stroke="#010101" stroke-miterlimit="10" d="M97.601,62.583c0.205,0.633,0.254,1.279,0.167,1.906
				c0.47,0.886,0.621,1.858,0.533,2.809c0.054-0.045,0.111-0.089,0.158-0.138c1.953-1.966,2.058-9.756,2.031-12.362
				c-0.004-0.539,0.105-3.708,0.105-3.708l-1.43-1.495c0,0-0.149,3.666-0.238,4.873C98.769,56.682,98.395,60.229,97.601,62.583z"/>
			<path fill="#010101" stroke="#010101" stroke-miterlimit="10" d="M84.82,47.483c2.505-0.439,6.582,0.013,8.933,0.35
				c1.101,0.153,4.967,1.201,4.967,1.201l-1.312-1.924c0,0-3.412-0.987-3.871-1.096c-2.432-0.582-10.289-2.294-12.676-0.776
				c-0.165,0.104-0.328,0.229-0.49,0.364C81.898,46.101,83.383,46.724,84.82,47.483z"/>
			<path fill="#010101" d="M96.62,60.888c2.971-4.044,2.625-10.199,2.625-10.199s-1.693,2.696-4.748,5.261
				C95.342,57.407,95.616,59.678,96.62,60.888z"/>
			<path fill="#010101" d="M89.191,50.365c0.61,0.493,1.115,1.086,1.533,1.729c3.312-2.661,6.58-3.826,6.58-3.826
				s-5.931-1.668-10.521,0.356C87.605,49.155,88.409,49.731,89.191,50.365z"/>
			<path fill="#010101" d="M86.633,28.298c0.671-0.906,1.929-1.147,2.81-0.537c1.101,0.762,1.313,2.298,0.474,3.433
				c-1.049,1.415-3.013,1.793-4.39,0.839c-1.719-1.19-2.053-3.591-0.739-5.363c1.639-2.213,4.385-2.247,6.533-0.759
				c1.682,1.163,2.396,2.812,2.434,4.376c0.021,0.936-0.004,1.68-0.771,2.718c-2.561,3.461-7.355,4.375-10.714,2.05
				c-4.202-2.907-5.013-8.769-1.813-13.093c3.998-5.404,12.213-5.945,17.461-2.31c6.562,4.542,6.418,19.528,1.418,26.28l1.549,1.654
				c6.07-8.316,6.504-24.377-1.678-30.126c-6.543-4.598-15.783-2.935-20.641,3.72c-3.887,5.32-2.791,12.621,2.441,16.298
				c4.188,2.944,10.104,1.88,13.213-2.38c2.484-3.407,1.785-8.077-1.565-10.432c-2.68-1.884-6.464-1.204-8.454,1.524
				c-1.59,2.178-1.142,5.167,1.004,6.675c1.717,1.208,4.137,0.77,5.41-0.977c1.018-1.394,0.73-3.306-0.643-4.271
				c-1.098-0.771-2.646-0.492-3.463,0.625"/>
			<path fill="#010101" d="M116.443,65.432c1.029-0.459,1.539-1.638,1.132-2.629c-0.505-1.237-1.962-1.779-3.248-1.204
				c-1.609,0.716-2.4,2.554-1.769,4.103c0.79,1.935,3.063,2.78,5.073,1.884c2.517-1.12,3.145-3.796,2.156-6.214
				c-0.772-1.893-2.227-2.951-3.744-3.324c-0.91-0.223-1.644-0.361-2.822,0.165c-3.932,1.75-5.864,6.236-4.318,10.019
				c1.932,4.728,7.479,6.787,12.389,4.599c6.146-2.735,8.445-10.638,6.033-16.544c-3.019-7.391-17.68-10.49-25.357-7.071
				l-1.279-1.868c9.436-4.127,25.208-1.078,29.055,8.154c3.076,7.382-0.547,16.044-8.093,19.345
				c-6.034,2.646-12.925-0.005-15.387-5.912c-1.968-4.723,0.353-10.265,5.183-12.381c3.861-1.691,8.27,0.001,9.848,3.782
				c1.258,3.024-0.228,6.573-3.315,7.928c-2.472,1.081-5.295-0.003-6.302-2.423c-0.807-1.936,0.144-4.205,2.123-5.073
				c1.58-0.693,3.388,0.002,4.029,1.552c0.52,1.238-0.091,2.691-1.356,3.244"/>
			
				<rect x="95.221" y="46.94" transform="matrix(-0.626 -0.7798 0.7798 -0.626 123.2292 156.8273)" fill="#010101" stroke="#010101" stroke-miterlimit="10" width="8" height="3.847"/>
		</g>
	</g>
	<g>
		<g>
			<path fill="#010101" stroke="#010101" stroke-miterlimit="10" d="M53.078,104.054c0,0-4.081,0.342-4.705,0.442
				c-3.663,0.598-16.365,2.942-18.102,6.93c-2.585,5.929,9.927,23.892,9.927,23.892s21.289-1.77,24.25-7.371
				c2.03-3.85-3.951-15.407-5.611-18.469c-0.258-0.479-2.253-3.729-2.253-3.729l-2.015-1.176c0,0,2.055,3.49,2.387,4.348
				c1.418,3.66,4.98,13.62,3.141,16.921c-2.453,4.397-18.887,6.978-18.887,6.978s-8.935-14.729-6.743-19.367
				c1.808-3.83,12.232-6.898,15.905-7.872c0.801-0.212,4.999-0.617,4.999-0.617L53.078,104.054z"/>
			<path fill="#010101" d="M53.695,98.169c-2.321-2.463-6.067-6.531-6.911-8.005c-0.893-1.558-1.255-2.896-1.342-4.07
				c-0.046-0.595,0.121-1.241,0.404-1.917c-0.654-1.195-1.242-2.433-1.739-3.695c-0.951,1.55-1.665,3.017-1.566,4.211
				c0.126,1.496,0.938,3.478,2.354,5.675c1.63,2.536,5.108,6.319,7.621,8.768c1.305,1.271,0.551,3.101,0.551,3.101l2.302,0.793
				C55.369,103.026,54.791,99.335,53.695,98.169z"/>
			<path fill="#010101" d="M77.944,99.303c-0.842,0.146-1.688,0.259-2.535,0.343c-0.191,0.221-0.396,0.412-0.619,0.562
				c-0.977,0.661-2.246,1.209-4.023,1.479c-1.678,0.252-7.193-0.156-10.565-0.445c-1.596-0.135-4.723,2.062-4.723,2.062l2.049,1.312
				c0,0,0.844-2.087,2.648-1.855c3.48,0.451,8.604,0.826,11.607,0.529c2.6-0.255,4.657-0.849,5.908-1.681
				c0.773-0.517,1.374-1.523,1.896-2.75C79.065,99.043,78.526,99.2,77.944,99.303z"/>
			<path fill="#010101" stroke="#010101" stroke-miterlimit="10" d="M50.34,90.632c-0.897-1.027-1.783-2.17-2.619-3.396
				c-0.023,0.06-0.056,0.117-0.076,0.173c-0.919,2.614,2.339,9.694,3.479,12.039c0.233,0.483,1.497,3.394,1.497,3.394l1.93,0.732
				c0,0-1.437-3.368-1.876-4.497C51.81,96.847,50.5,93.121,50.34,90.632z"/>
			<path fill="#010101" stroke="#010101" stroke-miterlimit="10" d="M68.215,99.733c-0.127-0.008-0.245-0.028-0.371-0.039
				c-2.155,1.322-5.571,2.498-7.643,3.146c-1.059,0.329-5.002,1.045-5.002,1.045l2.014,1.174c0,0,3.506-0.574,3.968-0.674
				c2.387-0.505,9.896-2.263,11.646-4.574C71.288,99.86,69.75,99.831,68.215,99.733z"/>
			<path fill="#010101" d="M52.684,93.032c-0.23-0.208-0.462-0.428-0.695-0.654c-0.893,4.9,2.027,10.24,2.027,10.24
				s0.377-3.245,2.094-6.934C54.919,94.906,53.776,94.019,52.684,93.032z"/>
			<path fill="#010101" d="M60.888,98.118c-1.817,3.578-4.082,5.846-4.082,5.846s5.712-0.977,9.039-4.499
				C64.126,99.19,62.477,98.729,60.888,98.118z"/>
			<path fill="#010101" d="M75.019,117.418c-0.213,1.106-1.246,1.867-2.304,1.694c-1.32-0.215-2.172-1.514-1.903-2.896
				c0.339-1.729,1.951-2.915,3.604-2.646c2.062,0.338,3.396,2.363,2.974,4.524c-0.527,2.7-2.994,3.913-5.574,3.493
				c-2.016-0.329-3.374-1.511-4.079-2.904c-0.419-0.839-0.718-1.522-0.469-2.787c0.823-4.225,4.761-7.112,8.792-6.457
				c5.041,0.822,8.295,5.769,7.26,11.045c-1.282,6.599-8.472,10.615-14.773,9.588c-7.874-1.282-14.183-14.879-12.572-23.124
				l-2.108-0.827c-1.906,10.117,4.603,24.807,14.46,26.484c7.886,1.34,15.513-4.133,17.039-12.227
				c1.221-6.475-2.902-12.593-9.209-13.666c-5.047-0.861-9.93,2.643-10.906,7.822c-0.782,4.146,1.855,8.061,5.894,8.746
				c3.229,0.552,6.355-1.69,6.979-5.006c0.5-2.652-1.188-5.158-3.771-5.599c-2.069-0.353-4.069,1.083-4.469,3.203
				c-0.318,1.699,0.762,3.306,2.414,3.585c1.324,0.227,2.603-0.691,2.859-2.05"/>
			<path fill="#010101" d="M32.15,96.696c-0.732,0.855-0.686,2.136,0.108,2.856c0.989,0.902,2.535,0.763,3.451-0.307
				c1.143-1.34,1.072-3.343-0.166-4.468c-1.545-1.407-3.959-1.193-5.393,0.479c-1.789,2.093-1.207,4.777,0.727,6.538
				c1.509,1.376,3.276,1.707,4.807,1.395c0.92-0.19,1.642-0.383,2.48-1.363c2.799-3.271,2.615-8.149-0.404-10.903
				c-3.773-3.438-9.669-2.917-13.166,1.171c-4.369,5.109-3.054,13.235,1.664,17.535c5.897,5.373,20.468,1.872,25.932-4.512
				l1.958,1.14c-6.745,7.776-22.299,11.804-29.735,5.117c-5.951-5.347-6.401-14.724-1.006-20.946
				c4.315-4.979,11.674-5.549,16.434-1.271c3.807,3.419,4.096,9.422,0.644,13.405c-2.763,3.188-7.47,3.551-10.519,0.813
				c-2.436-2.188-2.618-6.03-0.41-8.581c1.768-2.039,4.78-2.273,6.73-0.521c1.561,1.402,1.675,3.862,0.264,5.492
				c-1.131,1.308-3.062,1.457-4.309,0.336c-0.999-0.897-1.073-2.471-0.168-3.516"/>
			
				<rect x="50.823" y="102.324" transform="matrix(-0.9004 -0.4351 0.4351 -0.9004 58.8238 221.9693)" fill="#010101" stroke="#010101" stroke-miterlimit="10" width="7.999" height="3.853"/>
		</g>
		<g>
			<path fill="#010101" stroke="#010101" stroke-miterlimit="10" d="M88.327,38.946c0,0,4.084-0.359,4.705-0.465
				c3.659-0.612,16.352-3.014,18.068-7.008c2.557-5.939-10.033-23.85-10.033-23.85s-21.279,1.866-24.215,7.48
				c-2.018,3.858,4.02,15.389,5.693,18.445c0.261,0.478,2.269,3.718,2.269,3.718l2.022,1.164c0,0-2.072-3.48-2.406-4.334
				c-1.438-3.654-5.043-13.6-3.219-16.909c2.432-4.405,18.854-7.062,18.854-7.062s9,14.693,6.829,19.337
				c-1.788,3.841-12.201,6.954-15.869,7.947c-0.798,0.215-4.997,0.636-4.997,0.636L88.327,38.946z"/>
			<path fill="#010101" d="M87.738,44.835c2.331,2.454,6.097,6.502,6.946,7.973c0.896,1.554,1.268,2.89,1.361,4.065
				c0.029,0.412-0.047,0.851-0.184,1.301c0.396,0.636,0.604,1.312,0.639,1.993c0.633,0.443,1.059,0.989,1.324,1.583
				c0.719-1.28,1.213-2.486,1.123-3.49c-0.132-1.497-0.953-3.471-2.378-5.663c-1.646-2.53-5.135-6.295-7.661-8.73
				c-1.31-1.265-0.564-3.102-0.564-3.102l-2.307-0.781C86.04,39.984,86.633,43.673,87.738,44.835z"/>
			<path fill="#010101" d="M64.499,44.138c0.335,0.014,0.664,0.041,0.986,0.079c0.328-0.562,0.702-1.021,1.147-1.327
				c0.974-0.667,2.243-1.217,4.017-1.494c1.68-0.263,7.195,0.123,10.566,0.395c1.596,0.13,4.715-2.085,4.715-2.085l-2.057-1.301
				c0,0-0.834,2.091-2.64,1.867c-3.483-0.437-8.606-0.788-11.604-0.478c-2.603,0.27-4.659,0.87-5.902,1.706
				c-0.771,0.518-1.364,1.522-1.881,2.745C62.675,44.147,63.547,44.101,64.499,44.138z"/>
			<path fill="#010101" stroke="#010101" stroke-miterlimit="10" d="M91.075,51.815c0.459,0.481,0.782,1.042,0.977,1.645
				c0.808,0.595,1.365,1.405,1.699,2.3c0.027-0.064,0.062-0.129,0.082-0.192c0.908-2.619-2.377-9.684-3.529-12.021
				c-0.237-0.484-1.514-3.388-1.514-3.388l-1.937-0.728c0,0,1.454,3.368,1.897,4.494C89.567,45.991,90.768,49.351,91.075,51.815z"/>
			<path fill="#010101" stroke="#010101" stroke-miterlimit="10" d="M73.008,43.751c2.066-1.481,5.937-2.842,8.199-3.558
				c1.06-0.339,4.996-1.071,4.996-1.071l-2.018-1.165c0,0-3.503,0.59-3.963,0.691c-2.443,0.53-10.267,2.395-11.759,4.798
				c-0.104,0.166-0.196,0.349-0.283,0.54C69.776,43.773,71.385,43.69,73.008,43.751z"/>
			<path fill="#010101" d="M89.454,50.713c0.924-4.932-2.058-10.328-2.058-10.328s-0.356,3.163-1.997,6.8
				C86.793,48.131,88.025,50.059,89.454,50.713z"/>
			<path fill="#010101" d="M78.198,44.453c0.764,0.18,1.477,0.496,2.131,0.895c1.832-3.833,4.271-6.301,4.271-6.301
				s-6.066,1.069-9.325,4.883C76.245,44.051,77.215,44.222,78.198,44.453z"/>
			<path fill="#010101" d="M66.324,25.678c0.211-1.107,1.239-1.87,2.298-1.702c1.321,0.209,2.182,1.5,1.916,2.888
				c-0.332,1.729-1.938,2.922-3.592,2.659c-2.065-0.327-3.407-2.345-2.992-4.511c0.516-2.706,2.977-3.926,5.558-3.518
				c2.02,0.318,3.38,1.493,4.091,2.887c0.424,0.833,0.726,1.516,0.481,2.784c-0.805,4.229-4.729,7.133-8.765,6.494
				c-5.048-0.797-8.318-5.728-7.312-11.011c1.26-6.604,8.427-10.654,14.733-9.654c7.881,1.247,14.252,14.813,12.674,23.065
				l2.111,0.819c1.863-10.126-4.71-24.786-14.576-26.418c-7.889-1.306-15.494,4.2-16.984,12.302
				c-1.194,6.479,2.958,12.583,9.269,13.626c5.051,0.837,9.919-2.688,10.873-7.874c0.762-4.148-1.895-8.052-5.935-8.721
				c-3.232-0.536-6.347,1.719-6.957,5.04c-0.488,2.651,1.212,5.151,3.798,5.58c2.071,0.343,4.062-1.101,4.453-3.227
				c0.312-1.697-0.775-3.295-2.432-3.569c-1.323-0.219-2.598,0.704-2.849,2.064"/>
			<path fill="#010101" d="M109.288,46.211c0.729-0.859,0.676-2.143-0.121-2.859c-0.99-0.896-2.539-0.753-3.449,0.323
				c-1.141,1.344-1.055,3.343,0.188,4.464c1.551,1.4,3.967,1.177,5.389-0.503c1.781-2.1,1.188-4.784-0.752-6.534
				c-1.518-1.371-3.285-1.694-4.814-1.372c-0.917,0.193-1.637,0.387-2.473,1.373c-2.782,3.281-2.58,8.162,0.453,10.9
				c3.791,3.423,9.682,2.873,13.156-1.229c4.354-5.13,2.997-13.249-1.738-17.524c-5.924-5.351-20.479-1.786-25.914,4.625
				l-1.963-1.128c6.711-7.811,22.246-11.903,29.717-5.253c5.973,5.318,6.465,14.695,1.097,20.941c-4.29,5-11.647,5.601-16.429,1.346
				c-3.82-3.403-4.135-9.403-0.699-13.404c2.746-3.198,7.451-3.585,10.514-0.862c2.443,2.179,2.645,6.021,0.449,8.581
				c-1.758,2.046-4.771,2.293-6.729,0.55c-1.565-1.395-1.694-3.852-0.287-5.493c1.123-1.31,3.054-1.466,4.304-0.348
				c1.005,0.891,1.086,2.465,0.185,3.512"/>
			
				<rect x="82.583" y="36.834" transform="matrix(-0.9023 -0.4312 0.4312 -0.9023 147.9933 111.0614)" fill="#010101" stroke="#010101" stroke-miterlimit="10" width="8.001" height="3.848"/>
		</g>
	</g>
	<circle fill="none" stroke="#000000" stroke-width="2" stroke-miterlimit="10" cx="70.48" cy="71.6" r="28.259"/>
	<g id="Layer_1_1_" display="none">
		<g display="inline" opacity="0.3">
			<g>
				<g>
					<path fill="#010101" stroke="#010101" stroke-miterlimit="10" d="M73.681,32.466c0,0,3.639-2.15,4.174-2.525
						c3.133-2.2,13.881-10.082,13.704-14.565C91.295,8.707,71.604-2.361,71.604-2.361S52.623,8.842,52.39,15.375
						c-0.16,4.489,10.589,12.539,13.505,14.639c0.457,0.329,3.77,2.452,3.77,2.452l2.4,0.185c0,0-3.478-2.319-4.17-2.966
						c-2.962-2.763-10.746-10.416-10.518-14.309C57.68,10.19,71.788,0.411,71.788,0.411s14.918,9.674,14.965,14.965
						c0.039,4.372-8.27,11.902-11.242,14.458c-0.646,0.557-4.366,2.817-4.366,2.817L73.681,32.466z"/>
					<path fill="#010101" d="M85.768,42.542c1.527,1.047,2.464,2.127,3.074,3.179c2.115,3.651-3.219,13.445-0.741,16.86
						c1.063,1.465,5.499,0.514,7.205-0.094c0.678-0.24,2.032-1.2,2.032-1.2s-4.102-0.097-4.805-1.109
						c-2.064-2.968,1.469-11.344-0.369-14.458c-0.787-1.333-2.434-2.807-4.735-4.214c-2.654-1.625-7.581-3.577-11.017-4.722
						c-1.783-0.595-1.906-2.634-1.906-2.634l-2.492,0.299c0,0,2.193,3.17,3.736,3.76C79.015,39.457,84.323,41.553,85.768,42.542z"/>
					<path fill="#010101" d="M58.314,42.611c-1.529,1.047-2.465,2.127-3.075,3.179c-2.116,3.651,3.219,13.445,0.741,16.86
						c-1.063,1.465-5.499,0.514-7.206-0.092c-0.676-0.241-2.032-1.201-2.032-1.201s4.101-0.098,4.804-1.109
						c2.065-2.968-1.468-11.344,0.37-14.458c0.787-1.333,2.433-2.807,4.735-4.214c2.655-1.625,7.581-3.577,11.017-4.722
						c1.782-0.594,1.628-2.911,1.628-2.911l2.494,0.297c0,0-1.917,3.448-3.46,4.037C65.067,39.524,59.759,41.622,58.314,42.611z"/>
					<path fill="#010101" stroke="#010101" stroke-miterlimit="10" d="M74.652,33.389c0,0,2.479,2.136,2.914,2.48
						c2.113,1.666,8.315,6.779,8.638,9.622c0.812,7.185-14.322,25.127-14.322,25.127S56.399,52.724,57.193,45.491
						c0.318-2.899,6.774-8.115,8.812-9.696c0.384-0.298,3.382-2.406,3.382-2.406l2.4,0.186c0,0-3.344,2.435-4.181,3.219
						c-2.229,2.089-6.353,6.227-6.63,8.512c-0.773,6.379,11.086,23.188,11.086,23.188S83.69,51.649,82.872,45.306
						c-0.291-2.251-4.304-6.274-6.58-8.395c-0.914-0.853-3.766-3.337-3.766-3.337L74.652,33.389z"/>
					<path fill="#010101" d="M73.456,34.221c0,0,7.012,4.988,6.826,11.224c-0.189,6.236-6.826,11.225-6.826,11.225
						s-0.519-4.061,0.756-10.344C75.484,40.042,73.456,34.221,73.456,34.221z"/>
					<path fill="#010101" d="M70.255,34.221c0,0-7.011,4.988-6.825,11.224c0.186,6.236,6.825,11.225,6.825,11.225
						s0.519-4.061-0.755-10.344C68.226,40.042,70.255,34.221,70.255,34.221z"/>
					<path fill="#010101" d="M47.293,29.903c-0.297-1.125,0.322-2.293,1.381-2.607c1.325-0.394,2.699,0.428,3.069,1.835
						c0.462,1.758-0.503,3.583-2.159,4.074c-2.069,0.615-4.216-0.669-4.794-2.867c-0.723-2.748,1.023-4.98,3.61-5.748
						c2.021-0.601,3.812-0.113,5.091,0.867c0.768,0.588,1.352,1.09,1.69,2.377c1.13,4.293-1.229,8.747-5.271,9.947
						c-5.052,1.5-10.293-1.633-11.705-7c-1.767-6.708,3.104-13.667,9.419-15.542c7.894-2.345,19.858,7.452,22.065,15.837l2.33-0.178
						C69.247,20.643,56.603,9.92,46.692,12.788c-7.928,2.294-12.557,10.806-10.34,19.01c1.773,6.564,8.353,10.397,14.695,8.561
						c5.074-1.468,8.037-6.915,6.618-12.166c-1.135-4.201-5.345-6.654-9.405-5.48c-3.247,0.94-5.143,4.426-4.235,7.787
						c0.726,2.688,3.421,4.259,6.019,3.506c2.08-0.601,3.292-2.833,2.711-4.983c-0.465-1.721-2.189-2.725-3.852-2.245
						c-1.33,0.385-2.106,1.812-1.734,3.189"/>
					<path fill="#010101" d="M96.426,29.903c0.297-1.125-0.322-2.293-1.383-2.607c-1.324-0.394-2.696,0.428-3.067,1.835
						c-0.463,1.758,0.504,3.583,2.159,4.074c2.068,0.615,4.216-0.669,4.794-2.867c0.725-2.748-1.022-4.98-3.609-5.748
						c-2.021-0.601-3.812-0.113-5.092,0.867c-0.769,0.588-1.353,1.09-1.688,2.377c-1.131,4.293,1.229,8.747,5.271,9.947
						c5.052,1.5,10.292-1.633,11.705-7c1.768-6.708-3.104-13.667-9.419-15.542c-7.896-2.345-19.856,7.452-22.065,15.837l-2.33-0.177
						c2.77-10.256,15.416-20.979,25.326-18.111c7.928,2.294,12.559,10.806,10.34,19.01c-1.771,6.564-8.354,10.397-14.693,8.561
						c-5.074-1.468-8.037-6.915-6.617-12.166c1.134-4.201,5.344-6.654,9.402-5.48c3.248,0.94,5.145,4.426,4.234,7.787
						c-0.729,2.688-3.422,4.259-6.021,3.506c-2.078-0.601-3.291-2.833-2.709-4.983c0.463-1.721,2.189-2.725,3.853-2.245
						c1.331,0.385,2.104,1.812,1.733,3.189"/>
					<rect x="67.847" y="31.08" fill="#010101" stroke="#010101" stroke-miterlimit="10" width="8.255" height="3.972"/>
				</g>
				<g>
					<path fill="#010101" stroke="#010101" stroke-miterlimit="10" d="M69.876,116.765c0,0-3.639,2.148-4.173,2.524
						C62.57,121.487,51.822,129.37,52,133.854c0.263,6.668,19.954,17.734,19.954,17.734s18.981-11.203,19.217-17.734
						c0.16-4.488-10.59-12.539-13.506-14.641c-0.457-0.329-3.771-2.449-3.771-2.449l-2.399-0.188c0,0,3.479,2.316,4.17,2.966
						c2.963,2.765,10.746,10.416,10.52,14.312c-0.305,5.186-14.412,14.965-14.412,14.965s-14.916-9.674-14.964-14.965
						c-0.041-4.373,8.268-11.902,11.242-14.459c0.648-0.559,4.369-2.816,4.369-2.816L69.876,116.765z"/>
					<path fill="#010101" d="M57.791,106.687c-1.528-1.047-2.465-2.127-3.074-3.179c-2.115-3.651,3.219-13.444,0.741-16.86
						c-1.063-1.465-5.499-0.515-7.205,0.095c-0.677,0.239-2.033,1.2-2.033,1.2s4.1,0.097,4.804,1.107
						c2.064,2.969-1.468,11.344,0.37,14.458c0.787,1.334,2.433,2.808,4.735,4.214c2.655,1.625,7.582,3.577,11.017,4.723
						c1.783,0.596,1.906,2.636,1.906,2.636l2.494-0.299c0,0-2.193-3.171-3.737-3.761C64.544,109.772,59.236,107.676,57.791,106.687z
						"/>
					<path fill="#010101" d="M85.245,106.617c1.528-1.048,2.465-2.127,3.075-3.179c2.115-3.651-3.22-13.444-0.741-16.86
						c1.062-1.466,5.5-0.515,7.207,0.092c0.676,0.242,2.03,1.201,2.03,1.201s-4.101,0.098-4.804,1.108
						c-2.064,2.97,1.468,11.345-0.37,14.459c-0.787,1.332-2.433,2.807-4.735,4.213c-2.654,1.625-7.58,3.576-11.017,4.723
						c-1.781,0.595-1.63,2.911-1.63,2.911l-2.491-0.298c0,0,1.917-3.447,3.461-4.036C78.491,109.705,83.799,107.606,85.245,106.617z
						"/>
					<path fill="#010101" stroke="#010101" stroke-miterlimit="10" d="M68.906,115.84c0,0-2.479-2.137-2.915-2.479
						c-2.112-1.666-8.316-6.778-8.637-9.62c-0.811-7.188,14.322-25.128,14.322-25.128s15.482,17.895,14.689,25.128
						c-0.318,2.896-6.773,8.114-8.812,9.694c-0.385,0.297-3.383,2.405-3.383,2.405l-2.399-0.187c0,0,3.342-2.437,4.181-3.219
						c2.229-2.091,6.352-6.228,6.629-8.514c0.772-6.38-11.086-23.188-11.086-23.188S59.868,97.58,60.686,103.923
						c0.291,2.251,4.304,6.274,6.58,8.395c0.915,0.854,3.766,3.339,3.766,3.339L68.906,115.84z"/>
					<path fill="#010101" d="M70.104,115.008c0,0-7.012-4.987-6.826-11.225c0.187-6.235,6.826-11.226,6.826-11.226
						s0.518,4.062-0.756,10.346C68.074,109.188,70.104,115.008,70.104,115.008z"/>
					<path fill="#010101" d="M73.301,115.008c0,0,7.013-4.987,6.826-11.225c-0.188-6.235-6.826-11.226-6.826-11.226
						s-0.518,4.062,0.757,10.346C75.333,109.188,73.301,115.008,73.301,115.008z"/>
					<path fill="#010101" d="M96.265,119.326c0.297,1.125-0.322,2.293-1.382,2.606c-1.324,0.395-2.698-0.429-3.068-1.836
						c-0.462-1.759,0.503-3.582,2.159-4.074c2.069-0.613,4.216,0.67,4.795,2.867c0.724,2.748-1.022,4.979-3.61,5.748
						c-2.021,0.603-3.812,0.112-5.091-0.867c-0.769-0.588-1.353-1.09-1.688-2.377c-1.131-4.293,1.229-8.746,5.271-9.946
						c5.053-1.5,10.292,1.633,11.703,7c1.77,6.706-3.104,13.666-9.418,15.542c-7.896,2.345-19.857-7.452-22.064-15.838l-2.33,0.179
						c2.771,10.256,15.416,20.979,25.326,18.11c7.93-2.295,12.559-10.807,10.342-19.01c-1.773-6.563-8.354-10.396-14.695-8.562
						c-5.074,1.468-8.037,6.915-6.618,12.165c1.136,4.2,5.345,6.653,9.405,5.479c3.246-0.939,5.143-4.427,4.234-7.787
						c-0.728-2.688-3.422-4.26-6.02-3.506c-2.08,0.602-3.292,2.831-2.711,4.981c0.465,1.721,2.188,2.726,3.854,2.245
						c1.327-0.385,2.104-1.812,1.732-3.189"/>
					<path fill="#010101" d="M47.131,119.326c-0.296,1.125,0.323,2.293,1.383,2.606c1.324,0.395,2.698-0.429,3.068-1.836
						c0.463-1.759-0.503-3.582-2.16-4.074c-2.068-0.613-4.215,0.67-4.794,2.867c-0.724,2.748,1.024,4.979,3.61,5.748
						c2.021,0.603,3.812,0.112,5.091-0.867c0.768-0.588,1.352-1.09,1.69-2.377c1.131-4.293-1.229-8.746-5.271-9.946
						c-5.052-1.5-10.292,1.633-11.705,7c-1.767,6.706,3.104,13.666,9.418,15.542c7.894,2.345,19.858-7.452,22.066-15.838l2.33,0.179
						c-2.771,10.256-15.416,20.979-25.326,18.11c-7.928-2.295-12.557-10.807-10.34-19.01c1.773-6.563,8.354-10.396,14.695-8.562
						c5.074,1.468,8.037,6.915,6.618,12.165c-1.135,4.2-5.345,6.653-9.404,5.479c-3.247-0.939-5.143-4.427-4.235-7.787
						c0.726-2.688,3.421-4.26,6.019-3.506c2.078,0.602,3.291,2.831,2.71,4.981c-0.464,1.721-2.188,2.726-3.852,2.245
						c-1.331-0.385-2.106-1.812-1.735-3.189"/>
					<rect x="67.456" y="114.178" fill="#010101" stroke="#010101" stroke-miterlimit="10" width="8.255" height="3.972"/>
				</g>
			</g>
			<g>
				<g>
					<path fill="#010101" stroke="#010101" stroke-miterlimit="10" d="M36.229,51.892c0,0-0.042-4.227-0.101-4.877
						c-0.338-3.813-1.791-17.062-5.762-19.15c-5.907-3.106-25.337,8.413-25.337,8.413s0.211,22.041,5.753,25.51
						c3.807,2.383,16.153-2.901,19.43-4.377c0.513-0.231,4.008-2.039,4.008-2.039l1.36-1.986c0,0-3.747,1.854-4.654,2.129
						c-3.874,1.184-14.394,4.098-17.651,1.954c-4.338-2.856-5.754-19.964-5.754-19.964s15.836-8.08,20.443-5.477
						c3.806,2.151,6.173,13.112,6.9,16.965c0.158,0.84,0.256,5.191,0.256,5.191L36.229,51.892z"/>
					<path fill="#010101" d="M50.998,46.463c1.67-0.8,3.074-1.071,4.291-1.072c4.219-0.007,10.034,9.51,14.23,9.072
						c1.8-0.189,3.194-4.505,3.522-6.287c0.129-0.707-0.024-2.36-0.024-2.36s-2.134,3.502-3.361,3.606
						c-3.604,0.303-9.09-6.944-12.707-6.909c-1.548,0.015-3.646,0.703-6.017,1.994c-2.734,1.487-6.889,4.778-9.598,7.18
						c-1.406,1.247-3.234,0.334-3.234,0.334l-0.988,2.308c0,0,3.842-0.315,5.125-1.357C44.949,50.769,49.418,47.221,50.998,46.463z"
						/>
					<path fill="#010101" d="M37.331,70.273c0.142,1.848,0.609,3.199,1.215,4.253c2.104,3.656,13.254,3.935,14.972,7.787
						c0.738,1.652-2.304,5.021-3.683,6.194c-0.547,0.466-2.056,1.158-2.056,1.158s1.966-3.601,1.442-4.715
						c-1.538-3.271-10.558-4.4-12.336-7.55c-0.762-1.35-1.215-3.512-1.282-6.208c-0.08-3.112,0.693-8.354,1.419-11.902
						c0.376-1.84-1.707-2.865-1.707-2.865l1.504-2.01c0,0,2.027,3.384,1.766,5.015C38.034,62.881,37.196,68.527,37.331,70.273z"/>
					<path fill="#010101" stroke="#010101" stroke-miterlimit="10" d="M37.513,51.514c0,0,3.089-1.078,3.605-1.284
						c2.499-0.997,10.029-3.812,12.651-2.669c6.628,2.89,14.6,24.967,14.6,24.967s-23.238,4.461-29.104,0.156
						c-2.352-1.727-3.641-9.926-3.991-12.479c-0.066-0.482-0.393-4.133-0.393-4.133l1.36-1.985c0,0,0.438,4.112,0.699,5.229
						c0.695,2.975,2.216,8.615,4.057,9.998c5.138,3.859,25.625,1.993,25.625,1.993s-8.774-18.491-14.677-20.954
						c-2.095-0.874-7.585,0.59-10.561,1.501c-1.196,0.366-4.772,1.593-4.772,1.593L37.513,51.514z"/>
					<path fill="#010101" d="M37.635,52.966c0,0,7.826-3.578,13.134-0.299c5.307,3.28,6.307,11.524,6.307,11.524
						s-3.775-1.582-8.58-5.828C43.69,54.119,37.635,52.966,37.635,52.966z"/>
					<path fill="#010101" d="M36.035,55.737c0,0,0.814,8.566,6.308,11.523c5.493,2.957,13.133-0.299,13.133-0.299
						s-3.257-2.479-9.336-4.518C40.061,60.405,36.035,55.737,36.035,55.737z"/>
					<path fill="#010101" d="M20.814,73.464c-1.123-0.306-1.825-1.425-1.567-2.5c0.321-1.345,1.72-2.123,3.124-1.739
						c1.753,0.478,2.851,2.227,2.449,3.906c-0.502,2.101-2.688,3.316-4.88,2.72c-2.742-0.748-3.801-3.377-3.173-6
						c0.49-2.051,1.808-3.357,3.296-3.975c0.893-0.371,1.62-0.627,2.904-0.275c4.283,1.168,6.96,5.438,5.979,9.541
						c-1.227,5.123-6.561,8.096-11.915,6.635c-6.691-1.822-10.283-9.521-8.75-15.928c1.916-8.008,16.381-13.471,24.747-11.19
						l1.011-2.106C23.772,49.822,8.164,55.41,5.692,65.426C3.714,73.44,8.771,81.704,16.985,83.888
						c6.571,1.745,13.181-2.035,14.761-8.447c1.266-5.126-1.97-10.417-7.227-11.812c-4.206-1.117-8.435,1.301-9.448,5.404
						c-0.809,3.282,1.262,6.668,4.626,7.562c2.691,0.717,5.399-0.832,6.046-3.457c0.519-2.103-0.808-4.269-2.96-4.841
						c-1.722-0.459-3.455,0.533-3.87,2.213c-0.332,1.344,0.517,2.73,1.896,3.099"/>
					<path fill="#010101" d="M45.381,30.913c-0.827-0.819-2.147-0.867-2.95-0.106c-1.002,0.95-0.978,2.55,0.056,3.575
						c1.291,1.279,3.355,1.355,4.608,0.167c1.566-1.484,1.528-3.985-0.086-5.585c-2.018-2.001-4.825-1.604-6.783,0.252
						c-1.53,1.45-2.004,3.245-1.794,4.843c0.125,0.958,0.268,1.715,1.214,2.652c3.153,3.125,8.189,3.308,11.25,0.409
						c3.825-3.625,3.731-9.73-0.209-13.636c-4.926-4.884-13.388-4.145-18.17,0.386c-5.978,5.664-3.476,20.923,2.682,27.027
						l-1.318,1.929c-7.496-7.527-10.46-23.84-3.021-30.989c5.951-5.718,15.636-5.471,21.633,0.551
						c4.798,4.817,4.827,12.433,0.066,17.007c-3.808,3.66-10.007,3.503-13.844-0.352c-3.071-3.083-3.091-7.957-0.043-10.884
						c2.438-2.342,6.404-2.241,8.861,0.226c1.965,1.973,1.978,5.092,0.027,6.966c-1.56,1.499-4.099,1.434-5.67-0.145
						c-1.258-1.263-1.266-3.259-0.019-4.458c0.999-0.96,2.623-0.918,3.629,0.092"/>
					
						<rect x="31.767" y="51.687" transform="matrix(-0.5 0.866 -0.866 -0.5 100.3244 49.4234)" fill="#010101" stroke="#010101" stroke-miterlimit="10" width="8.256" height="3.972"/>
				</g>
				<g>
					<path fill="#010101" stroke="#010101" stroke-miterlimit="10" d="M107.331,97.336c0,0,0.043,4.228,0.102,4.877
						c0.338,3.813,1.79,17.062,5.761,19.149c5.908,3.105,25.339-8.411,25.339-8.411s-0.212-22.041-5.753-25.511
						c-3.81-2.383-16.153,2.899-19.431,4.377c-0.514,0.229-4.008,2.039-4.008,2.039l-1.36,1.985c0,0,3.747-1.854,4.651-2.13
						c3.875-1.186,14.396-4.098,17.652-1.954c4.338,2.856,5.754,19.966,5.754,19.966s-15.836,8.079-20.443,5.478
						c-3.805-2.15-6.174-13.111-6.898-16.966c-0.156-0.84-0.255-5.19-0.255-5.19L107.331,97.336z"/>
					<path fill="#010101" d="M92.56,102.765c-1.671,0.801-3.074,1.071-4.291,1.073c-4.22,0.006-10.034-9.511-14.229-9.071
						c-1.801,0.188-3.195,4.506-3.521,6.286c-0.13,0.707,0.023,2.359,0.023,2.359s2.133-3.502,3.362-3.604
						c3.604-0.304,9.092,6.942,12.706,6.907c1.55-0.014,3.646-0.702,6.019-1.993c2.733-1.486,6.89-4.777,9.599-7.181
						c1.405-1.246,3.233-0.334,3.233-0.334l0.986-2.308c0,0-3.842,0.313-5.125,1.356C98.609,98.459,94.139,102.008,92.56,102.765z"
						/>
					<path fill="#010101" d="M106.227,78.955c-0.143-1.849-0.609-3.199-1.217-4.254c-2.104-3.656-13.254-3.934-14.971-7.787
						c-0.738-1.653,2.305-5.02,3.683-6.195c0.547-0.465,2.057-1.159,2.057-1.159s-1.967,3.601-1.44,4.716
						c1.537,3.271,10.559,4.4,12.334,7.549c0.764,1.348,1.217,3.511,1.283,6.207c0.08,3.111-0.692,8.354-1.42,11.902
						c-0.375,1.84,1.707,2.863,1.707,2.863l-1.505,2.012c0,0-2.026-3.385-1.766-5.017C105.524,86.347,106.362,80.701,106.227,78.955
						z"/>
					<path fill="#010101" stroke="#010101" stroke-miterlimit="10" d="M106.043,97.715c0,0-3.09,1.078-3.604,1.283
						c-2.498,0.997-10.028,3.812-12.649,2.67c-6.629-2.892-14.601-24.967-14.601-24.967s23.237-4.461,29.104-0.157
						c2.352,1.727,3.642,9.925,3.99,12.479c0.064,0.481,0.393,4.134,0.393,4.134l-1.36,1.983c0,0-0.438-4.111-0.696-5.229
						c-0.695-2.975-2.218-8.614-4.059-9.998c-5.139-3.859-25.624-1.992-25.624-1.992s8.774,18.49,14.677,20.954
						c2.096,0.874,7.586-0.591,10.561-1.501c1.195-0.367,4.773-1.594,4.773-1.594L106.043,97.715z"/>
					<path fill="#010101" d="M105.922,96.263c0,0-7.825,3.577-13.133,0.299c-5.31-3.277-6.31-11.522-6.31-11.522
						s3.774,1.582,8.58,5.828C99.868,95.108,105.922,96.263,105.922,96.263z"/>
					<path fill="#010101" d="M107.523,93.492c0,0-0.813-8.567-6.31-11.523c-5.491-2.957-13.133,0.3-13.133,0.3
						s3.258,2.479,9.336,4.519C103.497,88.823,107.523,93.492,107.523,93.492z"/>
					<path fill="#010101" d="M122.745,75.765c1.123,0.308,1.823,1.426,1.565,2.5c-0.321,1.344-1.72,2.125-3.123,1.739
						c-1.754-0.479-2.851-2.228-2.448-3.905c0.502-2.101,2.688-3.315,4.881-2.72c2.739,0.748,3.801,3.377,3.172,6
						c-0.49,2.052-1.808,3.356-3.297,3.976c-0.893,0.371-1.619,0.627-2.902,0.274c-4.282-1.168-6.961-5.438-5.979-9.538
						c1.225-5.125,6.561-8.098,11.912-6.637c6.691,1.824,10.284,9.521,8.751,15.929c-1.916,8.009-16.383,13.472-24.748,11.189
						l-1.011,2.105c10.268,2.729,25.876-2.86,28.35-12.877c1.978-8.014-3.08-16.278-11.295-18.461
						c-6.57-1.746-13.181,2.035-14.761,8.445c-1.267,5.129,1.97,10.418,7.228,11.813c4.205,1.117,8.436-1.303,9.446-5.404
						c0.81-3.282-1.262-6.668-4.626-7.562c-2.691-0.715-5.398,0.834-6.046,3.459c-0.521,2.103,0.808,4.269,2.96,4.841
						c1.725,0.459,3.454-0.533,3.87-2.214c0.332-1.344-0.517-2.729-1.896-3.096"/>
					<path fill="#010101" d="M98.176,118.315c0.826,0.817,2.146,0.867,2.949,0.104c1.002-0.948,0.979-2.551-0.057-3.573
						c-1.292-1.279-3.354-1.354-4.607-0.169c-1.565,1.484-1.527,3.986,0.086,5.587c2.019,2,4.824,1.604,6.783-0.252
						c1.529-1.449,2.004-3.244,1.795-4.844c-0.127-0.959-0.27-1.716-1.215-2.652c-3.152-3.125-8.188-3.309-11.25-0.408
						c-3.824,3.625-3.729,9.729,0.211,13.638c4.926,4.883,13.387,4.146,18.168-0.388c5.979-5.664,3.478-20.922-2.683-27.026
						l1.317-1.929c7.496,7.524,10.461,23.84,3.021,30.988c-5.951,5.719-15.638,5.472-21.634-0.552
						c-4.798-4.817-4.828-12.433-0.065-17.007c3.809-3.66,10.006-3.503,13.844,0.354c3.07,3.082,3.093,7.955,0.043,10.883
						c-2.438,2.343-6.403,2.242-8.858-0.226c-1.967-1.974-1.979-5.093-0.026-6.967c1.561-1.499,4.099-1.435,5.67,0.146
						c1.26,1.265,1.267,3.261,0.02,4.459c-0.999,0.959-2.624,0.918-3.63-0.092"/>
					
						<rect x="103.537" y="93.573" transform="matrix(0.5 -0.866 0.866 0.5 -28.9259 141.0139)" fill="#010101" stroke="#010101" stroke-miterlimit="10" width="8.253" height="3.972"/>
				</g>
			</g>
			<g>
				<g>
					<path fill="#010101" stroke="#010101" stroke-miterlimit="10" d="M34.326,94.041c0,0-3.682-2.076-4.274-2.353
						c-3.471-1.612-15.671-6.979-19.465-4.586c-5.643,3.562-5.383,26.149-5.383,26.149s19.193,10.837,24.968,7.771
						c3.968-2.104,5.565-15.438,5.925-19.016c0.057-0.56,0.238-4.49,0.238-4.49l-1.04-2.17c0,0-0.269,4.17-0.483,5.094
						c-0.912,3.947-3.648,14.516-7.133,16.265c-4.643,2.329-20.167-4.998-20.167-4.998s0.92-17.756,5.479-20.442
						c3.766-2.222,14.441,1.209,18.142,2.508c0.806,0.283,4.623,2.373,4.623,2.373L34.326,94.041z"/>
					<path fill="#010101" d="M37.009,78.535c0.143-1.847,0.61-3.197,1.216-4.252c2.104-3.657,13.253-3.935,14.972-7.788
						c0.736-1.653-2.305-5.019-3.684-6.194c-0.547-0.466-2.056-1.159-2.056-1.159s1.966,3.599,1.442,4.715
						c-1.539,3.271-10.558,4.399-12.336,7.549c-0.762,1.349-1.215,3.51-1.282,6.208c-0.079,3.109,0.693,8.354,1.419,11.9
						c0.377,1.842-1.328,2.969-1.328,2.969l1.505,2.01c0,0,1.649-3.485,1.387-5.117C37.713,85.928,36.875,80.282,37.009,78.535z"/>
					<path fill="#010101" d="M50.796,102.276c1.671,0.801,3.074,1.07,4.291,1.072c4.22,0.008,10.034-9.511,14.23-9.07
						c1.801,0.188,3.195,4.505,3.523,6.285c0.129,0.707-0.023,2.36-0.023,2.36s-2.134-3.502-3.363-3.604
						c-3.603-0.305-9.09,6.941-12.706,6.908c-1.548-0.017-3.647-0.703-6.017-1.994c-2.734-1.486-6.888-4.776-9.598-7.181
						c-1.406-1.245-3.335,0.046-3.335,0.046L36.81,94.79c0,0,3.944-0.062,5.226,0.979C44.746,97.972,49.216,101.521,50.796,102.276z
						"/>
					<path fill="#010101" stroke="#010101" stroke-miterlimit="10" d="M34.64,92.739c0,0,0.611-3.215,0.691-3.766
						c0.386-2.662,1.712-10.593,4.014-12.291c5.815-4.295,28.921-0.158,28.921-0.158s-7.756,22.354-14.417,25.283
						c-2.669,1.174-10.415-1.812-12.803-2.785c-0.45-0.185-3.775-1.726-3.775-1.726l-1.04-2.172c0,0,3.78,1.678,4.878,2.01
						c2.923,0.888,8.568,2.39,10.686,1.485c5.912-2.521,14.539-21.194,14.539-21.194s-20.401-1.646-25.486,2.233
						c-1.804,1.376-3.281,6.863-3.979,9.896c-0.281,1.219-1.007,4.93-1.007,4.93L34.64,92.739z"/>
					<path fill="#010101" d="M35.959,93.358c0,0,0.814-8.565,6.308-11.522c5.493-2.956,13.133,0.3,13.133,0.3
						s-3.257,2.479-9.335,4.518C39.985,88.69,35.959,93.358,35.959,93.358z"/>
					<path fill="#010101" d="M37.559,96.131c0,0,7.826,3.578,13.133,0.3C55.999,93.151,57,84.906,57,84.906
						s-3.775,1.581-8.581,5.825C43.615,94.979,37.559,96.131,37.559,96.131z"/>
					<path fill="#010101" d="M45.3,118.176c-0.826,0.82-2.146,0.867-2.948,0.107c-1.003-0.951-0.979-2.552,0.055-3.576
						c1.291-1.279,3.354-1.354,4.608-0.166c1.566,1.483,1.528,3.985-0.086,5.585c-2.018,2.001-4.825,1.604-6.783-0.252
						c-1.53-1.45-2.003-3.245-1.794-4.843c0.125-0.959,0.268-1.716,1.214-2.652c3.152-3.125,8.188-3.308,11.25-0.407
						c3.825,3.625,3.731,9.729-0.21,13.637c-4.925,4.884-13.387,4.146-18.169-0.387c-5.978-5.664-3.476-20.924,2.683-27.027
						l-1.32-1.93c-7.496,7.528-10.46,23.84-3.021,30.988c5.951,5.721,15.636,5.473,21.633-0.55
						c4.797-4.818,4.828-12.433,0.066-17.007c-3.808-3.66-10.007-3.504-13.844,0.352c-3.071,3.083-3.09,7.956-0.044,10.885
						c2.438,2.344,6.405,2.241,8.861-0.226c1.965-1.974,1.978-5.092,0.028-6.966c-1.561-1.5-4.1-1.436-5.672,0.144
						c-1.258,1.265-1.265,3.259-0.018,4.459c0.998,0.959,2.623,0.918,3.629-0.094"/>
					<path fill="#010101" d="M20.733,75.625c-1.123,0.306-1.824,1.426-1.566,2.5c0.322,1.344,1.72,2.123,3.124,1.74
						c1.753-0.479,2.851-2.229,2.449-3.908c-0.502-2.099-2.688-3.315-4.88-2.717c-2.742,0.745-3.801,3.376-3.173,6
						c0.49,2.05,1.808,3.356,3.296,3.975c0.893,0.371,1.619,0.626,2.904,0.275c4.283-1.168,6.959-5.438,5.979-9.538
						c-1.227-5.125-6.561-8.097-11.914-6.638c-6.692,1.824-10.284,9.522-8.751,15.929c1.917,8.009,16.382,13.472,24.748,11.191
						l1.012,2.104c-10.268,2.729-25.878-2.858-28.35-12.877c-1.976-8.015,3.081-16.277,11.294-18.46
						c6.571-1.746,13.181,2.036,14.762,8.445c1.265,5.127-1.97,10.416-7.227,11.812c-4.206,1.118-8.436-1.301-9.447-5.404
						c-0.81-3.281,1.261-6.668,4.626-7.561c2.691-0.716,5.398,0.832,6.046,3.459c0.518,2.102-0.808,4.266-2.961,4.838
						c-1.723,0.459-3.455-0.533-3.87-2.213c-0.333-1.346,0.517-2.73,1.895-3.098"/>
					
						<rect x="31.577" y="93.238" transform="matrix(0.5 0.866 -0.866 0.5 100.3199 16.6923)" fill="#010101" stroke="#010101" stroke-miterlimit="10" width="8.254" height="3.97"/>
				</g>
				<g>
					<path fill="#010101" stroke="#010101" stroke-miterlimit="10" d="M109.232,55.187c0,0,3.683,2.077,4.272,2.352
						c3.474,1.614,15.672,6.981,19.468,4.586c5.644-3.563,5.383-26.15,5.383-26.15s-19.192-10.837-24.97-7.772
						c-3.967,2.106-5.562,15.44-5.924,19.016c-0.058,0.56-0.237,4.49-0.237,4.49l1.039,2.171c0,0,0.271-4.172,0.483-5.095
						c0.91-3.947,3.646-14.514,7.133-16.263c4.644-2.33,20.166,4.999,20.166,4.999s-0.92,17.755-5.479,20.442
						c-3.767,2.221-14.44-1.209-18.144-2.506c-0.805-0.283-4.623-2.375-4.623-2.375L109.232,55.187z"/>
					<path fill="#010101" d="M106.547,70.692c-0.144,1.847-0.608,3.198-1.217,4.252c-2.104,3.656-13.252,3.936-14.972,7.787
						c-0.735,1.653,2.306,5.021,3.685,6.192c0.547,0.468,2.057,1.16,2.057,1.16s-1.967-3.601-1.441-4.715
						c1.539-3.271,10.559-4.4,12.336-7.55c0.762-1.35,1.215-3.51,1.281-6.208c0.079-3.111-0.691-8.354-1.419-11.901
						c-0.377-1.841,1.328-2.968,1.328-2.968l-1.506-2.009c0,0-1.647,3.485-1.388,5.117
						C105.844,63.301,106.683,68.947,106.547,70.692z"/>
					<path fill="#010101" d="M92.76,46.952c-1.67-0.801-3.073-1.071-4.291-1.073c-4.219-0.007-10.032,9.51-14.229,9.071
						c-1.801-0.188-3.195-4.505-3.524-6.287c-0.13-0.707,0.023-2.36,0.023-2.36s2.133,3.502,3.362,3.606
						c3.604,0.304,9.09-6.943,12.706-6.908c1.55,0.015,3.646,0.703,6.019,1.994c2.733,1.487,6.889,4.777,9.598,7.18
						c1.406,1.246,3.336-0.045,3.336-0.045l0.988,2.308c0,0-3.943,0.064-5.229-0.979C98.812,51.256,94.342,47.708,92.76,46.952z"/>
					<path fill="#010101" stroke="#010101" stroke-miterlimit="10" d="M108.917,56.489c0,0-0.609,3.215-0.689,3.764
						c-0.389,2.663-1.713,10.592-4.016,12.292c-5.814,4.294-28.92,0.16-28.92,0.16S83.045,50.35,89.708,47.42
						c2.668-1.174,10.414,1.809,12.801,2.784c0.451,0.184,3.775,1.726,3.775,1.726l1.041,2.171c0,0-3.779-1.677-4.879-2.01
						c-2.924-0.887-8.568-2.388-10.686-1.485C85.848,53.126,77.221,71.8,77.221,71.8s20.4,1.646,25.484-2.233
						c1.805-1.377,3.282-6.864,3.979-9.896c0.278-1.218,1.007-4.93,1.007-4.93L108.917,56.489z"/>
					<path fill="#010101" d="M107.599,55.869c0,0-0.813,8.567-6.31,11.524c-5.492,2.955-13.133-0.3-13.133-0.3
						s3.258-2.479,9.336-4.517C103.573,60.537,107.599,55.869,107.599,55.869z"/>
					<path fill="#010101" d="M106,53.098c0,0-7.828-3.578-13.133-0.298c-5.311,3.278-6.311,11.522-6.311,11.522
						s3.773-1.582,8.58-5.826C99.943,54.25,106,53.098,106,53.098z"/>
					<path fill="#010101" d="M98.256,31.053c0.826-0.82,2.146-0.867,2.949-0.107c1.002,0.95,0.979,2.551-0.057,3.575
						c-1.291,1.28-3.354,1.356-4.607,0.167c-1.565-1.484-1.527-3.985,0.086-5.585c2.019-2,4.826-1.604,6.783,0.252
						c1.53,1.45,2.004,3.245,1.795,4.842c-0.125,0.959-0.269,1.716-1.215,2.652c-3.152,3.125-8.189,3.308-11.25,0.409
						c-3.824-3.625-3.73-9.73,0.211-13.636c4.926-4.885,13.387-4.146,18.17,0.385c5.978,5.664,3.476,20.923-2.685,27.028
						l1.317,1.929c7.496-7.528,10.461-23.84,3.021-30.989c-5.951-5.719-15.637-5.472-21.634,0.551
						c-4.798,4.817-4.828,12.432-0.065,17.006c3.809,3.661,10.006,3.503,13.844-0.352c3.07-3.083,3.092-7.956,0.043-10.884
						c-2.438-2.342-6.403-2.241-8.86,0.225c-1.965,1.974-1.978,5.092-0.024,6.966c1.56,1.5,4.098,1.434,5.67-0.144
						c1.258-1.264,1.267-3.258,0.019-4.458c-0.998-0.959-2.623-0.918-3.628,0.093"/>
					<path fill="#010101" d="M122.825,73.604c1.123-0.307,1.823-1.428,1.565-2.5c-0.32-1.344-1.72-2.123-3.122-1.74
						c-1.754,0.479-2.852,2.227-2.449,3.908c0.502,2.099,2.688,3.313,4.881,2.718c2.74-0.747,3.801-3.378,3.172-6.001
						c-0.488-2.051-1.808-3.357-3.295-3.975c-0.895-0.371-1.621-0.627-2.904-0.275c-4.283,1.168-6.959,5.438-5.979,9.537
						c1.229,5.125,6.562,8.098,11.915,6.639c6.69-1.825,10.282-9.523,8.75-15.93c-1.916-8.008-16.382-13.471-24.748-11.19
						l-1.012-2.106c10.269-2.729,25.877,2.861,28.351,12.876c1.977,8.014-3.08,16.278-11.295,18.461
						c-6.57,1.746-13.181-2.036-14.762-8.446c-1.268-5.128,1.971-10.417,7.229-11.813c4.205-1.118,8.437,1.301,9.446,5.404
						c0.812,3.281-1.262,6.667-4.626,7.561c-2.689,0.719-5.398-0.832-6.047-3.459c-0.52-2.101,0.809-4.267,2.961-4.836
						c1.725-0.459,3.455,0.533,3.87,2.213c0.331,1.344-0.519,2.73-1.896,3.097"/>
					
						<rect x="103.726" y="52.017" transform="matrix(-0.4999 -0.8661 0.8661 -0.4999 115.0003 174.4088)" fill="#010101" stroke="#010101" stroke-miterlimit="10" width="8.255" height="3.972"/>
				</g>
			</g>
		</g>
	</g>
	<text transform="matrix(1 0 0 1 46.3247 70.8984)" fill="#FFFFFF" font-family="'MyriadPro-BoldCond'" font-size="11">C</text>
	<text transform="matrix(1 0 0 1 50.7358 70.8984)" fill="#FFFFFF" font-family="'MyriadPro-BoldCond'" font-size="11">huc</text>
	<text transform="matrix(1 0 0 1 64.2988 70.8984)" fill="#FFFFFF" font-family="'MyriadPro-BoldCond'" font-size="11">k</text>
	<text transform="matrix(1 0 0 1 68.7979 70.8984)" fill="#FFFFFF" font-family="'MyriadPro-BoldCond'" font-size="11">w</text>
	<text transform="matrix(1 0 0 1 75.4634 70.8984)" fill="#FFFFFF" font-family="'MyriadPro-BoldCond'" font-size="11">agon</text>
	<text transform="matrix(1 0 0 1 62.2148 84.0986)" fill="#FFFFFF" font-family="'MyriadPro-BoldCond'" font-size="11">C</text>
	<text transform="matrix(1 0 0 1 66.6025 84.0986)" fill="#FFFFFF" font-family="'MyriadPro-BoldCond'" font-size="11">a</text>
	<text transform="matrix(1 0 0 1 71.2446 84.0986)" fill="#FFFFFF" font-family="'MyriadPro-BoldCond'" font-size="11">f</text>
	<text transform="matrix(1 0 0 1 74.3032 84.0986)" fill="#FFFFFF" font-family="'MyriadPro-BoldCond'" font-size="11">e</text>
</g>
</svg>
