<?xml version="1.0" encoding="utf-8"?>
<!-- Generator: Adobe Illustrator 16.0.0, SVG Export Plug-In . SVG Version: 6.00 Build 0)  -->
<!DOCTYPE svg PUBLIC "-//W3C//DTD SVG 1.1//EN" "http://www.w3.org/Graphics/SVG/1.1/DTD/svg11.dtd">
<svg version="1.1" id="Layer_2" xmlns="http://www.w3.org/2000/svg" xmlns:xlink="http://www.w3.org/1999/xlink" x="0px" y="0px"
	 width="700.889px" height="661.381px" viewBox="-335.102 -518.379 700.889 661.381"
	 enable-background="new -335.102 -518.379 700.889 661.381" xml:space="preserve">
<g opacity="0.2">
	<g>
		<g>
			<g>
				<path fill="#010101" stroke="#010101" stroke-miterlimit="10" d="M22.989-356.896c0,0,17.479-9.579,20.047-11.246
					c15.063-9.807,66.721-44.915,65.871-64.888c-1.26-29.708-95.905-79.017-95.905-79.017s-91.236,49.911-92.362,79.017
					c-0.766,20,50.903,55.865,64.92,65.208c2.186,1.471,18.111,10.926,18.111,10.926l11.535,0.829c0,0-16.717-10.333-20.04-13.215
					c-14.24-12.312-51.65-46.4-50.552-63.743c1.463-23.103,69.27-66.67,69.27-66.67s71.686,43.094,71.918,66.67
					c0.194,19.473-39.734,53.022-54.032,64.405c-3.11,2.478-20.986,12.549-20.986,12.549L22.989-356.896z"/>
				<path fill="#010101" d="M81.076-312.008c7.343,4.662,11.848,9.474,14.773,14.158c10.175,16.268-15.467,59.898-3.566,75.109
					c5.115,6.527,26.436,2.289,34.641-0.413c3.255-1.066,9.765-5.351,9.765-5.351s-19.702-0.422-23.095-4.938
					c-9.918-13.224,7.067-50.534-1.767-64.407c-3.793-5.943-11.687-12.508-22.764-18.772c-12.758-7.237-36.446-15.938-52.952-21.036
					c-8.568-2.648-9.154-11.729-9.154-11.729l-11.984,1.329c0,0,10.55,14.12,17.961,16.748
					C48.616-325.754,74.131-316.417,81.076-312.008z"/>
				<path fill="#010101" d="M-50.884-311.705c-7.35,4.661-11.847,9.473-14.779,14.166c-10.171,16.26,15.479,59.889,3.567,75.1
					c-5.105,6.53-26.436,2.29-34.638-0.404c-3.245-1.075-9.766-5.351-9.766-5.351s19.714-0.431,23.093-4.936
					c9.919-13.225-7.055-50.537,1.77-64.41c3.788-5.943,11.7-12.508,22.764-18.772c12.764-7.234,36.443-15.937,52.959-21.035
					c8.563-2.646,7.824-12.971,7.824-12.971l11.984,1.329c0,0-9.221,15.356-16.64,17.982
					C-18.423-325.458-43.934-316.114-50.884-311.705z"/>
				<path fill="#010101" stroke="#010101" stroke-miterlimit="10" d="M27.644-352.786c0,0,11.916,9.517,14.008,11.052
					c10.151,7.414,39.977,30.199,41.516,42.858c3.89,32.006-68.841,111.938-68.841,111.938s-74.411-79.713-70.596-111.938
					c1.533-12.912,32.554-36.151,42.35-43.19c1.85-1.328,16.264-10.72,16.264-10.72l11.525,0.828c0,0-16.059,10.844-20.081,14.336
					c-10.714,9.31-30.532,27.741-31.872,37.922c-3.719,28.426,53.289,103.302,53.289,103.302s55.882-75.04,51.95-103.302
					c-1.396-10.029-20.682-27.946-31.628-37.393c-4.396-3.797-18.094-14.866-18.094-14.866L27.644-352.786z"/>
				<path fill="#010101" d="M21.896-349.077c0,0,33.695,22.216,32.803,49.994c-0.905,27.778-32.803,50.007-32.803,50.007
					s-2.49-18.093,3.626-46.081C31.645-323.146,21.896-349.077,21.896-349.077z"/>
				<path fill="#010101" d="M6.525-349.077c0,0-33.71,22.216-32.81,49.994c0.894,27.778,32.81,50.007,32.81,50.007
					s2.488-18.093-3.63-46.081C-3.242-323.15,6.525-349.077,6.525-349.077z"/>
				<path fill="#010101" d="M-103.847-368.313c-1.433-5.01,1.543-10.219,6.636-11.615c6.364-1.753,12.971,1.912,14.756,8.176
					c2.215,7.83-2.421,15.965-10.387,18.154c-9.938,2.738-20.264-2.981-23.042-12.776c-3.475-12.237,4.921-22.182,17.349-25.603
					c9.715-2.675,18.324-0.5,24.481,3.861c3.691,2.622,6.492,4.859,8.12,10.596c5.434,19.123-5.907,38.962-25.329,44.313
					c-24.284,6.677-49.481-7.277-56.263-31.189c-8.495-29.879,14.918-60.88,45.276-69.235
					c37.931-10.439,95.443,33.197,106.053,70.546l11.2-0.793c-13.325-45.687-74.093-93.455-121.726-80.675
					c-38.109,10.223-60.357,48.13-49.7,84.68c8.524,29.241,40.142,46.316,70.623,38.133c24.392-6.535,38.631-30.801,31.812-54.19
					c-5.454-18.717-25.689-29.643-45.196-24.407c-15.613,4.182-24.728,19.716-20.359,34.687
					c3.487,11.975,16.436,18.97,28.925,15.619c9.996-2.686,15.825-12.623,13.038-22.203c-2.237-7.666-10.529-12.149-18.518-10.001
					c-6.393,1.713-10.123,8.071-8.333,14.203"/>
				<path fill="#010101" d="M132.309-368.313c1.424-5.01-1.55-10.219-6.645-11.615c-6.365-1.753-12.972,1.912-14.753,8.176
					c-2.219,7.83,2.421,15.965,10.384,18.154c9.938,2.738,20.254-2.981,23.045-12.776c3.472-12.237-4.931-22.182-17.359-25.603
					c-9.705-2.675-18.316-0.5-24.474,3.861c-3.69,2.622-6.504,4.859-8.132,10.596c-5.434,19.123,5.919,38.962,25.341,44.313
					c24.273,6.677,49.469-7.277,56.261-31.189c8.485-29.879-14.928-60.88-45.276-69.235
					c-37.938-10.439-95.443,33.197-106.054,70.546l-11.198-0.793c13.324-45.687,74.088-93.455,121.728-80.675
					c38.107,10.223,60.358,48.13,49.702,84.68c-8.523,29.241-40.151,46.316-70.635,38.133c-24.382-6.535-38.631-30.801-31.812-54.19
					c5.455-18.717,25.69-29.643,45.208-24.407c15.602,4.182,24.717,19.716,20.353,34.687c-3.487,11.975-16.438,18.97-28.925,15.619
					c-9.996-2.686-15.819-12.623-13.028-22.203c2.228-7.666,10.521-12.149,18.511-10.001c6.395,1.713,10.123,8.071,8.341,14.203"/>
				<rect x="-5.061" y="-363.073" fill="#010101" stroke="#010101" stroke-miterlimit="10" width="39.68" height="17.698"/>
			</g>
			<g>
				<path fill="#010101" stroke="#010101" stroke-miterlimit="10" d="M6.122-16.937c0,0-17.447,9.656-20.002,11.343
					C-28.893,4.27-80.377,39.592-79.431,59.56c1.405,29.699,96.283,78.624,96.283,78.624s90.997-50.293,91.976-79.4
					C109.506,38.78,57.663,3.138,43.597-6.163C41.399-7.618,25.44-17.008,25.44-17.008L13.903-17.78
					c0,0,16.763,10.262,20.096,13.125C48.295,7.591,85.871,41.536,84.864,58.882c-1.352,23.097-68.94,66.953-68.94,66.953
					s-71.905-42.804-72.241-66.37C-56.611,39.992-16.835,6.28-2.605-5.17c3.11-2.488,20.941-12.632,20.941-12.632L6.122-16.937z"/>
				<path fill="#010101" d="M-52.177-61.583c-7.372-4.632-11.893-9.427-14.85-14.1c-10.247-16.223,15.187-59.954,3.204-75.123
					c-5.153-6.509-26.455-2.182-34.637,0.557c-3.245,1.086-9.735,5.387-9.735,5.387s19.703,0.35,23.11,4.843
					c9.989,13.189-6.81,50.573,2.094,64.408c3.807,5.925,11.738,12.452,22.839,18.683C-47.348-49.75-23.635-41.155-7.1-36.122
					C1.481-33.51,2.12-24.424,2.12-24.424l11.982-1.382c0,0-10.619-14.073-18.058-16.672
					C-19.664-47.973-45.214-57.194-52.177-61.583z"/>
				<path fill="#010101" d="M79.768-62.432c7.324-4.691,11.809-9.521,14.714-14.23c10.093-16.308-15.77-59.833-3.934-75.096
					c5.087-6.544,26.428-2.393,34.641,0.273c3.254,1.056,9.804,5.306,9.804,5.306s-19.713,0.517-23.074,5.037
					c-9.861,13.265,7.3,50.509-1.463,64.42c-3.758,5.952-11.644,12.547-22.677,18.867c-12.723,7.29-36.354,16.079-52.846,21.251
					c-8.548,2.684-7.754,13-7.754,13l-11.992-1.274c0,0,9.144-15.398,16.554-18.055C47.376-48.547,72.842-57.996,79.768-62.432z"/>
				<path fill="#010101" stroke="#010101" stroke-miterlimit="10" d="M1.446-21.026c0,0-11.962-9.463-14.065-10.989
					c-10.193-7.376-40.125-30.031-41.72-42.69c-4.047-31.997,68.302-112.233,68.302-112.233s74.795,79.414,71.133,111.649
					c-1.473,12.924-32.378,36.293-42.147,43.377C41.114-30.573,26.752-21.12,26.752-21.12l-11.536-0.781
					c0,0,16.012-10.917,20.003-14.427c10.674-9.346,30.396-27.867,31.685-38.058c3.588-28.438-53.774-103.066-53.774-103.066
					S-42.398-102.19-38.325-73.951c1.443,10.033,20.813,27.863,31.811,37.263c4.408,3.78,18.172,14.8,18.172,14.8L1.446-21.026z"/>
				<path fill="#010101" d="M7.178-24.751c0,0-33.804-22.09-33.051-49.877c0.765-27.777,32.567-50.133,32.567-50.133
					s2.576,18.078-3.415,46.093C-2.712-50.649,7.178-24.751,7.178-24.751z"/>
				<path fill="#010101" d="M22.554-24.81c0,0,33.588-22.364,32.563-50.142c-1.028-27.778-33.052-49.872-33.052-49.872
					s-2.398,18.104,3.855,46.061C32.187-50.788,22.554-24.81,22.554-24.81z"/>
				<path fill="#010101" d="M133.015-6.038c1.453,5.001-1.5,10.221-6.587,11.636c-6.353,1.777-12.98-1.85-14.79-8.116
					c-2.258-7.82,2.344-15.963,10.295-18.189c9.931-2.783,20.276,2.891,23.104,12.677c3.534,12.228-4.814,22.202-17.223,25.676
					c-9.707,2.72-18.318,0.584-24.498-3.761c-3.701-2.599-6.51-4.831-8.166-10.558c-5.531-19.105,5.725-38.987,25.118-44.414
					c24.255-6.788,49.508,7.065,56.414,30.947c8.632,29.843-14.626,60.941-44.945,69.426C93.852,69.894,36.129,26.49,25.357-10.823
					l-11.2,0.839c13.54,45.635,74.542,93.146,122.114,80.168c38.049-10.378,60.115-48.377,49.291-84.885
					c-8.661-29.206-40.37-46.155-70.81-37.851C90.394-45.908,76.266-21.586,83.208,1.782c5.551,18.692,25.834,29.538,45.323,24.227
					c15.586-4.26,24.624-19.818,20.187-34.781c-3.544-11.958-16.534-18.894-29.005-15.491c-9.988,2.72-15.761,12.686-12.918,22.256
					c2.267,7.658,10.577,12.093,18.561,9.92c6.383-1.746,10.081-8.12,8.262-14.243"/>
				<path fill="#010101" d="M-103.143-5.058c-1.402,5.013,1.598,10.212,6.707,11.585c6.362,1.724,12.958-1.957,14.704-8.232
					c2.188-7.847-2.499-15.954-10.471-18.104c-9.948-2.693-20.245,3.062-22.977,12.865c-3.417,12.255,5.03,22.167,17.473,25.533
					c9.726,2.64,18.324,0.432,24.451-3.959c3.679-2.639,6.48-4.878,8.079-10.625c5.338-19.15-6.1-38.941-25.55-44.207
					c-24.314-6.582-49.434,7.487-56.104,31.413c-8.353,29.928,15.215,60.825,45.603,69.044C-63.237,70.544-5.94,26.669,4.491-10.729
					l11.2,0.745C2.591,35.759-57.95,83.776-105.657,71.204c-38.144-10.065-60.58-47.888-50.102-84.473
					c8.376-29.277,39.92-46.488,70.451-38.435c24.413,6.433,38.763,30.642,32.065,54.07c-5.366,18.732-25.544,29.753-45.084,24.6
					c-15.623-4.122-24.818-19.617-20.528-34.61c3.429-11.985,16.353-19.042,28.856-15.738c9.997,2.64,15.874,12.551,13.133,22.148
					c-2.197,7.676-10.47,12.179-18.466,10.069c-6.412-1.683-10.17-8.035-8.406-14.167"/>
				<polygon fill="#010101" stroke="#010101" stroke-miterlimit="10" points="-5.558,-28.393 34.125,-28.554 34.211,-10.867 
					-5.473,-10.706 				"/>
			</g>
		</g>
		<g>
			<g>
				<path fill="#010101" stroke="#010101" stroke-miterlimit="10" d="M-57.359-343.453c0,0,11.272-15.658,12.806-18.195
					c8.983-14.889,39.104-67.292,28.992-84.942c-15.036-26.267-123.39-32.65-123.39-32.65s-58.861,81.641-46.254,108.321
					c8.665,18.325,72.004,29.877,89.007,32.667c2.664,0.44,21.434,2.562,21.434,2.562l10.784-3.89c0,0-19.904-2.588-24.249-3.856
					c-18.588-5.365-68.25-21.049-75.377-37.115c-9.486-21.401,31.228-87.916,31.228-87.916s84.758,10.022,96.003,31.167
					c9.285,17.471-11.002,63.745-18.555,79.75c-1.642,3.486-13.043,19.749-13.043,19.749L-57.359-343.453z"/>
				<path fill="#010101" d="M15.992-326.355c8.79,1.246,15.101,3.771,19.925,6.821c16.783,10.569,14.099,60.199,31.938,69.111
					c7.662,3.825,24.885-8.562,31.016-14.29c2.432-2.272,6.303-8.753,6.303-8.753s-17.95,7.543-23.123,4.841
					c-15.125-7.93-17.276-48.38-31.729-57.326c-6.189-3.834-16.384-6.572-29.292-7.764c-14.881-1.392-40.294,0.285-57.554,2.328
					c-8.967,1.057-13.748-6.896-13.748-6.896l-10.176,6.015c0,0,16.119,8.486,24.033,7.876
					C-19.697-325.693,7.67-327.532,15.992-326.355z"/>
				<path fill="#010101" d="M-102.78-273.033c-4.444,7.148-6.244,13.299-6.696,18.698c-1.552,18.738,41.975,47.747,38.352,66.239
					c-1.544,7.941-22.749,12.686-31.399,13.556c-3.427,0.336-11.302-0.897-11.302-0.897s17.562-8.31,18.494-13.725
					c2.753-15.899-30-42.707-28.537-58.751c0.63-6.875,4.691-15.975,11.726-26.063c8.117-11.651,25.377-29.01,37.88-40.239
					c6.478-5.83,0.983-14.834,0.983-14.834l11.417-3.627c0,0-1.127,17.55-6.583,22.892
					C-79.965-298.481-98.583-279.805-102.78-273.033z"/>
				<path fill="#010101" stroke="#010101" stroke-miterlimit="10" d="M-51.24-341.62c0,0,15.186,3.782,17.795,4.33
					c12.617,2.602,50.153,11.141,57.462,21.931c18.487,27.277-9.65,128.527-9.65,128.527s-104.355-41.918-115.996-72.49
					c-4.657-12.246,12.425-45.664,17.954-55.942c1.045-1.938,9.636-16.193,9.636-16.193l10.771-3.89c0,0-9.396,16.232-11.382,20.991
					c-5.296,12.695-14.53,37.265-10.976,46.981c9.949,27.102,96.352,71.662,96.352,71.662s15.242-90.075-1.527-113.957
					c-5.949-8.476-31.712-16.87-45.991-20.979c-5.739-1.659-23.264-6.123-23.264-6.123L-51.24-341.62z"/>
				<path fill="#010101" d="M-54.686-335.97c0,0,40.762,6.479,52.958,31.874c12.185,25.387-6.167,58.239-6.167,58.239
					s-10.705-15.299-18.291-42.979C-33.767-316.522-54.686-335.97-54.686-335.97z"/>
				<path fill="#010101" d="M-68.538-329.794c0,0-19.979,33.58-6.171,58.24c13.797,24.681,52.962,31.883,52.962,31.883
					s-6.219-17.309-24.837-40.069C-65.206-302.503-68.538-329.794-68.538-329.794z"/>
				<path fill="#010101" d="M-176.995-302.762c-3.63-3.939-3.393-9.831,0.545-13.142c4.917-4.127,12.578-3.483,17.116,1.444
					c5.669,6.161,5.287,15.354-0.859,20.534c-7.682,6.462-19.659,5.461-26.746-2.253c-8.858-9.625-5.947-21.958,3.65-30.038
					c7.504-6.32,16.276-7.82,23.866-6.368c4.552,0.878,8.122,1.771,12.275,6.285c13.842,15.045,12.905,37.48-2.094,50.112
					c-18.757,15.785-47.994,13.321-65.289-5.493c-21.633-23.504-15.041-60.848,8.403-80.585
					c29.291-24.651,101.531-8.448,128.566,20.948l9.721-5.211c-33.378-35.818-110.489-54.431-147.434-23.776
					c-29.554,24.528-31.87,67.632-5.164,96.283c21.367,22.918,57.839,25.603,81.487,5.979c18.917-15.693,20.394-43.283,3.308-61.613
					c-13.672-14.679-37.018-16.387-52.151-3.825c-12.111,10.04-13.058,27.695-2.117,39.44c8.75,9.391,23.687,10.484,33.374,2.449
					c7.751-6.435,8.361-17.738,1.358-25.244c-5.604-6.018-15.171-6.715-21.371-1.573c-4.96,4.114-5.342,11.342-0.857,16.145"/>
				<path fill="#010101" d="M35.8-397.687c-1.056-5.084-6.171-8.581-11.42-7.795c-6.554,0.979-10.794,6.937-9.465,13.304
					c1.667,7.947,9.639,13.404,17.863,12.181c10.224-1.531,16.845-10.826,14.772-20.777c-2.586-12.426-14.811-18.01-27.617-16.098
					c-10.001,1.488-16.741,6.908-20.243,13.312c-2.097,3.847-3.586,6.991-2.366,12.811c4.047,19.419,23.564,32.733,43.562,29.749
					c25.001-3.737,41.168-26.444,36.102-50.714c-6.334-30.334-41.934-48.857-73.19-44.193
					c-39.067,5.851-70.462,68.279-62.557,106.202l-10.459,3.789c-9.375-46.523,23.042-113.988,71.943-121.624
					c39.12-6.11,76.906,19.107,84.405,56.327c5.995,29.778-14.511,57.872-45.794,62.754c-25.029,3.912-49.226-12.226-54.025-36.047
					c-3.844-19.058,9.279-37.036,29.309-40.16c16.027-2.507,31.502,7.827,34.572,23.078c2.461,12.191-5.933,23.701-18.743,25.701
					c-10.268,1.605-20.161-5.017-22.129-14.769c-1.584-7.803,3.792-15.175,11.997-16.452c6.558-1.025,12.903,3.202,14.152,9.447"/>
				<polygon fill="#010101" stroke="#010101" stroke-miterlimit="10" points="-41.49,-337.747 -77.249,-321.799 -85.529,-337.747 
					-49.77,-353.693 				"/>
			</g>
			<g>
				<path fill="#010101" stroke="#010101" stroke-miterlimit="10" d="M86.51-30.349c0,0-11.208,15.71-12.718,18.265
					C64.871,2.829,35.006,55.358,45.207,72.964c15.158,26.197,123.544,32.141,123.544,32.141s58.468-81.887,45.731-108.507
					c-8.747-18.292-72.137-29.582-89.167-32.297c-2.663-0.432-21.437-2.478-21.437-2.478l-10.762,3.936
					c0,0,19.905,2.519,24.255,3.753c18.609,5.283,68.35,20.78,75.556,36.8c9.591,21.363-30.792,88.056-30.792,88.056
					S77.312,84.693,65.979,63.59C56.603,46.165,76.664-0.197,84.133-16.227c1.636-3.498,12.955-19.81,12.955-19.81L86.51-30.349z"/>
				<path fill="#010101" d="M13.087-47.143C4.277-48.359-2.045-50.855-6.896-53.89c-16.828-10.491-14.362-60.12-32.257-68.968
					c-7.687-3.793-24.859,8.668-30.954,14.423c-2.41,2.28-6.248,8.767-6.248,8.767s17.913-7.601,23.086-4.925
					c15.171,7.864,17.528,48.301,32.02,57.184c6.204,3.817,16.411,6.509,29.326,7.659c14.898,1.329,40.288-0.467,57.539-2.577
					c8.964-1.095,13.783,6.841,13.783,6.841l10.153-6.06c0,0-16.158-8.422-24.071-7.775C48.751-47.946,21.406-45.993,13.087-47.143z
					"/>
				<path fill="#010101" d="M131.582-100.947c4.399-7.178,6.181-13.319,6.598-18.738c1.472-18.745-42.205-47.564-38.68-66.077
					c1.522-7.948,22.692-12.782,31.343-13.685c3.424-0.347,11.313,0.846,11.313,0.846s-17.523,8.396-18.439,13.809
					c-2.682,15.923,30.204,42.587,28.823,58.64c-0.602,6.873-4.624,15.99-11.605,26.116c-8.059,11.689-25.238,29.098-37.687,40.392
					c-6.45,5.849-0.9,14.831-0.9,14.831l-11.4,3.673c0,0,1.027-17.552,6.462-22.921C108.887-75.401,127.417-94.165,131.582-100.947z
					"/>
				<path fill="#010101" stroke="#010101" stroke-miterlimit="10" d="M80.377-32.15c0,0-15.208-3.725-17.812-4.255
					C49.924-38.959,12.356-47.331,4.997-58.1c-18.623-27.212,9.03-128.579,9.03-128.579s104.556,41.494,116.343,72.009
					c4.719,12.237-12.203,45.707-17.687,56.018c-1.036,1.948-9.551,16.237-9.551,16.237l-10.762,3.932
					c0,0,9.317-16.269,11.275-21.044c5.251-12.713,14.356-37.331,10.753-47.026c-10.075-27.06-96.684-71.258-96.684-71.258
					S2.895-87.674,19.778-63.855c5.986,8.453,31.792,16.74,46.099,20.793c5.734,1.634,23.297,6.024,23.297,6.024L80.377-32.15z"/>
				<path fill="#010101" d="M83.799-37.819c0,0-40.792-6.311-53.114-31.656c-12.302-25.335,5.89-58.257,5.89-58.257
					s10.771,15.245,18.492,42.896C62.777-57.176,83.799-37.819,83.799-37.819z"/>
				<path fill="#010101" d="M97.621-44.054c0,0,19.809-33.645,5.895-58.267c-13.934-24.617-53.127-31.66-53.127-31.66
					s6.316,17.287,25.035,39.961C94.154-71.333,97.621-44.054,97.621-44.054z"/>
				<path fill="#010101" d="M205.947-71.531c3.653,3.928,3.431,9.817-0.483,13.134c-4.901,4.157-12.564,3.546-17.128-1.374
					c-5.695-6.131-5.355-15.324,0.768-20.523c7.642-6.5,19.625-5.549,26.744,2.137c8.911,9.597,6.054,21.942-3.497,30.058
					c-7.479,6.356-16.229,7.891-23.839,6.455c-4.553-0.858-8.128-1.733-12.302-6.231c-13.92-14.993-13.087-37.438,1.859-50.114
					c18.682-15.864,47.91-13.525,65.308,5.207c21.751,23.428,15.34,60.803-8.006,80.631
					c-29.182,24.783-101.503,8.875-128.664-20.412L97-27.306C130.565,8.372,207.758,26.656,244.559-4.143
					c29.428-24.653,31.524-67.765,4.683-96.306c-21.466-22.831-57.97-25.367-81.519-5.652
					c-18.841,15.787-20.182,43.376-2.998,61.642c13.741,14.617,37.096,16.229,52.177,3.61c12.051-10.1,12.913-27.759,1.919-39.449
					c-8.796-9.355-23.741-10.393-33.38-2.308c-7.731,6.46-8.273,17.763-1.23,25.241c5.618,5.994,15.188,6.645,21.358,1.482
					c4.94-4.139,5.289-11.366,0.786-16.151"/>
				<path fill="#010101" d="M-6.39,24.276c1.08,5.078,6.219,8.551,11.462,7.739c6.54-1.006,10.763-6.966,9.403-13.319
					C12.767,10.742,4.754,5.32-3.433,6.585C-13.66,8.156-20.247,17.484-18.12,27.41c2.654,12.417,14.906,17.956,27.696,15.985
					c9.999-1.526,16.712-6.98,20.17-13.395c2.083-3.852,3.56-7.002,2.315-12.821C27.906-2.222,8.341-15.456-11.652-12.385
					C-36.64-8.542-52.688,14.221-47.506,38.461c6.478,30.319,42.171,48.698,73.401,43.894c39.042-6.003,70.146-68.565,62.047-106.46
					l10.438-3.826c9.614,46.479-22.483,114.083-71.347,121.92c-39.085,6.262-76.996-18.804-84.668-55.98
					c-6.148-29.745,14.215-57.935,45.499-62.94c25.005-4.013,49.272,12.026,54.192,35.831c3.923,19.038-9.105,37.065-29.121,40.284
					C-3.067,53.756-18.6,43.48-21.751,28.25c-2.513-12.174,5.829-23.729,18.64-25.776c10.246-1.643,20.177,4.92,22.202,14.669
					c1.607,7.798-3.735,15.191-11.922,16.502C0.603,34.7-5.751,30.488-7.034,24.263"/>
				<polygon fill="#010101" stroke="#010101" stroke-miterlimit="10" points="70.614,-35.952 106.301,-52.049 114.651,-36.141 
					78.965,-20.048 				"/>
			</g>
		</g>
		<g>
			<g>
				<path fill="#010101" stroke="#010101" stroke-miterlimit="10" d="M-123.423-299.096c0,0,2.834-18.64,3.027-21.54
					c1.124-17.032,3.75-76.358-13.619-88.193c-25.834-17.623-126.46,20.171-126.46,20.171s-14.84,97.229,8.996,116.199
					c16.388,13.036,78.858-2.018,95.492-6.338c2.604-0.671,20.514-6.312,20.514-6.312l7.899-7.837c0,0-19.147,5.663-23.656,6.273
					c-19.263,2.631-71.342,8.469-85.285-3.151c-18.565-15.469-13-91.766-13-91.766s81.063-25.037,101.09-10.502
					c16.541,12.006,19.918,61.863,20.599,79.32c0.144,3.797-2.521,23.028-2.521,23.028L-123.423-299.096z"/>
				<path fill="#010101" d="M-49.331-313.167c8.512-2.413,15.379-2.675,21.157-1.867c20.062,2.78,40.859,48.579,61.107,49.443
					c8.698,0.366,18.423-17.72,21.262-25.356c1.133-3.017,1.578-10.407,1.578-10.407s-12.641,14.007-18.57,13.648
					c-17.339-1.066-38.212-36.649-55.415-38.901c-7.368-0.96-17.833,0.669-30.033,4.774c-14.056,4.731-36.17,16.457-50.761,25.228
					c-7.585,4.559-15.613-0.68-15.613-0.68l-6.354,9.505c0,0,18.495,1.167,25.338-2.56
					C-81.177-298.228-57.374-310.886-49.331-313.167z"/>
				<path fill="#010101" d="M-131.402-217.391c-0.659,8.232,0.596,14.488,2.722,19.545c7.362,17.511,60.162,26.148,65.553,44.27
					c2.32,7.766-14.562,20.582-21.948,24.833c-2.935,1.683-10.612,3.729-10.612,3.729s11.937-14.544,10.247-19.806
					c-4.965-15.433-47.017-26.422-53.207-41.466c-2.649-6.444-3.243-16.277-1.627-28.193c1.859-13.761,9.294-36.34,15.3-51.486
					c3.109-7.846-6.054-13.762-6.054-13.762l8.59-7.856c0,0,7.202,16.268,4.785,23.278
					C-122.747-249.485-130.787-225.172-131.402-217.391z"/>
				<path fill="#010101" stroke="#010101" stroke-miterlimit="10" d="M-117.048-299.907c0,0,15.455-2.693,18.063-3.25
					c12.58-2.729,50.404-10.116,62.037-3.331c29.422,17.145,51.442,119.693,51.442,119.693s-113.645,4.17-138.438-18.691
					c-9.924-9.165-10.167-46.138-9.994-57.63c0.031-2.163,1.105-18.467,1.105-18.467l7.888-7.829c0,0-0.874,18.396-0.438,23.484
					c1.167,13.566,4.349,39.422,12.096,46.748c21.64,20.424,120.351,25.847,120.351,25.847s-28.414-87.289-54.699-102.07
					c-9.324-5.254-36.468-2.458-51.258-0.421c-5.947,0.807-23.831,3.833-23.831,3.833L-117.048-299.907z"/>
				<path fill="#010101" d="M-117.509-293.424c0,0,39.759-10.549,62.625,7.425c22.863,17.989,21.698,54.962,21.698,54.962
					s-16.809-9.48-36.586-31.377C-89.563-284.313-117.509-293.424-117.509-293.424z"/>
				<path fill="#010101" d="M-127.101-282.292c0,0-2.294,38.282,21.693,54.963c23.975,16.681,62.635,7.434,62.635,7.434
					s-13.705-13.101-41.125-26.128C-111.332-259.042-127.101-282.292-127.101-282.292z"/>
				<path fill="#010101" d="M-212.19-214.348c-5.111-2.082-7.652-7.487-5.654-12.057c2.498-5.702,9.701-8.197,16.1-5.575
					c7.986,3.268,11.949,11.707,8.834,18.844c-3.899,8.911-15.167,12.812-25.151,8.717c-12.491-5.117-15.637-17.399-10.772-28.54
					c3.809-8.713,11.017-13.584,18.528-15.327c4.514-1.033,8.145-1.667,13.998,0.736c19.516,7.988,29.167,28.588,21.564,45.993
					c-9.524,21.752-37.015,31.3-61.401,21.299c-30.492-12.491-42.027-48.787-30.133-75.999
					c14.859-33.992,87.531-48.416,125.652-32.797l6.312-8.609c-46.833-18.855-125.026-4.634-143.966,37.84
					c-15.157,33.983,2.931,73.745,40.399,88.825c29.977,12.067,64.099-0.18,76.225-27.353c9.701-21.743-1.875-47.2-25.849-56.849
					c-19.19-7.742-41.026,0.105-48.783,17.509c-6.215,13.914,1.196,30.199,16.545,36.388c12.281,4.946,26.256-0.074,31.215-11.207
					c3.979-8.913-0.764-19.338-10.583-23.295c-7.865-3.163-16.814,0.045-19.988,7.18c-2.548,5.689,0.497,12.36,6.78,14.883"/>
				<path fill="#010101" d="M-64.85-385.408c-3.337-4.157-9.577-5.25-13.946-2.433c-5.444,3.521-6.476,10.592-2.3,15.795
					c5.216,6.49,14.963,8.196,21.787,3.802c8.505-5.49,10.123-16.534,3.606-24.662c-8.153-10.154-21.788-10.269-32.421-3.401
					c-8.319,5.365-11.854,12.953-12.012,20.133c-0.095,4.312,0.039,7.741,3.858,12.497c12.735,15.869,36.553,20.021,53.182,9.293
					c20.771-13.416,24.719-40.374,8.798-60.213c-19.904-24.785-60.646-27.171-86.63-10.403
					c-32.474,20.97-31.552,89.837-6.679,120.834l-7.657,7.622c-30.216-38.159-32.572-111.972,7.917-138.508
					c32.394-21.233,78.241-13.693,102.414,16.829c19.337,24.417,14.004,57.977-11.905,74.954
					c-20.725,13.585-50.075,8.765-65.545-10.767c-12.379-15.624-8.972-37.099,7.62-47.976c13.266-8.697,32.048-5.607,41.953,6.9
					c7.918,9.999,5.736,23.742-4.878,30.697c-8.496,5.571-20.506,3.58-26.839-4.413c-5.078-6.398-3.681-15.201,3.109-19.645
					c5.435-3.56,13.124-2.294,17.185,2.816"/>
				<polygon fill="#010101" stroke="#010101" stroke-miterlimit="10" points="-106.457,-300.342 -131.208,-271.597 
					-146.133,-282.635 -121.379,-311.381 				"/>
			</g>
			<g>
				<path fill="#010101" stroke="#010101" stroke-miterlimit="10" d="M152.719-74.791c0,0-2.752,18.661-2.917,21.565
					c-1.055,17.022-3.39,76.357,14.036,88.127c25.922,17.507,126.363-20.694,126.363-20.694s14.366-97.285-9.57-116.157
					c-16.438-12.972-78.84,2.344-95.452,6.725c-2.596,0.692-20.478,6.393-20.478,6.393l-7.847,7.873c0,0,19.112-5.729,23.606-6.365
					c19.247-2.72,71.314-8.763,85.302,2.792c18.636,15.397,13.453,91.718,13.453,91.718s-80.95,25.376-101.041,10.917
					c-16.603-11.945-20.216-61.777-20.99-79.229c-0.15-3.798,2.411-23.047,2.411-23.047L152.719-74.791z"/>
				<path fill="#010101" d="M78.693-60.417c-8.505,2.451-15.363,2.743-21.156,1.962c-20.071-2.694-41.071-48.4-61.338-49.182
					c-8.704-0.328-18.341,17.804-21.144,25.434c-1.109,3.021-1.533,10.415-1.533,10.415s12.583-14.05,18.501-13.723
					c17.349,0.997,38.391,36.486,55.604,38.668c7.371,0.942,17.833-0.728,30.009-4.884c14.045-4.794,36.082-16.619,50.643-25.453
					c7.564-4.579,15.624,0.628,15.624,0.628l6.307-9.543c0,0-18.493-1.092-25.331,2.675C110.456-75.468,86.734-62.725,78.693-60.417
					z"/>
				<path fill="#010101" d="M160.304-156.52c0.609-8.233-0.669-14.491-2.828-19.536c-7.45-17.482-60.28-25.904-65.764-43.992
					c-2.354-7.772,14.462-20.637,21.833-24.932c2.925-1.697,10.588-3.789,10.588-3.789s-11.86,14.61-10.142,19.859
					c5.027,15.417,47.136,26.224,53.402,41.244c2.674,6.438,3.322,16.268,1.763,28.205c-1.792,13.772-9.125,36.356-15.052,51.542
					c-3.071,7.865,6.121,13.723,6.121,13.723l-8.559,7.896c0,0-7.288-16.232-4.902-23.257
					C151.798-124.393,159.712-148.732,160.304-156.52z"/>
				<path fill="#010101" stroke="#010101" stroke-miterlimit="10" d="M146.346-73.951c0,0-15.441,2.761-18.037,3.336
					c-12.584,2.779-50.352,10.32-62.024,3.586C36.769-84.061,14.257-186.516,14.257-186.516s113.636-4.642,138.528,18.118
					c9.978,9.135,10.395,46.087,10.264,57.58c-0.01,2.177-1.007,18.481-1.007,18.481l-7.856,7.865c0,0,0.784-18.406,0.315-23.491
					c-1.221-13.557-4.534-39.404-12.317-46.694c-21.742-20.335-120.458-25.349-120.458-25.349s28.817,87.18,55.175,101.846
					c9.348,5.207,36.479,2.308,51.272,0.206c5.927-0.839,23.81-3.928,23.81-3.928L146.346-73.951z"/>
				<path fill="#010101" d="M146.78-80.424c0,0-39.705,10.711-62.672-7.177c-22.938-17.875-21.951-54.87-21.951-54.87
					s16.841,9.414,36.733,31.225C118.787-89.428,146.78-80.424,146.78-80.424z"/>
				<path fill="#010101" d="M156.323-91.601c0,0,2.103-38.282-21.96-54.878c-24.072-16.582-62.674-7.173-62.674-7.173
					s13.774,13.036,41.246,25.946C140.436-114.795,156.323-91.601,156.323-91.601z"/>
				<path fill="#010101" d="M241.08-159.896c5.115,2.065,7.674,7.461,5.692,12.022c-2.461,5.718-9.653,8.25-16.064,5.652
					c-8.002-3.241-12.004-11.663-8.917-18.8c3.841-8.933,15.092-12.893,25.103-8.834c12.51,5.073,15.722,17.346,10.917,28.496
					c-3.773,8.727-10.946,13.629-18.468,15.398c-4.5,1.06-8.142,1.705-13.992-0.669c-19.557-7.914-29.312-28.469-21.78-45.896
					c9.4-21.804,36.843-31.458,61.283-21.562c30.551,12.369,42.263,48.618,30.502,75.874
					c-14.694,34.053-87.306,48.794-125.49,33.325l-6.286,8.629c46.931,18.665,125.054,4.112,143.788-38.435
					c14.978-34.036-3.293-73.727-40.829-88.666c-30.019-11.95-64.098,0.452-76.088,27.679c-9.605,21.798,2.102,47.197,26.135,56.75
					c19.218,7.649,41.021-0.288,48.694-17.714c6.141-13.952-1.347-30.201-16.729-36.325c-12.296-4.893-26.25,0.189-31.162,11.339
					c-3.933,8.933,0.861,19.33,10.714,23.244c7.864,3.147,16.786-0.112,19.935-7.245c2.52-5.714-0.552-12.367-6.849-14.872"/>
				<path fill="#010101" d="M94.57,11.775c3.342,4.134,9.6,5.207,13.938,2.37c5.435-3.538,6.441-10.612,2.237-15.792
					c-5.259-6.473-15.015-8.138-21.804-3.712c-8.477,5.53-10.045,16.569-3.488,24.671c8.205,10.114,21.834,10.19,32.433,3.269
					c8.301-5.396,11.797-13.009,11.913-20.188c0.078-4.309-0.067-7.729-3.923-12.479c-12.814-15.805-36.635-19.868-53.219-9.068
					c-20.71,13.503-24.521,40.473-8.514,60.233c20.022,24.716,60.784,26.925,86.686,10.05c32.374-21.098,31.123-89.976,6.104-120.86
					l7.609-7.649c30.41,38.017,33.123,111.836-7.246,138.551C125.01,82.521,79.11,75.167,54.81,44.76
					C35.35,20.42,40.513-13.156,66.357-30.25c20.652-13.665,50.021-8.96,65.592,10.504c12.449,15.577,9.145,37.07-7.391,48.005
					c-13.213,8.74-32.015,5.737-41.981-6.724c-7.963-9.966-5.866-23.729,4.727-30.727c8.467-5.594,20.487-3.673,26.871,4.304
					c5.101,6.383,3.749,15.191-3.021,19.657c-5.425,3.591-13.117,2.356-17.195-2.748"/>
				<polygon fill="#010101" stroke="#010101" stroke-miterlimit="10" points="135.728,-73.47 160.347,-102.321 175.309,-91.354 
					150.689,-62.5 				"/>
			</g>
		</g>
		<g>
			<g>
				<path fill="#010101" stroke="#010101" stroke-miterlimit="10" d="M-162.291-232.563c0,0-6.169-17.929-7.35-20.631
					c-6.953-15.794-32.346-70.306-53.538-73.987c-31.522-5.495-104.515,68.995-104.515,68.995s32.119,93.573,62.481,101.091
					c20.861,5.163,70.116-33.515,83.079-44.092c2.029-1.65,15.528-13.932,15.528-13.932l3.453-10.238
					c0,0-14.608,12.801-18.385,15.155c-16.119,10.119-60.319,36.304-78.318,31.452c-23.965-6.482-54.655-77.475-54.655-77.475
					s61.325-55.14,86.173-50.094c20.528,4.175,46.894,47.747,55.677,63.196c1.913,3.364,8.51,21.771,8.51,21.771L-162.291-232.563z"
					/>
				<path fill="#010101" d="M-102.104-275.02c6.531-5.594,12.599-8.592,18.187-10.19c19.375-5.557,59.543,27.356,78.195,19.985
					c8.006-3.152,8.308-23.358,7.296-31.385c-0.388-3.176-3.441-10.012-3.441-10.012s-4.841,17.707-10.345,19.762
					c-16.126,6.006-51.581-17.662-68.142-12.775c-7.093,2.092-15.755,7.772-24.827,16.374
					c-10.449,9.903-24.893,29.369-33.939,43.141c-4.696,7.155-14.388,5.654-14.388,5.654l-1.273,11.124
					c0,0,17.208-6.386,21.632-12.5C-123.814-248.769-108.29-269.743-102.104-275.02z"/>
				<path fill="#010101" d="M-131.254-155.739c3.264,7.685,7.325,12.82,11.607,16.528c14.823,12.812,66.438-0.619,79.779,13.539
					c5.723,6.065-3.496,24.394-8.158,31.199c-1.86,2.692-7.812,7.626-7.812,7.626s3.954-17.901-0.035-21.956
					c-11.69-11.913-54.73-4.919-67.347-15.993c-5.4-4.737-10.539-13.355-14.656-24.753c-4.766-13.144-8.624-36.477-10.3-52.538
					c-0.874-8.325-11.893-9.965-11.893-9.965l4.062-10.531c0,0,14.106,11.763,15.202,19.044
					C-138.469-188.131-134.333-162.993-131.254-155.739z"/>
				<path fill="#010101" stroke="#010101" stroke-miterlimit="10" d="M-156.924-235.852c0,0,12.668-8.646,14.755-10.189
					c10.057-7.518,40.684-29.378,54.342-27.939c34.534,3.627,102.355,87.175,102.355,87.175s-100.452,49.444-133.491,38.809
					c-13.233-4.278-30.75-37.494-35.969-47.92c-0.985-1.966-7.648-17.084-7.648-17.084l3.444-10.219c0,0,7.819,16.926,10.597,21.334
					c7.396,11.764,22.365,33.779,32.768,37.254c29.061,9.714,120.544-25.073,120.544-25.073s-66.444-67.235-97.049-69.989
					c-10.856-0.979-34.007,12.442-46.387,20.215c-4.979,3.126-19.68,13.04-19.68,13.04L-156.924-235.852z"/>
				<path fill="#010101" d="M-154.311-229.825c0,0,30.893-25.488,59.903-18.483c29.023,7.019,45.271,40.805,45.271,40.805
					s-19.579-1.786-47.647-13.563C-124.861-232.848-154.311-229.825-154.311-229.825z"/>
				<path fill="#010101" d="M-157.748-215.947c0,0,15.853,35.416,45.267,40.802c29.411,5.409,59.912-18.476,59.912-18.476
					s-18.475-6.282-49.279-7C-132.647-201.329-157.748-215.947-157.748-215.947z"/>
				<path fill="#010101" d="M-202.616-120.519c-5.59,0.166-10.406-3.676-10.743-8.601c-0.417-6.131,4.909-11.285,11.897-11.492
					c8.73-0.264,16.243,5.746,16.785,13.432c0.648,9.597-7.674,17.641-18.589,17.964c-13.648,0.413-22.23-9.391-23.059-21.385
					c-0.644-9.374,3.572-16.664,9.53-21.261c3.583-2.747,6.555-4.775,12.953-4.964c21.326-0.638,39.658,14.046,40.951,32.782
					c1.599,23.433-18.703,43.085-45.36,43.867c-33.318,1.005-60.69-27.064-62.714-56.369c-2.514-36.603,56.222-78.811,97.874-80.056
					l1.667-10.295c-51.025,1.838-114.827,46.082-112.022,91.963c2.24,36.707,37.141,65.278,77.963,63.806
					c32.654-1.167,57.675-25.919,55.884-55.286c-1.433-23.496-23.771-41.773-49.894-40.831
					c-20.909,0.736-36.914,16.582-35.763,35.373c0.918,15.042,15.211,26.74,31.935,26.143c13.37-0.475,23.624-10.612,22.883-22.642
					c-0.589-9.633-9.74-17.121-20.437-16.735c-8.57,0.311-15.128,6.797-14.65,14.495c0.37,6.159,6.228,10.944,13.08,10.692"/>
				<path fill="#010101" d="M-149.896-333.879c-4.954-2.406-11.079-0.88-13.702,3.41c-3.259,5.359-0.884,12.139,5.312,15.156
					c7.741,3.75,17.312,1.374,21.41-5.333c5.093-8.368,1.385-18.962-8.292-23.672c-12.096-5.872-24.442-0.492-30.809,9.961
					c-4.986,8.176-4.618,16.436-1.404,22.971c1.935,3.917,3.654,6.96,9.328,9.706c18.906,9.184,42.307,3.351,52.265-13
					c12.45-20.432,3.392-46.317-20.241-57.788c-29.53-14.338-67.356-0.105-82.923,25.44c-19.451,31.953,13.598,93.64,50.519,111.566
					l-3.335,9.947c-45.077-22.238-81.739-87.815-57.674-127.989c19.259-32.149,64.097-43.784,100.16-25.996
					c28.845,14.229,39.745,46.611,24.34,72.324c-12.319,20.571-41.021,28.023-64.098,16.645
					c-18.469-9.101-25.449-29.822-15.588-46.288c7.885-13.17,26.256-17.935,41.031-10.646c11.813,5.829,16.283,19.085,9.97,29.617
					c-5.05,8.438-16.804,11.473-26.251,6.812c-7.57-3.729-10.433-12.219-6.394-18.953c3.234-5.396,10.758-7.344,16.807-4.37"/>
				<polygon fill="#010101" stroke="#010101" stroke-miterlimit="10" points="-147.577,-240.494 -156.43,-204.642 -175.043,-208.59 
					-166.192,-244.441 				"/>
			</g>
			<g>
				<path fill="#010101" stroke="#010101" stroke-miterlimit="10" d="M191.485-141.433c0,0,6.257,17.912,7.468,20.605
					c7.014,15.765,32.674,70.162,53.878,73.762c31.545,5.36,104.182-69.431,104.182-69.431s-32.578-93.433-62.975-100.824
					c-20.874-5.076-69.938,33.804-82.859,44.429c-2.024,1.661-15.461,13.987-15.461,13.987l-3.39,10.253
					c0,0,14.539-12.848,18.289-15.227c16.07-10.181,60.163-36.556,78.173-31.771c24.002,6.386,55.038,77.248,55.038,77.248
					s-61.055,55.402-85.926,50.447c-20.561-4.094-47.127-47.548-55.99-62.958c-1.923-3.358-8.605-21.74-8.605-21.74L191.485-141.433
					z"/>
				<path fill="#010101" d="M131.515-98.726c-6.519,5.625-12.574,8.637-18.154,10.262c-19.338,5.638-59.659-27.104-78.287-19.662
					c-7.982,3.196-8.185,23.419-7.14,31.414c0.418,3.179,3.497,10.005,3.497,10.005s4.762-17.722,10.239-19.81
					c16.1-6.078,51.668,17.445,68.205,12.489c7.096-2.11,15.722-7.815,24.749-16.466c10.414-9.956,24.75-29.461,33.729-43.282
					c4.67-7.164,14.365-5.714,14.365-5.714l1.231-11.137c0,0-17.176,6.446-21.582,12.587
					C153.088-125.062,137.674-104.036,131.515-98.726z"/>
				<path fill="#010101" d="M160.082-218.127c-3.305-7.667-7.382-12.791-11.691-16.465c-14.891-12.756-66.442,0.888-79.85-13.216
					c-5.743-6.048,3.381-24.402,8.021-31.233c1.841-2.703,7.764-7.667,7.764-7.667s-3.851,17.927,0.14,21.969
					c11.742,11.869,54.751,4.687,67.426,15.702c5.415,4.721,10.611,13.322,14.775,24.696c4.84,13.124,8.797,36.435,10.56,52.496
					c0.906,8.322,11.935,9.907,11.935,9.907l-4.021,10.549c0,0-14.153-11.698-15.286-18.988
					C167.453-185.752,163.19-210.873,160.082-218.127z"/>
				<path fill="#010101" stroke="#010101" stroke-miterlimit="10" d="M186.138-138.116c0,0-12.622,8.695-14.694,10.249
					c-10.034,7.563-40.539,29.546-54.212,28.164c-34.563-3.493-102.794-86.761-102.794-86.761s100.222-49.847,133.307-39.352
					c13.262,4.229,30.925,37.357,36.2,47.762c0.996,1.966,7.733,17.05,7.733,17.05l-3.395,10.252c0,0-7.909-16.906-10.714-21.304
					c-7.438-11.726-22.521-33.686-32.949-37.124c-29.104-9.58-120.401,25.578-120.401,25.578s66.756,66.961,97.375,69.596
					c10.859,0.934,33.943-12.586,46.294-20.425c4.95-3.133,19.605-13.107,19.605-13.107L186.138-138.116z"/>
				<path fill="#010101" d="M183.504-144.135c0,0-30.775,25.613-59.836,18.728c-29.035-6.896-45.45-40.616-45.45-40.616
					s19.587,1.705,47.707,13.368C154.056-140.979,183.504-144.135,183.504-144.135z"/>
				<path fill="#010101" d="M186.865-158.028c0,0-16.022-35.344-45.459-40.616c-29.448-5.276-59.836,18.724-59.836,18.724
					s18.512,6.208,49.306,6.8C161.708-172.546,186.865-158.028,186.865-158.028z"/>
				<path fill="#010101" d="M231.278-253.634c5.589-0.198,10.414,3.636,10.771,8.536c0.446,6.142-4.843,11.321-11.837,11.554
					c-8.737,0.294-16.274-5.681-16.836-13.356c-0.711-9.588,7.562-17.68,18.492-18.048c13.649-0.458,22.279,9.31,23.162,21.298
					c0.688,9.373-3.478,16.681-9.426,21.295c-3.565,2.768-6.538,4.803-12.918,5.01c-21.334,0.745-39.749-13.871-41.108-32.599
					c-1.73-23.435,18.485-43.148,45.145-44.063c33.312-1.132,60.831,26.816,62.976,56.112c2.694,36.585-55.833,79.046-97.481,80.459
					l-1.616,10.307c51.019-2.056,114.598-46.56,111.58-92.428c-2.421-36.69-37.469-65.117-78.278-63.483
					c-32.644,1.299-57.548,26.16-55.611,55.517c1.545,23.495,23.976,41.685,50.101,40.637c20.893-0.837,36.837-16.755,35.597-35.532
					c-1.006-15.036-15.352-26.675-32.071-26.01c-13.368,0.54-23.569,10.72-22.774,22.739c0.63,9.636,9.822,17.079,20.527,16.646
					c8.553-0.339,15.072-6.857,14.574-14.553c-0.407-6.16-6.292-10.918-13.131-10.638"/>
				<path fill="#010101" d="M179.59-40.059c4.95,2.384,11.092,0.826,13.668-3.474c3.244-5.374,0.832-12.152-5.367-15.128
					c-7.769-3.722-17.338-1.293-21.388,5.423c-5.046,8.384-1.299,18.97,8.407,23.634c12.118,5.827,24.44,0.404,30.746-10.082
					c4.95-8.198,4.543-16.465,1.298-22.984c-1.947-3.914-3.681-6.939-9.376-9.668c-18.947-9.099-42.312-3.179-52.201,13.225
					c-12.343,20.497-3.158,46.32,20.515,57.692c29.608,14.229,67.372-0.163,82.812-25.786c19.3-32.015-14.065-93.585-51.059-111.353
					l3.284-9.948c45.178,22.032,82.161,87.45,58.283,127.747C240.122,11.452,195.322,23.275,159.19,5.643
					c-28.915-14.114-39.978-46.447-24.692-72.227c12.225-20.614,40.89-28.187,64.021-16.902c18.497,9.037,25.582,29.722,15.8,46.224
					c-7.809,13.197-26.165,18.045-40.975,10.819c-11.838-5.774-16.382-19.025-10.115-29.583c5.009-8.448,16.739-11.55,26.223-6.922
					c7.585,3.699,10.481,12.17,6.479,18.921c-3.205,5.427-10.723,7.397-16.776,4.439"/>
				<polygon fill="#010101" stroke="#010101" stroke-miterlimit="10" points="176.794,-133.411 185.484,-169.304 204.097,-165.436 
					195.408,-129.542 				"/>
			</g>
		</g>
		<g>
			<g>
				<path fill="#010101" stroke="#010101" stroke-miterlimit="10" d="M-166.105-156.938c0,0-13.946-13.674-16.271-15.626
					c-13.658-11.433-62.051-50.348-82.864-45.159c-30.974,7.719-61.882,104.179-61.882,104.179s72.718,71.41,103.601,65.984
					c21.202-3.735,47.492-58.375,54.227-73.116c1.056-2.308,7.476-18.8,7.476-18.8l-1.684-10.612c0,0-7.171,17.404-9.475,21.041
					c-9.792,15.607-37.362,56.969-55.856,59.824c-24.628,3.788-85.493-47.849-85.493-47.849s29.456-74.339,54.208-79.772
					c20.448-4.489,64.593,24.168,79.736,34.569c3.298,2.257,17.854,16.182,17.854,16.182L-166.105-156.938z"/>
				<path fill="#010101" d="M-131.734-219.377c3.262-7.676,7.335-12.81,11.619-16.492c14.86-12.803,66.448,0.707,79.816-13.422
					c5.732-6.058-3.453-24.395-8.12-31.215c-1.835-2.711-7.786-7.632-7.786-7.632s3.923,17.895-0.075,21.958
					c-11.715,11.898-54.745,4.824-67.376,15.873c-5.415,4.741-10.563,13.341-14.714,24.734
					c-4.782,13.126-8.689,36.471-10.396,52.512c-0.889,8.332-10.316,10.881-10.316,10.881l4.046,10.531
					c0,0,12.525-12.659,13.653-19.948C-139.016-187.003-134.838-212.136-131.734-219.377z"/>
				<path fill="#010101" d="M-102.189-100.185c6.536,5.611,12.598,8.61,18.187,10.231c19.356,5.593,59.582-27.261,78.223-19.86
					c7.999,3.166,8.263,23.379,7.251,31.387c-0.418,3.174-3.466,10.02-3.466,10.02s-4.822-17.722-10.312-19.779
					c-16.109-6.033-51.61,17.57-68.165,12.659c-7.083-2.101-15.741-7.793-24.783-16.412c-10.445-9.93-24.842-29.393-33.864-43.192
					c-4.682-7.155-15.383-4.211-15.383-4.211l-1.271-11.123c0,0,18.218,4.938,22.617,11.061
					C-123.849-126.476-108.36-105.476-102.189-100.185z"/>
				<path fill="#010101" stroke="#010101" stroke-miterlimit="10" d="M-162.806-162.05c0,0,7.364-12.888,8.526-15.119
					c5.548-10.812,22.911-42.814,35.896-47.011c32.809-10.615,133.016,37.413,133.016,37.413S-52.739-101.84-87.495-98.159
					c-13.923,1.472-45.246-21.408-54.824-28.712c-1.81-1.374-14.889-12.327-14.889-12.327l-1.68-10.594
					c0,0,14.972,12.111,19.531,14.966c12.167,7.623,35.952,21.448,46.963,20.407c30.729-2.936,96.885-71.044,96.885-71.044
					s-91.337-33.88-120.201-24.058c-10.242,3.474-24.822,24.877-32.336,36.863c-3.025,4.812-11.636,19.652-11.636,19.652
					L-162.806-162.05z"/>
				<path fill="#010101" d="M-157.634-157.679c0,0,15.911-35.373,45.332-40.723c29.44-5.343,59.888,18.565,59.888,18.565
					s-18.485,6.267-49.286,6.931C-132.509-172.232-157.634-157.679-157.634-157.679z"/>
				<path fill="#010101" d="M-154.231-143.776c0,0,30.859,25.542,59.878,18.575c29.026-6.962,45.343-40.733,45.343-40.733
					s-19.584,1.76-47.68,13.495C-124.776-140.697-154.231-143.776-154.231-143.776z"/>
				<path fill="#010101" d="M-150.01-39.758c-4.954,2.393-11.089,0.867-13.709-3.429c-3.242-5.36-0.852-12.152,5.347-15.146
					c7.748-3.735,17.33-1.347,21.405,5.359c5.074,8.381,1.344,18.979-8.348,23.661c-12.101,5.849-24.424,0.472-30.78-10.015
					c-4.968-8.183-4.586-16.443-1.363-22.983c1.945-3.915,3.676-6.94,9.355-9.674c18.917-9.144,42.304-3.286,52.233,13.076
					c12.406,20.478,3.303,46.344-20.354,57.76c-29.55,14.288-67.353,0.009-82.88-25.583
					c-19.391-31.971,13.783-93.612,50.731-111.479l-3.318-9.938c-45.118,22.153-81.908,87.665-57.911,127.876
					c19.197,32.186,64.012,43.898,100.109,26.162c28.875-14.176,39.84-46.542,24.484-72.286
					c-12.284-20.585-40.962-28.078-64.064-16.734c-18.492,9.066-25.5,29.779-15.666,46.245c7.86,13.188,26.217,17.983,41.011,10.72
					c11.828-5.801,16.316-19.057,10.024-29.596c-5.04-8.439-16.79-11.509-26.251-6.869c-7.568,3.73-10.444,12.21-6.413,18.961
					c3.213,5.396,10.726,7.357,16.786,4.373"/>
				<path fill="#010101" d="M-202.34-253.213c-5.589-0.17-10.394,3.664-10.748,8.583c-0.431,6.142,4.887,11.294,11.881,11.519
					c8.733,0.271,16.242-5.719,16.801-13.404c0.681-9.588-7.627-17.651-18.55-18c-13.648-0.433-22.248,9.373-23.096,21.356
					c-0.664,9.373,3.537,16.672,9.484,21.269c3.575,2.75,6.545,4.794,12.949,4.992c21.325,0.681,39.686-13.979,41.011-32.713
					c1.656-23.417-18.618-43.094-45.281-43.94c-33.314-1.053-60.74,26.968-62.814,56.253c-2.579,36.612,56.07,78.907,97.721,80.227
					l1.651,10.297c-51.025-1.92-114.747-46.267-111.865-92.146c2.315-36.708,37.277-65.218,78.095-63.682
					c32.644,1.232,57.614,26.031,55.771,55.391c-1.479,23.493-23.856,41.736-49.969,40.758
					c-20.899-0.782-36.885-16.645-35.706-35.445c0.949-15.035,15.271-26.711,31.996-26.081c13.372,0.5,23.606,10.654,22.838,22.678
					c-0.601,9.636-9.776,17.096-20.468,16.692c-8.565-0.312-15.111-6.812-14.627-14.508c0.393-6.159,6.261-10.935,13.1-10.69"/>
				<polygon fill="#010101" stroke="#010101" stroke-miterlimit="10" points="-156.557,-170.019 -147.76,-134.152 
					-166.374,-130.229 -175.169,-166.095 				"/>
			</g>
			<g>
				<path fill="#010101" stroke="#010101" stroke-miterlimit="10" d="M195.322-217.004c0,0,14.016,13.628,16.37,15.558
					c13.697,11.386,62.267,50.097,83.062,44.819c30.939-7.857,61.386-104.44,61.386-104.44s-73.078-71.108-103.921-65.54
					c-21.179,3.814-47.202,58.57-53.876,73.338c-1.046,2.31-7.377,18.82-7.377,18.82l1.75,10.594c0,0,7.089-17.406,9.356-21.06
					c9.717-15.639,37.101-57.128,55.572-60.05c24.594-3.89,85.728,47.477,85.728,47.477s-29.107,74.46-53.839,79.991
					c-20.43,4.579-64.707-23.897-79.896-34.23c-3.313-2.25-17.939-16.115-17.939-16.115L195.322-217.004z"/>
				<path fill="#010101" d="M161.263-154.42c-3.236,7.685-7.285,12.838-11.547,16.546c-14.802,12.861-66.437-0.448-79.751,13.746
					c-5.69,6.096,3.575,24.397,8.263,31.18c1.86,2.693,7.827,7.6,7.827,7.6s-3.991-17.884-0.029-21.956
					c11.663-11.954,54.72-5.059,67.305-16.164c5.395-4.75,10.498-13.369,14.596-24.788c4.718-13.162,8.506-36.493,10.133-52.559
					c0.853-8.33,10.264-10.926,10.264-10.926l-4.093-10.522c0,0-12.473,12.715-13.562,20.015
					C168.382-186.824,164.333-161.683,161.263-154.42z"/>
				<path fill="#010101" d="M131.137-273.494c-6.568-5.575-12.642-8.553-18.241-10.136c-19.383-5.51-59.446,27.499-78.133,20.185
					c-8.011-3.145-8.369-23.352-7.38-31.367c0.387-3.178,3.409-10.031,3.409-10.031s4.912,17.708,10.413,19.733
					c16.137,5.979,51.524-17.786,68.093-12.953c7.099,2.09,15.79,7.748,24.89,16.322c10.485,9.882,24.968,29.294,34.063,43.058
					c4.708,7.137,15.397,4.127,15.397,4.127l1.316,11.124c0,0-18.229-4.859-22.666-10.964
					C152.932-247.287,137.336-268.216,131.137-273.494z"/>
				<path fill="#010101" stroke="#010101" stroke-miterlimit="10" d="M192.057-211.869c0,0-7.305,12.901-8.446,15.146
					c-5.498,10.843-22.707,42.914-35.678,47.16c-32.765,10.747-133.211-36.866-133.211-36.866s66.993-85.197,101.71-89.031
					c13.93-1.527,45.344,21.23,54.963,28.484c1.821,1.365,14.947,12.255,14.947,12.255l1.737,10.595
					c0,0-15.019-12.047-19.615-14.884c-12.194-7.576-36.059-21.296-47.054-20.208c-30.706,3.062-96.527,71.445-96.527,71.445
					s91.485,33.508,120.309,23.569c10.221-3.519,24.697-24.989,32.155-37.008c2.998-4.812,11.538-19.697,11.538-19.697
					L192.057-211.869z"/>
				<path fill="#010101" d="M186.865-216.232c0,0-15.741,35.453-45.15,40.916c-29.399,5.464-59.961-18.328-59.961-18.328
					s18.444-6.33,49.248-7.12C161.805-201.565,186.865-216.232,186.865-216.232z"/>
				<path fill="#010101" d="M183.388-230.115c0,0-30.97-25.405-59.962-18.321c-29.002,7.084-45.16,40.919-45.16,40.919
					s19.587-1.838,47.616-13.694C153.93-233.075,183.388-230.115,183.388-230.115z"/>
				<path fill="#010101" d="M178.679-334.114c4.94-2.413,11.076-0.905,13.698,3.373c3.273,5.352,0.929,12.141-5.261,15.166
					c-7.735,3.778-17.32,1.421-21.419-5.267c-5.124-8.359-1.452-18.966,8.215-23.693c12.08-5.9,24.44-0.565,30.833,9.874
					c5.008,8.17,4.679,16.429,1.474,22.974c-1.918,3.93-3.643,6.96-9.301,9.714c-18.869,9.247-42.302,3.475-52.298-12.858
					c-12.515-20.414-3.535-46.306,20.061-57.84c29.487-14.409,67.361-0.283,83.007,25.246
					c19.542,31.887-13.324,93.672-50.188,111.681l3.361,9.938c45.015-22.353,81.475-88.008,57.297-128.133
					c-19.354-32.084-64.233-43.612-100.239-25.741c-28.807,14.29-39.617,46.707-24.138,72.384
					c12.398,20.552,41.109,27.921,64.169,16.475c18.434-9.146,25.345-29.896,15.436-46.315
					c-7.933-13.153-26.317-17.873-41.071-10.551c-11.788,5.853-16.215,19.128-9.876,29.65c5.082,8.421,16.841,11.426,26.289,6.742
					c7.542-3.741,10.38-12.235,6.312-18.97c-3.24-5.377-10.771-7.308-16.806-4.312"/>
				<path fill="#010101" d="M232.024-120.887c5.59,0.157,10.384-3.713,10.704-8.619c0.406-6.141-4.94-11.286-11.924-11.474
					c-8.737-0.233-16.226,5.8-16.729,13.489c-0.631,9.58,7.709,17.615,18.626,17.907c13.648,0.377,22.212-9.467,22.997-21.449
					c0.619-9.373-3.614-16.662-9.591-21.223c-3.584-2.747-6.566-4.776-12.971-4.947c-21.33-0.584-39.608,14.14-40.848,32.895
					c-1.542,23.437,18.83,43.008,45.479,43.745c33.337,0.919,60.624-27.235,62.557-56.516c2.402-36.608-56.464-78.677-98.117-79.825
					l-1.694-10.278c51.029,1.697,114.962,45.778,112.298,91.682c-2.142,36.697-36.975,65.359-77.774,63.995
					c-32.663-1.086-57.763-25.776-56.047-55.161c1.365-23.485,23.655-41.828,49.78-40.957c20.894,0.7,36.963,16.501,35.859,35.301
					c-0.861,15.029-15.131,26.772-31.86,26.225c-13.366-0.458-23.664-10.567-22.947-22.598c0.558-9.624,9.673-17.14,20.376-16.779
					c8.578,0.287,15.149,6.765,14.705,14.458c-0.363,6.168-6.209,10.971-13.05,10.738"/>
				<polygon fill="#010101" stroke="#010101" stroke-miterlimit="10" points="185.857,-203.919 176.896,-239.752 195.476,-243.745 
					204.441,-207.912 				"/>
			</g>
		</g>
		<g>
			<g>
				<path fill="#010101" stroke="#010101" stroke-miterlimit="10" d="M-134.179-87.31c0,0-18.97-6.715-21.979-7.551
					c-17.664-4.816-79.47-20.424-95.797-7.379c-24.296,19.414-7.017,118.75-7.017,118.75s98.94,35.118,124.224,17.812
					c17.358-11.887,15.477-71.697,14.649-87.683c-0.129-2.497-2.064-19.939-2.064-19.939l-6.475-8.894
					c0,0,1.686,18.567,1.307,22.777c-1.521,17.979-7.011,66.337-22.337,76.344c-20.417,13.314-99.424-8.74-99.424-8.74
					s-8.239-78.826,11.517-93.68c16.328-12.264,69.517-4.179,88.021-0.894c4.027,0.719,23.662,7.416,23.662,7.416L-134.179-87.31z"
					/>
				<path fill="#010101" d="M-132.434-157.392c-0.649-8.219,0.615-14.485,2.753-19.522c7.398-17.511,60.213-26.076,65.64-44.174
					c2.332-7.772-14.532-20.593-21.921-24.867c-2.923-1.706-10.59-3.752-10.59-3.752s11.906,14.554,10.213,19.823
					c-4.994,15.422-47.071,26.348-53.286,41.388c-2.663,6.438-3.273,16.259-1.688,28.199c1.836,13.746,9.229,36.343,15.207,51.489
					c3.099,7.865-4.205,13.952-4.205,13.952l8.575,7.864c0,0,5.359-16.448,2.969-23.459
					C-123.844-125.286-131.838-149.617-132.434-157.392z"/>
				<path fill="#010101" d="M-50.041-61.857c8.521,2.42,15.384,2.693,21.18,1.903c20.061-2.752,40.937-48.521,61.193-49.338
					c8.688-0.359,18.375,17.745,21.215,25.371c1.113,3.026,1.559,10.424,1.559,10.424S42.474-87.539,36.565-87.18
					C19.221-86.138-1.723-50.604-18.938-48.368c-7.361,0.951-17.83-0.7-30.012-4.835c-14.059-4.744-36.141-16.51-50.727-25.317
					c-7.567-4.561-15.83,2.393-15.83,2.393l-6.343-9.512c0,0,18.723-2.873,25.547,0.875C-81.854-76.842-58.074-64.156-50.041-61.857
					z"/>
				<path fill="#010101" stroke="#010101" stroke-miterlimit="10" d="M-133.608-93.253c0,0,0.61-14.562,0.61-17.04
					c-0.06-11.971,0.611-47.793,10.355-56.79c24.595-22.75,137.36-19.754,137.36-19.754S-6.257-83.229-35.85-65.938
					c-11.853,6.922-50.787-1.113-62.833-3.842c-2.277-0.503-19.18-5.118-19.18-5.118l-6.478-8.87c0,0,19.16,4.898,24.606,5.638
					c14.53,1.976,42.433,4.876,51.863-0.493c26.32-14.993,54.058-102.954,54.058-102.954s-98.155,6.19-119.565,26.637
					c-7.604,7.254-10.728,32.392-11.89,46.214c-0.469,5.557-1.289,22.386-1.289,22.386L-133.608-93.253z"/>
				<path fill="#010101" d="M-126.893-91.386c0,0-2.219-38.272,21.787-54.917c24.028-16.646,62.654-7.335,62.654-7.335
					s-13.729,13.072-41.164,26.055C-111.072-114.607-126.893-91.386-126.893-91.386z"/>
				<path fill="#010101" d="M-117.337-80.235c0,0,39.761,10.616,62.651-7.327c22.897-17.938,21.8-54.926,21.8-54.926
					s-16.826,9.458-36.655,31.32C-89.345-89.294-117.337-80.235-117.337-80.235z"/>
				<path fill="#010101" d="M-64.864,11.802c-3.342,4.148-9.593,5.238-13.951,2.416c-5.438-3.529-6.452-10.604-2.271-15.802
					c5.233-6.473,14.982-8.169,21.802-3.771c8.496,5.521,10.088,16.564,3.55,24.67c-8.163,10.146-21.788,10.245-32.409,3.358
					c-8.313-5.377-11.84-12.981-11.988-20.16c-0.085-4.313,0.067-7.738,3.896-12.488c12.767-15.846,36.584-19.972,53.187-9.211
					c20.756,13.466,24.66,40.427,8.684,60.228c-19.938,24.761-60.68,27.078-86.648,10.258
					c-32.435-21.009-31.379-89.901-6.449-120.843l-7.642-7.623c-30.278,38.102-32.778,111.922,7.657,138.516
					c32.352,21.277,78.218,13.816,102.442-16.663c19.385-24.389,14.13-57.952-11.754-74.979
					c-20.705-13.62-50.052-8.848-65.562,10.661c-12.418,15.608-9.04,37.088,7.524,47.974c13.259,8.721,32.039,5.668,41.971-6.819
					c7.943-9.988,5.782-23.729-4.822-30.7c-8.486-5.584-20.515-3.627-26.867,4.354c-5.073,6.401-3.701,15.208,3.095,19.666
					C-76,18.41-68.31,17.153-64.249,12.04"/>
				<path fill="#010101" d="M-211.887-159.501c-5.112,2.092-7.647,7.483-5.669,12.057c2.485,5.701,9.691,8.206,16.09,5.607
					c7.995-3.268,11.964-11.68,8.868-18.84c-3.874-8.911-15.133-12.829-25.13-8.758c-12.505,5.096-15.663,17.387-10.827,28.532
					c3.79,8.713,10.99,13.602,18.495,15.353c4.506,1.042,8.149,1.688,14.004-0.7c19.531-7.964,29.223-28.56,21.645-45.967
					c-9.463-21.763-36.94-31.352-61.36-21.395c-30.506,12.443-42.113,48.714-30.274,75.944
					c14.804,34.012,87.438,48.557,125.586,33.012l6.303,8.61c-46.866,18.781-125.036,4.426-143.906-38.076
					c-15.092-34.008,3.073-73.745,40.573-88.764c29.993-12.013,64.1,0.292,76.167,27.486c9.66,21.762-1.966,47.202-25.951,56.812
					c-19.199,7.695-41.021-0.179-48.758-17.588c-6.182-13.929,1.262-30.207,16.625-36.369c12.285-4.915,26.258,0.116,31.196,11.258
					c3.964,8.92-0.808,19.339-10.638,23.267c-7.866,3.165-16.806-0.072-19.967-7.196c-2.528-5.7,0.521-12.371,6.8-14.894"/>
				<polygon fill="#010101" stroke="#010101" stroke-miterlimit="10" points="-131.705,-102.94 -106.996,-74.158 -121.936,-63.136 
					-146.647,-91.92 				"/>
			</g>
			<g>
				<path fill="#010101" stroke="#010101" stroke-miterlimit="10" d="M163.375-286.709c0,0,19.006,6.652,22.037,7.442
					c17.669,4.759,79.548,20.119,95.811,7.001c24.208-19.519,6.452-118.783,6.452-118.783s-99.114-34.701-124.3-17.289
					c-17.311,11.956-15.141,71.745-14.23,87.741c0.126,2.495,2.146,19.913,2.146,19.913l6.523,8.854c0,0-1.752-18.539-1.422-22.741
					c1.442-17.991,6.708-66.384,21.983-76.442c20.355-13.399,99.478,8.325,99.478,8.325s8.606,78.797-11.082,93.715
					c-16.264,12.338-69.482,4.474-88.013,1.275c-4.031-0.709-23.704-7.319-23.704-7.319L163.375-286.709z"/>
				<path fill="#010101" d="M161.969-216.627c0.688,8.233-0.552,14.497-2.664,19.554c-7.312,17.529-60.077,26.31-65.424,44.44
					c-2.275,7.785,14.627,20.546,22.037,24.784c2.936,1.666,10.606,3.699,10.606,3.699s-11.962-14.508-10.306-19.77
					c4.922-15.459,46.951-26.547,53.094-41.615c2.633-6.445,3.196-16.268,1.548-28.21c-1.908-13.754-9.413-36.304-15.459-51.427
					c-3.129-7.856,4.146-13.979,4.146-13.979l-8.621-7.83c0,0-5.29,16.457-2.848,23.476
					C153.223-248.681,161.34-224.4,161.969-216.627z"/>
				<path fill="#010101" d="M79.11-311.811c-8.524-2.391-15.392-2.628-21.176-1.798c-20.042,2.819-40.703,48.671-60.96,49.584
					c-8.696,0.387-18.475-17.679-21.338-25.29c-1.135-3.026-1.623-10.417-1.623-10.417s12.711,13.978,18.616,13.601
					c17.333-1.102,38.105-36.735,55.304-39.045c7.367-0.97,17.858,0.64,30.064,4.705c14.074,4.693,36.209,16.367,50.845,25.111
					c7.58,4.532,15.799-2.469,15.799-2.469l6.394,9.487c0,0-18.695,2.956-25.554-0.763C111.008-296.964,87.169-309.54,79.11-311.811
					z"/>
				<path fill="#010101" stroke="#010101" stroke-miterlimit="10" d="M162.841-280.766c0,0-0.542,14.562-0.523,17.049
					c0.116,11.974-0.387,47.787-10.083,56.822c-24.494,22.865-137.273,20.333-137.273,20.333s20.49-103.706,49.98-121.113
					c11.842-6.979,50.796,0.907,62.863,3.582c2.275,0.491,19.197,5.037,19.197,5.037l6.524,8.846c0,0-19.179-4.815-24.647-5.521
					c-14.54-1.931-42.456-4.703-51.853,0.698c-26.241,15.105-53.559,103.178-53.559,103.178s98.126-6.583,119.438-27.12
					c7.565-7.283,10.569-32.439,11.668-46.272c0.446-5.539,1.177-22.382,1.177-22.382L162.841-280.766z"/>
				<path fill="#010101" d="M156.119-282.604c0,0,2.402,38.263-21.534,55.019c-23.936,16.735-62.614,7.583-62.614,7.583
					s13.658-13.119,41.052-26.215C140.397-259.317,156.119-282.604,156.119-282.604z"/>
				<path fill="#010101" d="M146.491-293.718c0,0-39.793-10.439-62.605,7.583c-22.813,18.048-21.534,55.028-21.534,55.028
					s16.788-9.534,36.485-31.469C118.562-284.543,146.491-293.718,146.491-293.718z"/>
				<path fill="#010101" d="M93.591-385.538c3.322-4.164,9.562-5.268,13.919-2.469c5.455,3.508,6.521,10.569,2.354,15.786
					c-5.192,6.509-14.936,8.236-21.756,3.857c-8.534-5.472-10.19-16.508-3.691-24.648c8.127-10.176,21.757-10.334,32.403-3.493
					c8.34,5.347,11.904,12.926,12.078,20.111c0.106,4.312-0.028,7.729-3.831,12.488c-12.685,15.913-36.485,20.133-53.142,9.438
					c-20.826-13.363-24.851-40.308-8.984-60.19c19.818-24.835,60.56-27.331,86.598-10.614
					c32.543,20.873,31.822,89.759,7.033,120.806l7.683,7.603c30.096-38.235,32.236-112.049-8.332-138.484
					c-32.45-21.136-78.277-13.483-102.358,17.094c-19.277,24.459-13.842,58.011,12.118,74.928
					c20.778,13.531,50.109,8.627,65.522-10.944c12.329-15.658,8.854-37.128-7.76-47.954c-13.3-8.655-32.073-5.521-41.943,7
					c-7.886,10.017-5.657,23.751,4.969,30.693c8.525,5.542,20.526,3.529,26.842-4.495c5.057-6.408,3.624-15.198-3.177-19.633
					c-5.444-3.546-13.126-2.262-17.165,2.874"/>
				<path fill="#010101" d="M241.43-214.85c5.104-2.099,7.622-7.515,5.607-12.067c-2.508-5.689-9.734-8.185-16.108-5.546
					c-7.992,3.303-11.901,11.752-8.776,18.87c3.923,8.888,15.188,12.773,25.176,8.654c12.477-5.145,15.586-17.454,10.684-28.568
					c-3.835-8.692-11.057-13.556-18.578-15.271c-4.514-1.032-8.151-1.659-13.996,0.764c-19.491,8.044-29.08,28.658-21.419,46.059
					c9.58,21.729,37.091,31.192,61.443,21.137c30.47-12.567,41.886-48.905,29.932-76.07
					c-14.966-33.957-87.694-48.203-125.763-32.492l-6.33-8.58c46.782-18.983,125.007-4.956,144.085,37.48
					c15.242,33.928-2.737,73.753-40.137,88.926c-29.937,12.143-64.116-0.018-76.312-27.182
					c-9.769-21.712,1.747-47.199,25.689-56.913c19.159-7.761,41.027,0.02,48.835,17.398c6.258,13.887-1.109,30.202-16.438,36.435
					c-12.263,4.962-26.26-0.012-31.25-11.145c-4-8.898,0.697-19.329,10.521-23.304c7.844-3.185,16.805,0,20.003,7.11
					c2.557,5.71-0.46,12.379-6.733,14.921"/>
				<polygon fill="#010101" stroke="#010101" stroke-miterlimit="10" points="160.961,-271.097 136.125,-299.778 151.004,-310.841 
					175.841,-282.157 				"/>
			</g>
		</g>
		<g>
			<g>
				<path fill="#010101" stroke="#010101" stroke-miterlimit="10" d="M-72.848-37.312c0,0-20.236,1.576-23.336,2.029
					c-18.162,2.765-81.165,13.535-89.773,31.854c-12.815,27.262,49.24,109.832,49.24,109.832S-31.14,98.272-16.453,72.52
					C-6.375,54.833-36.049,1.693-44.272-12.375c-1.29-2.205-11.193-17.144-11.193-17.144l-9.995-5.409
					c0,0,10.207,16.043,11.834,19.998c7.047,16.816,24.724,62.595,15.599,77.767c-12.171,20.204-93.683,32.082-93.683,32.082
					s-44.305-67.707-33.448-89.029c8.977-17.615,60.683-31.71,78.893-36.189c3.962-0.984,24.789-2.829,24.789-2.829L-72.848-37.312z
					"/>
				<path fill="#010101" d="M-104.059-101.163c-4.439-7.159-6.231-13.31-6.667-18.709c-1.523-18.741,42.062-47.682,38.488-66.174
					c-1.542-7.947-22.729-12.725-31.389-13.602c-3.422-0.358-11.295,0.877-11.295,0.877s17.538,8.325,18.48,13.754
					c2.719,15.909-30.089,42.663-28.65,58.703c0.61,6.876,4.657,15.976,11.674,26.094c8.089,11.648,25.324,29.039,37.798,40.284
					c6.478,5.84,2.744,14.271,2.744,14.271l11.406,3.636c0,0-2.862-16.978-8.306-22.329
					C-81.305-75.692-99.894-94.402-104.059-101.163z"/>
				<path fill="#010101" d="M14.877-48.198c8.815-1.243,15.126-3.753,19.974-6.8c16.802-10.532,14.181-60.161,32.043-69.045
					c7.671-3.824,24.881,8.596,31.008,14.326c2.411,2.28,6.282,8.762,6.282,8.762s-17.96-7.565-23.112-4.872
					c-15.141,7.906-17.389,48.35-31.851,57.271c-6.19,3.814-16.395,6.535-29.307,7.715c-14.887,1.374-40.286-0.35-57.552-2.424
					c-8.956-1.063-13.142,8.524-13.142,8.524l-10.172-6.024c0,0,15.528-10.118,23.434-9.476
					C-20.802-48.916,6.563-47.03,14.877-48.198z"/>
				<path fill="#010101" stroke="#010101" stroke-miterlimit="10" d="M-75.11-42.896c0,0-6.269-13.367-7.424-15.607
					c-5.661-10.773-21.812-43.31-17.246-55.34c11.516-30.376,114.538-72.997,114.538-72.997S44.333-85.057,25.746-57.589
					c-7.44,11.011-46.28,19.424-58.406,21.799c-2.293,0.458-19.681,3.097-19.681,3.097l-9.988-5.396c0,0,19.556-3.286,24.809-4.812
					C-23.507-46.95,2.999-55.56,8.98-64.179c16.698-24.096,0.541-114.503,0.541-114.503s-85.553,45.015-95.279,72.056
					c-3.458,9.589,5.49,33.497,10.905,46.416c2.179,5.203,9.318,20.699,9.318,20.699L-75.11-42.896z"/>
				<path fill="#010101" d="M-68.187-43.911c0,0-19.908-33.6-6.066-58.245c13.862-24.657,53.019-31.799,53.019-31.799
					s-6.253,17.305-24.902,40.023C-64.794-71.19-68.187-43.911-68.187-43.911z"/>
				<path fill="#010101" d="M-54.354-37.708c0,0,40.793-6.415,53.022-31.781c12.239-25.372-6.061-58.259-6.061-58.259
					s-10.738,15.281-18.369,42.965C-33.375-57.126-54.354-37.708-54.354-37.708z"/>
				<path fill="#010101" d="M35.984,24.133c-1.066,5.086-6.184,8.574-11.439,7.779c-6.548-0.987-10.769-6.958-9.441-13.31
					c1.687-7.95,9.678-13.395,17.887-12.16c10.225,1.562,16.835,10.872,14.744,20.797c-2.616,12.425-14.84,17.991-27.642,16.053
					c-10.008-1.5-16.738-6.94-20.232-13.337c-2.09-3.852-3.557-7.003-2.327-12.82C1.618-2.28,21.154-15.563,41.143-12.537
					c25.001,3.789,41.129,26.512,36.009,50.77C70.77,68.561,35.137,87.027,3.871,82.306c-39.062-5.898-70.34-68.385-62.346-106.298
					l-10.455-3.798C-78.389,18.715-46.096,86.237,2.776,93.94c39.117,6.176,76.953-18.988,84.51-56.188
					c6.063-29.775-14.375-57.899-45.664-62.837c-25.03-3.944-49.237,12.162-54.083,35.967c-3.894,19.055,9.2,37.042,29.223,40.202
					c16.026,2.532,31.525-7.774,34.625-23.023c2.48-12.188-5.894-23.707-18.704-25.731C22.423,0.714,12.5,7.312,10.512,17.063
					c-1.578,7.801,3.779,15.182,11.993,16.475c6.554,1.032,12.893-3.188,14.158-9.427"/>
				<path fill="#010101" d="M-176.644-71.136c-3.63,3.941-3.393,9.817,0.53,13.144c4.906,4.139,12.573,3.502,17.122-1.418
					c5.679-6.159,5.312-15.334-0.824-20.533c-7.657-6.473-19.64-5.485-26.747,2.2c-8.883,9.625-5.977,21.969,3.596,30.067
					c7.493,6.321,16.262,7.829,23.852,6.392c4.553-0.867,8.134-1.75,12.295-6.262c13.875-15.024,12.968-37.474-2-50.114
					c-18.708-15.805-47.955-13.404-65.303,5.387c-21.662,23.477-15.15,60.825,8.253,80.594
					c29.259,24.708,101.514,8.619,128.617-20.721l9.711,5.216c-33.448,35.76-110.598,54.25-147.483,23.532
					c-29.516-24.577-31.736-67.69-4.974-96.288c21.396-22.885,57.892-25.499,81.489-5.841c18.892,15.73,20.316,43.319,3.2,61.625
					c-13.692,14.652-37.042,16.33-52.161,3.748c-12.091-10.069-12.997-27.732-2.036-39.458c8.769-9.364,23.71-10.437,33.377-2.393
					c7.742,6.447,8.316,17.741,1.298,25.237c-5.609,6.007-15.177,6.697-21.36,1.545c-4.95-4.125-5.318-11.357-0.845-16.16"/>
				<polygon fill="#010101" stroke="#010101" stroke-miterlimit="10" points="-77.948,-52.39 -42.214,-36.392 -50.52,-20.456 
					-86.255,-36.455 				"/>
			</g>
			<g>
				<path fill="#010101" stroke="#010101" stroke-miterlimit="10" d="M101.98-336.583c0,0,20.235-1.649,23.335-2.154
					c18.144-2.813,81.088-13.842,89.611-32.2c12.682-27.311-49.77-109.622-49.77-109.622S59.61-471.992,45.06-446.182
					c-10.006,17.729,19.937,70.735,28.237,84.781c1.288,2.201,11.256,17.086,11.256,17.086l10.017,5.35
					c0,0-10.244-15.994-11.921-19.918c-7.123-16.786-25.024-62.513-15.958-77.715c12.065-20.256,93.525-32.479,93.525-32.479
					s44.626,67.544,33.864,88.895c-8.892,17.664-60.521,31.965-78.714,36.526c-3.962,0.988-24.788,2.936-24.788,2.936
					L101.98-336.583z"/>
				<path fill="#010101" d="M133.5-272.863c4.476,7.137,6.287,13.29,6.752,18.681c1.609,18.737-41.831,47.852-38.155,66.337
					c1.589,7.941,22.793,12.64,31.443,13.48c3.429,0.332,11.294-0.924,11.294-0.924s-17.571-8.269-18.54-13.685
					c-2.799-15.9,29.884-42.79,28.371-58.834c-0.638-6.866-4.736-15.944-11.797-26.036c-8.157-11.624-25.477-28.935-38.001-40.126
					c-6.49-5.82-2.795-14.259-2.795-14.259l-11.436-3.59c0,0,2.935,16.957,8.418,22.303
					C110.62-298.237,129.287-279.625,133.5-272.863z"/>
				<path fill="#010101" d="M14.301-325.33c-8.798,1.272-15.102,3.815-19.928,6.886c-16.739,10.605-13.901,60.227-31.722,69.184
					c-7.652,3.843-24.913-8.504-31.056-14.211c-2.436-2.272-6.333-8.734-6.333-8.734s17.998,7.487,23.134,4.776
					c15.105-7.954,17.146-48.417,31.561-57.404c6.189-3.843,16.384-6.61,29.285-7.847c14.875-1.43,40.284,0.197,57.561,2.193
					c8.965,1.043,13.091-8.572,13.091-8.572l10.2,5.98c0,0-15.47,10.181-23.384,9.58C49.991-324.773,22.625-326.526,14.301-325.33z"
					/>
				<path fill="#010101" stroke="#010101" stroke-miterlimit="10" d="M104.277-331.015c0,0,6.323,13.339,7.501,15.577
					c5.71,10.747,22.023,43.22,17.509,55.252C117.906-229.732,15.1-186.684,15.1-186.684S-14.952-288.368,3.468-315.903
					c7.406-11.041,46.194-19.598,58.321-22.041c2.276-0.469,19.653-3.18,19.653-3.18l10.017,5.355c0,0-19.528,3.365-24.787,4.917
					c-14.007,4.115-40.452,12.83-46.399,21.478c-16.582,24.159,0.019,114.493,0.019,114.493s85.346-45.374,94.931-72.442
					c3.413-9.6-5.657-33.479-11.14-46.382c-2.186-5.171-9.401-20.638-9.401-20.638L104.277-331.015z"/>
				<path fill="#010101" d="M97.359-329.973c0,0,20.07,33.515,6.335,58.23c-13.74,24.698-52.871,32.009-52.871,32.009
					s6.171-17.312,24.721-40.125C94.094-302.663,97.359-329.973,97.359-329.973z"/>
				<path fill="#010101" d="M83.488-336.114c0,0-40.752,6.583-52.865,31.998c-12.124,25.434,6.34,58.24,6.34,58.24
					s10.665-15.335,18.153-43.021C62.603-316.623,83.488-336.114,83.488-336.114z"/>
				<path fill="#010101" d="M-7.147-397.586c1.041-5.089,6.144-8.59,11.386-7.818c6.555,0.967,10.822,6.9,9.512,13.274
					c-1.637,7.952-9.612,13.429-17.805,12.224c-10.249-1.504-16.908-10.78-14.859-20.733c2.562-12.436,14.775-18.059,27.57-16.168
					c10.016,1.466,16.763,6.861,20.29,13.269c2.11,3.839,3.598,6.974,2.377,12.793c-3.971,19.439-23.452,32.81-43.459,29.86
					c-25.025-3.669-41.248-26.334-36.26-50.624c6.241-30.348,41.782-48.967,73.064-44.366
					c39.096,5.732,70.684,68.086,62.876,106.027l10.468,3.764c9.23-46.555-23.375-113.93-72.307-121.439
					c-39.121-6.009-76.844,19.315-84.234,56.542c-5.92,29.785,14.666,57.837,45.98,62.65c25.057,3.838,49.199-12.36,53.926-36.199
					c3.779-19.062-9.396-37.018-29.43-40.092c-16.034-2.452-31.483,7.917-34.514,23.167c-2.419,12.193,6.006,23.677,18.838,25.658
					c10.271,1.571,20.145-5.074,22.082-14.843c1.56-7.795-3.847-15.146-12.052-16.404c-6.569-1.008-12.887,3.234-14.127,9.486"/>
				<path fill="#010101" d="M205.928-303.202c3.622-3.948,3.352-9.833-0.592-13.123c-4.92-4.127-12.602-3.466-17.106,1.47
					c-5.657,6.188-5.231,15.373,0.931,20.535c7.699,6.426,19.663,5.405,26.734-2.319c8.835-9.66,5.88-21.994-3.739-30.038
					c-7.531-6.294-16.302-7.773-23.887-6.294c-4.543,0.878-8.118,1.78-12.254,6.312c-13.804,15.081-12.795,37.51,2.248,50.104
					c18.802,15.729,48.017,13.198,65.259-5.649c21.572-23.567,14.854-60.901-8.631-80.574
					c-29.369-24.584-101.568-8.188-128.523,21.269l-9.726-5.185c33.273-35.905,110.322-54.711,147.372-24.142
					c29.614,24.445,32.046,67.553,5.436,96.264c-21.29,22.974-57.771,25.759-81.475,6.177
					c-18.957-15.637-20.517-43.226-3.477-61.604c13.629-14.707,36.973-16.479,52.143-3.948
					c12.129,10.001,13.136,27.664,2.229,39.431c-8.728,9.409-23.665,10.549-33.37,2.532c-7.761-6.417-8.409-17.707-1.425-25.235
					c5.58-6.026,15.15-6.754,21.359-1.634c4.969,4.121,5.376,11.35,0.911,16.153"/>
				<polygon fill="#010101" stroke="#010101" stroke-miterlimit="10" points="107.114,-321.566 71.302,-337.427 79.526,-353.379 
					115.337,-337.518 				"/>
			</g>
		</g>
	</g>
	<path fill="#FFFFFF" d="M15.344-317.326c79.151,0,143.321,59.475,143.321,132.837c0,73.363-64.17,132.832-143.321,132.832
		c-79.155,0-143.323-59.469-143.323-132.832C-127.979-257.851-63.811-317.326,15.344-317.326z"/>
</g>
<text transform="matrix(1 0 0 1 -120.7598 -188.6885)"><tspan x="0" y="0" font-family="'MyriadPro-BoldCond'" font-size="60">C</tspan><tspan x="24.059" y="0" font-family="'MyriadPro-BoldCond'" font-size="60">huc</tspan><tspan x="98.038" y="0" font-family="'MyriadPro-BoldCond'" font-size="60">k</tspan><tspan x="122.578" y="0" font-family="'MyriadPro-BoldCond'" font-size="60">w</tspan><tspan x="158.938" y="0" font-family="'MyriadPro-BoldCond'" font-size="60">agon</tspan><tspan x="86.669" y="72" font-family="'MyriadPro-BoldCond'" font-size="60">C</tspan><tspan x="110.608" y="72" font-family="'MyriadPro-BoldCond'" font-size="60">a</tspan><tspan x="135.929" y="72" font-family="'MyriadPro-BoldCond'" font-size="60">f</tspan><tspan x="152.608" y="72" font-family="'MyriadPro-BoldCond'" font-size="60">e</tspan></text>
</svg>
