<?xml version="1.0" encoding="utf-8"?>
<!-- Generator: Adobe Illustrator 16.0.0, SVG Export Plug-In . SVG Version: 6.00 Build 0)  -->
<!DOCTYPE svg PUBLIC "-//W3C//DTD SVG 1.1//EN" "http://www.w3.org/Graphics/SVG/1.1/DTD/svg11.dtd">
<svg version="1.1" id="Layer_1" xmlns="http://www.w3.org/2000/svg" xmlns:xlink="http://www.w3.org/1999/xlink" x="0px" y="0px"
	 width="129px" height="131.5px" viewBox="0 0 129 131.5" enable-background="new 0 0 129 131.5" xml:space="preserve">
<g id="top_body" display="none">
</g>
<g id="tails" display="none">
</g>
<g id="bottom_body" display="none">
</g>
<g id="up_petals" display="none">
</g>
<g id="blanks" display="none">
	<path display="inline" fill="#A04F70" stroke="#A04F70" stroke-miterlimit="10" d="M257.164,128.678c0,0-52.176,35.26-52,54
		c0.174,18.625,52.674,65.693,52.674,65.693s54.855-46.893,54.133-66.027C311.293,164.415,257.164,128.678,257.164,128.678z"/>
	<path display="inline" fill="#A04F70" stroke="#A04F70" stroke-miterlimit="10" d="M258.109,252.505
		c0,0-35.56,23.827-37.959,37.173c-4.102,22.786,38.336,83.668,38.336,83.668s41.535-61,37.377-83.668
		C293.424,276.378,258.109,252.505,258.109,252.505z"/>
</g>
<g id="down_petals" display="none">
</g>
<g id="curls" display="none">
</g>
<g>
	<path fill="#FFFFFF" d="M67.678,62.852c0,0,6.344-3.748,7.275-4.402c5.463-3.835,24.197-17.576,23.891-25.393
		C98.385,21.432,64.057,2.136,64.057,2.136S30.965,21.667,30.559,33.057c-0.279,7.826,18.46,21.86,23.544,25.521
		c0.796,0.573,6.571,4.274,6.571,4.274l4.185,0.322c0,0-6.062-4.042-7.271-5.17c-5.164-4.816-18.733-18.158-18.336-24.945
		c0.529-9.041,25.125-26.091,25.125-26.091s26.004,16.866,26.088,26.091c0.07,7.621-14.414,20.75-19.598,25.205
		c-1.131,0.971-7.615,4.91-7.615,4.91L67.678,62.852z"/>
	<path fill="#FFFFFF" d="M88.748,80.418c2.664,1.826,4.297,3.709,5.357,5.543c3.688,6.365-5.609,23.439-1.293,29.393
		c1.854,2.556,9.588,0.896,12.562-0.162c1.182-0.42,3.543-2.094,3.543-2.094s-7.146-0.168-8.375-1.932
		c-3.6-5.176,2.561-19.777-0.646-25.205c-1.371-2.326-4.238-4.895-8.254-7.348c-4.629-2.832-13.219-6.234-19.207-8.23
		c-3.105-1.037-3.322-4.592-3.322-4.592l-4.346,0.52c0,0,3.825,5.527,6.518,6.558C76.975,75.039,86.229,78.693,88.748,80.418z"/>
	<path fill="#FFFFFF" d="M40.887,80.539c-2.665,1.824-4.297,3.707-5.36,5.543c-3.688,6.363,5.612,23.438,1.292,29.391
		c-1.854,2.555-9.587,0.896-12.562-0.16c-1.181-0.42-3.543-2.094-3.543-2.094s7.147-0.168,8.375-1.932
		c3.6-5.176-2.56-19.777,0.646-25.205c1.372-2.326,4.241-4.895,8.256-7.348c4.629-2.832,13.217-6.234,19.205-8.23
		c3.106-1.037,2.84-5.076,2.84-5.076l4.346,0.521c0,0-3.342,6.009-6.033,7.036C52.66,75.156,43.406,78.812,40.887,80.539z"/>
	<path fill="#FFFFFF" d="M69.369,64.461c0,0,4.32,3.725,5.082,4.324c3.684,2.904,14.498,11.818,15.059,16.773
		c1.414,12.522-24.971,43.805-24.971,43.805S37.551,98.168,38.935,85.559c0.556-5.055,11.81-14.146,15.362-16.901
		c0.67-0.521,5.896-4.195,5.896-4.195l4.185,0.323c0,0-5.825,4.245-7.284,5.611c-3.888,3.644-11.074,10.854-11.558,14.84
		c-1.35,11.121,19.326,40.425,19.326,40.425S85.13,96.295,83.703,85.236c-0.506-3.924-7.502-10.938-11.473-14.635
		c-1.594-1.486-6.564-5.817-6.564-5.817L69.369,64.461z"/>
	<path fill="#FFFFFF" d="M67.283,65.912c0,0,12.225,8.695,11.898,19.566c-0.328,10.871-11.898,19.566-11.898,19.566
		s-0.902-7.078,1.316-18.031C70.82,76.059,67.283,65.912,67.283,65.912z"/>
	<path fill="#FFFFFF" d="M61.705,65.912c0,0-12.225,8.695-11.898,19.566c0.324,10.871,11.898,19.566,11.898,19.566
		s0.902-7.078-1.317-18.031C58.166,76.059,61.705,65.912,61.705,65.912z"/>
	<path fill="#FFFFFF" d="M21.674,58.383c-0.518-1.961,0.562-3.997,2.408-4.545c2.31-0.686,4.705,0.746,5.35,3.199
		c0.807,3.064-0.877,6.246-3.764,7.104c-3.607,1.071-7.351-1.166-8.358-4.998c-1.261-4.791,1.784-8.683,6.293-10.021
		c3.522-1.047,6.646-0.197,8.875,1.512c1.339,1.025,2.356,1.9,2.946,4.145c1.971,7.484-2.145,15.249-9.189,17.341
		C17.428,74.734,8.291,69.271,5.83,59.917c-3.08-11.693,5.41-23.825,16.42-27.096c13.763-4.088,34.619,12.99,38.468,27.609
		l4.062-0.31c-4.832-17.879-26.875-36.573-44.15-31.574c-13.821,4-21.893,18.838-18.026,33.142
		c3.093,11.443,14.562,18.125,25.618,14.923c8.846-2.562,14.011-12.054,11.537-21.208c-1.979-7.323-9.318-11.601-16.396-9.553
		c-5.66,1.64-8.967,7.717-7.384,13.575c1.267,4.687,5.964,7.425,10.492,6.113c3.625-1.048,5.737-4.938,4.728-8.688
		c-0.812-3-3.816-4.75-6.716-3.912c-2.317,0.67-3.673,3.16-3.022,5.56"/>
	<path fill="#FFFFFF" d="M107.33,58.383c0.518-1.961-0.562-3.997-2.41-4.545c-2.311-0.686-4.703,0.746-5.35,3.199
		c-0.809,3.064,0.879,6.246,3.766,7.104c3.604,1.071,7.35-1.166,8.355-4.998c1.264-4.791-1.783-8.683-6.295-10.021
		c-3.521-1.047-6.646-0.197-8.875,1.512c-1.338,1.025-2.354,1.9-2.943,4.145c-1.975,7.484,2.145,15.249,9.188,17.341
		c8.808,2.614,17.941-2.849,20.404-12.203c3.08-11.693-5.411-23.825-16.42-27.096c-13.762-4.088-34.618,12.99-38.467,27.609
		l-4.062-0.31c4.83-17.879,26.875-36.573,44.152-31.574c13.818,4,21.891,18.838,18.023,33.142
		c-3.092,11.443-14.562,18.125-25.617,14.923c-8.846-2.562-14.012-12.054-11.535-21.208c1.979-7.323,9.314-11.601,16.395-9.553
		c5.66,1.64,8.967,7.717,7.383,13.575c-1.266,4.687-5.963,7.425-10.492,6.113c-3.622-1.048-5.737-4.938-4.725-8.688
		c0.809-3,3.816-4.75,6.715-3.912c2.318,0.67,3.672,3.16,3.023,5.56"/>
	<rect x="57.506" y="60.436" fill="#FFFFFF" width="14.393" height="6.923"/>
</g>
</svg>
